%TF.GenerationSoftware,KiCad,Pcbnew,9.0.7*%
%TF.CreationDate,2026-09-27T10:00:25+02:00*%
%TF.ProjectId,cartouche-usb4,63617274-6f75-4636-9865-2d757362342e,rev?*%
%TF.SameCoordinates,Original*%
%TF.FileFunction,Drillmap*%
%TF.FilePolarity,Positive*%
%FSLAX45Y45*%
G04 Gerber Fmt 4.5, Leading zero omitted, Abs format (unit mm)*
G04 Created by KiCad (PCBNEW 9.0.7) date 2026-09-27 10:00:25*
%MOMM*%
%LPD*%
G01*
G04 APERTURE LIST*
%ADD10C,0.050000*%
%ADD11C,0.200000*%
%ADD12C,0.110002*%
%ADD13C,0.160000*%
G04 APERTURE END LIST*
D10*
X14460000Y-12184381D02*
X13748119Y-12184381D01*
X15952100Y-11170541D02*
X15952100Y-12184326D01*
X15952100Y-12184326D02*
X14460000Y-12184381D01*
X13748119Y-11333192D02*
X13748744Y-11170541D01*
X13748744Y-11170541D02*
X13748744Y-8816339D01*
X13748119Y-12184381D02*
X13748119Y-11333192D01*
X15950736Y-11170541D02*
X15952100Y-11170541D01*
X13748744Y-8816339D02*
X15950736Y-8816339D01*
X15950736Y-8816339D02*
X15950736Y-11170541D01*
D11*
D12*
X13795503Y-11509617D02*
X13905505Y-11619619D01*
X13905505Y-11509617D02*
X13795503Y-11619619D01*
D13*
X15930500Y-11564618D02*
G75*
G02*
X15770500Y-11564618I-80000J0D01*
G01*
X15770500Y-11564618D02*
G75*
G02*
X15930500Y-11564618I80000J0D01*
G01*
D11*
X14006396Y-12498365D02*
X14006396Y-12298365D01*
X14006396Y-12298365D02*
X14054015Y-12298365D01*
X14054015Y-12298365D02*
X14082587Y-12307889D01*
X14082587Y-12307889D02*
X14101634Y-12326937D01*
X14101634Y-12326937D02*
X14111158Y-12345984D01*
X14111158Y-12345984D02*
X14120682Y-12384079D01*
X14120682Y-12384079D02*
X14120682Y-12412651D01*
X14120682Y-12412651D02*
X14111158Y-12450746D01*
X14111158Y-12450746D02*
X14101634Y-12469794D01*
X14101634Y-12469794D02*
X14082587Y-12488841D01*
X14082587Y-12488841D02*
X14054015Y-12498365D01*
X14054015Y-12498365D02*
X14006396Y-12498365D01*
X14206396Y-12498365D02*
X14206396Y-12365032D01*
X14206396Y-12403127D02*
X14215920Y-12384079D01*
X14215920Y-12384079D02*
X14225444Y-12374556D01*
X14225444Y-12374556D02*
X14244491Y-12365032D01*
X14244491Y-12365032D02*
X14263539Y-12365032D01*
X14330206Y-12498365D02*
X14330206Y-12365032D01*
X14330206Y-12298365D02*
X14320682Y-12307889D01*
X14320682Y-12307889D02*
X14330206Y-12317413D01*
X14330206Y-12317413D02*
X14339730Y-12307889D01*
X14339730Y-12307889D02*
X14330206Y-12298365D01*
X14330206Y-12298365D02*
X14330206Y-12317413D01*
X14454015Y-12498365D02*
X14434968Y-12488841D01*
X14434968Y-12488841D02*
X14425444Y-12469794D01*
X14425444Y-12469794D02*
X14425444Y-12298365D01*
X14558777Y-12498365D02*
X14539730Y-12488841D01*
X14539730Y-12488841D02*
X14530206Y-12469794D01*
X14530206Y-12469794D02*
X14530206Y-12298365D01*
X14787349Y-12498365D02*
X14787349Y-12298365D01*
X14787349Y-12298365D02*
X14854015Y-12441222D01*
X14854015Y-12441222D02*
X14920682Y-12298365D01*
X14920682Y-12298365D02*
X14920682Y-12498365D01*
X15101634Y-12498365D02*
X15101634Y-12393603D01*
X15101634Y-12393603D02*
X15092111Y-12374556D01*
X15092111Y-12374556D02*
X15073063Y-12365032D01*
X15073063Y-12365032D02*
X15034968Y-12365032D01*
X15034968Y-12365032D02*
X15015920Y-12374556D01*
X15101634Y-12488841D02*
X15082587Y-12498365D01*
X15082587Y-12498365D02*
X15034968Y-12498365D01*
X15034968Y-12498365D02*
X15015920Y-12488841D01*
X15015920Y-12488841D02*
X15006396Y-12469794D01*
X15006396Y-12469794D02*
X15006396Y-12450746D01*
X15006396Y-12450746D02*
X15015920Y-12431699D01*
X15015920Y-12431699D02*
X15034968Y-12422175D01*
X15034968Y-12422175D02*
X15082587Y-12422175D01*
X15082587Y-12422175D02*
X15101634Y-12412651D01*
X15196872Y-12365032D02*
X15196872Y-12565032D01*
X15196872Y-12374556D02*
X15215920Y-12365032D01*
X15215920Y-12365032D02*
X15254015Y-12365032D01*
X15254015Y-12365032D02*
X15273063Y-12374556D01*
X15273063Y-12374556D02*
X15282587Y-12384079D01*
X15282587Y-12384079D02*
X15292111Y-12403127D01*
X15292111Y-12403127D02*
X15292111Y-12460270D01*
X15292111Y-12460270D02*
X15282587Y-12479318D01*
X15282587Y-12479318D02*
X15273063Y-12488841D01*
X15273063Y-12488841D02*
X15254015Y-12498365D01*
X15254015Y-12498365D02*
X15215920Y-12498365D01*
X15215920Y-12498365D02*
X15196872Y-12488841D01*
X15377825Y-12479318D02*
X15387349Y-12488841D01*
X15387349Y-12488841D02*
X15377825Y-12498365D01*
X15377825Y-12498365D02*
X15368301Y-12488841D01*
X15368301Y-12488841D02*
X15377825Y-12479318D01*
X15377825Y-12479318D02*
X15377825Y-12498365D01*
X15377825Y-12374556D02*
X15387349Y-12384079D01*
X15387349Y-12384079D02*
X15377825Y-12393603D01*
X15377825Y-12393603D02*
X15368301Y-12384079D01*
X15368301Y-12384079D02*
X15377825Y-12374556D01*
X15377825Y-12374556D02*
X15377825Y-12393603D01*
D12*
X13635617Y-12771880D02*
X13745619Y-12881882D01*
X13745619Y-12771880D02*
X13635617Y-12881882D01*
D11*
X14111158Y-12918365D02*
X13996872Y-12918365D01*
X14054015Y-12918365D02*
X14054015Y-12718365D01*
X14054015Y-12718365D02*
X14034968Y-12746937D01*
X14034968Y-12746937D02*
X14015920Y-12765984D01*
X14015920Y-12765984D02*
X13996872Y-12775508D01*
X14196872Y-12899318D02*
X14206396Y-12908841D01*
X14206396Y-12908841D02*
X14196872Y-12918365D01*
X14196872Y-12918365D02*
X14187349Y-12908841D01*
X14187349Y-12908841D02*
X14196872Y-12899318D01*
X14196872Y-12899318D02*
X14196872Y-12918365D01*
X14396872Y-12918365D02*
X14282587Y-12918365D01*
X14339730Y-12918365D02*
X14339730Y-12718365D01*
X14339730Y-12718365D02*
X14320682Y-12746937D01*
X14320682Y-12746937D02*
X14301634Y-12765984D01*
X14301634Y-12765984D02*
X14282587Y-12775508D01*
X14520682Y-12718365D02*
X14539730Y-12718365D01*
X14539730Y-12718365D02*
X14558777Y-12727889D01*
X14558777Y-12727889D02*
X14568301Y-12737413D01*
X14568301Y-12737413D02*
X14577825Y-12756460D01*
X14577825Y-12756460D02*
X14587349Y-12794556D01*
X14587349Y-12794556D02*
X14587349Y-12842175D01*
X14587349Y-12842175D02*
X14577825Y-12880270D01*
X14577825Y-12880270D02*
X14568301Y-12899318D01*
X14568301Y-12899318D02*
X14558777Y-12908841D01*
X14558777Y-12908841D02*
X14539730Y-12918365D01*
X14539730Y-12918365D02*
X14520682Y-12918365D01*
X14520682Y-12918365D02*
X14501634Y-12908841D01*
X14501634Y-12908841D02*
X14492111Y-12899318D01*
X14492111Y-12899318D02*
X14482587Y-12880270D01*
X14482587Y-12880270D02*
X14473063Y-12842175D01*
X14473063Y-12842175D02*
X14473063Y-12794556D01*
X14473063Y-12794556D02*
X14482587Y-12756460D01*
X14482587Y-12756460D02*
X14492111Y-12737413D01*
X14492111Y-12737413D02*
X14501634Y-12727889D01*
X14501634Y-12727889D02*
X14520682Y-12718365D01*
X14711158Y-12718365D02*
X14730206Y-12718365D01*
X14730206Y-12718365D02*
X14749253Y-12727889D01*
X14749253Y-12727889D02*
X14758777Y-12737413D01*
X14758777Y-12737413D02*
X14768301Y-12756460D01*
X14768301Y-12756460D02*
X14777825Y-12794556D01*
X14777825Y-12794556D02*
X14777825Y-12842175D01*
X14777825Y-12842175D02*
X14768301Y-12880270D01*
X14768301Y-12880270D02*
X14758777Y-12899318D01*
X14758777Y-12899318D02*
X14749253Y-12908841D01*
X14749253Y-12908841D02*
X14730206Y-12918365D01*
X14730206Y-12918365D02*
X14711158Y-12918365D01*
X14711158Y-12918365D02*
X14692111Y-12908841D01*
X14692111Y-12908841D02*
X14682587Y-12899318D01*
X14682587Y-12899318D02*
X14673063Y-12880270D01*
X14673063Y-12880270D02*
X14663539Y-12842175D01*
X14663539Y-12842175D02*
X14663539Y-12794556D01*
X14663539Y-12794556D02*
X14673063Y-12756460D01*
X14673063Y-12756460D02*
X14682587Y-12737413D01*
X14682587Y-12737413D02*
X14692111Y-12727889D01*
X14692111Y-12727889D02*
X14711158Y-12718365D01*
X14863539Y-12918365D02*
X14863539Y-12785032D01*
X14863539Y-12804079D02*
X14873063Y-12794556D01*
X14873063Y-12794556D02*
X14892111Y-12785032D01*
X14892111Y-12785032D02*
X14920682Y-12785032D01*
X14920682Y-12785032D02*
X14939730Y-12794556D01*
X14939730Y-12794556D02*
X14949253Y-12813603D01*
X14949253Y-12813603D02*
X14949253Y-12918365D01*
X14949253Y-12813603D02*
X14958777Y-12794556D01*
X14958777Y-12794556D02*
X14977825Y-12785032D01*
X14977825Y-12785032D02*
X15006396Y-12785032D01*
X15006396Y-12785032D02*
X15025444Y-12794556D01*
X15025444Y-12794556D02*
X15034968Y-12813603D01*
X15034968Y-12813603D02*
X15034968Y-12918365D01*
X15130206Y-12918365D02*
X15130206Y-12785032D01*
X15130206Y-12804079D02*
X15139730Y-12794556D01*
X15139730Y-12794556D02*
X15158777Y-12785032D01*
X15158777Y-12785032D02*
X15187349Y-12785032D01*
X15187349Y-12785032D02*
X15206396Y-12794556D01*
X15206396Y-12794556D02*
X15215920Y-12813603D01*
X15215920Y-12813603D02*
X15215920Y-12918365D01*
X15215920Y-12813603D02*
X15225444Y-12794556D01*
X15225444Y-12794556D02*
X15244492Y-12785032D01*
X15244492Y-12785032D02*
X15273063Y-12785032D01*
X15273063Y-12785032D02*
X15292111Y-12794556D01*
X15292111Y-12794556D02*
X15301634Y-12813603D01*
X15301634Y-12813603D02*
X15301634Y-12918365D01*
X15692111Y-12708841D02*
X15520682Y-12965984D01*
X15949254Y-12718365D02*
X15968301Y-12718365D01*
X15968301Y-12718365D02*
X15987349Y-12727889D01*
X15987349Y-12727889D02*
X15996873Y-12737413D01*
X15996873Y-12737413D02*
X16006396Y-12756460D01*
X16006396Y-12756460D02*
X16015920Y-12794556D01*
X16015920Y-12794556D02*
X16015920Y-12842175D01*
X16015920Y-12842175D02*
X16006396Y-12880270D01*
X16006396Y-12880270D02*
X15996873Y-12899318D01*
X15996873Y-12899318D02*
X15987349Y-12908841D01*
X15987349Y-12908841D02*
X15968301Y-12918365D01*
X15968301Y-12918365D02*
X15949254Y-12918365D01*
X15949254Y-12918365D02*
X15930206Y-12908841D01*
X15930206Y-12908841D02*
X15920682Y-12899318D01*
X15920682Y-12899318D02*
X15911158Y-12880270D01*
X15911158Y-12880270D02*
X15901635Y-12842175D01*
X15901635Y-12842175D02*
X15901635Y-12794556D01*
X15901635Y-12794556D02*
X15911158Y-12756460D01*
X15911158Y-12756460D02*
X15920682Y-12737413D01*
X15920682Y-12737413D02*
X15930206Y-12727889D01*
X15930206Y-12727889D02*
X15949254Y-12718365D01*
X16101635Y-12899318D02*
X16111158Y-12908841D01*
X16111158Y-12908841D02*
X16101635Y-12918365D01*
X16101635Y-12918365D02*
X16092111Y-12908841D01*
X16092111Y-12908841D02*
X16101635Y-12899318D01*
X16101635Y-12899318D02*
X16101635Y-12918365D01*
X16234968Y-12718365D02*
X16254016Y-12718365D01*
X16254016Y-12718365D02*
X16273063Y-12727889D01*
X16273063Y-12727889D02*
X16282587Y-12737413D01*
X16282587Y-12737413D02*
X16292111Y-12756460D01*
X16292111Y-12756460D02*
X16301635Y-12794556D01*
X16301635Y-12794556D02*
X16301635Y-12842175D01*
X16301635Y-12842175D02*
X16292111Y-12880270D01*
X16292111Y-12880270D02*
X16282587Y-12899318D01*
X16282587Y-12899318D02*
X16273063Y-12908841D01*
X16273063Y-12908841D02*
X16254016Y-12918365D01*
X16254016Y-12918365D02*
X16234968Y-12918365D01*
X16234968Y-12918365D02*
X16215920Y-12908841D01*
X16215920Y-12908841D02*
X16206396Y-12899318D01*
X16206396Y-12899318D02*
X16196873Y-12880270D01*
X16196873Y-12880270D02*
X16187349Y-12842175D01*
X16187349Y-12842175D02*
X16187349Y-12794556D01*
X16187349Y-12794556D02*
X16196873Y-12756460D01*
X16196873Y-12756460D02*
X16206396Y-12737413D01*
X16206396Y-12737413D02*
X16215920Y-12727889D01*
X16215920Y-12727889D02*
X16234968Y-12718365D01*
X16473063Y-12785032D02*
X16473063Y-12918365D01*
X16425444Y-12708841D02*
X16377825Y-12851699D01*
X16377825Y-12851699D02*
X16501635Y-12851699D01*
X16558777Y-12718365D02*
X16682587Y-12718365D01*
X16682587Y-12718365D02*
X16615920Y-12794556D01*
X16615920Y-12794556D02*
X16644492Y-12794556D01*
X16644492Y-12794556D02*
X16663539Y-12804079D01*
X16663539Y-12804079D02*
X16673063Y-12813603D01*
X16673063Y-12813603D02*
X16682587Y-12832651D01*
X16682587Y-12832651D02*
X16682587Y-12880270D01*
X16682587Y-12880270D02*
X16673063Y-12899318D01*
X16673063Y-12899318D02*
X16663539Y-12908841D01*
X16663539Y-12908841D02*
X16644492Y-12918365D01*
X16644492Y-12918365D02*
X16587349Y-12918365D01*
X16587349Y-12918365D02*
X16568301Y-12908841D01*
X16568301Y-12908841D02*
X16558777Y-12899318D01*
X16749254Y-12718365D02*
X16873063Y-12718365D01*
X16873063Y-12718365D02*
X16806397Y-12794556D01*
X16806397Y-12794556D02*
X16834968Y-12794556D01*
X16834968Y-12794556D02*
X16854016Y-12804079D01*
X16854016Y-12804079D02*
X16863539Y-12813603D01*
X16863539Y-12813603D02*
X16873063Y-12832651D01*
X16873063Y-12832651D02*
X16873063Y-12880270D01*
X16873063Y-12880270D02*
X16863539Y-12899318D01*
X16863539Y-12899318D02*
X16854016Y-12908841D01*
X16854016Y-12908841D02*
X16834968Y-12918365D01*
X16834968Y-12918365D02*
X16777825Y-12918365D01*
X16777825Y-12918365D02*
X16758777Y-12908841D01*
X16758777Y-12908841D02*
X16749254Y-12899318D01*
X16949254Y-12718365D02*
X16949254Y-12756460D01*
X17025444Y-12718365D02*
X17025444Y-12756460D01*
X17320682Y-12994556D02*
X17311159Y-12985032D01*
X17311159Y-12985032D02*
X17292111Y-12956460D01*
X17292111Y-12956460D02*
X17282587Y-12937413D01*
X17282587Y-12937413D02*
X17273063Y-12908841D01*
X17273063Y-12908841D02*
X17263540Y-12861222D01*
X17263540Y-12861222D02*
X17263540Y-12823127D01*
X17263540Y-12823127D02*
X17273063Y-12775508D01*
X17273063Y-12775508D02*
X17282587Y-12746937D01*
X17282587Y-12746937D02*
X17292111Y-12727889D01*
X17292111Y-12727889D02*
X17311159Y-12699318D01*
X17311159Y-12699318D02*
X17320682Y-12689794D01*
X17501635Y-12918365D02*
X17387349Y-12918365D01*
X17444492Y-12918365D02*
X17444492Y-12718365D01*
X17444492Y-12718365D02*
X17425444Y-12746937D01*
X17425444Y-12746937D02*
X17406397Y-12765984D01*
X17406397Y-12765984D02*
X17387349Y-12775508D01*
X17739730Y-12918365D02*
X17739730Y-12718365D01*
X17825444Y-12918365D02*
X17825444Y-12813603D01*
X17825444Y-12813603D02*
X17815921Y-12794556D01*
X17815921Y-12794556D02*
X17796873Y-12785032D01*
X17796873Y-12785032D02*
X17768301Y-12785032D01*
X17768301Y-12785032D02*
X17749254Y-12794556D01*
X17749254Y-12794556D02*
X17739730Y-12804079D01*
X17949254Y-12918365D02*
X17930206Y-12908841D01*
X17930206Y-12908841D02*
X17920682Y-12899318D01*
X17920682Y-12899318D02*
X17911159Y-12880270D01*
X17911159Y-12880270D02*
X17911159Y-12823127D01*
X17911159Y-12823127D02*
X17920682Y-12804079D01*
X17920682Y-12804079D02*
X17930206Y-12794556D01*
X17930206Y-12794556D02*
X17949254Y-12785032D01*
X17949254Y-12785032D02*
X17977825Y-12785032D01*
X17977825Y-12785032D02*
X17996873Y-12794556D01*
X17996873Y-12794556D02*
X18006397Y-12804079D01*
X18006397Y-12804079D02*
X18015921Y-12823127D01*
X18015921Y-12823127D02*
X18015921Y-12880270D01*
X18015921Y-12880270D02*
X18006397Y-12899318D01*
X18006397Y-12899318D02*
X17996873Y-12908841D01*
X17996873Y-12908841D02*
X17977825Y-12918365D01*
X17977825Y-12918365D02*
X17949254Y-12918365D01*
X18130206Y-12918365D02*
X18111159Y-12908841D01*
X18111159Y-12908841D02*
X18101635Y-12889794D01*
X18101635Y-12889794D02*
X18101635Y-12718365D01*
X18282587Y-12908841D02*
X18263540Y-12918365D01*
X18263540Y-12918365D02*
X18225444Y-12918365D01*
X18225444Y-12918365D02*
X18206397Y-12908841D01*
X18206397Y-12908841D02*
X18196873Y-12889794D01*
X18196873Y-12889794D02*
X18196873Y-12813603D01*
X18196873Y-12813603D02*
X18206397Y-12794556D01*
X18206397Y-12794556D02*
X18225444Y-12785032D01*
X18225444Y-12785032D02*
X18263540Y-12785032D01*
X18263540Y-12785032D02*
X18282587Y-12794556D01*
X18282587Y-12794556D02*
X18292111Y-12813603D01*
X18292111Y-12813603D02*
X18292111Y-12832651D01*
X18292111Y-12832651D02*
X18196873Y-12851699D01*
X18358778Y-12994556D02*
X18368302Y-12985032D01*
X18368302Y-12985032D02*
X18387349Y-12956460D01*
X18387349Y-12956460D02*
X18396873Y-12937413D01*
X18396873Y-12937413D02*
X18406397Y-12908841D01*
X18406397Y-12908841D02*
X18415921Y-12861222D01*
X18415921Y-12861222D02*
X18415921Y-12823127D01*
X18415921Y-12823127D02*
X18406397Y-12775508D01*
X18406397Y-12775508D02*
X18396873Y-12746937D01*
X18396873Y-12746937D02*
X18387349Y-12727889D01*
X18387349Y-12727889D02*
X18368302Y-12699318D01*
X18368302Y-12699318D02*
X18358778Y-12689794D01*
X18720683Y-12994556D02*
X18711159Y-12985032D01*
X18711159Y-12985032D02*
X18692111Y-12956460D01*
X18692111Y-12956460D02*
X18682587Y-12937413D01*
X18682587Y-12937413D02*
X18673063Y-12908841D01*
X18673063Y-12908841D02*
X18663540Y-12861222D01*
X18663540Y-12861222D02*
X18663540Y-12823127D01*
X18663540Y-12823127D02*
X18673063Y-12775508D01*
X18673063Y-12775508D02*
X18682587Y-12746937D01*
X18682587Y-12746937D02*
X18692111Y-12727889D01*
X18692111Y-12727889D02*
X18711159Y-12699318D01*
X18711159Y-12699318D02*
X18720683Y-12689794D01*
X18796873Y-12785032D02*
X18796873Y-12918365D01*
X18796873Y-12804079D02*
X18806397Y-12794556D01*
X18806397Y-12794556D02*
X18825444Y-12785032D01*
X18825444Y-12785032D02*
X18854016Y-12785032D01*
X18854016Y-12785032D02*
X18873063Y-12794556D01*
X18873063Y-12794556D02*
X18882587Y-12813603D01*
X18882587Y-12813603D02*
X18882587Y-12918365D01*
X19006397Y-12918365D02*
X18987349Y-12908841D01*
X18987349Y-12908841D02*
X18977825Y-12899318D01*
X18977825Y-12899318D02*
X18968302Y-12880270D01*
X18968302Y-12880270D02*
X18968302Y-12823127D01*
X18968302Y-12823127D02*
X18977825Y-12804079D01*
X18977825Y-12804079D02*
X18987349Y-12794556D01*
X18987349Y-12794556D02*
X19006397Y-12785032D01*
X19006397Y-12785032D02*
X19034968Y-12785032D01*
X19034968Y-12785032D02*
X19054016Y-12794556D01*
X19054016Y-12794556D02*
X19063540Y-12804079D01*
X19063540Y-12804079D02*
X19073063Y-12823127D01*
X19073063Y-12823127D02*
X19073063Y-12880270D01*
X19073063Y-12880270D02*
X19063540Y-12899318D01*
X19063540Y-12899318D02*
X19054016Y-12908841D01*
X19054016Y-12908841D02*
X19034968Y-12918365D01*
X19034968Y-12918365D02*
X19006397Y-12918365D01*
X19130206Y-12785032D02*
X19206397Y-12785032D01*
X19158778Y-12718365D02*
X19158778Y-12889794D01*
X19158778Y-12889794D02*
X19168302Y-12908841D01*
X19168302Y-12908841D02*
X19187349Y-12918365D01*
X19187349Y-12918365D02*
X19206397Y-12918365D01*
X19425444Y-12785032D02*
X19425444Y-12985032D01*
X19425444Y-12794556D02*
X19444492Y-12785032D01*
X19444492Y-12785032D02*
X19482587Y-12785032D01*
X19482587Y-12785032D02*
X19501635Y-12794556D01*
X19501635Y-12794556D02*
X19511159Y-12804079D01*
X19511159Y-12804079D02*
X19520683Y-12823127D01*
X19520683Y-12823127D02*
X19520683Y-12880270D01*
X19520683Y-12880270D02*
X19511159Y-12899318D01*
X19511159Y-12899318D02*
X19501635Y-12908841D01*
X19501635Y-12908841D02*
X19482587Y-12918365D01*
X19482587Y-12918365D02*
X19444492Y-12918365D01*
X19444492Y-12918365D02*
X19425444Y-12908841D01*
X19634968Y-12918365D02*
X19615921Y-12908841D01*
X19615921Y-12908841D02*
X19606397Y-12889794D01*
X19606397Y-12889794D02*
X19606397Y-12718365D01*
X19796873Y-12918365D02*
X19796873Y-12813603D01*
X19796873Y-12813603D02*
X19787349Y-12794556D01*
X19787349Y-12794556D02*
X19768302Y-12785032D01*
X19768302Y-12785032D02*
X19730206Y-12785032D01*
X19730206Y-12785032D02*
X19711159Y-12794556D01*
X19796873Y-12908841D02*
X19777825Y-12918365D01*
X19777825Y-12918365D02*
X19730206Y-12918365D01*
X19730206Y-12918365D02*
X19711159Y-12908841D01*
X19711159Y-12908841D02*
X19701635Y-12889794D01*
X19701635Y-12889794D02*
X19701635Y-12870746D01*
X19701635Y-12870746D02*
X19711159Y-12851699D01*
X19711159Y-12851699D02*
X19730206Y-12842175D01*
X19730206Y-12842175D02*
X19777825Y-12842175D01*
X19777825Y-12842175D02*
X19796873Y-12832651D01*
X19863540Y-12785032D02*
X19939730Y-12785032D01*
X19892111Y-12718365D02*
X19892111Y-12889794D01*
X19892111Y-12889794D02*
X19901635Y-12908841D01*
X19901635Y-12908841D02*
X19920683Y-12918365D01*
X19920683Y-12918365D02*
X19939730Y-12918365D01*
X20082587Y-12908841D02*
X20063540Y-12918365D01*
X20063540Y-12918365D02*
X20025444Y-12918365D01*
X20025444Y-12918365D02*
X20006397Y-12908841D01*
X20006397Y-12908841D02*
X19996873Y-12889794D01*
X19996873Y-12889794D02*
X19996873Y-12813603D01*
X19996873Y-12813603D02*
X20006397Y-12794556D01*
X20006397Y-12794556D02*
X20025444Y-12785032D01*
X20025444Y-12785032D02*
X20063540Y-12785032D01*
X20063540Y-12785032D02*
X20082587Y-12794556D01*
X20082587Y-12794556D02*
X20092111Y-12813603D01*
X20092111Y-12813603D02*
X20092111Y-12832651D01*
X20092111Y-12832651D02*
X19996873Y-12851699D01*
X20263540Y-12918365D02*
X20263540Y-12718365D01*
X20263540Y-12908841D02*
X20244492Y-12918365D01*
X20244492Y-12918365D02*
X20206397Y-12918365D01*
X20206397Y-12918365D02*
X20187349Y-12908841D01*
X20187349Y-12908841D02*
X20177825Y-12899318D01*
X20177825Y-12899318D02*
X20168302Y-12880270D01*
X20168302Y-12880270D02*
X20168302Y-12823127D01*
X20168302Y-12823127D02*
X20177825Y-12804079D01*
X20177825Y-12804079D02*
X20187349Y-12794556D01*
X20187349Y-12794556D02*
X20206397Y-12785032D01*
X20206397Y-12785032D02*
X20244492Y-12785032D01*
X20244492Y-12785032D02*
X20263540Y-12794556D01*
X20339730Y-12994556D02*
X20349254Y-12985032D01*
X20349254Y-12985032D02*
X20368302Y-12956460D01*
X20368302Y-12956460D02*
X20377825Y-12937413D01*
X20377825Y-12937413D02*
X20387349Y-12908841D01*
X20387349Y-12908841D02*
X20396873Y-12861222D01*
X20396873Y-12861222D02*
X20396873Y-12823127D01*
X20396873Y-12823127D02*
X20387349Y-12775508D01*
X20387349Y-12775508D02*
X20377825Y-12746937D01*
X20377825Y-12746937D02*
X20368302Y-12727889D01*
X20368302Y-12727889D02*
X20349254Y-12699318D01*
X20349254Y-12699318D02*
X20339730Y-12689794D01*
D13*
X13745619Y-13090881D02*
G75*
G02*
X13585619Y-13090881I-80000J0D01*
G01*
X13585619Y-13090881D02*
G75*
G02*
X13745619Y-13090881I80000J0D01*
G01*
D11*
X14111158Y-13182365D02*
X13996872Y-13182365D01*
X14054015Y-13182365D02*
X14054015Y-12982365D01*
X14054015Y-12982365D02*
X14034968Y-13010937D01*
X14034968Y-13010937D02*
X14015920Y-13029984D01*
X14015920Y-13029984D02*
X13996872Y-13039508D01*
X14196872Y-13163318D02*
X14206396Y-13172841D01*
X14206396Y-13172841D02*
X14196872Y-13182365D01*
X14196872Y-13182365D02*
X14187349Y-13172841D01*
X14187349Y-13172841D02*
X14196872Y-13163318D01*
X14196872Y-13163318D02*
X14196872Y-13182365D01*
X14377825Y-12982365D02*
X14339730Y-12982365D01*
X14339730Y-12982365D02*
X14320682Y-12991889D01*
X14320682Y-12991889D02*
X14311158Y-13001413D01*
X14311158Y-13001413D02*
X14292111Y-13029984D01*
X14292111Y-13029984D02*
X14282587Y-13068079D01*
X14282587Y-13068079D02*
X14282587Y-13144270D01*
X14282587Y-13144270D02*
X14292111Y-13163318D01*
X14292111Y-13163318D02*
X14301634Y-13172841D01*
X14301634Y-13172841D02*
X14320682Y-13182365D01*
X14320682Y-13182365D02*
X14358777Y-13182365D01*
X14358777Y-13182365D02*
X14377825Y-13172841D01*
X14377825Y-13172841D02*
X14387349Y-13163318D01*
X14387349Y-13163318D02*
X14396872Y-13144270D01*
X14396872Y-13144270D02*
X14396872Y-13096651D01*
X14396872Y-13096651D02*
X14387349Y-13077603D01*
X14387349Y-13077603D02*
X14377825Y-13068079D01*
X14377825Y-13068079D02*
X14358777Y-13058556D01*
X14358777Y-13058556D02*
X14320682Y-13058556D01*
X14320682Y-13058556D02*
X14301634Y-13068079D01*
X14301634Y-13068079D02*
X14292111Y-13077603D01*
X14292111Y-13077603D02*
X14282587Y-13096651D01*
X14520682Y-12982365D02*
X14539730Y-12982365D01*
X14539730Y-12982365D02*
X14558777Y-12991889D01*
X14558777Y-12991889D02*
X14568301Y-13001413D01*
X14568301Y-13001413D02*
X14577825Y-13020460D01*
X14577825Y-13020460D02*
X14587349Y-13058556D01*
X14587349Y-13058556D02*
X14587349Y-13106175D01*
X14587349Y-13106175D02*
X14577825Y-13144270D01*
X14577825Y-13144270D02*
X14568301Y-13163318D01*
X14568301Y-13163318D02*
X14558777Y-13172841D01*
X14558777Y-13172841D02*
X14539730Y-13182365D01*
X14539730Y-13182365D02*
X14520682Y-13182365D01*
X14520682Y-13182365D02*
X14501634Y-13172841D01*
X14501634Y-13172841D02*
X14492111Y-13163318D01*
X14492111Y-13163318D02*
X14482587Y-13144270D01*
X14482587Y-13144270D02*
X14473063Y-13106175D01*
X14473063Y-13106175D02*
X14473063Y-13058556D01*
X14473063Y-13058556D02*
X14482587Y-13020460D01*
X14482587Y-13020460D02*
X14492111Y-13001413D01*
X14492111Y-13001413D02*
X14501634Y-12991889D01*
X14501634Y-12991889D02*
X14520682Y-12982365D01*
X14711158Y-12982365D02*
X14730206Y-12982365D01*
X14730206Y-12982365D02*
X14749253Y-12991889D01*
X14749253Y-12991889D02*
X14758777Y-13001413D01*
X14758777Y-13001413D02*
X14768301Y-13020460D01*
X14768301Y-13020460D02*
X14777825Y-13058556D01*
X14777825Y-13058556D02*
X14777825Y-13106175D01*
X14777825Y-13106175D02*
X14768301Y-13144270D01*
X14768301Y-13144270D02*
X14758777Y-13163318D01*
X14758777Y-13163318D02*
X14749253Y-13172841D01*
X14749253Y-13172841D02*
X14730206Y-13182365D01*
X14730206Y-13182365D02*
X14711158Y-13182365D01*
X14711158Y-13182365D02*
X14692111Y-13172841D01*
X14692111Y-13172841D02*
X14682587Y-13163318D01*
X14682587Y-13163318D02*
X14673063Y-13144270D01*
X14673063Y-13144270D02*
X14663539Y-13106175D01*
X14663539Y-13106175D02*
X14663539Y-13058556D01*
X14663539Y-13058556D02*
X14673063Y-13020460D01*
X14673063Y-13020460D02*
X14682587Y-13001413D01*
X14682587Y-13001413D02*
X14692111Y-12991889D01*
X14692111Y-12991889D02*
X14711158Y-12982365D01*
X14863539Y-13182365D02*
X14863539Y-13049032D01*
X14863539Y-13068079D02*
X14873063Y-13058556D01*
X14873063Y-13058556D02*
X14892111Y-13049032D01*
X14892111Y-13049032D02*
X14920682Y-13049032D01*
X14920682Y-13049032D02*
X14939730Y-13058556D01*
X14939730Y-13058556D02*
X14949253Y-13077603D01*
X14949253Y-13077603D02*
X14949253Y-13182365D01*
X14949253Y-13077603D02*
X14958777Y-13058556D01*
X14958777Y-13058556D02*
X14977825Y-13049032D01*
X14977825Y-13049032D02*
X15006396Y-13049032D01*
X15006396Y-13049032D02*
X15025444Y-13058556D01*
X15025444Y-13058556D02*
X15034968Y-13077603D01*
X15034968Y-13077603D02*
X15034968Y-13182365D01*
X15130206Y-13182365D02*
X15130206Y-13049032D01*
X15130206Y-13068079D02*
X15139730Y-13058556D01*
X15139730Y-13058556D02*
X15158777Y-13049032D01*
X15158777Y-13049032D02*
X15187349Y-13049032D01*
X15187349Y-13049032D02*
X15206396Y-13058556D01*
X15206396Y-13058556D02*
X15215920Y-13077603D01*
X15215920Y-13077603D02*
X15215920Y-13182365D01*
X15215920Y-13077603D02*
X15225444Y-13058556D01*
X15225444Y-13058556D02*
X15244492Y-13049032D01*
X15244492Y-13049032D02*
X15273063Y-13049032D01*
X15273063Y-13049032D02*
X15292111Y-13058556D01*
X15292111Y-13058556D02*
X15301634Y-13077603D01*
X15301634Y-13077603D02*
X15301634Y-13182365D01*
X15692111Y-12972841D02*
X15520682Y-13229984D01*
X15949254Y-12982365D02*
X15968301Y-12982365D01*
X15968301Y-12982365D02*
X15987349Y-12991889D01*
X15987349Y-12991889D02*
X15996873Y-13001413D01*
X15996873Y-13001413D02*
X16006396Y-13020460D01*
X16006396Y-13020460D02*
X16015920Y-13058556D01*
X16015920Y-13058556D02*
X16015920Y-13106175D01*
X16015920Y-13106175D02*
X16006396Y-13144270D01*
X16006396Y-13144270D02*
X15996873Y-13163318D01*
X15996873Y-13163318D02*
X15987349Y-13172841D01*
X15987349Y-13172841D02*
X15968301Y-13182365D01*
X15968301Y-13182365D02*
X15949254Y-13182365D01*
X15949254Y-13182365D02*
X15930206Y-13172841D01*
X15930206Y-13172841D02*
X15920682Y-13163318D01*
X15920682Y-13163318D02*
X15911158Y-13144270D01*
X15911158Y-13144270D02*
X15901635Y-13106175D01*
X15901635Y-13106175D02*
X15901635Y-13058556D01*
X15901635Y-13058556D02*
X15911158Y-13020460D01*
X15911158Y-13020460D02*
X15920682Y-13001413D01*
X15920682Y-13001413D02*
X15930206Y-12991889D01*
X15930206Y-12991889D02*
X15949254Y-12982365D01*
X16101635Y-13163318D02*
X16111158Y-13172841D01*
X16111158Y-13172841D02*
X16101635Y-13182365D01*
X16101635Y-13182365D02*
X16092111Y-13172841D01*
X16092111Y-13172841D02*
X16101635Y-13163318D01*
X16101635Y-13163318D02*
X16101635Y-13182365D01*
X16234968Y-12982365D02*
X16254016Y-12982365D01*
X16254016Y-12982365D02*
X16273063Y-12991889D01*
X16273063Y-12991889D02*
X16282587Y-13001413D01*
X16282587Y-13001413D02*
X16292111Y-13020460D01*
X16292111Y-13020460D02*
X16301635Y-13058556D01*
X16301635Y-13058556D02*
X16301635Y-13106175D01*
X16301635Y-13106175D02*
X16292111Y-13144270D01*
X16292111Y-13144270D02*
X16282587Y-13163318D01*
X16282587Y-13163318D02*
X16273063Y-13172841D01*
X16273063Y-13172841D02*
X16254016Y-13182365D01*
X16254016Y-13182365D02*
X16234968Y-13182365D01*
X16234968Y-13182365D02*
X16215920Y-13172841D01*
X16215920Y-13172841D02*
X16206396Y-13163318D01*
X16206396Y-13163318D02*
X16196873Y-13144270D01*
X16196873Y-13144270D02*
X16187349Y-13106175D01*
X16187349Y-13106175D02*
X16187349Y-13058556D01*
X16187349Y-13058556D02*
X16196873Y-13020460D01*
X16196873Y-13020460D02*
X16206396Y-13001413D01*
X16206396Y-13001413D02*
X16215920Y-12991889D01*
X16215920Y-12991889D02*
X16234968Y-12982365D01*
X16473063Y-12982365D02*
X16434968Y-12982365D01*
X16434968Y-12982365D02*
X16415920Y-12991889D01*
X16415920Y-12991889D02*
X16406396Y-13001413D01*
X16406396Y-13001413D02*
X16387349Y-13029984D01*
X16387349Y-13029984D02*
X16377825Y-13068079D01*
X16377825Y-13068079D02*
X16377825Y-13144270D01*
X16377825Y-13144270D02*
X16387349Y-13163318D01*
X16387349Y-13163318D02*
X16396873Y-13172841D01*
X16396873Y-13172841D02*
X16415920Y-13182365D01*
X16415920Y-13182365D02*
X16454016Y-13182365D01*
X16454016Y-13182365D02*
X16473063Y-13172841D01*
X16473063Y-13172841D02*
X16482587Y-13163318D01*
X16482587Y-13163318D02*
X16492111Y-13144270D01*
X16492111Y-13144270D02*
X16492111Y-13096651D01*
X16492111Y-13096651D02*
X16482587Y-13077603D01*
X16482587Y-13077603D02*
X16473063Y-13068079D01*
X16473063Y-13068079D02*
X16454016Y-13058556D01*
X16454016Y-13058556D02*
X16415920Y-13058556D01*
X16415920Y-13058556D02*
X16396873Y-13068079D01*
X16396873Y-13068079D02*
X16387349Y-13077603D01*
X16387349Y-13077603D02*
X16377825Y-13096651D01*
X16558777Y-12982365D02*
X16682587Y-12982365D01*
X16682587Y-12982365D02*
X16615920Y-13058556D01*
X16615920Y-13058556D02*
X16644492Y-13058556D01*
X16644492Y-13058556D02*
X16663539Y-13068079D01*
X16663539Y-13068079D02*
X16673063Y-13077603D01*
X16673063Y-13077603D02*
X16682587Y-13096651D01*
X16682587Y-13096651D02*
X16682587Y-13144270D01*
X16682587Y-13144270D02*
X16673063Y-13163318D01*
X16673063Y-13163318D02*
X16663539Y-13172841D01*
X16663539Y-13172841D02*
X16644492Y-13182365D01*
X16644492Y-13182365D02*
X16587349Y-13182365D01*
X16587349Y-13182365D02*
X16568301Y-13172841D01*
X16568301Y-13172841D02*
X16558777Y-13163318D01*
X16806397Y-12982365D02*
X16825444Y-12982365D01*
X16825444Y-12982365D02*
X16844492Y-12991889D01*
X16844492Y-12991889D02*
X16854016Y-13001413D01*
X16854016Y-13001413D02*
X16863539Y-13020460D01*
X16863539Y-13020460D02*
X16873063Y-13058556D01*
X16873063Y-13058556D02*
X16873063Y-13106175D01*
X16873063Y-13106175D02*
X16863539Y-13144270D01*
X16863539Y-13144270D02*
X16854016Y-13163318D01*
X16854016Y-13163318D02*
X16844492Y-13172841D01*
X16844492Y-13172841D02*
X16825444Y-13182365D01*
X16825444Y-13182365D02*
X16806397Y-13182365D01*
X16806397Y-13182365D02*
X16787349Y-13172841D01*
X16787349Y-13172841D02*
X16777825Y-13163318D01*
X16777825Y-13163318D02*
X16768301Y-13144270D01*
X16768301Y-13144270D02*
X16758777Y-13106175D01*
X16758777Y-13106175D02*
X16758777Y-13058556D01*
X16758777Y-13058556D02*
X16768301Y-13020460D01*
X16768301Y-13020460D02*
X16777825Y-13001413D01*
X16777825Y-13001413D02*
X16787349Y-12991889D01*
X16787349Y-12991889D02*
X16806397Y-12982365D01*
X16949254Y-12982365D02*
X16949254Y-13020460D01*
X17025444Y-12982365D02*
X17025444Y-13020460D01*
X17320682Y-13258556D02*
X17311159Y-13249032D01*
X17311159Y-13249032D02*
X17292111Y-13220460D01*
X17292111Y-13220460D02*
X17282587Y-13201413D01*
X17282587Y-13201413D02*
X17273063Y-13172841D01*
X17273063Y-13172841D02*
X17263540Y-13125222D01*
X17263540Y-13125222D02*
X17263540Y-13087127D01*
X17263540Y-13087127D02*
X17273063Y-13039508D01*
X17273063Y-13039508D02*
X17282587Y-13010937D01*
X17282587Y-13010937D02*
X17292111Y-12991889D01*
X17292111Y-12991889D02*
X17311159Y-12963318D01*
X17311159Y-12963318D02*
X17320682Y-12953794D01*
X17501635Y-13182365D02*
X17387349Y-13182365D01*
X17444492Y-13182365D02*
X17444492Y-12982365D01*
X17444492Y-12982365D02*
X17425444Y-13010937D01*
X17425444Y-13010937D02*
X17406397Y-13029984D01*
X17406397Y-13029984D02*
X17387349Y-13039508D01*
X17739730Y-13182365D02*
X17739730Y-12982365D01*
X17825444Y-13182365D02*
X17825444Y-13077603D01*
X17825444Y-13077603D02*
X17815921Y-13058556D01*
X17815921Y-13058556D02*
X17796873Y-13049032D01*
X17796873Y-13049032D02*
X17768301Y-13049032D01*
X17768301Y-13049032D02*
X17749254Y-13058556D01*
X17749254Y-13058556D02*
X17739730Y-13068079D01*
X17949254Y-13182365D02*
X17930206Y-13172841D01*
X17930206Y-13172841D02*
X17920682Y-13163318D01*
X17920682Y-13163318D02*
X17911159Y-13144270D01*
X17911159Y-13144270D02*
X17911159Y-13087127D01*
X17911159Y-13087127D02*
X17920682Y-13068079D01*
X17920682Y-13068079D02*
X17930206Y-13058556D01*
X17930206Y-13058556D02*
X17949254Y-13049032D01*
X17949254Y-13049032D02*
X17977825Y-13049032D01*
X17977825Y-13049032D02*
X17996873Y-13058556D01*
X17996873Y-13058556D02*
X18006397Y-13068079D01*
X18006397Y-13068079D02*
X18015921Y-13087127D01*
X18015921Y-13087127D02*
X18015921Y-13144270D01*
X18015921Y-13144270D02*
X18006397Y-13163318D01*
X18006397Y-13163318D02*
X17996873Y-13172841D01*
X17996873Y-13172841D02*
X17977825Y-13182365D01*
X17977825Y-13182365D02*
X17949254Y-13182365D01*
X18130206Y-13182365D02*
X18111159Y-13172841D01*
X18111159Y-13172841D02*
X18101635Y-13153794D01*
X18101635Y-13153794D02*
X18101635Y-12982365D01*
X18282587Y-13172841D02*
X18263540Y-13182365D01*
X18263540Y-13182365D02*
X18225444Y-13182365D01*
X18225444Y-13182365D02*
X18206397Y-13172841D01*
X18206397Y-13172841D02*
X18196873Y-13153794D01*
X18196873Y-13153794D02*
X18196873Y-13077603D01*
X18196873Y-13077603D02*
X18206397Y-13058556D01*
X18206397Y-13058556D02*
X18225444Y-13049032D01*
X18225444Y-13049032D02*
X18263540Y-13049032D01*
X18263540Y-13049032D02*
X18282587Y-13058556D01*
X18282587Y-13058556D02*
X18292111Y-13077603D01*
X18292111Y-13077603D02*
X18292111Y-13096651D01*
X18292111Y-13096651D02*
X18196873Y-13115699D01*
X18358778Y-13258556D02*
X18368302Y-13249032D01*
X18368302Y-13249032D02*
X18387349Y-13220460D01*
X18387349Y-13220460D02*
X18396873Y-13201413D01*
X18396873Y-13201413D02*
X18406397Y-13172841D01*
X18406397Y-13172841D02*
X18415921Y-13125222D01*
X18415921Y-13125222D02*
X18415921Y-13087127D01*
X18415921Y-13087127D02*
X18406397Y-13039508D01*
X18406397Y-13039508D02*
X18396873Y-13010937D01*
X18396873Y-13010937D02*
X18387349Y-12991889D01*
X18387349Y-12991889D02*
X18368302Y-12963318D01*
X18368302Y-12963318D02*
X18358778Y-12953794D01*
X18720683Y-13258556D02*
X18711159Y-13249032D01*
X18711159Y-13249032D02*
X18692111Y-13220460D01*
X18692111Y-13220460D02*
X18682587Y-13201413D01*
X18682587Y-13201413D02*
X18673063Y-13172841D01*
X18673063Y-13172841D02*
X18663540Y-13125222D01*
X18663540Y-13125222D02*
X18663540Y-13087127D01*
X18663540Y-13087127D02*
X18673063Y-13039508D01*
X18673063Y-13039508D02*
X18682587Y-13010937D01*
X18682587Y-13010937D02*
X18692111Y-12991889D01*
X18692111Y-12991889D02*
X18711159Y-12963318D01*
X18711159Y-12963318D02*
X18720683Y-12953794D01*
X18796873Y-13049032D02*
X18796873Y-13182365D01*
X18796873Y-13068079D02*
X18806397Y-13058556D01*
X18806397Y-13058556D02*
X18825444Y-13049032D01*
X18825444Y-13049032D02*
X18854016Y-13049032D01*
X18854016Y-13049032D02*
X18873063Y-13058556D01*
X18873063Y-13058556D02*
X18882587Y-13077603D01*
X18882587Y-13077603D02*
X18882587Y-13182365D01*
X19006397Y-13182365D02*
X18987349Y-13172841D01*
X18987349Y-13172841D02*
X18977825Y-13163318D01*
X18977825Y-13163318D02*
X18968302Y-13144270D01*
X18968302Y-13144270D02*
X18968302Y-13087127D01*
X18968302Y-13087127D02*
X18977825Y-13068079D01*
X18977825Y-13068079D02*
X18987349Y-13058556D01*
X18987349Y-13058556D02*
X19006397Y-13049032D01*
X19006397Y-13049032D02*
X19034968Y-13049032D01*
X19034968Y-13049032D02*
X19054016Y-13058556D01*
X19054016Y-13058556D02*
X19063540Y-13068079D01*
X19063540Y-13068079D02*
X19073063Y-13087127D01*
X19073063Y-13087127D02*
X19073063Y-13144270D01*
X19073063Y-13144270D02*
X19063540Y-13163318D01*
X19063540Y-13163318D02*
X19054016Y-13172841D01*
X19054016Y-13172841D02*
X19034968Y-13182365D01*
X19034968Y-13182365D02*
X19006397Y-13182365D01*
X19130206Y-13049032D02*
X19206397Y-13049032D01*
X19158778Y-12982365D02*
X19158778Y-13153794D01*
X19158778Y-13153794D02*
X19168302Y-13172841D01*
X19168302Y-13172841D02*
X19187349Y-13182365D01*
X19187349Y-13182365D02*
X19206397Y-13182365D01*
X19425444Y-13049032D02*
X19425444Y-13249032D01*
X19425444Y-13058556D02*
X19444492Y-13049032D01*
X19444492Y-13049032D02*
X19482587Y-13049032D01*
X19482587Y-13049032D02*
X19501635Y-13058556D01*
X19501635Y-13058556D02*
X19511159Y-13068079D01*
X19511159Y-13068079D02*
X19520683Y-13087127D01*
X19520683Y-13087127D02*
X19520683Y-13144270D01*
X19520683Y-13144270D02*
X19511159Y-13163318D01*
X19511159Y-13163318D02*
X19501635Y-13172841D01*
X19501635Y-13172841D02*
X19482587Y-13182365D01*
X19482587Y-13182365D02*
X19444492Y-13182365D01*
X19444492Y-13182365D02*
X19425444Y-13172841D01*
X19634968Y-13182365D02*
X19615921Y-13172841D01*
X19615921Y-13172841D02*
X19606397Y-13153794D01*
X19606397Y-13153794D02*
X19606397Y-12982365D01*
X19796873Y-13182365D02*
X19796873Y-13077603D01*
X19796873Y-13077603D02*
X19787349Y-13058556D01*
X19787349Y-13058556D02*
X19768302Y-13049032D01*
X19768302Y-13049032D02*
X19730206Y-13049032D01*
X19730206Y-13049032D02*
X19711159Y-13058556D01*
X19796873Y-13172841D02*
X19777825Y-13182365D01*
X19777825Y-13182365D02*
X19730206Y-13182365D01*
X19730206Y-13182365D02*
X19711159Y-13172841D01*
X19711159Y-13172841D02*
X19701635Y-13153794D01*
X19701635Y-13153794D02*
X19701635Y-13134746D01*
X19701635Y-13134746D02*
X19711159Y-13115699D01*
X19711159Y-13115699D02*
X19730206Y-13106175D01*
X19730206Y-13106175D02*
X19777825Y-13106175D01*
X19777825Y-13106175D02*
X19796873Y-13096651D01*
X19863540Y-13049032D02*
X19939730Y-13049032D01*
X19892111Y-12982365D02*
X19892111Y-13153794D01*
X19892111Y-13153794D02*
X19901635Y-13172841D01*
X19901635Y-13172841D02*
X19920683Y-13182365D01*
X19920683Y-13182365D02*
X19939730Y-13182365D01*
X20082587Y-13172841D02*
X20063540Y-13182365D01*
X20063540Y-13182365D02*
X20025444Y-13182365D01*
X20025444Y-13182365D02*
X20006397Y-13172841D01*
X20006397Y-13172841D02*
X19996873Y-13153794D01*
X19996873Y-13153794D02*
X19996873Y-13077603D01*
X19996873Y-13077603D02*
X20006397Y-13058556D01*
X20006397Y-13058556D02*
X20025444Y-13049032D01*
X20025444Y-13049032D02*
X20063540Y-13049032D01*
X20063540Y-13049032D02*
X20082587Y-13058556D01*
X20082587Y-13058556D02*
X20092111Y-13077603D01*
X20092111Y-13077603D02*
X20092111Y-13096651D01*
X20092111Y-13096651D02*
X19996873Y-13115699D01*
X20263540Y-13182365D02*
X20263540Y-12982365D01*
X20263540Y-13172841D02*
X20244492Y-13182365D01*
X20244492Y-13182365D02*
X20206397Y-13182365D01*
X20206397Y-13182365D02*
X20187349Y-13172841D01*
X20187349Y-13172841D02*
X20177825Y-13163318D01*
X20177825Y-13163318D02*
X20168302Y-13144270D01*
X20168302Y-13144270D02*
X20168302Y-13087127D01*
X20168302Y-13087127D02*
X20177825Y-13068079D01*
X20177825Y-13068079D02*
X20187349Y-13058556D01*
X20187349Y-13058556D02*
X20206397Y-13049032D01*
X20206397Y-13049032D02*
X20244492Y-13049032D01*
X20244492Y-13049032D02*
X20263540Y-13058556D01*
X20339730Y-13258556D02*
X20349254Y-13249032D01*
X20349254Y-13249032D02*
X20368302Y-13220460D01*
X20368302Y-13220460D02*
X20377825Y-13201413D01*
X20377825Y-13201413D02*
X20387349Y-13172841D01*
X20387349Y-13172841D02*
X20396873Y-13125222D01*
X20396873Y-13125222D02*
X20396873Y-13087127D01*
X20396873Y-13087127D02*
X20387349Y-13039508D01*
X20387349Y-13039508D02*
X20377825Y-13010937D01*
X20377825Y-13010937D02*
X20368302Y-12991889D01*
X20368302Y-12991889D02*
X20349254Y-12963318D01*
X20349254Y-12963318D02*
X20339730Y-12953794D01*
M02*
