%TF.GenerationSoftware,KiCad,Pcbnew,9.0.7*%
%TF.CreationDate,2026-09-27T10:00:25+02:00*%
%TF.ProjectId,cartouche-usb4,63617274-6f75-4636-9865-2d757362342e,rev?*%
%TF.SameCoordinates,Original*%
%TF.FileFunction,Drillmap*%
%TF.FilePolarity,Positive*%
%FSLAX45Y45*%
G04 Gerber Fmt 4.5, Leading zero omitted, Abs format (unit mm)*
G04 Created by KiCad (PCBNEW 9.0.7) date 2026-09-27 10:00:25*
%MOMM*%
%LPD*%
G01*
G04 APERTURE LIST*
%ADD10C,0.050000*%
%ADD11C,0.200000*%
%ADD12C,0.100000*%
%ADD13C,0.320000*%
G04 APERTURE END LIST*
D10*
X14460000Y-12184381D02*
X13748119Y-12184381D01*
X15952100Y-11170541D02*
X15952100Y-12184326D01*
X15952100Y-12184326D02*
X14460000Y-12184381D01*
X13748119Y-11333192D02*
X13748744Y-11170541D01*
X13748744Y-11170541D02*
X13748744Y-8816339D01*
X13748119Y-12184381D02*
X13748119Y-11333192D01*
X15950736Y-11170541D02*
X15952100Y-11170541D01*
X13748744Y-8816339D02*
X15950736Y-8816339D01*
X15950736Y-8816339D02*
X15950736Y-11170541D01*
D11*
D12*
X13792918Y-9627465D02*
X13812918Y-9647465D01*
X13812918Y-9627465D02*
X13792918Y-9647465D01*
X13793164Y-10258172D02*
X13813164Y-10278172D01*
X13813164Y-10258172D02*
X13793164Y-10278172D01*
X13793624Y-9427638D02*
X13813624Y-9447638D01*
X13813624Y-9427638D02*
X13793624Y-9447638D01*
X13793624Y-9480998D02*
X13813624Y-9500998D01*
X13813624Y-9480998D02*
X13793624Y-9500998D01*
X13795891Y-10342252D02*
X13815891Y-10362252D01*
X13815891Y-10342252D02*
X13795891Y-10362252D01*
X13798340Y-10673239D02*
X13818340Y-10693239D01*
X13818340Y-10673239D02*
X13798340Y-10693239D01*
X13806451Y-10628579D02*
X13826451Y-10648579D01*
X13826451Y-10628579D02*
X13806451Y-10648579D01*
X13820284Y-9400978D02*
X13840284Y-9420978D01*
X13840284Y-9400978D02*
X13820284Y-9420978D01*
X13826280Y-11176159D02*
X13846280Y-11196158D01*
X13846280Y-11176159D02*
X13826280Y-11196158D01*
X13828820Y-10868819D02*
X13848820Y-10888819D01*
X13848820Y-10868819D02*
X13828820Y-10888819D01*
X13828820Y-11061859D02*
X13848820Y-11081859D01*
X13848820Y-11061859D02*
X13828820Y-11081859D01*
X13828820Y-11290458D02*
X13848820Y-11310458D01*
X13848820Y-11290458D02*
X13828820Y-11310458D01*
X13874636Y-10513622D02*
X13894636Y-10533622D01*
X13894636Y-10513622D02*
X13874636Y-10533622D01*
X13875128Y-10550467D02*
X13895128Y-10570467D01*
X13895128Y-10550467D02*
X13875128Y-10570467D01*
X13881585Y-9775221D02*
X13901585Y-9795221D01*
X13901585Y-9775221D02*
X13881585Y-9795221D01*
X13889780Y-11447938D02*
X13909780Y-11467938D01*
X13909780Y-11447938D02*
X13889780Y-11467938D01*
X13902480Y-11999118D02*
X13922480Y-12019118D01*
X13922480Y-11999118D02*
X13902480Y-12019118D01*
X13907754Y-10550815D02*
X13927754Y-10570815D01*
X13927754Y-10550815D02*
X13907754Y-10570815D01*
X13907988Y-10512678D02*
X13927988Y-10532678D01*
X13927988Y-10512678D02*
X13907988Y-10532678D01*
X13939730Y-10550349D02*
X13959730Y-10570349D01*
X13959730Y-10550349D02*
X13939730Y-10570349D01*
X13940031Y-10514391D02*
X13960031Y-10534391D01*
X13960031Y-10514391D02*
X13940031Y-10534391D01*
X13951104Y-9869552D02*
X13971104Y-9889552D01*
X13971104Y-9869552D02*
X13951104Y-9889552D01*
X13971626Y-9675703D02*
X13991626Y-9695703D01*
X13991626Y-9675703D02*
X13971626Y-9695703D01*
X13972151Y-9505810D02*
X13992151Y-9525810D01*
X13992151Y-9505810D02*
X13972151Y-9525810D01*
X13972369Y-9473424D02*
X13992369Y-9493424D01*
X13992369Y-9473424D02*
X13972369Y-9493424D01*
X13974702Y-9711471D02*
X13994702Y-9731471D01*
X13994702Y-9711471D02*
X13974702Y-9731471D01*
X13988840Y-11453018D02*
X14008840Y-11473018D01*
X14008840Y-11453018D02*
X13988840Y-11473018D01*
X13989011Y-9559965D02*
X14009011Y-9579965D01*
X14009011Y-9559965D02*
X13989011Y-9579965D01*
X13991380Y-11590178D02*
X14011380Y-11610178D01*
X14011380Y-11590178D02*
X13991380Y-11610178D01*
X13991380Y-11755278D02*
X14011380Y-11775278D01*
X14011380Y-11755278D02*
X13991380Y-11775278D01*
X13991805Y-11879739D02*
X14011805Y-11899739D01*
X14011805Y-11879739D02*
X13991805Y-11899739D01*
X13991805Y-11955939D02*
X14011805Y-11975939D01*
X14011805Y-11955939D02*
X13991805Y-11975939D01*
X13996460Y-11074559D02*
X14016460Y-11094559D01*
X14016460Y-11074559D02*
X13996460Y-11094559D01*
X13997531Y-10511347D02*
X14017531Y-10531347D01*
X14017531Y-10511347D02*
X13997531Y-10531347D01*
X13997531Y-10544586D02*
X14017531Y-10564586D01*
X14017531Y-10544586D02*
X13997531Y-10564586D01*
X13997754Y-9871064D02*
X14017754Y-9891064D01*
X14017754Y-9871064D02*
X13997754Y-9891064D01*
X14007736Y-9674992D02*
X14027736Y-9694992D01*
X14027736Y-9674992D02*
X14007736Y-9694992D01*
X14008571Y-9713272D02*
X14028571Y-9733272D01*
X14028571Y-9713272D02*
X14008571Y-9733272D01*
X14009160Y-10952639D02*
X14029160Y-10972639D01*
X14029160Y-10952639D02*
X14009160Y-10972639D01*
X14009537Y-9506462D02*
X14029537Y-9526462D01*
X14029537Y-9506462D02*
X14009537Y-9526462D01*
X14009754Y-9474293D02*
X14029754Y-9494293D01*
X14029754Y-9474293D02*
X14009754Y-9494293D01*
X14021860Y-11917838D02*
X14041860Y-11937838D01*
X14041860Y-11917838D02*
X14021860Y-11937838D01*
X14028840Y-10543085D02*
X14048840Y-10563085D01*
X14048840Y-10543085D02*
X14028840Y-10563085D01*
X14029269Y-10512204D02*
X14049269Y-10532204D01*
X14049269Y-10512204D02*
X14029269Y-10532204D01*
X14044720Y-10868819D02*
X14064720Y-10888819D01*
X14064720Y-10868819D02*
X14044720Y-10888819D01*
X14059929Y-10546231D02*
X14079929Y-10566231D01*
X14079929Y-10546231D02*
X14059929Y-10566231D01*
X14059935Y-10512634D02*
X14079935Y-10532634D01*
X14079935Y-10512634D02*
X14059935Y-10532634D01*
X14060750Y-11917838D02*
X14080750Y-11937838D01*
X14080750Y-11917838D02*
X14060750Y-11937838D01*
X14093405Y-11879739D02*
X14113405Y-11899739D01*
X14113405Y-11879739D02*
X14093405Y-11899739D01*
X14093405Y-11955939D02*
X14113405Y-11975939D01*
X14113405Y-11955939D02*
X14093405Y-11975939D01*
X14096824Y-9775221D02*
X14116824Y-9795221D01*
X14116824Y-9775221D02*
X14096824Y-9795221D01*
X14106950Y-11714639D02*
X14126950Y-11734639D01*
X14126950Y-11714639D02*
X14106950Y-11734639D01*
X14106950Y-11770519D02*
X14126950Y-11790519D01*
X14126950Y-11770519D02*
X14106950Y-11790519D01*
X14113300Y-11592718D02*
X14133300Y-11612718D01*
X14133300Y-11592718D02*
X14113300Y-11612718D01*
X14115246Y-12004011D02*
X14135246Y-12024011D01*
X14135246Y-12004011D02*
X14115246Y-12024011D01*
X14118380Y-11455558D02*
X14138380Y-11475558D01*
X14138380Y-11455558D02*
X14118380Y-11475558D01*
X14128540Y-11051699D02*
X14148540Y-11071699D01*
X14148540Y-11051699D02*
X14128540Y-11071699D01*
X14134890Y-11673999D02*
X14154890Y-11693999D01*
X14154890Y-11673999D02*
X14134890Y-11693999D01*
X14134890Y-11811159D02*
X14154890Y-11831159D01*
X14154890Y-11811159D02*
X14134890Y-11831159D01*
X14140875Y-11879739D02*
X14160875Y-11899739D01*
X14160875Y-11879739D02*
X14140875Y-11899739D01*
X14140875Y-11955939D02*
X14160875Y-11975939D01*
X14160875Y-11955939D02*
X14140875Y-11975939D01*
X14143105Y-10260712D02*
X14163105Y-10280712D01*
X14163105Y-10260712D02*
X14143105Y-10280712D01*
X14151764Y-9412352D02*
X14171764Y-9432352D01*
X14171764Y-9412352D02*
X14151764Y-9432352D01*
X14153940Y-10581799D02*
X14173940Y-10601799D01*
X14173940Y-10581799D02*
X14153940Y-10601799D01*
X14155412Y-10443637D02*
X14175412Y-10463637D01*
X14175412Y-10443637D02*
X14155412Y-10463637D01*
X14158269Y-9484587D02*
X14178269Y-9504587D01*
X14178269Y-9484587D02*
X14158269Y-9504587D01*
X14169180Y-10970419D02*
X14189180Y-10990419D01*
X14189180Y-10970419D02*
X14169180Y-10990419D01*
X14170930Y-11917838D02*
X14190930Y-11937838D01*
X14190930Y-11917838D02*
X14170930Y-11937838D01*
X14179340Y-10751979D02*
X14199340Y-10771979D01*
X14199340Y-10751979D02*
X14179340Y-10771979D01*
X14189784Y-9453072D02*
X14209784Y-9473072D01*
X14209784Y-9453072D02*
X14189784Y-9473072D01*
X14192040Y-10243788D02*
X14212040Y-10263788D01*
X14212040Y-10243788D02*
X14192040Y-10263788D01*
X14194580Y-10457339D02*
X14214580Y-10477339D01*
X14214580Y-10457339D02*
X14194580Y-10477339D01*
X14194702Y-10357642D02*
X14214702Y-10377642D01*
X14214702Y-10357642D02*
X14194702Y-10377642D01*
X14206364Y-9426378D02*
X14226364Y-9446378D01*
X14226364Y-9426378D02*
X14206364Y-9446378D01*
X14209820Y-11917838D02*
X14229820Y-11937838D01*
X14229820Y-11917838D02*
X14209820Y-11937838D01*
X14214900Y-10670699D02*
X14234900Y-10690699D01*
X14234900Y-10670699D02*
X14214900Y-10690699D01*
X14231400Y-11545345D02*
X14251400Y-11565345D01*
X14251400Y-11545345D02*
X14231400Y-11565345D01*
X14232680Y-10497979D02*
X14252680Y-10517979D01*
X14252680Y-10497979D02*
X14232680Y-10517979D01*
X14233940Y-11489465D02*
X14253940Y-11509465D01*
X14253940Y-11489465D02*
X14233940Y-11509465D01*
X14242475Y-11879739D02*
X14262475Y-11899739D01*
X14262475Y-11879739D02*
X14242475Y-11899739D01*
X14242475Y-11955939D02*
X14262475Y-11975939D01*
X14262475Y-11955939D02*
X14242475Y-11975939D01*
X14244100Y-11446285D02*
X14264100Y-11466285D01*
X14264100Y-11446285D02*
X14244100Y-11466285D01*
X14244100Y-11591065D02*
X14264100Y-11611065D01*
X14264100Y-11591065D02*
X14244100Y-11611065D01*
X14249190Y-11811159D02*
X14269190Y-11831159D01*
X14269190Y-11811159D02*
X14249190Y-11831159D01*
X14250557Y-11673754D02*
X14270557Y-11693754D01*
X14270557Y-11673754D02*
X14250557Y-11693754D01*
X14258470Y-9838506D02*
X14278470Y-9858506D01*
X14278470Y-9838506D02*
X14258470Y-9858506D01*
X14260620Y-10878979D02*
X14280620Y-10898979D01*
X14280620Y-10878979D02*
X14260620Y-10898979D01*
X14265700Y-12004198D02*
X14285700Y-12024198D01*
X14285700Y-12004198D02*
X14265700Y-12024198D01*
X14274590Y-11714639D02*
X14294590Y-11734639D01*
X14294590Y-11714639D02*
X14274590Y-11734639D01*
X14274590Y-11770519D02*
X14294590Y-11790519D01*
X14294590Y-11770519D02*
X14274590Y-11790519D01*
X14276916Y-10404652D02*
X14296916Y-10424652D01*
X14296916Y-10404652D02*
X14276916Y-10424652D01*
X14278400Y-11079639D02*
X14298400Y-11099639D01*
X14298400Y-11079639D02*
X14278400Y-11099639D01*
X14286813Y-10189181D02*
X14306813Y-10209181D01*
X14306813Y-10189181D02*
X14286813Y-10209181D01*
X14291100Y-10718959D02*
X14311100Y-10738959D01*
X14311100Y-10718959D02*
X14291100Y-10738959D01*
X14291525Y-11879739D02*
X14311525Y-11899739D01*
X14311525Y-11879739D02*
X14291525Y-11899739D01*
X14291525Y-11955939D02*
X14311525Y-11975939D01*
X14311525Y-11955939D02*
X14291525Y-11975939D01*
X14298477Y-11593861D02*
X14318477Y-11613861D01*
X14318477Y-11593861D02*
X14298477Y-11613861D01*
X14298720Y-9624219D02*
X14318720Y-9644219D01*
X14318720Y-9624219D02*
X14298720Y-9644219D01*
X14316500Y-11740038D02*
X14336500Y-11760038D01*
X14336500Y-11740038D02*
X14316500Y-11760038D01*
X14321580Y-11917838D02*
X14341580Y-11937838D01*
X14341580Y-11917838D02*
X14321580Y-11937838D01*
X14337367Y-11593861D02*
X14357367Y-11613861D01*
X14357367Y-11593861D02*
X14337367Y-11613861D01*
X14339278Y-10497065D02*
X14359278Y-10517065D01*
X14359278Y-10497065D02*
X14339278Y-10517065D01*
X14341900Y-10845959D02*
X14361900Y-10865959D01*
X14361900Y-10845959D02*
X14341900Y-10865959D01*
X14356916Y-10294652D02*
X14376916Y-10314652D01*
X14376916Y-10294652D02*
X14356916Y-10314652D01*
X14360470Y-11917838D02*
X14380470Y-11937838D01*
X14380470Y-11917838D02*
X14360470Y-11937838D01*
X14362220Y-10594499D02*
X14382220Y-10614499D01*
X14382220Y-10594499D02*
X14362220Y-10614499D01*
X14364760Y-10978039D02*
X14384760Y-10998039D01*
X14384760Y-10978039D02*
X14364760Y-10998039D01*
X14373173Y-10191721D02*
X14393173Y-10211721D01*
X14393173Y-10191721D02*
X14373173Y-10211721D01*
X14378720Y-11446285D02*
X14398720Y-11466285D01*
X14398720Y-11446285D02*
X14378720Y-11466285D01*
X14380016Y-11591431D02*
X14400016Y-11611431D01*
X14400016Y-11591431D02*
X14380016Y-11611431D01*
X14393125Y-11879739D02*
X14413125Y-11899739D01*
X14413125Y-11879739D02*
X14393125Y-11899739D01*
X14393125Y-11955939D02*
X14413125Y-11975939D01*
X14413125Y-11955939D02*
X14393125Y-11975939D01*
X14400320Y-11199018D02*
X14420320Y-11219018D01*
X14420320Y-11199018D02*
X14400320Y-11219018D01*
X14401580Y-11489465D02*
X14421580Y-11509465D01*
X14421580Y-11489465D02*
X14401580Y-11509465D01*
X14401580Y-11547885D02*
X14421580Y-11567885D01*
X14421580Y-11547885D02*
X14401580Y-11567885D01*
X14407040Y-9850099D02*
X14427040Y-9870099D01*
X14427040Y-9850099D02*
X14407040Y-9870099D01*
X14407040Y-9911059D02*
X14427040Y-9931059D01*
X14427040Y-9911059D02*
X14407040Y-9931059D01*
X14413020Y-10708799D02*
X14433020Y-10728799D01*
X14433020Y-10708799D02*
X14413020Y-10728799D01*
X14415560Y-12004198D02*
X14435560Y-12024198D01*
X14435560Y-12004198D02*
X14415560Y-12024198D01*
X14430800Y-10012839D02*
X14450800Y-10032839D01*
X14450800Y-10012839D02*
X14430800Y-10032839D01*
X14435880Y-9809639D02*
X14455880Y-9829639D01*
X14455880Y-9809639D02*
X14435880Y-9829639D01*
X14435880Y-9959499D02*
X14455880Y-9979499D01*
X14455880Y-9959499D02*
X14435880Y-9979499D01*
X14438420Y-10939939D02*
X14458420Y-10959939D01*
X14458420Y-10939939D02*
X14438420Y-10959939D01*
X14440960Y-10830719D02*
X14460960Y-10850719D01*
X14460960Y-10830719D02*
X14440960Y-10850719D01*
X14441648Y-10592065D02*
X14461648Y-10612065D01*
X14461648Y-10592065D02*
X14441648Y-10612065D01*
X14456428Y-10467441D02*
X14476428Y-10487441D01*
X14476428Y-10467441D02*
X14456428Y-10487441D01*
X14457097Y-10232596D02*
X14477097Y-10252596D01*
X14477097Y-10232596D02*
X14457097Y-10252596D01*
X14463820Y-10081419D02*
X14483820Y-10101419D01*
X14483820Y-10081419D02*
X14463820Y-10101419D01*
X14476520Y-11724798D02*
X14496520Y-11744798D01*
X14496520Y-11724798D02*
X14476520Y-11744798D01*
X14484140Y-11036675D02*
X14504140Y-11056675D01*
X14504140Y-11036675D02*
X14484140Y-11056675D01*
X14504460Y-11460638D02*
X14524460Y-11480638D01*
X14524460Y-11460638D02*
X14504460Y-11480638D01*
X14507000Y-10711339D02*
X14527000Y-10731339D01*
X14527000Y-10711339D02*
X14507000Y-10731339D01*
X14507000Y-11595258D02*
X14527000Y-11615258D01*
X14527000Y-11595258D02*
X14507000Y-11615258D01*
X14511064Y-10489827D02*
X14531064Y-10509827D01*
X14531064Y-10489827D02*
X14511064Y-10509827D01*
X14512080Y-10134759D02*
X14532080Y-10154759D01*
X14532080Y-10134759D02*
X14512080Y-10154759D01*
X14512080Y-10594499D02*
X14532080Y-10614499D01*
X14532080Y-10594499D02*
X14512080Y-10614499D01*
X14524780Y-10924699D02*
X14544780Y-10944699D01*
X14544780Y-10924699D02*
X14524780Y-10944699D01*
X14531890Y-10411087D02*
X14551890Y-10431087D01*
X14551890Y-10411087D02*
X14531890Y-10431087D01*
X14532400Y-11199018D02*
X14552400Y-11219018D01*
X14552400Y-11199018D02*
X14532400Y-11219018D01*
X14535107Y-9411653D02*
X14555107Y-9431653D01*
X14555107Y-9411653D02*
X14535107Y-9431653D01*
X14537480Y-10830719D02*
X14557480Y-10850719D01*
X14557480Y-10830719D02*
X14537480Y-10850719D01*
X14560340Y-10193179D02*
X14580340Y-10213179D01*
X14580340Y-10193179D02*
X14560340Y-10213179D01*
X14565420Y-12004198D02*
X14585420Y-12024198D01*
X14585420Y-12004198D02*
X14565420Y-12024198D01*
X14575580Y-9807099D02*
X14595580Y-9827099D01*
X14595580Y-9807099D02*
X14575580Y-9827099D01*
X14575580Y-9962039D02*
X14595580Y-9982039D01*
X14595580Y-9962039D02*
X14575580Y-9982039D01*
X14578120Y-11666378D02*
X14598120Y-11686378D01*
X14598120Y-11666378D02*
X14578120Y-11686378D01*
X14580660Y-11778138D02*
X14600660Y-11798138D01*
X14600660Y-11778138D02*
X14580660Y-11798138D01*
X14583200Y-11450478D02*
X14603200Y-11470478D01*
X14603200Y-11450478D02*
X14583200Y-11470478D01*
X14583200Y-11549538D02*
X14603200Y-11569538D01*
X14603200Y-11549538D02*
X14583200Y-11569538D01*
X14588543Y-10493184D02*
X14608543Y-10513184D01*
X14608543Y-10493184D02*
X14588543Y-10513184D01*
X14588692Y-10596535D02*
X14608692Y-10616535D01*
X14608692Y-10596535D02*
X14588692Y-10616535D01*
X14591245Y-11879739D02*
X14611245Y-11899739D01*
X14611245Y-11879739D02*
X14591245Y-11899739D01*
X14591245Y-11955939D02*
X14611245Y-11975939D01*
X14611245Y-11955939D02*
X14591245Y-11975939D01*
X14594683Y-10428381D02*
X14614683Y-10448381D01*
X14614683Y-10428381D02*
X14594683Y-10448381D01*
X14594796Y-11017712D02*
X14614796Y-11037712D01*
X14614796Y-11017712D02*
X14594796Y-11037712D01*
X14596001Y-10707912D02*
X14616001Y-10727912D01*
X14616001Y-10707912D02*
X14596001Y-10727912D01*
X14601243Y-10275790D02*
X14621243Y-10295790D01*
X14621243Y-10275790D02*
X14601243Y-10295790D01*
X14607700Y-9857719D02*
X14627700Y-9877719D01*
X14627700Y-9857719D02*
X14607700Y-9877719D01*
X14607700Y-9911059D02*
X14627700Y-9931059D01*
X14627700Y-9911059D02*
X14607700Y-9931059D01*
X14621300Y-11917838D02*
X14641300Y-11937838D01*
X14641300Y-11917838D02*
X14621300Y-11937838D01*
X14625669Y-9474359D02*
X14645669Y-9494359D01*
X14645669Y-9474359D02*
X14625669Y-9494359D01*
X14626378Y-9100469D02*
X14646378Y-9120469D01*
X14646378Y-9100469D02*
X14626378Y-9120469D01*
X14646700Y-9857899D02*
X14666700Y-9877899D01*
X14666700Y-9857899D02*
X14646700Y-9877899D01*
X14646700Y-9911239D02*
X14666700Y-9931239D01*
X14666700Y-9911239D02*
X14646700Y-9931239D01*
X14660190Y-11917838D02*
X14680190Y-11937838D01*
X14680190Y-11917838D02*
X14660190Y-11937838D01*
X14664559Y-9474359D02*
X14684559Y-9494359D01*
X14684559Y-9474359D02*
X14664559Y-9494359D01*
X14677180Y-9807099D02*
X14697180Y-9827099D01*
X14697180Y-9807099D02*
X14677180Y-9827099D01*
X14677180Y-9964579D02*
X14697180Y-9984579D01*
X14697180Y-9964579D02*
X14677180Y-9984579D01*
X14692845Y-11879739D02*
X14712845Y-11899739D01*
X14712845Y-11879739D02*
X14692845Y-11899739D01*
X14692845Y-11955939D02*
X14712845Y-11975939D01*
X14712845Y-11955939D02*
X14692845Y-11975939D01*
X14706724Y-11565748D02*
X14726724Y-11585748D01*
X14726724Y-11565748D02*
X14706724Y-11585748D01*
X14706724Y-11621628D02*
X14726724Y-11641628D01*
X14726724Y-11621628D02*
X14706724Y-11641628D01*
X14712740Y-11450478D02*
X14732740Y-11470478D01*
X14732740Y-11450478D02*
X14712740Y-11470478D01*
X14715280Y-11778138D02*
X14735280Y-11798138D01*
X14735280Y-11778138D02*
X14715280Y-11798138D01*
X14715280Y-12004198D02*
X14735280Y-12024198D01*
X14735280Y-12004198D02*
X14715280Y-12024198D01*
X14717817Y-9100469D02*
X14737817Y-9120469D01*
X14737817Y-9100469D02*
X14717817Y-9120469D01*
X14718057Y-10075130D02*
X14738057Y-10095130D01*
X14738057Y-10075130D02*
X14718057Y-10095130D01*
X14719460Y-9359879D02*
X14739460Y-9379879D01*
X14739460Y-9359879D02*
X14719460Y-9379879D01*
X14721964Y-11525108D02*
X14741964Y-11545108D01*
X14741964Y-11525108D02*
X14721964Y-11545108D01*
X14722343Y-10732631D02*
X14742343Y-10752631D01*
X14742343Y-10732631D02*
X14722343Y-10752631D01*
X14722343Y-10823231D02*
X14742343Y-10843231D01*
X14742343Y-10823231D02*
X14722343Y-10843231D01*
X14722343Y-10913831D02*
X14742343Y-10933831D01*
X14742343Y-10913831D02*
X14722343Y-10933831D01*
X14724330Y-10370540D02*
X14744330Y-10390540D01*
X14744330Y-10370540D02*
X14724330Y-10390540D01*
X14724724Y-10642084D02*
X14744724Y-10662084D01*
X14744724Y-10642084D02*
X14724724Y-10662084D01*
X14729766Y-11667348D02*
X14749766Y-11687348D01*
X14749766Y-11667348D02*
X14729766Y-11687348D01*
X14734809Y-10317296D02*
X14754809Y-10337296D01*
X14754809Y-10317296D02*
X14734809Y-10337296D01*
X14741105Y-11879739D02*
X14761105Y-11899739D01*
X14761105Y-11879739D02*
X14741105Y-11899739D01*
X14741105Y-11955939D02*
X14761105Y-11975939D01*
X14761105Y-11955939D02*
X14741105Y-11975939D01*
X14756947Y-10075130D02*
X14776947Y-10095130D01*
X14776947Y-10075130D02*
X14756947Y-10095130D01*
X14762640Y-9476719D02*
X14782640Y-9496719D01*
X14782640Y-9476719D02*
X14762640Y-9496719D01*
X14771160Y-11917838D02*
X14791160Y-11937838D01*
X14791160Y-11917838D02*
X14771160Y-11937838D01*
X14802281Y-9100469D02*
X14822281Y-9120469D01*
X14822281Y-9100469D02*
X14802281Y-9120469D01*
X14804180Y-9807099D02*
X14824180Y-9827099D01*
X14824180Y-9807099D02*
X14804180Y-9827099D01*
X14804180Y-9964579D02*
X14824180Y-9984579D01*
X14824180Y-9964579D02*
X14804180Y-9984579D01*
X14810050Y-11917838D02*
X14830050Y-11937838D01*
X14830050Y-11917838D02*
X14810050Y-11937838D01*
X14812343Y-10394831D02*
X14832343Y-10414831D01*
X14832343Y-10394831D02*
X14812343Y-10414831D01*
X14812343Y-10459831D02*
X14832343Y-10479831D01*
X14832343Y-10459831D02*
X14812343Y-10479831D01*
X14812343Y-10524831D02*
X14832343Y-10544831D01*
X14832343Y-10524831D02*
X14812343Y-10544831D01*
X14812343Y-10589831D02*
X14832343Y-10609831D01*
X14832343Y-10589831D02*
X14812343Y-10609831D01*
X14812343Y-10654831D02*
X14832343Y-10674831D01*
X14832343Y-10654831D02*
X14812343Y-10674831D01*
X14812343Y-10719831D02*
X14832343Y-10739831D01*
X14832343Y-10719831D02*
X14812343Y-10739831D01*
X14812343Y-10784830D02*
X14832343Y-10804830D01*
X14832343Y-10784830D02*
X14812343Y-10804830D01*
X14812343Y-10849830D02*
X14832343Y-10869830D01*
X14832343Y-10849830D02*
X14812343Y-10869830D01*
X14812343Y-10914830D02*
X14832343Y-10934830D01*
X14832343Y-10914830D02*
X14812343Y-10934830D01*
X14812343Y-10979830D02*
X14832343Y-10999830D01*
X14832343Y-10979830D02*
X14812343Y-10999830D01*
X14819420Y-9476899D02*
X14839420Y-9496899D01*
X14839420Y-9476899D02*
X14819420Y-9496899D01*
X14829580Y-9860439D02*
X14849580Y-9880439D01*
X14849580Y-9860439D02*
X14829580Y-9880439D01*
X14829580Y-9916319D02*
X14849580Y-9936319D01*
X14849580Y-9916319D02*
X14829580Y-9936319D01*
X14842705Y-11879739D02*
X14862705Y-11899739D01*
X14862705Y-11879739D02*
X14842705Y-11899739D01*
X14842705Y-11955939D02*
X14862705Y-11975939D01*
X14862705Y-11955939D02*
X14842705Y-11975939D01*
X14854044Y-11667348D02*
X14874044Y-11687348D01*
X14874044Y-11667348D02*
X14854044Y-11687348D01*
X14859124Y-11525108D02*
X14879124Y-11545108D01*
X14879124Y-11525108D02*
X14859124Y-11545108D01*
X14861036Y-9518515D02*
X14881036Y-9538515D01*
X14881036Y-9518515D02*
X14861036Y-9538515D01*
X14862600Y-11450478D02*
X14882600Y-11470478D01*
X14882600Y-11450478D02*
X14862600Y-11470478D01*
X14865140Y-12004198D02*
X14885140Y-12024198D01*
X14885140Y-12004198D02*
X14865140Y-12024198D01*
X14870220Y-9860439D02*
X14890220Y-9880439D01*
X14890220Y-9860439D02*
X14870220Y-9880439D01*
X14870220Y-9916319D02*
X14890220Y-9936319D01*
X14890220Y-9916319D02*
X14870220Y-9936319D01*
X14872760Y-11783218D02*
X14892760Y-11803218D01*
X14892760Y-11783218D02*
X14872760Y-11803218D01*
X14874364Y-11565748D02*
X14894364Y-11585748D01*
X14894364Y-11565748D02*
X14874364Y-11585748D01*
X14874364Y-11621628D02*
X14894364Y-11641628D01*
X14894364Y-11621628D02*
X14874364Y-11641628D01*
X14877343Y-10459830D02*
X14897343Y-10479830D01*
X14897343Y-10459830D02*
X14877343Y-10479830D01*
X14877343Y-10524831D02*
X14897343Y-10544831D01*
X14897343Y-10524831D02*
X14877343Y-10544831D01*
X14877343Y-10654831D02*
X14897343Y-10674831D01*
X14897343Y-10654831D02*
X14877343Y-10674831D01*
X14877343Y-10719831D02*
X14897343Y-10739831D01*
X14897343Y-10719831D02*
X14877343Y-10739831D01*
X14877343Y-10784830D02*
X14897343Y-10804830D01*
X14897343Y-10784830D02*
X14877343Y-10804830D01*
X14877343Y-10849830D02*
X14897343Y-10869830D01*
X14897343Y-10849830D02*
X14877343Y-10869830D01*
X14877343Y-10914830D02*
X14897343Y-10934830D01*
X14897343Y-10914830D02*
X14877343Y-10934830D01*
X14877343Y-10979830D02*
X14897343Y-10999830D01*
X14897343Y-10979830D02*
X14877343Y-10999830D01*
X14883561Y-9100469D02*
X14903561Y-9120469D01*
X14903561Y-9100469D02*
X14883561Y-9120469D01*
X14890965Y-11879739D02*
X14910965Y-11899739D01*
X14910965Y-11879739D02*
X14890965Y-11899739D01*
X14890965Y-11955939D02*
X14910965Y-11975939D01*
X14910965Y-11955939D02*
X14890965Y-11975939D01*
X14892180Y-9657059D02*
X14912180Y-9677059D01*
X14912180Y-9657059D02*
X14892180Y-9677059D01*
X14892443Y-11036675D02*
X14912443Y-11056675D01*
X14912443Y-11036675D02*
X14892443Y-11056675D01*
X14893080Y-9807099D02*
X14913080Y-9827099D01*
X14913080Y-9807099D02*
X14893080Y-9827099D01*
X14893080Y-9959499D02*
X14913080Y-9979499D01*
X14913080Y-9959499D02*
X14893080Y-9979499D01*
X14918616Y-9608981D02*
X14938616Y-9628981D01*
X14938616Y-9608981D02*
X14918616Y-9628981D01*
X14920120Y-9474179D02*
X14940120Y-9494179D01*
X14940120Y-9474179D02*
X14920120Y-9494179D01*
X14921020Y-11917838D02*
X14941020Y-11937838D01*
X14941020Y-11917838D02*
X14921020Y-11937838D01*
X14938800Y-11482145D02*
X14958800Y-11502145D01*
X14958800Y-11482145D02*
X14938800Y-11502145D01*
X14938800Y-11538025D02*
X14958800Y-11558025D01*
X14958800Y-11538025D02*
X14938800Y-11558025D01*
X14942343Y-10524831D02*
X14962343Y-10544831D01*
X14962343Y-10524831D02*
X14942343Y-10544831D01*
X14942343Y-10589831D02*
X14962343Y-10609831D01*
X14962343Y-10589831D02*
X14942343Y-10609831D01*
X14942343Y-10654831D02*
X14962343Y-10674831D01*
X14962343Y-10654831D02*
X14942343Y-10674831D01*
X14942343Y-10719831D02*
X14962343Y-10739831D01*
X14962343Y-10719831D02*
X14942343Y-10739831D01*
X14942343Y-10784830D02*
X14962343Y-10804830D01*
X14962343Y-10784830D02*
X14942343Y-10804830D01*
X14942343Y-10849830D02*
X14962343Y-10869830D01*
X14962343Y-10849830D02*
X14942343Y-10869830D01*
X14942343Y-10914830D02*
X14962343Y-10934830D01*
X14962343Y-10914830D02*
X14942343Y-10934830D01*
X14942343Y-10979830D02*
X14962343Y-10999830D01*
X14962343Y-10979830D02*
X14942343Y-10999830D01*
X14944527Y-10328770D02*
X14964527Y-10348770D01*
X14964527Y-10328770D02*
X14944527Y-10348770D01*
X14956580Y-11699398D02*
X14976580Y-11719398D01*
X14976580Y-11699398D02*
X14956580Y-11719398D01*
X14959910Y-11917838D02*
X14979910Y-11937838D01*
X14979910Y-11917838D02*
X14959910Y-11937838D01*
X14961660Y-11583745D02*
X14981660Y-11603745D01*
X14981660Y-11583745D02*
X14961660Y-11603745D01*
X14964200Y-11438965D02*
X14984200Y-11458965D01*
X14984200Y-11438965D02*
X14964200Y-11458965D01*
X14969231Y-9361188D02*
X14989231Y-9381188D01*
X14989231Y-9361188D02*
X14969231Y-9381188D01*
X14969279Y-9100469D02*
X14989279Y-9120469D01*
X14989279Y-9100469D02*
X14969279Y-9120469D01*
X14992565Y-11879739D02*
X15012565Y-11899739D01*
X15012565Y-11879739D02*
X14992565Y-11899739D01*
X14992565Y-11955939D02*
X15012565Y-11975939D01*
X15012565Y-11955939D02*
X14992565Y-11975939D01*
X15002300Y-11587638D02*
X15022300Y-11607638D01*
X15022300Y-11587638D02*
X15002300Y-11607638D01*
X15005544Y-10085731D02*
X15025544Y-10105731D01*
X15025544Y-10085731D02*
X15005544Y-10105731D01*
X15007343Y-10394831D02*
X15027343Y-10414831D01*
X15027343Y-10394831D02*
X15007343Y-10414831D01*
X15007343Y-10524831D02*
X15027343Y-10544831D01*
X15027343Y-10524831D02*
X15007343Y-10544831D01*
X15007343Y-10589831D02*
X15027343Y-10609831D01*
X15027343Y-10589831D02*
X15007343Y-10609831D01*
X15007343Y-10654831D02*
X15027343Y-10674831D01*
X15027343Y-10654831D02*
X15007343Y-10674831D01*
X15007343Y-10719831D02*
X15027343Y-10739831D01*
X15027343Y-10719831D02*
X15007343Y-10739831D01*
X15007343Y-10784830D02*
X15027343Y-10804830D01*
X15027343Y-10784830D02*
X15007343Y-10804830D01*
X15007343Y-10849830D02*
X15027343Y-10869830D01*
X15027343Y-10849830D02*
X15007343Y-10869830D01*
X15007343Y-10914830D02*
X15027343Y-10934830D01*
X15027343Y-10914830D02*
X15007343Y-10934830D01*
X15007343Y-10979830D02*
X15027343Y-10999830D01*
X15027343Y-10979830D02*
X15007343Y-10999830D01*
X15015354Y-12005397D02*
X15035354Y-12025397D01*
X15035354Y-12005397D02*
X15015354Y-12025397D01*
X15016903Y-10323870D02*
X15036903Y-10343870D01*
X15036903Y-10323870D02*
X15016903Y-10343870D01*
X15020080Y-9959499D02*
X15040080Y-9979499D01*
X15040080Y-9959499D02*
X15020080Y-9979499D01*
X15025668Y-9474359D02*
X15045668Y-9494359D01*
X15045668Y-9474359D02*
X15025668Y-9494359D01*
X15032780Y-9807099D02*
X15052780Y-9827099D01*
X15052780Y-9807099D02*
X15032780Y-9827099D01*
X15032780Y-11813698D02*
X15052780Y-11833698D01*
X15052780Y-11813698D02*
X15032780Y-11833698D01*
X15033043Y-10113230D02*
X15053043Y-10133230D01*
X15053043Y-10113230D02*
X15033043Y-10133230D01*
X15041190Y-11587638D02*
X15061190Y-11607638D01*
X15061190Y-11587638D02*
X15041190Y-11607638D01*
X15045480Y-9857899D02*
X15065480Y-9877899D01*
X15065480Y-9857899D02*
X15045480Y-9877899D01*
X15045480Y-9908699D02*
X15065480Y-9928699D01*
X15065480Y-9908699D02*
X15045480Y-9928699D01*
X15060718Y-9100469D02*
X15080718Y-9120469D01*
X15080718Y-9100469D02*
X15060718Y-9120469D01*
X15064558Y-9474359D02*
X15084558Y-9494359D01*
X15084558Y-9474359D02*
X15064558Y-9494359D01*
X15072343Y-10394830D02*
X15092343Y-10414830D01*
X15092343Y-10394830D02*
X15072343Y-10414830D01*
X15072343Y-10524831D02*
X15092343Y-10544831D01*
X15092343Y-10524831D02*
X15072343Y-10544831D01*
X15072343Y-10589831D02*
X15092343Y-10609831D01*
X15092343Y-10589831D02*
X15072343Y-10609831D01*
X15072343Y-10654831D02*
X15092343Y-10674831D01*
X15092343Y-10654831D02*
X15072343Y-10674831D01*
X15072343Y-10719831D02*
X15092343Y-10739831D01*
X15092343Y-10719831D02*
X15072343Y-10739831D01*
X15072343Y-10784830D02*
X15092343Y-10804830D01*
X15092343Y-10784830D02*
X15072343Y-10804830D01*
X15072343Y-10849830D02*
X15092343Y-10869830D01*
X15092343Y-10849830D02*
X15072343Y-10869830D01*
X15072343Y-10914830D02*
X15092343Y-10934830D01*
X15092343Y-10914830D02*
X15072343Y-10934830D01*
X15072343Y-10979830D02*
X15092343Y-10999830D01*
X15092343Y-10979830D02*
X15072343Y-10999830D01*
X15073420Y-9677559D02*
X15093420Y-9697559D01*
X15093420Y-9677559D02*
X15073420Y-9697559D01*
X15081040Y-11438965D02*
X15101040Y-11458965D01*
X15101040Y-11438965D02*
X15081040Y-11458965D01*
X15083580Y-11583745D02*
X15103580Y-11603745D01*
X15103580Y-11583745D02*
X15083580Y-11603745D01*
X15086120Y-9184799D02*
X15106120Y-9204799D01*
X15106120Y-9184799D02*
X15086120Y-9204799D01*
X15096280Y-9857899D02*
X15116280Y-9877899D01*
X15116280Y-9857899D02*
X15096280Y-9877899D01*
X15096280Y-9908699D02*
X15116280Y-9928699D01*
X15116280Y-9908699D02*
X15096280Y-9928699D01*
X15106440Y-11477065D02*
X15126440Y-11497065D01*
X15126440Y-11477065D02*
X15106440Y-11497065D01*
X15106440Y-11538025D02*
X15126440Y-11558025D01*
X15126440Y-11538025D02*
X15106440Y-11558025D01*
X15119140Y-9959499D02*
X15139140Y-9979499D01*
X15139140Y-9959499D02*
X15119140Y-9979499D01*
X15121680Y-9807099D02*
X15141680Y-9827099D01*
X15141680Y-9807099D02*
X15121680Y-9827099D01*
X15124516Y-9186334D02*
X15144516Y-9206334D01*
X15144516Y-9186334D02*
X15124516Y-9206334D01*
X15137342Y-10394831D02*
X15157342Y-10414831D01*
X15157342Y-10394831D02*
X15137342Y-10414831D01*
X15137342Y-10459831D02*
X15157342Y-10479831D01*
X15157342Y-10459831D02*
X15137342Y-10479831D01*
X15137342Y-10524831D02*
X15157342Y-10544831D01*
X15157342Y-10524831D02*
X15137342Y-10544831D01*
X15137342Y-10654831D02*
X15157342Y-10674831D01*
X15157342Y-10654831D02*
X15137342Y-10674831D01*
X15137342Y-10719831D02*
X15157342Y-10739831D01*
X15157342Y-10719831D02*
X15137342Y-10739831D01*
X15137342Y-10784830D02*
X15157342Y-10804830D01*
X15157342Y-10784830D02*
X15137342Y-10804830D01*
X15137342Y-10849830D02*
X15157342Y-10869830D01*
X15157342Y-10849830D02*
X15137342Y-10869830D01*
X15137342Y-10914830D02*
X15157342Y-10934830D01*
X15157342Y-10914830D02*
X15137342Y-10934830D01*
X15137342Y-10979830D02*
X15157342Y-10999830D01*
X15157342Y-10979830D02*
X15137342Y-10999830D01*
X15150585Y-11985765D02*
X15170585Y-12005765D01*
X15170585Y-11985765D02*
X15150585Y-12005765D01*
X15154700Y-11707018D02*
X15174700Y-11727018D01*
X15174700Y-11707018D02*
X15154700Y-11727018D01*
X15155121Y-9411653D02*
X15175121Y-9431653D01*
X15175121Y-9411653D02*
X15155121Y-9431653D01*
X15181233Y-10196940D02*
X15201233Y-10216940D01*
X15201233Y-10196940D02*
X15181233Y-10216940D01*
X15190067Y-11891407D02*
X15210067Y-11911407D01*
X15210067Y-11891407D02*
X15190067Y-11911407D01*
X15190067Y-11967607D02*
X15210067Y-11987607D01*
X15210067Y-11967607D02*
X15190067Y-11987607D01*
X15202342Y-10394831D02*
X15222342Y-10414831D01*
X15222342Y-10394831D02*
X15202342Y-10414831D01*
X15202342Y-10459831D02*
X15222342Y-10479831D01*
X15222342Y-10459831D02*
X15202342Y-10479831D01*
X15202342Y-10589830D02*
X15222342Y-10609830D01*
X15222342Y-10589830D02*
X15202342Y-10609830D01*
X15202342Y-10654830D02*
X15222342Y-10674830D01*
X15222342Y-10654830D02*
X15202342Y-10674830D01*
X15202342Y-10784830D02*
X15222342Y-10804830D01*
X15222342Y-10784830D02*
X15202342Y-10804830D01*
X15202342Y-10849830D02*
X15222342Y-10869830D01*
X15222342Y-10849830D02*
X15202342Y-10869830D01*
X15202342Y-10914830D02*
X15222342Y-10934830D01*
X15222342Y-10914830D02*
X15202342Y-10934830D01*
X15202342Y-10979830D02*
X15222342Y-10999830D01*
X15222342Y-10979830D02*
X15202342Y-10999830D01*
X15205500Y-11595258D02*
X15225500Y-11615258D01*
X15225500Y-11595258D02*
X15205500Y-11615258D01*
X15212199Y-11447958D02*
X15232199Y-11467958D01*
X15232199Y-11447958D02*
X15212199Y-11467958D01*
X15220122Y-11929507D02*
X15240122Y-11949507D01*
X15240122Y-11929507D02*
X15220122Y-11949507D01*
X15227233Y-10196940D02*
X15247233Y-10216940D01*
X15247233Y-10196940D02*
X15227233Y-10216940D01*
X15232540Y-9657059D02*
X15252540Y-9677059D01*
X15252540Y-9657059D02*
X15232540Y-9677059D01*
X15238520Y-9137510D02*
X15258520Y-9157510D01*
X15258520Y-9137510D02*
X15238520Y-9157510D01*
X15242700Y-9695159D02*
X15262700Y-9715159D01*
X15262700Y-9695159D02*
X15242700Y-9715159D01*
X15248680Y-9807099D02*
X15268680Y-9827099D01*
X15268680Y-9807099D02*
X15248680Y-9827099D01*
X15248680Y-9959499D02*
X15268680Y-9979499D01*
X15268680Y-9959499D02*
X15248680Y-9979499D01*
X15259012Y-11929507D02*
X15279012Y-11949507D01*
X15279012Y-11929507D02*
X15259012Y-11949507D01*
X15267342Y-10394831D02*
X15287342Y-10414831D01*
X15287342Y-10394831D02*
X15267342Y-10414831D01*
X15267342Y-10459831D02*
X15287342Y-10479831D01*
X15287342Y-10459831D02*
X15267342Y-10479831D01*
X15267342Y-10589830D02*
X15287342Y-10609830D01*
X15287342Y-10589830D02*
X15267342Y-10609830D01*
X15267342Y-10654830D02*
X15287342Y-10674830D01*
X15287342Y-10654830D02*
X15267342Y-10674830D01*
X15267342Y-10784830D02*
X15287342Y-10804830D01*
X15287342Y-10784830D02*
X15267342Y-10804830D01*
X15267342Y-10849830D02*
X15287342Y-10869830D01*
X15287342Y-10849830D02*
X15267342Y-10869830D01*
X15267342Y-10914830D02*
X15287342Y-10934830D01*
X15287342Y-10914830D02*
X15267342Y-10934830D01*
X15267342Y-10979830D02*
X15287342Y-10999830D01*
X15287342Y-10979830D02*
X15267342Y-10999830D01*
X15269840Y-11175391D02*
X15289840Y-11195390D01*
X15289840Y-11175391D02*
X15269840Y-11195390D01*
X15273233Y-10196940D02*
X15293233Y-10216940D01*
X15293233Y-10196940D02*
X15273233Y-10216940D01*
X15274080Y-9860439D02*
X15294080Y-9880439D01*
X15294080Y-9860439D02*
X15274080Y-9880439D01*
X15274080Y-9916319D02*
X15294080Y-9936319D01*
X15294080Y-9916319D02*
X15274080Y-9936319D01*
X15291667Y-11891407D02*
X15311667Y-11911407D01*
X15311667Y-11891407D02*
X15291667Y-11911407D01*
X15291667Y-11967607D02*
X15311667Y-11987607D01*
X15311667Y-11967607D02*
X15291667Y-11987607D01*
X15300947Y-11717622D02*
X15320947Y-11737622D01*
X15320947Y-11717622D02*
X15300947Y-11737622D01*
X15301213Y-11638182D02*
X15321213Y-11658182D01*
X15321213Y-11638182D02*
X15301213Y-11658182D01*
X15302448Y-11561957D02*
X15322448Y-11581957D01*
X15322448Y-11561957D02*
X15302448Y-11581957D01*
X15314936Y-11174757D02*
X15334936Y-11194756D01*
X15334936Y-11174757D02*
X15314936Y-11194756D01*
X15319233Y-10196940D02*
X15339233Y-10216940D01*
X15339233Y-10196940D02*
X15319233Y-10216940D01*
X15327420Y-11986418D02*
X15347420Y-12006418D01*
X15347420Y-11986418D02*
X15327420Y-12006418D01*
X15332342Y-10394831D02*
X15352342Y-10414831D01*
X15352342Y-10394831D02*
X15332342Y-10414831D01*
X15332342Y-10459831D02*
X15352342Y-10479831D01*
X15352342Y-10459831D02*
X15332342Y-10479831D01*
X15332342Y-10524831D02*
X15352342Y-10544831D01*
X15352342Y-10524831D02*
X15332342Y-10544831D01*
X15332342Y-10589831D02*
X15352342Y-10609831D01*
X15352342Y-10589831D02*
X15332342Y-10609831D01*
X15332342Y-10654831D02*
X15352342Y-10674831D01*
X15352342Y-10654831D02*
X15332342Y-10674831D01*
X15332342Y-10719831D02*
X15352342Y-10739831D01*
X15352342Y-10719831D02*
X15332342Y-10739831D01*
X15332342Y-10849830D02*
X15352342Y-10869830D01*
X15352342Y-10849830D02*
X15332342Y-10869830D01*
X15332342Y-10914830D02*
X15352342Y-10934830D01*
X15352342Y-10914830D02*
X15332342Y-10934830D01*
X15332342Y-10979830D02*
X15352342Y-10999830D01*
X15352342Y-10979830D02*
X15332342Y-10999830D01*
X15365233Y-10196940D02*
X15385233Y-10216940D01*
X15385233Y-10196940D02*
X15365233Y-10216940D01*
X15397342Y-10394831D02*
X15417342Y-10414831D01*
X15417342Y-10394831D02*
X15397342Y-10414831D01*
X15397342Y-10459831D02*
X15417342Y-10479831D01*
X15417342Y-10459831D02*
X15397342Y-10479831D01*
X15397342Y-10524831D02*
X15417342Y-10544831D01*
X15417342Y-10524831D02*
X15397342Y-10544831D01*
X15397342Y-10589831D02*
X15417342Y-10609831D01*
X15417342Y-10589831D02*
X15397342Y-10609831D01*
X15397342Y-10654831D02*
X15417342Y-10674831D01*
X15417342Y-10654831D02*
X15397342Y-10674831D01*
X15397342Y-10719831D02*
X15417342Y-10739831D01*
X15417342Y-10719831D02*
X15397342Y-10739831D01*
X15397342Y-10784830D02*
X15417342Y-10804830D01*
X15417342Y-10784830D02*
X15397342Y-10804830D01*
X15397342Y-10849830D02*
X15417342Y-10869830D01*
X15417342Y-10849830D02*
X15397342Y-10869830D01*
X15397342Y-10914830D02*
X15417342Y-10934830D01*
X15417342Y-10914830D02*
X15397342Y-10934830D01*
X15411233Y-10196940D02*
X15431233Y-10216940D01*
X15431233Y-10196940D02*
X15411233Y-10216940D01*
X15417920Y-8885210D02*
X15437920Y-8905210D01*
X15437920Y-8885210D02*
X15417920Y-8905210D01*
X15419642Y-11520050D02*
X15439642Y-11540050D01*
X15439642Y-11520050D02*
X15419642Y-11540050D01*
X15439919Y-10062678D02*
X15459919Y-10082678D01*
X15459919Y-10062678D02*
X15439919Y-10082678D01*
X15442405Y-11061827D02*
X15462405Y-11081827D01*
X15462405Y-11061827D02*
X15442405Y-11081827D01*
X15451633Y-10664230D02*
X15471633Y-10684230D01*
X15471633Y-10664230D02*
X15451633Y-10684230D01*
X15451866Y-10196940D02*
X15471866Y-10216940D01*
X15471866Y-10196940D02*
X15451866Y-10216940D01*
X15478507Y-11190437D02*
X15498507Y-11210437D01*
X15498507Y-11190437D02*
X15478507Y-11210437D01*
X15520620Y-11184930D02*
X15540620Y-11204930D01*
X15540620Y-11184930D02*
X15520620Y-11204930D01*
X15538240Y-9796939D02*
X15558240Y-9816939D01*
X15558240Y-9796939D02*
X15538240Y-9816939D01*
X15551784Y-10193059D02*
X15571784Y-10213059D01*
X15571784Y-10193059D02*
X15551784Y-10213059D01*
X15560570Y-10026088D02*
X15580570Y-10046088D01*
X15580570Y-10026088D02*
X15560570Y-10046088D01*
X15587373Y-10800013D02*
X15607373Y-10820013D01*
X15607373Y-10800013D02*
X15587373Y-10820013D01*
X15587373Y-10984013D02*
X15607373Y-11004013D01*
X15607373Y-10984013D02*
X15587373Y-11004013D01*
X15587373Y-11030014D02*
X15607373Y-11050014D01*
X15607373Y-11030014D02*
X15587373Y-11050014D01*
X15587373Y-11076013D02*
X15607373Y-11096013D01*
X15607373Y-11076013D02*
X15587373Y-11096013D01*
X15587845Y-10390218D02*
X15607845Y-10410218D01*
X15607845Y-10390218D02*
X15587845Y-10410218D01*
X15588206Y-10343880D02*
X15608206Y-10363880D01*
X15608206Y-10343880D02*
X15588206Y-10363880D01*
X15588361Y-10297731D02*
X15608361Y-10317731D01*
X15608361Y-10297731D02*
X15588361Y-10317731D01*
X15589190Y-10250904D02*
X15609190Y-10270904D01*
X15609190Y-10250904D02*
X15589190Y-10270904D01*
X15615988Y-11928227D02*
X15635988Y-11948227D01*
X15635988Y-11928227D02*
X15615988Y-11948227D01*
X15625350Y-10219012D02*
X15645350Y-10239012D01*
X15645350Y-10219012D02*
X15625350Y-10239012D01*
X15642116Y-11461519D02*
X15662116Y-11481519D01*
X15662116Y-11461519D02*
X15642116Y-11481519D01*
X15642380Y-11432698D02*
X15662380Y-11452698D01*
X15662380Y-11432698D02*
X15642380Y-11452698D01*
X15652879Y-9647504D02*
X15672879Y-9667504D01*
X15672879Y-9647504D02*
X15652879Y-9667504D01*
X15653650Y-9686936D02*
X15673650Y-9706936D01*
X15673650Y-9686936D02*
X15653650Y-9706936D01*
X15653650Y-9729001D02*
X15673650Y-9749001D01*
X15673650Y-9729001D02*
X15653650Y-9749001D01*
X15658052Y-11175990D02*
X15678052Y-11195989D01*
X15678052Y-11175990D02*
X15658052Y-11195989D01*
X15665240Y-11927998D02*
X15685240Y-11947998D01*
X15685240Y-11927998D02*
X15665240Y-11947998D01*
X15680480Y-9390539D02*
X15700480Y-9410539D01*
X15700480Y-9390539D02*
X15680480Y-9410539D01*
X15683020Y-9433719D02*
X15703020Y-9453719D01*
X15703020Y-9433719D02*
X15683020Y-9453719D01*
X15686713Y-9873617D02*
X15706713Y-9893617D01*
X15706713Y-9873617D02*
X15686713Y-9893617D01*
X15690219Y-11460868D02*
X15710219Y-11480868D01*
X15710219Y-11460868D02*
X15690219Y-11480868D01*
X15690640Y-11432698D02*
X15710640Y-11452698D01*
X15710640Y-11432698D02*
X15690640Y-11452698D01*
X15715716Y-11929086D02*
X15735716Y-11949086D01*
X15735716Y-11929086D02*
X15715716Y-11949086D01*
X15741440Y-11432698D02*
X15761440Y-11452698D01*
X15761440Y-11432698D02*
X15741440Y-11452698D01*
X15741571Y-11461952D02*
X15761571Y-11481952D01*
X15761571Y-11461952D02*
X15741571Y-11481952D01*
X15742942Y-9689494D02*
X15762942Y-9709494D01*
X15762942Y-9689494D02*
X15742942Y-9709494D01*
X15743980Y-9644539D02*
X15763980Y-9664539D01*
X15763980Y-9644539D02*
X15743980Y-9664539D01*
X15765663Y-11927542D02*
X15785663Y-11947542D01*
X15785663Y-11927542D02*
X15765663Y-11947542D01*
X15768861Y-10444256D02*
X15788861Y-10464256D01*
X15788861Y-10444256D02*
X15768861Y-10464256D01*
X15769704Y-10525511D02*
X15789704Y-10545511D01*
X15789704Y-10525511D02*
X15769704Y-10545511D01*
X15769818Y-10402413D02*
X15789818Y-10422413D01*
X15789818Y-10402413D02*
X15769818Y-10422413D01*
X15770135Y-10485261D02*
X15790135Y-10505261D01*
X15790135Y-10485261D02*
X15770135Y-10505261D01*
X15789721Y-9645016D02*
X15809721Y-9665016D01*
X15809721Y-9645016D02*
X15789721Y-9665016D01*
X15790232Y-9689494D02*
X15810232Y-9709494D01*
X15810232Y-9689494D02*
X15790232Y-9709494D01*
X15815981Y-10402178D02*
X15835981Y-10422178D01*
X15835981Y-10402178D02*
X15815981Y-10422178D01*
X15816196Y-10446733D02*
X15836196Y-10466733D01*
X15836196Y-10446733D02*
X15816196Y-10466733D01*
X15818349Y-10527233D02*
X15838349Y-10547233D01*
X15838349Y-10527233D02*
X15818349Y-10547233D01*
X15818563Y-10486552D02*
X15838563Y-10506552D01*
X15838563Y-10486552D02*
X15818563Y-10506552D01*
X15882496Y-10047772D02*
X15902496Y-10067772D01*
X15902496Y-10047772D02*
X15882496Y-10067772D01*
X15888678Y-10353301D02*
X15908678Y-10373301D01*
X15908678Y-10353301D02*
X15888678Y-10373301D01*
X15896929Y-10182107D02*
X15916929Y-10202107D01*
X15916929Y-10182107D02*
X15896929Y-10202107D01*
X15905545Y-10675589D02*
X15925545Y-10695589D01*
X15925545Y-10675589D02*
X15905545Y-10695589D01*
X15906057Y-10719827D02*
X15926057Y-10739827D01*
X15926057Y-10719827D02*
X15906057Y-10739827D01*
X15906312Y-10763554D02*
X15926312Y-10783554D01*
X15926312Y-10763554D02*
X15906312Y-10783554D01*
X15906540Y-10805319D02*
X15926540Y-10825319D01*
X15926540Y-10805319D02*
X15906540Y-10825319D01*
X15906540Y-10845959D02*
X15926540Y-10865959D01*
X15926540Y-10845959D02*
X15906540Y-10865959D01*
X14453116Y-8974655D02*
G75*
G02*
X14393116Y-8974655I-30000J0D01*
G01*
X14393116Y-8974655D02*
G75*
G02*
X14453116Y-8974655I30000J0D01*
G01*
X14393116Y-8899655D02*
X14393116Y-9049655D01*
X14453116Y-9049655D02*
G75*
G02*
X14393116Y-9049655I-30000J0D01*
G01*
X14453116Y-9049655D02*
X14453116Y-8899655D01*
X14453116Y-8899655D02*
G75*
G03*
X14393116Y-8899655I-30000J0D01*
G01*
X14453116Y-9510655D02*
G75*
G02*
X14393116Y-9510655I-30000J0D01*
G01*
X14393116Y-9510655D02*
G75*
G02*
X14453116Y-9510655I30000J0D01*
G01*
X14393116Y-9460655D02*
X14393116Y-9560655D01*
X14453116Y-9560655D02*
G75*
G02*
X14393116Y-9560655I-30000J0D01*
G01*
X14453116Y-9560655D02*
X14453116Y-9460655D01*
X14453116Y-9460655D02*
G75*
G03*
X14393116Y-9460655I-30000J0D01*
G01*
X15317112Y-8974656D02*
G75*
G02*
X15257112Y-8974656I-30000J0D01*
G01*
X15257112Y-8974656D02*
G75*
G02*
X15317112Y-8974656I30000J0D01*
G01*
X15257112Y-8899657D02*
X15257112Y-9049654D01*
X15317112Y-9049654D02*
G75*
G02*
X15257112Y-9049654I-30000J0D01*
G01*
X15317112Y-9049654D02*
X15317112Y-8899657D01*
X15317112Y-8899657D02*
G75*
G03*
X15257112Y-8899657I-30000J0D01*
G01*
X15317112Y-9510655D02*
G75*
G02*
X15257112Y-9510655I-30000J0D01*
G01*
X15257112Y-9510655D02*
G75*
G02*
X15317112Y-9510655I30000J0D01*
G01*
X15257112Y-9460655D02*
X15257112Y-9560655D01*
X15317112Y-9560655D02*
G75*
G02*
X15257112Y-9560655I-30000J0D01*
G01*
X15317112Y-9560655D02*
X15317112Y-9460655D01*
X15317112Y-9460655D02*
G75*
G03*
X15257112Y-9460655I-30000J0D01*
G01*
D13*
X14049640Y-8935079D02*
X14049640Y-9255079D01*
X13889640Y-9095079D02*
X14209640Y-9095079D01*
X15649642Y-8935079D02*
X15649642Y-9255079D01*
X15489642Y-9095079D02*
X15809642Y-9095079D01*
D11*
X14006396Y-12498365D02*
X14006396Y-12298365D01*
X14006396Y-12298365D02*
X14054015Y-12298365D01*
X14054015Y-12298365D02*
X14082587Y-12307889D01*
X14082587Y-12307889D02*
X14101634Y-12326937D01*
X14101634Y-12326937D02*
X14111158Y-12345984D01*
X14111158Y-12345984D02*
X14120682Y-12384079D01*
X14120682Y-12384079D02*
X14120682Y-12412651D01*
X14120682Y-12412651D02*
X14111158Y-12450746D01*
X14111158Y-12450746D02*
X14101634Y-12469794D01*
X14101634Y-12469794D02*
X14082587Y-12488841D01*
X14082587Y-12488841D02*
X14054015Y-12498365D01*
X14054015Y-12498365D02*
X14006396Y-12498365D01*
X14206396Y-12498365D02*
X14206396Y-12365032D01*
X14206396Y-12403127D02*
X14215920Y-12384079D01*
X14215920Y-12384079D02*
X14225444Y-12374556D01*
X14225444Y-12374556D02*
X14244491Y-12365032D01*
X14244491Y-12365032D02*
X14263539Y-12365032D01*
X14330206Y-12498365D02*
X14330206Y-12365032D01*
X14330206Y-12298365D02*
X14320682Y-12307889D01*
X14320682Y-12307889D02*
X14330206Y-12317413D01*
X14330206Y-12317413D02*
X14339730Y-12307889D01*
X14339730Y-12307889D02*
X14330206Y-12298365D01*
X14330206Y-12298365D02*
X14330206Y-12317413D01*
X14454015Y-12498365D02*
X14434968Y-12488841D01*
X14434968Y-12488841D02*
X14425444Y-12469794D01*
X14425444Y-12469794D02*
X14425444Y-12298365D01*
X14558777Y-12498365D02*
X14539730Y-12488841D01*
X14539730Y-12488841D02*
X14530206Y-12469794D01*
X14530206Y-12469794D02*
X14530206Y-12298365D01*
X14787349Y-12498365D02*
X14787349Y-12298365D01*
X14787349Y-12298365D02*
X14854015Y-12441222D01*
X14854015Y-12441222D02*
X14920682Y-12298365D01*
X14920682Y-12298365D02*
X14920682Y-12498365D01*
X15101634Y-12498365D02*
X15101634Y-12393603D01*
X15101634Y-12393603D02*
X15092111Y-12374556D01*
X15092111Y-12374556D02*
X15073063Y-12365032D01*
X15073063Y-12365032D02*
X15034968Y-12365032D01*
X15034968Y-12365032D02*
X15015920Y-12374556D01*
X15101634Y-12488841D02*
X15082587Y-12498365D01*
X15082587Y-12498365D02*
X15034968Y-12498365D01*
X15034968Y-12498365D02*
X15015920Y-12488841D01*
X15015920Y-12488841D02*
X15006396Y-12469794D01*
X15006396Y-12469794D02*
X15006396Y-12450746D01*
X15006396Y-12450746D02*
X15015920Y-12431699D01*
X15015920Y-12431699D02*
X15034968Y-12422175D01*
X15034968Y-12422175D02*
X15082587Y-12422175D01*
X15082587Y-12422175D02*
X15101634Y-12412651D01*
X15196872Y-12365032D02*
X15196872Y-12565032D01*
X15196872Y-12374556D02*
X15215920Y-12365032D01*
X15215920Y-12365032D02*
X15254015Y-12365032D01*
X15254015Y-12365032D02*
X15273063Y-12374556D01*
X15273063Y-12374556D02*
X15282587Y-12384079D01*
X15282587Y-12384079D02*
X15292111Y-12403127D01*
X15292111Y-12403127D02*
X15292111Y-12460270D01*
X15292111Y-12460270D02*
X15282587Y-12479318D01*
X15282587Y-12479318D02*
X15273063Y-12488841D01*
X15273063Y-12488841D02*
X15254015Y-12498365D01*
X15254015Y-12498365D02*
X15215920Y-12498365D01*
X15215920Y-12498365D02*
X15196872Y-12488841D01*
X15377825Y-12479318D02*
X15387349Y-12488841D01*
X15387349Y-12488841D02*
X15377825Y-12498365D01*
X15377825Y-12498365D02*
X15368301Y-12488841D01*
X15368301Y-12488841D02*
X15377825Y-12479318D01*
X15377825Y-12479318D02*
X15377825Y-12498365D01*
X15377825Y-12374556D02*
X15387349Y-12384079D01*
X15387349Y-12384079D02*
X15377825Y-12393603D01*
X15377825Y-12393603D02*
X15368301Y-12384079D01*
X15368301Y-12384079D02*
X15377825Y-12374556D01*
X15377825Y-12374556D02*
X15377825Y-12393603D01*
D12*
X13725619Y-12816881D02*
X13745619Y-12836881D01*
X13745619Y-12816881D02*
X13725619Y-12836881D01*
D11*
X14044491Y-12718365D02*
X14063539Y-12718365D01*
X14063539Y-12718365D02*
X14082587Y-12727889D01*
X14082587Y-12727889D02*
X14092111Y-12737413D01*
X14092111Y-12737413D02*
X14101634Y-12756460D01*
X14101634Y-12756460D02*
X14111158Y-12794556D01*
X14111158Y-12794556D02*
X14111158Y-12842175D01*
X14111158Y-12842175D02*
X14101634Y-12880270D01*
X14101634Y-12880270D02*
X14092111Y-12899318D01*
X14092111Y-12899318D02*
X14082587Y-12908841D01*
X14082587Y-12908841D02*
X14063539Y-12918365D01*
X14063539Y-12918365D02*
X14044491Y-12918365D01*
X14044491Y-12918365D02*
X14025444Y-12908841D01*
X14025444Y-12908841D02*
X14015920Y-12899318D01*
X14015920Y-12899318D02*
X14006396Y-12880270D01*
X14006396Y-12880270D02*
X13996872Y-12842175D01*
X13996872Y-12842175D02*
X13996872Y-12794556D01*
X13996872Y-12794556D02*
X14006396Y-12756460D01*
X14006396Y-12756460D02*
X14015920Y-12737413D01*
X14015920Y-12737413D02*
X14025444Y-12727889D01*
X14025444Y-12727889D02*
X14044491Y-12718365D01*
X14196872Y-12899318D02*
X14206396Y-12908841D01*
X14206396Y-12908841D02*
X14196872Y-12918365D01*
X14196872Y-12918365D02*
X14187349Y-12908841D01*
X14187349Y-12908841D02*
X14196872Y-12899318D01*
X14196872Y-12899318D02*
X14196872Y-12918365D01*
X14282587Y-12737413D02*
X14292111Y-12727889D01*
X14292111Y-12727889D02*
X14311158Y-12718365D01*
X14311158Y-12718365D02*
X14358777Y-12718365D01*
X14358777Y-12718365D02*
X14377825Y-12727889D01*
X14377825Y-12727889D02*
X14387349Y-12737413D01*
X14387349Y-12737413D02*
X14396872Y-12756460D01*
X14396872Y-12756460D02*
X14396872Y-12775508D01*
X14396872Y-12775508D02*
X14387349Y-12804079D01*
X14387349Y-12804079D02*
X14273063Y-12918365D01*
X14273063Y-12918365D02*
X14396872Y-12918365D01*
X14520682Y-12718365D02*
X14539730Y-12718365D01*
X14539730Y-12718365D02*
X14558777Y-12727889D01*
X14558777Y-12727889D02*
X14568301Y-12737413D01*
X14568301Y-12737413D02*
X14577825Y-12756460D01*
X14577825Y-12756460D02*
X14587349Y-12794556D01*
X14587349Y-12794556D02*
X14587349Y-12842175D01*
X14587349Y-12842175D02*
X14577825Y-12880270D01*
X14577825Y-12880270D02*
X14568301Y-12899318D01*
X14568301Y-12899318D02*
X14558777Y-12908841D01*
X14558777Y-12908841D02*
X14539730Y-12918365D01*
X14539730Y-12918365D02*
X14520682Y-12918365D01*
X14520682Y-12918365D02*
X14501634Y-12908841D01*
X14501634Y-12908841D02*
X14492111Y-12899318D01*
X14492111Y-12899318D02*
X14482587Y-12880270D01*
X14482587Y-12880270D02*
X14473063Y-12842175D01*
X14473063Y-12842175D02*
X14473063Y-12794556D01*
X14473063Y-12794556D02*
X14482587Y-12756460D01*
X14482587Y-12756460D02*
X14492111Y-12737413D01*
X14492111Y-12737413D02*
X14501634Y-12727889D01*
X14501634Y-12727889D02*
X14520682Y-12718365D01*
X14711158Y-12718365D02*
X14730206Y-12718365D01*
X14730206Y-12718365D02*
X14749253Y-12727889D01*
X14749253Y-12727889D02*
X14758777Y-12737413D01*
X14758777Y-12737413D02*
X14768301Y-12756460D01*
X14768301Y-12756460D02*
X14777825Y-12794556D01*
X14777825Y-12794556D02*
X14777825Y-12842175D01*
X14777825Y-12842175D02*
X14768301Y-12880270D01*
X14768301Y-12880270D02*
X14758777Y-12899318D01*
X14758777Y-12899318D02*
X14749253Y-12908841D01*
X14749253Y-12908841D02*
X14730206Y-12918365D01*
X14730206Y-12918365D02*
X14711158Y-12918365D01*
X14711158Y-12918365D02*
X14692111Y-12908841D01*
X14692111Y-12908841D02*
X14682587Y-12899318D01*
X14682587Y-12899318D02*
X14673063Y-12880270D01*
X14673063Y-12880270D02*
X14663539Y-12842175D01*
X14663539Y-12842175D02*
X14663539Y-12794556D01*
X14663539Y-12794556D02*
X14673063Y-12756460D01*
X14673063Y-12756460D02*
X14682587Y-12737413D01*
X14682587Y-12737413D02*
X14692111Y-12727889D01*
X14692111Y-12727889D02*
X14711158Y-12718365D01*
X14863539Y-12918365D02*
X14863539Y-12785032D01*
X14863539Y-12804079D02*
X14873063Y-12794556D01*
X14873063Y-12794556D02*
X14892111Y-12785032D01*
X14892111Y-12785032D02*
X14920682Y-12785032D01*
X14920682Y-12785032D02*
X14939730Y-12794556D01*
X14939730Y-12794556D02*
X14949253Y-12813603D01*
X14949253Y-12813603D02*
X14949253Y-12918365D01*
X14949253Y-12813603D02*
X14958777Y-12794556D01*
X14958777Y-12794556D02*
X14977825Y-12785032D01*
X14977825Y-12785032D02*
X15006396Y-12785032D01*
X15006396Y-12785032D02*
X15025444Y-12794556D01*
X15025444Y-12794556D02*
X15034968Y-12813603D01*
X15034968Y-12813603D02*
X15034968Y-12918365D01*
X15130206Y-12918365D02*
X15130206Y-12785032D01*
X15130206Y-12804079D02*
X15139730Y-12794556D01*
X15139730Y-12794556D02*
X15158777Y-12785032D01*
X15158777Y-12785032D02*
X15187349Y-12785032D01*
X15187349Y-12785032D02*
X15206396Y-12794556D01*
X15206396Y-12794556D02*
X15215920Y-12813603D01*
X15215920Y-12813603D02*
X15215920Y-12918365D01*
X15215920Y-12813603D02*
X15225444Y-12794556D01*
X15225444Y-12794556D02*
X15244492Y-12785032D01*
X15244492Y-12785032D02*
X15273063Y-12785032D01*
X15273063Y-12785032D02*
X15292111Y-12794556D01*
X15292111Y-12794556D02*
X15301634Y-12813603D01*
X15301634Y-12813603D02*
X15301634Y-12918365D01*
X15692111Y-12708841D02*
X15520682Y-12965984D01*
X15949254Y-12718365D02*
X15968301Y-12718365D01*
X15968301Y-12718365D02*
X15987349Y-12727889D01*
X15987349Y-12727889D02*
X15996873Y-12737413D01*
X15996873Y-12737413D02*
X16006396Y-12756460D01*
X16006396Y-12756460D02*
X16015920Y-12794556D01*
X16015920Y-12794556D02*
X16015920Y-12842175D01*
X16015920Y-12842175D02*
X16006396Y-12880270D01*
X16006396Y-12880270D02*
X15996873Y-12899318D01*
X15996873Y-12899318D02*
X15987349Y-12908841D01*
X15987349Y-12908841D02*
X15968301Y-12918365D01*
X15968301Y-12918365D02*
X15949254Y-12918365D01*
X15949254Y-12918365D02*
X15930206Y-12908841D01*
X15930206Y-12908841D02*
X15920682Y-12899318D01*
X15920682Y-12899318D02*
X15911158Y-12880270D01*
X15911158Y-12880270D02*
X15901635Y-12842175D01*
X15901635Y-12842175D02*
X15901635Y-12794556D01*
X15901635Y-12794556D02*
X15911158Y-12756460D01*
X15911158Y-12756460D02*
X15920682Y-12737413D01*
X15920682Y-12737413D02*
X15930206Y-12727889D01*
X15930206Y-12727889D02*
X15949254Y-12718365D01*
X16101635Y-12899318D02*
X16111158Y-12908841D01*
X16111158Y-12908841D02*
X16101635Y-12918365D01*
X16101635Y-12918365D02*
X16092111Y-12908841D01*
X16092111Y-12908841D02*
X16101635Y-12899318D01*
X16101635Y-12899318D02*
X16101635Y-12918365D01*
X16234968Y-12718365D02*
X16254016Y-12718365D01*
X16254016Y-12718365D02*
X16273063Y-12727889D01*
X16273063Y-12727889D02*
X16282587Y-12737413D01*
X16282587Y-12737413D02*
X16292111Y-12756460D01*
X16292111Y-12756460D02*
X16301635Y-12794556D01*
X16301635Y-12794556D02*
X16301635Y-12842175D01*
X16301635Y-12842175D02*
X16292111Y-12880270D01*
X16292111Y-12880270D02*
X16282587Y-12899318D01*
X16282587Y-12899318D02*
X16273063Y-12908841D01*
X16273063Y-12908841D02*
X16254016Y-12918365D01*
X16254016Y-12918365D02*
X16234968Y-12918365D01*
X16234968Y-12918365D02*
X16215920Y-12908841D01*
X16215920Y-12908841D02*
X16206396Y-12899318D01*
X16206396Y-12899318D02*
X16196873Y-12880270D01*
X16196873Y-12880270D02*
X16187349Y-12842175D01*
X16187349Y-12842175D02*
X16187349Y-12794556D01*
X16187349Y-12794556D02*
X16196873Y-12756460D01*
X16196873Y-12756460D02*
X16206396Y-12737413D01*
X16206396Y-12737413D02*
X16215920Y-12727889D01*
X16215920Y-12727889D02*
X16234968Y-12718365D01*
X16425444Y-12718365D02*
X16444492Y-12718365D01*
X16444492Y-12718365D02*
X16463539Y-12727889D01*
X16463539Y-12727889D02*
X16473063Y-12737413D01*
X16473063Y-12737413D02*
X16482587Y-12756460D01*
X16482587Y-12756460D02*
X16492111Y-12794556D01*
X16492111Y-12794556D02*
X16492111Y-12842175D01*
X16492111Y-12842175D02*
X16482587Y-12880270D01*
X16482587Y-12880270D02*
X16473063Y-12899318D01*
X16473063Y-12899318D02*
X16463539Y-12908841D01*
X16463539Y-12908841D02*
X16444492Y-12918365D01*
X16444492Y-12918365D02*
X16425444Y-12918365D01*
X16425444Y-12918365D02*
X16406396Y-12908841D01*
X16406396Y-12908841D02*
X16396873Y-12899318D01*
X16396873Y-12899318D02*
X16387349Y-12880270D01*
X16387349Y-12880270D02*
X16377825Y-12842175D01*
X16377825Y-12842175D02*
X16377825Y-12794556D01*
X16377825Y-12794556D02*
X16387349Y-12756460D01*
X16387349Y-12756460D02*
X16396873Y-12737413D01*
X16396873Y-12737413D02*
X16406396Y-12727889D01*
X16406396Y-12727889D02*
X16425444Y-12718365D01*
X16558777Y-12718365D02*
X16692111Y-12718365D01*
X16692111Y-12718365D02*
X16606396Y-12918365D01*
X16777825Y-12918365D02*
X16815920Y-12918365D01*
X16815920Y-12918365D02*
X16834968Y-12908841D01*
X16834968Y-12908841D02*
X16844492Y-12899318D01*
X16844492Y-12899318D02*
X16863539Y-12870746D01*
X16863539Y-12870746D02*
X16873063Y-12832651D01*
X16873063Y-12832651D02*
X16873063Y-12756460D01*
X16873063Y-12756460D02*
X16863539Y-12737413D01*
X16863539Y-12737413D02*
X16854016Y-12727889D01*
X16854016Y-12727889D02*
X16834968Y-12718365D01*
X16834968Y-12718365D02*
X16796873Y-12718365D01*
X16796873Y-12718365D02*
X16777825Y-12727889D01*
X16777825Y-12727889D02*
X16768301Y-12737413D01*
X16768301Y-12737413D02*
X16758777Y-12756460D01*
X16758777Y-12756460D02*
X16758777Y-12804079D01*
X16758777Y-12804079D02*
X16768301Y-12823127D01*
X16768301Y-12823127D02*
X16777825Y-12832651D01*
X16777825Y-12832651D02*
X16796873Y-12842175D01*
X16796873Y-12842175D02*
X16834968Y-12842175D01*
X16834968Y-12842175D02*
X16854016Y-12832651D01*
X16854016Y-12832651D02*
X16863539Y-12823127D01*
X16863539Y-12823127D02*
X16873063Y-12804079D01*
X16949254Y-12718365D02*
X16949254Y-12756460D01*
X17025444Y-12718365D02*
X17025444Y-12756460D01*
X17320682Y-12994556D02*
X17311159Y-12985032D01*
X17311159Y-12985032D02*
X17292111Y-12956460D01*
X17292111Y-12956460D02*
X17282587Y-12937413D01*
X17282587Y-12937413D02*
X17273063Y-12908841D01*
X17273063Y-12908841D02*
X17263540Y-12861222D01*
X17263540Y-12861222D02*
X17263540Y-12823127D01*
X17263540Y-12823127D02*
X17273063Y-12775508D01*
X17273063Y-12775508D02*
X17282587Y-12746937D01*
X17282587Y-12746937D02*
X17292111Y-12727889D01*
X17292111Y-12727889D02*
X17311159Y-12699318D01*
X17311159Y-12699318D02*
X17320682Y-12689794D01*
X17482587Y-12785032D02*
X17482587Y-12918365D01*
X17434968Y-12708841D02*
X17387349Y-12851699D01*
X17387349Y-12851699D02*
X17511159Y-12851699D01*
X17568301Y-12718365D02*
X17692111Y-12718365D01*
X17692111Y-12718365D02*
X17625444Y-12794556D01*
X17625444Y-12794556D02*
X17654016Y-12794556D01*
X17654016Y-12794556D02*
X17673063Y-12804079D01*
X17673063Y-12804079D02*
X17682587Y-12813603D01*
X17682587Y-12813603D02*
X17692111Y-12832651D01*
X17692111Y-12832651D02*
X17692111Y-12880270D01*
X17692111Y-12880270D02*
X17682587Y-12899318D01*
X17682587Y-12899318D02*
X17673063Y-12908841D01*
X17673063Y-12908841D02*
X17654016Y-12918365D01*
X17654016Y-12918365D02*
X17596873Y-12918365D01*
X17596873Y-12918365D02*
X17577825Y-12908841D01*
X17577825Y-12908841D02*
X17568301Y-12899318D01*
X17815920Y-12718365D02*
X17834968Y-12718365D01*
X17834968Y-12718365D02*
X17854016Y-12727889D01*
X17854016Y-12727889D02*
X17863540Y-12737413D01*
X17863540Y-12737413D02*
X17873063Y-12756460D01*
X17873063Y-12756460D02*
X17882587Y-12794556D01*
X17882587Y-12794556D02*
X17882587Y-12842175D01*
X17882587Y-12842175D02*
X17873063Y-12880270D01*
X17873063Y-12880270D02*
X17863540Y-12899318D01*
X17863540Y-12899318D02*
X17854016Y-12908841D01*
X17854016Y-12908841D02*
X17834968Y-12918365D01*
X17834968Y-12918365D02*
X17815920Y-12918365D01*
X17815920Y-12918365D02*
X17796873Y-12908841D01*
X17796873Y-12908841D02*
X17787349Y-12899318D01*
X17787349Y-12899318D02*
X17777825Y-12880270D01*
X17777825Y-12880270D02*
X17768301Y-12842175D01*
X17768301Y-12842175D02*
X17768301Y-12794556D01*
X17768301Y-12794556D02*
X17777825Y-12756460D01*
X17777825Y-12756460D02*
X17787349Y-12737413D01*
X17787349Y-12737413D02*
X17796873Y-12727889D01*
X17796873Y-12727889D02*
X17815920Y-12718365D01*
X18120682Y-12918365D02*
X18120682Y-12718365D01*
X18206397Y-12918365D02*
X18206397Y-12813603D01*
X18206397Y-12813603D02*
X18196873Y-12794556D01*
X18196873Y-12794556D02*
X18177825Y-12785032D01*
X18177825Y-12785032D02*
X18149254Y-12785032D01*
X18149254Y-12785032D02*
X18130206Y-12794556D01*
X18130206Y-12794556D02*
X18120682Y-12804079D01*
X18330206Y-12918365D02*
X18311159Y-12908841D01*
X18311159Y-12908841D02*
X18301635Y-12899318D01*
X18301635Y-12899318D02*
X18292111Y-12880270D01*
X18292111Y-12880270D02*
X18292111Y-12823127D01*
X18292111Y-12823127D02*
X18301635Y-12804079D01*
X18301635Y-12804079D02*
X18311159Y-12794556D01*
X18311159Y-12794556D02*
X18330206Y-12785032D01*
X18330206Y-12785032D02*
X18358778Y-12785032D01*
X18358778Y-12785032D02*
X18377825Y-12794556D01*
X18377825Y-12794556D02*
X18387349Y-12804079D01*
X18387349Y-12804079D02*
X18396873Y-12823127D01*
X18396873Y-12823127D02*
X18396873Y-12880270D01*
X18396873Y-12880270D02*
X18387349Y-12899318D01*
X18387349Y-12899318D02*
X18377825Y-12908841D01*
X18377825Y-12908841D02*
X18358778Y-12918365D01*
X18358778Y-12918365D02*
X18330206Y-12918365D01*
X18511159Y-12918365D02*
X18492111Y-12908841D01*
X18492111Y-12908841D02*
X18482587Y-12889794D01*
X18482587Y-12889794D02*
X18482587Y-12718365D01*
X18663540Y-12908841D02*
X18644492Y-12918365D01*
X18644492Y-12918365D02*
X18606397Y-12918365D01*
X18606397Y-12918365D02*
X18587349Y-12908841D01*
X18587349Y-12908841D02*
X18577825Y-12889794D01*
X18577825Y-12889794D02*
X18577825Y-12813603D01*
X18577825Y-12813603D02*
X18587349Y-12794556D01*
X18587349Y-12794556D02*
X18606397Y-12785032D01*
X18606397Y-12785032D02*
X18644492Y-12785032D01*
X18644492Y-12785032D02*
X18663540Y-12794556D01*
X18663540Y-12794556D02*
X18673063Y-12813603D01*
X18673063Y-12813603D02*
X18673063Y-12832651D01*
X18673063Y-12832651D02*
X18577825Y-12851699D01*
X18749254Y-12908841D02*
X18768302Y-12918365D01*
X18768302Y-12918365D02*
X18806397Y-12918365D01*
X18806397Y-12918365D02*
X18825444Y-12908841D01*
X18825444Y-12908841D02*
X18834968Y-12889794D01*
X18834968Y-12889794D02*
X18834968Y-12880270D01*
X18834968Y-12880270D02*
X18825444Y-12861222D01*
X18825444Y-12861222D02*
X18806397Y-12851699D01*
X18806397Y-12851699D02*
X18777825Y-12851699D01*
X18777825Y-12851699D02*
X18758778Y-12842175D01*
X18758778Y-12842175D02*
X18749254Y-12823127D01*
X18749254Y-12823127D02*
X18749254Y-12813603D01*
X18749254Y-12813603D02*
X18758778Y-12794556D01*
X18758778Y-12794556D02*
X18777825Y-12785032D01*
X18777825Y-12785032D02*
X18806397Y-12785032D01*
X18806397Y-12785032D02*
X18825444Y-12794556D01*
X18901635Y-12994556D02*
X18911159Y-12985032D01*
X18911159Y-12985032D02*
X18930206Y-12956460D01*
X18930206Y-12956460D02*
X18939730Y-12937413D01*
X18939730Y-12937413D02*
X18949254Y-12908841D01*
X18949254Y-12908841D02*
X18958778Y-12861222D01*
X18958778Y-12861222D02*
X18958778Y-12823127D01*
X18958778Y-12823127D02*
X18949254Y-12775508D01*
X18949254Y-12775508D02*
X18939730Y-12746937D01*
X18939730Y-12746937D02*
X18930206Y-12727889D01*
X18930206Y-12727889D02*
X18911159Y-12699318D01*
X18911159Y-12699318D02*
X18901635Y-12689794D01*
D12*
X13745619Y-13090881D02*
G75*
G02*
X13685619Y-13090881I-30000J0D01*
G01*
X13685619Y-13090881D02*
G75*
G02*
X13745619Y-13090881I30000J0D01*
G01*
D11*
X14044491Y-12982365D02*
X14063539Y-12982365D01*
X14063539Y-12982365D02*
X14082587Y-12991889D01*
X14082587Y-12991889D02*
X14092111Y-13001413D01*
X14092111Y-13001413D02*
X14101634Y-13020460D01*
X14101634Y-13020460D02*
X14111158Y-13058556D01*
X14111158Y-13058556D02*
X14111158Y-13106175D01*
X14111158Y-13106175D02*
X14101634Y-13144270D01*
X14101634Y-13144270D02*
X14092111Y-13163318D01*
X14092111Y-13163318D02*
X14082587Y-13172841D01*
X14082587Y-13172841D02*
X14063539Y-13182365D01*
X14063539Y-13182365D02*
X14044491Y-13182365D01*
X14044491Y-13182365D02*
X14025444Y-13172841D01*
X14025444Y-13172841D02*
X14015920Y-13163318D01*
X14015920Y-13163318D02*
X14006396Y-13144270D01*
X14006396Y-13144270D02*
X13996872Y-13106175D01*
X13996872Y-13106175D02*
X13996872Y-13058556D01*
X13996872Y-13058556D02*
X14006396Y-13020460D01*
X14006396Y-13020460D02*
X14015920Y-13001413D01*
X14015920Y-13001413D02*
X14025444Y-12991889D01*
X14025444Y-12991889D02*
X14044491Y-12982365D01*
X14196872Y-13163318D02*
X14206396Y-13172841D01*
X14206396Y-13172841D02*
X14196872Y-13182365D01*
X14196872Y-13182365D02*
X14187349Y-13172841D01*
X14187349Y-13172841D02*
X14196872Y-13163318D01*
X14196872Y-13163318D02*
X14196872Y-13182365D01*
X14377825Y-12982365D02*
X14339730Y-12982365D01*
X14339730Y-12982365D02*
X14320682Y-12991889D01*
X14320682Y-12991889D02*
X14311158Y-13001413D01*
X14311158Y-13001413D02*
X14292111Y-13029984D01*
X14292111Y-13029984D02*
X14282587Y-13068079D01*
X14282587Y-13068079D02*
X14282587Y-13144270D01*
X14282587Y-13144270D02*
X14292111Y-13163318D01*
X14292111Y-13163318D02*
X14301634Y-13172841D01*
X14301634Y-13172841D02*
X14320682Y-13182365D01*
X14320682Y-13182365D02*
X14358777Y-13182365D01*
X14358777Y-13182365D02*
X14377825Y-13172841D01*
X14377825Y-13172841D02*
X14387349Y-13163318D01*
X14387349Y-13163318D02*
X14396872Y-13144270D01*
X14396872Y-13144270D02*
X14396872Y-13096651D01*
X14396872Y-13096651D02*
X14387349Y-13077603D01*
X14387349Y-13077603D02*
X14377825Y-13068079D01*
X14377825Y-13068079D02*
X14358777Y-13058556D01*
X14358777Y-13058556D02*
X14320682Y-13058556D01*
X14320682Y-13058556D02*
X14301634Y-13068079D01*
X14301634Y-13068079D02*
X14292111Y-13077603D01*
X14292111Y-13077603D02*
X14282587Y-13096651D01*
X14520682Y-12982365D02*
X14539730Y-12982365D01*
X14539730Y-12982365D02*
X14558777Y-12991889D01*
X14558777Y-12991889D02*
X14568301Y-13001413D01*
X14568301Y-13001413D02*
X14577825Y-13020460D01*
X14577825Y-13020460D02*
X14587349Y-13058556D01*
X14587349Y-13058556D02*
X14587349Y-13106175D01*
X14587349Y-13106175D02*
X14577825Y-13144270D01*
X14577825Y-13144270D02*
X14568301Y-13163318D01*
X14568301Y-13163318D02*
X14558777Y-13172841D01*
X14558777Y-13172841D02*
X14539730Y-13182365D01*
X14539730Y-13182365D02*
X14520682Y-13182365D01*
X14520682Y-13182365D02*
X14501634Y-13172841D01*
X14501634Y-13172841D02*
X14492111Y-13163318D01*
X14492111Y-13163318D02*
X14482587Y-13144270D01*
X14482587Y-13144270D02*
X14473063Y-13106175D01*
X14473063Y-13106175D02*
X14473063Y-13058556D01*
X14473063Y-13058556D02*
X14482587Y-13020460D01*
X14482587Y-13020460D02*
X14492111Y-13001413D01*
X14492111Y-13001413D02*
X14501634Y-12991889D01*
X14501634Y-12991889D02*
X14520682Y-12982365D01*
X14711158Y-12982365D02*
X14730206Y-12982365D01*
X14730206Y-12982365D02*
X14749253Y-12991889D01*
X14749253Y-12991889D02*
X14758777Y-13001413D01*
X14758777Y-13001413D02*
X14768301Y-13020460D01*
X14768301Y-13020460D02*
X14777825Y-13058556D01*
X14777825Y-13058556D02*
X14777825Y-13106175D01*
X14777825Y-13106175D02*
X14768301Y-13144270D01*
X14768301Y-13144270D02*
X14758777Y-13163318D01*
X14758777Y-13163318D02*
X14749253Y-13172841D01*
X14749253Y-13172841D02*
X14730206Y-13182365D01*
X14730206Y-13182365D02*
X14711158Y-13182365D01*
X14711158Y-13182365D02*
X14692111Y-13172841D01*
X14692111Y-13172841D02*
X14682587Y-13163318D01*
X14682587Y-13163318D02*
X14673063Y-13144270D01*
X14673063Y-13144270D02*
X14663539Y-13106175D01*
X14663539Y-13106175D02*
X14663539Y-13058556D01*
X14663539Y-13058556D02*
X14673063Y-13020460D01*
X14673063Y-13020460D02*
X14682587Y-13001413D01*
X14682587Y-13001413D02*
X14692111Y-12991889D01*
X14692111Y-12991889D02*
X14711158Y-12982365D01*
X14863539Y-13182365D02*
X14863539Y-13049032D01*
X14863539Y-13068079D02*
X14873063Y-13058556D01*
X14873063Y-13058556D02*
X14892111Y-13049032D01*
X14892111Y-13049032D02*
X14920682Y-13049032D01*
X14920682Y-13049032D02*
X14939730Y-13058556D01*
X14939730Y-13058556D02*
X14949253Y-13077603D01*
X14949253Y-13077603D02*
X14949253Y-13182365D01*
X14949253Y-13077603D02*
X14958777Y-13058556D01*
X14958777Y-13058556D02*
X14977825Y-13049032D01*
X14977825Y-13049032D02*
X15006396Y-13049032D01*
X15006396Y-13049032D02*
X15025444Y-13058556D01*
X15025444Y-13058556D02*
X15034968Y-13077603D01*
X15034968Y-13077603D02*
X15034968Y-13182365D01*
X15130206Y-13182365D02*
X15130206Y-13049032D01*
X15130206Y-13068079D02*
X15139730Y-13058556D01*
X15139730Y-13058556D02*
X15158777Y-13049032D01*
X15158777Y-13049032D02*
X15187349Y-13049032D01*
X15187349Y-13049032D02*
X15206396Y-13058556D01*
X15206396Y-13058556D02*
X15215920Y-13077603D01*
X15215920Y-13077603D02*
X15215920Y-13182365D01*
X15215920Y-13077603D02*
X15225444Y-13058556D01*
X15225444Y-13058556D02*
X15244492Y-13049032D01*
X15244492Y-13049032D02*
X15273063Y-13049032D01*
X15273063Y-13049032D02*
X15292111Y-13058556D01*
X15292111Y-13058556D02*
X15301634Y-13077603D01*
X15301634Y-13077603D02*
X15301634Y-13182365D01*
X15692111Y-12972841D02*
X15520682Y-13229984D01*
X15949254Y-12982365D02*
X15968301Y-12982365D01*
X15968301Y-12982365D02*
X15987349Y-12991889D01*
X15987349Y-12991889D02*
X15996873Y-13001413D01*
X15996873Y-13001413D02*
X16006396Y-13020460D01*
X16006396Y-13020460D02*
X16015920Y-13058556D01*
X16015920Y-13058556D02*
X16015920Y-13106175D01*
X16015920Y-13106175D02*
X16006396Y-13144270D01*
X16006396Y-13144270D02*
X15996873Y-13163318D01*
X15996873Y-13163318D02*
X15987349Y-13172841D01*
X15987349Y-13172841D02*
X15968301Y-13182365D01*
X15968301Y-13182365D02*
X15949254Y-13182365D01*
X15949254Y-13182365D02*
X15930206Y-13172841D01*
X15930206Y-13172841D02*
X15920682Y-13163318D01*
X15920682Y-13163318D02*
X15911158Y-13144270D01*
X15911158Y-13144270D02*
X15901635Y-13106175D01*
X15901635Y-13106175D02*
X15901635Y-13058556D01*
X15901635Y-13058556D02*
X15911158Y-13020460D01*
X15911158Y-13020460D02*
X15920682Y-13001413D01*
X15920682Y-13001413D02*
X15930206Y-12991889D01*
X15930206Y-12991889D02*
X15949254Y-12982365D01*
X16101635Y-13163318D02*
X16111158Y-13172841D01*
X16111158Y-13172841D02*
X16101635Y-13182365D01*
X16101635Y-13182365D02*
X16092111Y-13172841D01*
X16092111Y-13172841D02*
X16101635Y-13163318D01*
X16101635Y-13163318D02*
X16101635Y-13182365D01*
X16234968Y-12982365D02*
X16254016Y-12982365D01*
X16254016Y-12982365D02*
X16273063Y-12991889D01*
X16273063Y-12991889D02*
X16282587Y-13001413D01*
X16282587Y-13001413D02*
X16292111Y-13020460D01*
X16292111Y-13020460D02*
X16301635Y-13058556D01*
X16301635Y-13058556D02*
X16301635Y-13106175D01*
X16301635Y-13106175D02*
X16292111Y-13144270D01*
X16292111Y-13144270D02*
X16282587Y-13163318D01*
X16282587Y-13163318D02*
X16273063Y-13172841D01*
X16273063Y-13172841D02*
X16254016Y-13182365D01*
X16254016Y-13182365D02*
X16234968Y-13182365D01*
X16234968Y-13182365D02*
X16215920Y-13172841D01*
X16215920Y-13172841D02*
X16206396Y-13163318D01*
X16206396Y-13163318D02*
X16196873Y-13144270D01*
X16196873Y-13144270D02*
X16187349Y-13106175D01*
X16187349Y-13106175D02*
X16187349Y-13058556D01*
X16187349Y-13058556D02*
X16196873Y-13020460D01*
X16196873Y-13020460D02*
X16206396Y-13001413D01*
X16206396Y-13001413D02*
X16215920Y-12991889D01*
X16215920Y-12991889D02*
X16234968Y-12982365D01*
X16377825Y-13001413D02*
X16387349Y-12991889D01*
X16387349Y-12991889D02*
X16406396Y-12982365D01*
X16406396Y-12982365D02*
X16454016Y-12982365D01*
X16454016Y-12982365D02*
X16473063Y-12991889D01*
X16473063Y-12991889D02*
X16482587Y-13001413D01*
X16482587Y-13001413D02*
X16492111Y-13020460D01*
X16492111Y-13020460D02*
X16492111Y-13039508D01*
X16492111Y-13039508D02*
X16482587Y-13068079D01*
X16482587Y-13068079D02*
X16368301Y-13182365D01*
X16368301Y-13182365D02*
X16492111Y-13182365D01*
X16558777Y-12982365D02*
X16682587Y-12982365D01*
X16682587Y-12982365D02*
X16615920Y-13058556D01*
X16615920Y-13058556D02*
X16644492Y-13058556D01*
X16644492Y-13058556D02*
X16663539Y-13068079D01*
X16663539Y-13068079D02*
X16673063Y-13077603D01*
X16673063Y-13077603D02*
X16682587Y-13096651D01*
X16682587Y-13096651D02*
X16682587Y-13144270D01*
X16682587Y-13144270D02*
X16673063Y-13163318D01*
X16673063Y-13163318D02*
X16663539Y-13172841D01*
X16663539Y-13172841D02*
X16644492Y-13182365D01*
X16644492Y-13182365D02*
X16587349Y-13182365D01*
X16587349Y-13182365D02*
X16568301Y-13172841D01*
X16568301Y-13172841D02*
X16558777Y-13163318D01*
X16854016Y-12982365D02*
X16815920Y-12982365D01*
X16815920Y-12982365D02*
X16796873Y-12991889D01*
X16796873Y-12991889D02*
X16787349Y-13001413D01*
X16787349Y-13001413D02*
X16768301Y-13029984D01*
X16768301Y-13029984D02*
X16758777Y-13068079D01*
X16758777Y-13068079D02*
X16758777Y-13144270D01*
X16758777Y-13144270D02*
X16768301Y-13163318D01*
X16768301Y-13163318D02*
X16777825Y-13172841D01*
X16777825Y-13172841D02*
X16796873Y-13182365D01*
X16796873Y-13182365D02*
X16834968Y-13182365D01*
X16834968Y-13182365D02*
X16854016Y-13172841D01*
X16854016Y-13172841D02*
X16863539Y-13163318D01*
X16863539Y-13163318D02*
X16873063Y-13144270D01*
X16873063Y-13144270D02*
X16873063Y-13096651D01*
X16873063Y-13096651D02*
X16863539Y-13077603D01*
X16863539Y-13077603D02*
X16854016Y-13068079D01*
X16854016Y-13068079D02*
X16834968Y-13058556D01*
X16834968Y-13058556D02*
X16796873Y-13058556D01*
X16796873Y-13058556D02*
X16777825Y-13068079D01*
X16777825Y-13068079D02*
X16768301Y-13077603D01*
X16768301Y-13077603D02*
X16758777Y-13096651D01*
X16949254Y-12982365D02*
X16949254Y-13020460D01*
X17025444Y-12982365D02*
X17025444Y-13020460D01*
X17320682Y-13258556D02*
X17311159Y-13249032D01*
X17311159Y-13249032D02*
X17292111Y-13220460D01*
X17292111Y-13220460D02*
X17282587Y-13201413D01*
X17282587Y-13201413D02*
X17273063Y-13172841D01*
X17273063Y-13172841D02*
X17263540Y-13125222D01*
X17263540Y-13125222D02*
X17263540Y-13087127D01*
X17263540Y-13087127D02*
X17273063Y-13039508D01*
X17273063Y-13039508D02*
X17282587Y-13010937D01*
X17282587Y-13010937D02*
X17292111Y-12991889D01*
X17292111Y-12991889D02*
X17311159Y-12963318D01*
X17311159Y-12963318D02*
X17320682Y-12953794D01*
X17434968Y-12982365D02*
X17454016Y-12982365D01*
X17454016Y-12982365D02*
X17473063Y-12991889D01*
X17473063Y-12991889D02*
X17482587Y-13001413D01*
X17482587Y-13001413D02*
X17492111Y-13020460D01*
X17492111Y-13020460D02*
X17501635Y-13058556D01*
X17501635Y-13058556D02*
X17501635Y-13106175D01*
X17501635Y-13106175D02*
X17492111Y-13144270D01*
X17492111Y-13144270D02*
X17482587Y-13163318D01*
X17482587Y-13163318D02*
X17473063Y-13172841D01*
X17473063Y-13172841D02*
X17454016Y-13182365D01*
X17454016Y-13182365D02*
X17434968Y-13182365D01*
X17434968Y-13182365D02*
X17415920Y-13172841D01*
X17415920Y-13172841D02*
X17406397Y-13163318D01*
X17406397Y-13163318D02*
X17396873Y-13144270D01*
X17396873Y-13144270D02*
X17387349Y-13106175D01*
X17387349Y-13106175D02*
X17387349Y-13058556D01*
X17387349Y-13058556D02*
X17396873Y-13020460D01*
X17396873Y-13020460D02*
X17406397Y-13001413D01*
X17406397Y-13001413D02*
X17415920Y-12991889D01*
X17415920Y-12991889D02*
X17434968Y-12982365D01*
X17739730Y-13182365D02*
X17739730Y-12982365D01*
X17825444Y-13182365D02*
X17825444Y-13077603D01*
X17825444Y-13077603D02*
X17815921Y-13058556D01*
X17815921Y-13058556D02*
X17796873Y-13049032D01*
X17796873Y-13049032D02*
X17768301Y-13049032D01*
X17768301Y-13049032D02*
X17749254Y-13058556D01*
X17749254Y-13058556D02*
X17739730Y-13068079D01*
X17949254Y-13182365D02*
X17930206Y-13172841D01*
X17930206Y-13172841D02*
X17920682Y-13163318D01*
X17920682Y-13163318D02*
X17911159Y-13144270D01*
X17911159Y-13144270D02*
X17911159Y-13087127D01*
X17911159Y-13087127D02*
X17920682Y-13068079D01*
X17920682Y-13068079D02*
X17930206Y-13058556D01*
X17930206Y-13058556D02*
X17949254Y-13049032D01*
X17949254Y-13049032D02*
X17977825Y-13049032D01*
X17977825Y-13049032D02*
X17996873Y-13058556D01*
X17996873Y-13058556D02*
X18006397Y-13068079D01*
X18006397Y-13068079D02*
X18015921Y-13087127D01*
X18015921Y-13087127D02*
X18015921Y-13144270D01*
X18015921Y-13144270D02*
X18006397Y-13163318D01*
X18006397Y-13163318D02*
X17996873Y-13172841D01*
X17996873Y-13172841D02*
X17977825Y-13182365D01*
X17977825Y-13182365D02*
X17949254Y-13182365D01*
X18130206Y-13182365D02*
X18111159Y-13172841D01*
X18111159Y-13172841D02*
X18101635Y-13153794D01*
X18101635Y-13153794D02*
X18101635Y-12982365D01*
X18282587Y-13172841D02*
X18263540Y-13182365D01*
X18263540Y-13182365D02*
X18225444Y-13182365D01*
X18225444Y-13182365D02*
X18206397Y-13172841D01*
X18206397Y-13172841D02*
X18196873Y-13153794D01*
X18196873Y-13153794D02*
X18196873Y-13077603D01*
X18196873Y-13077603D02*
X18206397Y-13058556D01*
X18206397Y-13058556D02*
X18225444Y-13049032D01*
X18225444Y-13049032D02*
X18263540Y-13049032D01*
X18263540Y-13049032D02*
X18282587Y-13058556D01*
X18282587Y-13058556D02*
X18292111Y-13077603D01*
X18292111Y-13077603D02*
X18292111Y-13096651D01*
X18292111Y-13096651D02*
X18196873Y-13115699D01*
X18368302Y-13172841D02*
X18387349Y-13182365D01*
X18387349Y-13182365D02*
X18425444Y-13182365D01*
X18425444Y-13182365D02*
X18444492Y-13172841D01*
X18444492Y-13172841D02*
X18454016Y-13153794D01*
X18454016Y-13153794D02*
X18454016Y-13144270D01*
X18454016Y-13144270D02*
X18444492Y-13125222D01*
X18444492Y-13125222D02*
X18425444Y-13115699D01*
X18425444Y-13115699D02*
X18396873Y-13115699D01*
X18396873Y-13115699D02*
X18377825Y-13106175D01*
X18377825Y-13106175D02*
X18368302Y-13087127D01*
X18368302Y-13087127D02*
X18368302Y-13077603D01*
X18368302Y-13077603D02*
X18377825Y-13058556D01*
X18377825Y-13058556D02*
X18396873Y-13049032D01*
X18396873Y-13049032D02*
X18425444Y-13049032D01*
X18425444Y-13049032D02*
X18444492Y-13058556D01*
X18692111Y-13106175D02*
X18844492Y-13106175D01*
X18768302Y-13182365D02*
X18768302Y-13029984D01*
X19177825Y-13049032D02*
X19177825Y-13182365D01*
X19130206Y-12972841D02*
X19082587Y-13115699D01*
X19082587Y-13115699D02*
X19206397Y-13115699D01*
X19425445Y-13172841D02*
X19444492Y-13182365D01*
X19444492Y-13182365D02*
X19482587Y-13182365D01*
X19482587Y-13182365D02*
X19501635Y-13172841D01*
X19501635Y-13172841D02*
X19511159Y-13153794D01*
X19511159Y-13153794D02*
X19511159Y-13144270D01*
X19511159Y-13144270D02*
X19501635Y-13125222D01*
X19501635Y-13125222D02*
X19482587Y-13115699D01*
X19482587Y-13115699D02*
X19454016Y-13115699D01*
X19454016Y-13115699D02*
X19434968Y-13106175D01*
X19434968Y-13106175D02*
X19425445Y-13087127D01*
X19425445Y-13087127D02*
X19425445Y-13077603D01*
X19425445Y-13077603D02*
X19434968Y-13058556D01*
X19434968Y-13058556D02*
X19454016Y-13049032D01*
X19454016Y-13049032D02*
X19482587Y-13049032D01*
X19482587Y-13049032D02*
X19501635Y-13058556D01*
X19625445Y-13182365D02*
X19606397Y-13172841D01*
X19606397Y-13172841D02*
X19596873Y-13153794D01*
X19596873Y-13153794D02*
X19596873Y-12982365D01*
X19730206Y-13182365D02*
X19711159Y-13172841D01*
X19711159Y-13172841D02*
X19701635Y-13163318D01*
X19701635Y-13163318D02*
X19692111Y-13144270D01*
X19692111Y-13144270D02*
X19692111Y-13087127D01*
X19692111Y-13087127D02*
X19701635Y-13068079D01*
X19701635Y-13068079D02*
X19711159Y-13058556D01*
X19711159Y-13058556D02*
X19730206Y-13049032D01*
X19730206Y-13049032D02*
X19758778Y-13049032D01*
X19758778Y-13049032D02*
X19777826Y-13058556D01*
X19777826Y-13058556D02*
X19787349Y-13068079D01*
X19787349Y-13068079D02*
X19796873Y-13087127D01*
X19796873Y-13087127D02*
X19796873Y-13144270D01*
X19796873Y-13144270D02*
X19787349Y-13163318D01*
X19787349Y-13163318D02*
X19777826Y-13172841D01*
X19777826Y-13172841D02*
X19758778Y-13182365D01*
X19758778Y-13182365D02*
X19730206Y-13182365D01*
X19854016Y-13049032D02*
X19930206Y-13049032D01*
X19882587Y-12982365D02*
X19882587Y-13153794D01*
X19882587Y-13153794D02*
X19892111Y-13172841D01*
X19892111Y-13172841D02*
X19911159Y-13182365D01*
X19911159Y-13182365D02*
X19930206Y-13182365D01*
X19987349Y-13172841D02*
X20006397Y-13182365D01*
X20006397Y-13182365D02*
X20044492Y-13182365D01*
X20044492Y-13182365D02*
X20063540Y-13172841D01*
X20063540Y-13172841D02*
X20073064Y-13153794D01*
X20073064Y-13153794D02*
X20073064Y-13144270D01*
X20073064Y-13144270D02*
X20063540Y-13125222D01*
X20063540Y-13125222D02*
X20044492Y-13115699D01*
X20044492Y-13115699D02*
X20015921Y-13115699D01*
X20015921Y-13115699D02*
X19996873Y-13106175D01*
X19996873Y-13106175D02*
X19987349Y-13087127D01*
X19987349Y-13087127D02*
X19987349Y-13077603D01*
X19987349Y-13077603D02*
X19996873Y-13058556D01*
X19996873Y-13058556D02*
X20015921Y-13049032D01*
X20015921Y-13049032D02*
X20044492Y-13049032D01*
X20044492Y-13049032D02*
X20063540Y-13058556D01*
X20139730Y-13258556D02*
X20149254Y-13249032D01*
X20149254Y-13249032D02*
X20168302Y-13220460D01*
X20168302Y-13220460D02*
X20177826Y-13201413D01*
X20177826Y-13201413D02*
X20187349Y-13172841D01*
X20187349Y-13172841D02*
X20196873Y-13125222D01*
X20196873Y-13125222D02*
X20196873Y-13087127D01*
X20196873Y-13087127D02*
X20187349Y-13039508D01*
X20187349Y-13039508D02*
X20177826Y-13010937D01*
X20177826Y-13010937D02*
X20168302Y-12991889D01*
X20168302Y-12991889D02*
X20149254Y-12963318D01*
X20149254Y-12963318D02*
X20139730Y-12953794D01*
X13645619Y-13254881D02*
X13645619Y-13454881D01*
X13545619Y-13354881D02*
X13745619Y-13354881D01*
X13987349Y-13246365D02*
X14111158Y-13246365D01*
X14111158Y-13246365D02*
X14044491Y-13322556D01*
X14044491Y-13322556D02*
X14073063Y-13322556D01*
X14073063Y-13322556D02*
X14092111Y-13332079D01*
X14092111Y-13332079D02*
X14101634Y-13341603D01*
X14101634Y-13341603D02*
X14111158Y-13360651D01*
X14111158Y-13360651D02*
X14111158Y-13408270D01*
X14111158Y-13408270D02*
X14101634Y-13427318D01*
X14101634Y-13427318D02*
X14092111Y-13436841D01*
X14092111Y-13436841D02*
X14073063Y-13446365D01*
X14073063Y-13446365D02*
X14015920Y-13446365D01*
X14015920Y-13446365D02*
X13996872Y-13436841D01*
X13996872Y-13436841D02*
X13987349Y-13427318D01*
X14196872Y-13427318D02*
X14206396Y-13436841D01*
X14206396Y-13436841D02*
X14196872Y-13446365D01*
X14196872Y-13446365D02*
X14187349Y-13436841D01*
X14187349Y-13436841D02*
X14196872Y-13427318D01*
X14196872Y-13427318D02*
X14196872Y-13446365D01*
X14282587Y-13265413D02*
X14292111Y-13255889D01*
X14292111Y-13255889D02*
X14311158Y-13246365D01*
X14311158Y-13246365D02*
X14358777Y-13246365D01*
X14358777Y-13246365D02*
X14377825Y-13255889D01*
X14377825Y-13255889D02*
X14387349Y-13265413D01*
X14387349Y-13265413D02*
X14396872Y-13284460D01*
X14396872Y-13284460D02*
X14396872Y-13303508D01*
X14396872Y-13303508D02*
X14387349Y-13332079D01*
X14387349Y-13332079D02*
X14273063Y-13446365D01*
X14273063Y-13446365D02*
X14396872Y-13446365D01*
X14520682Y-13246365D02*
X14539730Y-13246365D01*
X14539730Y-13246365D02*
X14558777Y-13255889D01*
X14558777Y-13255889D02*
X14568301Y-13265413D01*
X14568301Y-13265413D02*
X14577825Y-13284460D01*
X14577825Y-13284460D02*
X14587349Y-13322556D01*
X14587349Y-13322556D02*
X14587349Y-13370175D01*
X14587349Y-13370175D02*
X14577825Y-13408270D01*
X14577825Y-13408270D02*
X14568301Y-13427318D01*
X14568301Y-13427318D02*
X14558777Y-13436841D01*
X14558777Y-13436841D02*
X14539730Y-13446365D01*
X14539730Y-13446365D02*
X14520682Y-13446365D01*
X14520682Y-13446365D02*
X14501634Y-13436841D01*
X14501634Y-13436841D02*
X14492111Y-13427318D01*
X14492111Y-13427318D02*
X14482587Y-13408270D01*
X14482587Y-13408270D02*
X14473063Y-13370175D01*
X14473063Y-13370175D02*
X14473063Y-13322556D01*
X14473063Y-13322556D02*
X14482587Y-13284460D01*
X14482587Y-13284460D02*
X14492111Y-13265413D01*
X14492111Y-13265413D02*
X14501634Y-13255889D01*
X14501634Y-13255889D02*
X14520682Y-13246365D01*
X14711158Y-13246365D02*
X14730206Y-13246365D01*
X14730206Y-13246365D02*
X14749253Y-13255889D01*
X14749253Y-13255889D02*
X14758777Y-13265413D01*
X14758777Y-13265413D02*
X14768301Y-13284460D01*
X14768301Y-13284460D02*
X14777825Y-13322556D01*
X14777825Y-13322556D02*
X14777825Y-13370175D01*
X14777825Y-13370175D02*
X14768301Y-13408270D01*
X14768301Y-13408270D02*
X14758777Y-13427318D01*
X14758777Y-13427318D02*
X14749253Y-13436841D01*
X14749253Y-13436841D02*
X14730206Y-13446365D01*
X14730206Y-13446365D02*
X14711158Y-13446365D01*
X14711158Y-13446365D02*
X14692111Y-13436841D01*
X14692111Y-13436841D02*
X14682587Y-13427318D01*
X14682587Y-13427318D02*
X14673063Y-13408270D01*
X14673063Y-13408270D02*
X14663539Y-13370175D01*
X14663539Y-13370175D02*
X14663539Y-13322556D01*
X14663539Y-13322556D02*
X14673063Y-13284460D01*
X14673063Y-13284460D02*
X14682587Y-13265413D01*
X14682587Y-13265413D02*
X14692111Y-13255889D01*
X14692111Y-13255889D02*
X14711158Y-13246365D01*
X14863539Y-13446365D02*
X14863539Y-13313032D01*
X14863539Y-13332079D02*
X14873063Y-13322556D01*
X14873063Y-13322556D02*
X14892111Y-13313032D01*
X14892111Y-13313032D02*
X14920682Y-13313032D01*
X14920682Y-13313032D02*
X14939730Y-13322556D01*
X14939730Y-13322556D02*
X14949253Y-13341603D01*
X14949253Y-13341603D02*
X14949253Y-13446365D01*
X14949253Y-13341603D02*
X14958777Y-13322556D01*
X14958777Y-13322556D02*
X14977825Y-13313032D01*
X14977825Y-13313032D02*
X15006396Y-13313032D01*
X15006396Y-13313032D02*
X15025444Y-13322556D01*
X15025444Y-13322556D02*
X15034968Y-13341603D01*
X15034968Y-13341603D02*
X15034968Y-13446365D01*
X15130206Y-13446365D02*
X15130206Y-13313032D01*
X15130206Y-13332079D02*
X15139730Y-13322556D01*
X15139730Y-13322556D02*
X15158777Y-13313032D01*
X15158777Y-13313032D02*
X15187349Y-13313032D01*
X15187349Y-13313032D02*
X15206396Y-13322556D01*
X15206396Y-13322556D02*
X15215920Y-13341603D01*
X15215920Y-13341603D02*
X15215920Y-13446365D01*
X15215920Y-13341603D02*
X15225444Y-13322556D01*
X15225444Y-13322556D02*
X15244492Y-13313032D01*
X15244492Y-13313032D02*
X15273063Y-13313032D01*
X15273063Y-13313032D02*
X15292111Y-13322556D01*
X15292111Y-13322556D02*
X15301634Y-13341603D01*
X15301634Y-13341603D02*
X15301634Y-13446365D01*
X15692111Y-13236841D02*
X15520682Y-13493984D01*
X15949254Y-13246365D02*
X15968301Y-13246365D01*
X15968301Y-13246365D02*
X15987349Y-13255889D01*
X15987349Y-13255889D02*
X15996873Y-13265413D01*
X15996873Y-13265413D02*
X16006396Y-13284460D01*
X16006396Y-13284460D02*
X16015920Y-13322556D01*
X16015920Y-13322556D02*
X16015920Y-13370175D01*
X16015920Y-13370175D02*
X16006396Y-13408270D01*
X16006396Y-13408270D02*
X15996873Y-13427318D01*
X15996873Y-13427318D02*
X15987349Y-13436841D01*
X15987349Y-13436841D02*
X15968301Y-13446365D01*
X15968301Y-13446365D02*
X15949254Y-13446365D01*
X15949254Y-13446365D02*
X15930206Y-13436841D01*
X15930206Y-13436841D02*
X15920682Y-13427318D01*
X15920682Y-13427318D02*
X15911158Y-13408270D01*
X15911158Y-13408270D02*
X15901635Y-13370175D01*
X15901635Y-13370175D02*
X15901635Y-13322556D01*
X15901635Y-13322556D02*
X15911158Y-13284460D01*
X15911158Y-13284460D02*
X15920682Y-13265413D01*
X15920682Y-13265413D02*
X15930206Y-13255889D01*
X15930206Y-13255889D02*
X15949254Y-13246365D01*
X16101635Y-13427318D02*
X16111158Y-13436841D01*
X16111158Y-13436841D02*
X16101635Y-13446365D01*
X16101635Y-13446365D02*
X16092111Y-13436841D01*
X16092111Y-13436841D02*
X16101635Y-13427318D01*
X16101635Y-13427318D02*
X16101635Y-13446365D01*
X16301635Y-13446365D02*
X16187349Y-13446365D01*
X16244492Y-13446365D02*
X16244492Y-13246365D01*
X16244492Y-13246365D02*
X16225444Y-13274937D01*
X16225444Y-13274937D02*
X16206396Y-13293984D01*
X16206396Y-13293984D02*
X16187349Y-13303508D01*
X16377825Y-13265413D02*
X16387349Y-13255889D01*
X16387349Y-13255889D02*
X16406396Y-13246365D01*
X16406396Y-13246365D02*
X16454016Y-13246365D01*
X16454016Y-13246365D02*
X16473063Y-13255889D01*
X16473063Y-13255889D02*
X16482587Y-13265413D01*
X16482587Y-13265413D02*
X16492111Y-13284460D01*
X16492111Y-13284460D02*
X16492111Y-13303508D01*
X16492111Y-13303508D02*
X16482587Y-13332079D01*
X16482587Y-13332079D02*
X16368301Y-13446365D01*
X16368301Y-13446365D02*
X16492111Y-13446365D01*
X16663539Y-13246365D02*
X16625444Y-13246365D01*
X16625444Y-13246365D02*
X16606396Y-13255889D01*
X16606396Y-13255889D02*
X16596873Y-13265413D01*
X16596873Y-13265413D02*
X16577825Y-13293984D01*
X16577825Y-13293984D02*
X16568301Y-13332079D01*
X16568301Y-13332079D02*
X16568301Y-13408270D01*
X16568301Y-13408270D02*
X16577825Y-13427318D01*
X16577825Y-13427318D02*
X16587349Y-13436841D01*
X16587349Y-13436841D02*
X16606396Y-13446365D01*
X16606396Y-13446365D02*
X16644492Y-13446365D01*
X16644492Y-13446365D02*
X16663539Y-13436841D01*
X16663539Y-13436841D02*
X16673063Y-13427318D01*
X16673063Y-13427318D02*
X16682587Y-13408270D01*
X16682587Y-13408270D02*
X16682587Y-13360651D01*
X16682587Y-13360651D02*
X16673063Y-13341603D01*
X16673063Y-13341603D02*
X16663539Y-13332079D01*
X16663539Y-13332079D02*
X16644492Y-13322556D01*
X16644492Y-13322556D02*
X16606396Y-13322556D01*
X16606396Y-13322556D02*
X16587349Y-13332079D01*
X16587349Y-13332079D02*
X16577825Y-13341603D01*
X16577825Y-13341603D02*
X16568301Y-13360651D01*
X16806397Y-13246365D02*
X16825444Y-13246365D01*
X16825444Y-13246365D02*
X16844492Y-13255889D01*
X16844492Y-13255889D02*
X16854016Y-13265413D01*
X16854016Y-13265413D02*
X16863539Y-13284460D01*
X16863539Y-13284460D02*
X16873063Y-13322556D01*
X16873063Y-13322556D02*
X16873063Y-13370175D01*
X16873063Y-13370175D02*
X16863539Y-13408270D01*
X16863539Y-13408270D02*
X16854016Y-13427318D01*
X16854016Y-13427318D02*
X16844492Y-13436841D01*
X16844492Y-13436841D02*
X16825444Y-13446365D01*
X16825444Y-13446365D02*
X16806397Y-13446365D01*
X16806397Y-13446365D02*
X16787349Y-13436841D01*
X16787349Y-13436841D02*
X16777825Y-13427318D01*
X16777825Y-13427318D02*
X16768301Y-13408270D01*
X16768301Y-13408270D02*
X16758777Y-13370175D01*
X16758777Y-13370175D02*
X16758777Y-13322556D01*
X16758777Y-13322556D02*
X16768301Y-13284460D01*
X16768301Y-13284460D02*
X16777825Y-13265413D01*
X16777825Y-13265413D02*
X16787349Y-13255889D01*
X16787349Y-13255889D02*
X16806397Y-13246365D01*
X16949254Y-13246365D02*
X16949254Y-13284460D01*
X17025444Y-13246365D02*
X17025444Y-13284460D01*
X17320682Y-13522556D02*
X17311159Y-13513032D01*
X17311159Y-13513032D02*
X17292111Y-13484460D01*
X17292111Y-13484460D02*
X17282587Y-13465413D01*
X17282587Y-13465413D02*
X17273063Y-13436841D01*
X17273063Y-13436841D02*
X17263540Y-13389222D01*
X17263540Y-13389222D02*
X17263540Y-13351127D01*
X17263540Y-13351127D02*
X17273063Y-13303508D01*
X17273063Y-13303508D02*
X17282587Y-13274937D01*
X17282587Y-13274937D02*
X17292111Y-13255889D01*
X17292111Y-13255889D02*
X17311159Y-13227318D01*
X17311159Y-13227318D02*
X17320682Y-13217794D01*
X17387349Y-13265413D02*
X17396873Y-13255889D01*
X17396873Y-13255889D02*
X17415920Y-13246365D01*
X17415920Y-13246365D02*
X17463540Y-13246365D01*
X17463540Y-13246365D02*
X17482587Y-13255889D01*
X17482587Y-13255889D02*
X17492111Y-13265413D01*
X17492111Y-13265413D02*
X17501635Y-13284460D01*
X17501635Y-13284460D02*
X17501635Y-13303508D01*
X17501635Y-13303508D02*
X17492111Y-13332079D01*
X17492111Y-13332079D02*
X17377825Y-13446365D01*
X17377825Y-13446365D02*
X17501635Y-13446365D01*
X17739730Y-13446365D02*
X17739730Y-13246365D01*
X17825444Y-13446365D02*
X17825444Y-13341603D01*
X17825444Y-13341603D02*
X17815921Y-13322556D01*
X17815921Y-13322556D02*
X17796873Y-13313032D01*
X17796873Y-13313032D02*
X17768301Y-13313032D01*
X17768301Y-13313032D02*
X17749254Y-13322556D01*
X17749254Y-13322556D02*
X17739730Y-13332079D01*
X17949254Y-13446365D02*
X17930206Y-13436841D01*
X17930206Y-13436841D02*
X17920682Y-13427318D01*
X17920682Y-13427318D02*
X17911159Y-13408270D01*
X17911159Y-13408270D02*
X17911159Y-13351127D01*
X17911159Y-13351127D02*
X17920682Y-13332079D01*
X17920682Y-13332079D02*
X17930206Y-13322556D01*
X17930206Y-13322556D02*
X17949254Y-13313032D01*
X17949254Y-13313032D02*
X17977825Y-13313032D01*
X17977825Y-13313032D02*
X17996873Y-13322556D01*
X17996873Y-13322556D02*
X18006397Y-13332079D01*
X18006397Y-13332079D02*
X18015921Y-13351127D01*
X18015921Y-13351127D02*
X18015921Y-13408270D01*
X18015921Y-13408270D02*
X18006397Y-13427318D01*
X18006397Y-13427318D02*
X17996873Y-13436841D01*
X17996873Y-13436841D02*
X17977825Y-13446365D01*
X17977825Y-13446365D02*
X17949254Y-13446365D01*
X18130206Y-13446365D02*
X18111159Y-13436841D01*
X18111159Y-13436841D02*
X18101635Y-13417794D01*
X18101635Y-13417794D02*
X18101635Y-13246365D01*
X18282587Y-13436841D02*
X18263540Y-13446365D01*
X18263540Y-13446365D02*
X18225444Y-13446365D01*
X18225444Y-13446365D02*
X18206397Y-13436841D01*
X18206397Y-13436841D02*
X18196873Y-13417794D01*
X18196873Y-13417794D02*
X18196873Y-13341603D01*
X18196873Y-13341603D02*
X18206397Y-13322556D01*
X18206397Y-13322556D02*
X18225444Y-13313032D01*
X18225444Y-13313032D02*
X18263540Y-13313032D01*
X18263540Y-13313032D02*
X18282587Y-13322556D01*
X18282587Y-13322556D02*
X18292111Y-13341603D01*
X18292111Y-13341603D02*
X18292111Y-13360651D01*
X18292111Y-13360651D02*
X18196873Y-13379699D01*
X18368302Y-13436841D02*
X18387349Y-13446365D01*
X18387349Y-13446365D02*
X18425444Y-13446365D01*
X18425444Y-13446365D02*
X18444492Y-13436841D01*
X18444492Y-13436841D02*
X18454016Y-13417794D01*
X18454016Y-13417794D02*
X18454016Y-13408270D01*
X18454016Y-13408270D02*
X18444492Y-13389222D01*
X18444492Y-13389222D02*
X18425444Y-13379699D01*
X18425444Y-13379699D02*
X18396873Y-13379699D01*
X18396873Y-13379699D02*
X18377825Y-13370175D01*
X18377825Y-13370175D02*
X18368302Y-13351127D01*
X18368302Y-13351127D02*
X18368302Y-13341603D01*
X18368302Y-13341603D02*
X18377825Y-13322556D01*
X18377825Y-13322556D02*
X18396873Y-13313032D01*
X18396873Y-13313032D02*
X18425444Y-13313032D01*
X18425444Y-13313032D02*
X18444492Y-13322556D01*
X18520683Y-13522556D02*
X18530206Y-13513032D01*
X18530206Y-13513032D02*
X18549254Y-13484460D01*
X18549254Y-13484460D02*
X18558778Y-13465413D01*
X18558778Y-13465413D02*
X18568302Y-13436841D01*
X18568302Y-13436841D02*
X18577825Y-13389222D01*
X18577825Y-13389222D02*
X18577825Y-13351127D01*
X18577825Y-13351127D02*
X18568302Y-13303508D01*
X18568302Y-13303508D02*
X18558778Y-13274937D01*
X18558778Y-13274937D02*
X18549254Y-13255889D01*
X18549254Y-13255889D02*
X18530206Y-13227318D01*
X18530206Y-13227318D02*
X18520683Y-13217794D01*
M02*
