%TF.GenerationSoftware,KiCad,Pcbnew,9.0.7*%
%TF.CreationDate,2026-09-26T18:39:03+02:00*%
%TF.ProjectId,cartouche-usb4,63617274-6f75-4636-9865-2d757362342e,rev?*%
%TF.SameCoordinates,Original*%
%TF.FileFunction,Drillmap*%
%TF.FilePolarity,Positive*%
%FSLAX45Y45*%
G04 Gerber Fmt 4.5, Leading zero omitted, Abs format (unit mm)*
G04 Created by KiCad (PCBNEW 9.0.7) date 2026-09-26 18:39:03*
%MOMM*%
%LPD*%
G01*
G04 APERTURE LIST*
%ADD10C,0.100000*%
%ADD11C,0.200000*%
%ADD12C,0.320000*%
G04 APERTURE END LIST*
D10*
X15850000Y-15200000D02*
X13850000Y-15200000D01*
X16350000Y-14700000D02*
X15850000Y-15200000D01*
X13350000Y-9116000D02*
G75*
G02*
X13650000Y-8816000I300000J0D01*
G01*
X16350000Y-9116000D02*
X16350000Y-14700000D01*
X13850000Y-15200000D02*
X13350000Y-14700000D01*
X13350000Y-14700000D02*
X13350000Y-9116000D01*
X16050000Y-8816000D02*
G75*
G02*
X16350000Y-9116000I0J-300000D01*
G01*
X13650000Y-8816000D02*
X16050000Y-8816000D01*
D11*
D10*
X13792918Y-9627465D02*
X13812918Y-9647465D01*
X13812918Y-9627465D02*
X13792918Y-9647465D01*
X13793164Y-10258172D02*
X13813164Y-10278172D01*
X13813164Y-10258172D02*
X13793164Y-10278172D01*
X13793624Y-9427638D02*
X13813624Y-9447638D01*
X13813624Y-9427638D02*
X13793624Y-9447638D01*
X13793624Y-9480998D02*
X13813624Y-9500998D01*
X13813624Y-9480998D02*
X13793624Y-9500998D01*
X13795891Y-10342252D02*
X13815891Y-10362252D01*
X13815891Y-10342252D02*
X13795891Y-10362252D01*
X13798340Y-10673239D02*
X13818340Y-10693239D01*
X13818340Y-10673239D02*
X13798340Y-10693239D01*
X13806451Y-10628579D02*
X13826451Y-10648579D01*
X13826451Y-10628579D02*
X13806451Y-10648579D01*
X13820284Y-9400978D02*
X13840284Y-9420978D01*
X13840284Y-9400978D02*
X13820284Y-9420978D01*
X13826280Y-11176159D02*
X13846280Y-11196158D01*
X13846280Y-11176159D02*
X13826280Y-11196158D01*
X13828820Y-10868819D02*
X13848820Y-10888819D01*
X13848820Y-10868819D02*
X13828820Y-10888819D01*
X13828820Y-11061859D02*
X13848820Y-11081859D01*
X13848820Y-11061859D02*
X13828820Y-11081859D01*
X13828820Y-11290458D02*
X13848820Y-11310458D01*
X13848820Y-11290458D02*
X13828820Y-11310458D01*
X13874636Y-10513622D02*
X13894636Y-10533622D01*
X13894636Y-10513622D02*
X13874636Y-10533622D01*
X13875128Y-10550467D02*
X13895128Y-10570467D01*
X13895128Y-10550467D02*
X13875128Y-10570467D01*
X13881585Y-9775221D02*
X13901585Y-9795221D01*
X13901585Y-9775221D02*
X13881585Y-9795221D01*
X13889780Y-11447938D02*
X13909780Y-11467938D01*
X13909780Y-11447938D02*
X13889780Y-11467938D01*
X13902480Y-11999118D02*
X13922480Y-12019118D01*
X13922480Y-11999118D02*
X13902480Y-12019118D01*
X13907754Y-10550815D02*
X13927754Y-10570815D01*
X13927754Y-10550815D02*
X13907754Y-10570815D01*
X13907988Y-10512678D02*
X13927988Y-10532678D01*
X13927988Y-10512678D02*
X13907988Y-10532678D01*
X13939730Y-10550349D02*
X13959730Y-10570349D01*
X13959730Y-10550349D02*
X13939730Y-10570349D01*
X13940031Y-10514391D02*
X13960031Y-10534391D01*
X13960031Y-10514391D02*
X13940031Y-10534391D01*
X13951104Y-9869552D02*
X13971104Y-9889552D01*
X13971104Y-9869552D02*
X13951104Y-9889552D01*
X13971626Y-9675703D02*
X13991626Y-9695703D01*
X13991626Y-9675703D02*
X13971626Y-9695703D01*
X13972151Y-9505810D02*
X13992151Y-9525810D01*
X13992151Y-9505810D02*
X13972151Y-9525810D01*
X13972369Y-9473424D02*
X13992369Y-9493424D01*
X13992369Y-9473424D02*
X13972369Y-9493424D01*
X13974702Y-9711471D02*
X13994702Y-9731471D01*
X13994702Y-9711471D02*
X13974702Y-9731471D01*
X13988840Y-11453018D02*
X14008840Y-11473018D01*
X14008840Y-11453018D02*
X13988840Y-11473018D01*
X13989011Y-9559965D02*
X14009011Y-9579965D01*
X14009011Y-9559965D02*
X13989011Y-9579965D01*
X13991380Y-11590178D02*
X14011380Y-11610178D01*
X14011380Y-11590178D02*
X13991380Y-11610178D01*
X13991380Y-11755278D02*
X14011380Y-11775278D01*
X14011380Y-11755278D02*
X13991380Y-11775278D01*
X13991805Y-11879739D02*
X14011805Y-11899739D01*
X14011805Y-11879739D02*
X13991805Y-11899739D01*
X13991805Y-11955939D02*
X14011805Y-11975939D01*
X14011805Y-11955939D02*
X13991805Y-11975939D01*
X13996460Y-11074559D02*
X14016460Y-11094559D01*
X14016460Y-11074559D02*
X13996460Y-11094559D01*
X13997531Y-10511347D02*
X14017531Y-10531347D01*
X14017531Y-10511347D02*
X13997531Y-10531347D01*
X13997531Y-10544586D02*
X14017531Y-10564586D01*
X14017531Y-10544586D02*
X13997531Y-10564586D01*
X13997754Y-9871064D02*
X14017754Y-9891064D01*
X14017754Y-9871064D02*
X13997754Y-9891064D01*
X14007736Y-9674992D02*
X14027736Y-9694992D01*
X14027736Y-9674992D02*
X14007736Y-9694992D01*
X14008571Y-9713272D02*
X14028571Y-9733272D01*
X14028571Y-9713272D02*
X14008571Y-9733272D01*
X14009160Y-10952639D02*
X14029160Y-10972639D01*
X14029160Y-10952639D02*
X14009160Y-10972639D01*
X14009537Y-9506462D02*
X14029537Y-9526462D01*
X14029537Y-9506462D02*
X14009537Y-9526462D01*
X14009754Y-9474293D02*
X14029754Y-9494293D01*
X14029754Y-9474293D02*
X14009754Y-9494293D01*
X14021860Y-11917838D02*
X14041860Y-11937838D01*
X14041860Y-11917838D02*
X14021860Y-11937838D01*
X14028840Y-10543085D02*
X14048840Y-10563085D01*
X14048840Y-10543085D02*
X14028840Y-10563085D01*
X14029269Y-10512204D02*
X14049269Y-10532204D01*
X14049269Y-10512204D02*
X14029269Y-10532204D01*
X14044720Y-10868819D02*
X14064720Y-10888819D01*
X14064720Y-10868819D02*
X14044720Y-10888819D01*
X14059929Y-10546231D02*
X14079929Y-10566231D01*
X14079929Y-10546231D02*
X14059929Y-10566231D01*
X14059935Y-10512634D02*
X14079935Y-10532634D01*
X14079935Y-10512634D02*
X14059935Y-10532634D01*
X14060750Y-11917838D02*
X14080750Y-11937838D01*
X14080750Y-11917838D02*
X14060750Y-11937838D01*
X14093405Y-11879739D02*
X14113405Y-11899739D01*
X14113405Y-11879739D02*
X14093405Y-11899739D01*
X14093405Y-11955939D02*
X14113405Y-11975939D01*
X14113405Y-11955939D02*
X14093405Y-11975939D01*
X14096824Y-9775221D02*
X14116824Y-9795221D01*
X14116824Y-9775221D02*
X14096824Y-9795221D01*
X14106950Y-11714639D02*
X14126950Y-11734639D01*
X14126950Y-11714639D02*
X14106950Y-11734639D01*
X14106950Y-11770519D02*
X14126950Y-11790519D01*
X14126950Y-11770519D02*
X14106950Y-11790519D01*
X14113300Y-11592718D02*
X14133300Y-11612718D01*
X14133300Y-11592718D02*
X14113300Y-11612718D01*
X14115246Y-12004011D02*
X14135246Y-12024011D01*
X14135246Y-12004011D02*
X14115246Y-12024011D01*
X14118380Y-11455558D02*
X14138380Y-11475558D01*
X14138380Y-11455558D02*
X14118380Y-11475558D01*
X14128540Y-11051699D02*
X14148540Y-11071699D01*
X14148540Y-11051699D02*
X14128540Y-11071699D01*
X14134890Y-11673999D02*
X14154890Y-11693999D01*
X14154890Y-11673999D02*
X14134890Y-11693999D01*
X14134890Y-11811159D02*
X14154890Y-11831159D01*
X14154890Y-11811159D02*
X14134890Y-11831159D01*
X14140875Y-11879739D02*
X14160875Y-11899739D01*
X14160875Y-11879739D02*
X14140875Y-11899739D01*
X14140875Y-11955939D02*
X14160875Y-11975939D01*
X14160875Y-11955939D02*
X14140875Y-11975939D01*
X14143105Y-10260712D02*
X14163105Y-10280712D01*
X14163105Y-10260712D02*
X14143105Y-10280712D01*
X14151764Y-9412352D02*
X14171764Y-9432352D01*
X14171764Y-9412352D02*
X14151764Y-9432352D01*
X14153940Y-10581799D02*
X14173940Y-10601799D01*
X14173940Y-10581799D02*
X14153940Y-10601799D01*
X14155412Y-10443637D02*
X14175412Y-10463637D01*
X14175412Y-10443637D02*
X14155412Y-10463637D01*
X14158269Y-9484587D02*
X14178269Y-9504587D01*
X14178269Y-9484587D02*
X14158269Y-9504587D01*
X14169180Y-10970419D02*
X14189180Y-10990419D01*
X14189180Y-10970419D02*
X14169180Y-10990419D01*
X14170930Y-11917838D02*
X14190930Y-11937838D01*
X14190930Y-11917838D02*
X14170930Y-11937838D01*
X14179340Y-10751979D02*
X14199340Y-10771979D01*
X14199340Y-10751979D02*
X14179340Y-10771979D01*
X14189784Y-9453072D02*
X14209784Y-9473072D01*
X14209784Y-9453072D02*
X14189784Y-9473072D01*
X14192040Y-10243788D02*
X14212040Y-10263788D01*
X14212040Y-10243788D02*
X14192040Y-10263788D01*
X14194580Y-10457339D02*
X14214580Y-10477339D01*
X14214580Y-10457339D02*
X14194580Y-10477339D01*
X14194702Y-10357642D02*
X14214702Y-10377642D01*
X14214702Y-10357642D02*
X14194702Y-10377642D01*
X14206364Y-9426378D02*
X14226364Y-9446378D01*
X14226364Y-9426378D02*
X14206364Y-9446378D01*
X14209820Y-11917838D02*
X14229820Y-11937838D01*
X14229820Y-11917838D02*
X14209820Y-11937838D01*
X14214900Y-10670699D02*
X14234900Y-10690699D01*
X14234900Y-10670699D02*
X14214900Y-10690699D01*
X14231400Y-11545345D02*
X14251400Y-11565345D01*
X14251400Y-11545345D02*
X14231400Y-11565345D01*
X14232680Y-10497979D02*
X14252680Y-10517979D01*
X14252680Y-10497979D02*
X14232680Y-10517979D01*
X14233940Y-11489465D02*
X14253940Y-11509465D01*
X14253940Y-11489465D02*
X14233940Y-11509465D01*
X14242475Y-11879739D02*
X14262475Y-11899739D01*
X14262475Y-11879739D02*
X14242475Y-11899739D01*
X14242475Y-11955939D02*
X14262475Y-11975939D01*
X14262475Y-11955939D02*
X14242475Y-11975939D01*
X14244100Y-11446285D02*
X14264100Y-11466285D01*
X14264100Y-11446285D02*
X14244100Y-11466285D01*
X14244100Y-11591065D02*
X14264100Y-11611065D01*
X14264100Y-11591065D02*
X14244100Y-11611065D01*
X14249190Y-11811159D02*
X14269190Y-11831159D01*
X14269190Y-11811159D02*
X14249190Y-11831159D01*
X14250557Y-11673754D02*
X14270557Y-11693754D01*
X14270557Y-11673754D02*
X14250557Y-11693754D01*
X14258470Y-9838506D02*
X14278470Y-9858506D01*
X14278470Y-9838506D02*
X14258470Y-9858506D01*
X14260620Y-10878979D02*
X14280620Y-10898979D01*
X14280620Y-10878979D02*
X14260620Y-10898979D01*
X14265700Y-12004198D02*
X14285700Y-12024198D01*
X14285700Y-12004198D02*
X14265700Y-12024198D01*
X14274590Y-11714639D02*
X14294590Y-11734639D01*
X14294590Y-11714639D02*
X14274590Y-11734639D01*
X14274590Y-11770519D02*
X14294590Y-11790519D01*
X14294590Y-11770519D02*
X14274590Y-11790519D01*
X14276916Y-10404652D02*
X14296916Y-10424652D01*
X14296916Y-10404652D02*
X14276916Y-10424652D01*
X14278400Y-11079639D02*
X14298400Y-11099639D01*
X14298400Y-11079639D02*
X14278400Y-11099639D01*
X14286813Y-10189181D02*
X14306813Y-10209181D01*
X14306813Y-10189181D02*
X14286813Y-10209181D01*
X14291100Y-10718959D02*
X14311100Y-10738959D01*
X14311100Y-10718959D02*
X14291100Y-10738959D01*
X14291525Y-11879739D02*
X14311525Y-11899739D01*
X14311525Y-11879739D02*
X14291525Y-11899739D01*
X14291525Y-11955939D02*
X14311525Y-11975939D01*
X14311525Y-11955939D02*
X14291525Y-11975939D01*
X14298477Y-11593861D02*
X14318477Y-11613861D01*
X14318477Y-11593861D02*
X14298477Y-11613861D01*
X14298720Y-9624219D02*
X14318720Y-9644219D01*
X14318720Y-9624219D02*
X14298720Y-9644219D01*
X14316500Y-11740038D02*
X14336500Y-11760038D01*
X14336500Y-11740038D02*
X14316500Y-11760038D01*
X14321580Y-11917838D02*
X14341580Y-11937838D01*
X14341580Y-11917838D02*
X14321580Y-11937838D01*
X14337367Y-11593861D02*
X14357367Y-11613861D01*
X14357367Y-11593861D02*
X14337367Y-11613861D01*
X14339278Y-10497065D02*
X14359278Y-10517065D01*
X14359278Y-10497065D02*
X14339278Y-10517065D01*
X14341900Y-10845959D02*
X14361900Y-10865959D01*
X14361900Y-10845959D02*
X14341900Y-10865959D01*
X14356916Y-10294652D02*
X14376916Y-10314652D01*
X14376916Y-10294652D02*
X14356916Y-10314652D01*
X14360470Y-11917838D02*
X14380470Y-11937838D01*
X14380470Y-11917838D02*
X14360470Y-11937838D01*
X14362220Y-10594499D02*
X14382220Y-10614499D01*
X14382220Y-10594499D02*
X14362220Y-10614499D01*
X14364760Y-10978039D02*
X14384760Y-10998039D01*
X14384760Y-10978039D02*
X14364760Y-10998039D01*
X14373173Y-10191721D02*
X14393173Y-10211721D01*
X14393173Y-10191721D02*
X14373173Y-10211721D01*
X14378720Y-11446285D02*
X14398720Y-11466285D01*
X14398720Y-11446285D02*
X14378720Y-11466285D01*
X14380016Y-11591431D02*
X14400016Y-11611431D01*
X14400016Y-11591431D02*
X14380016Y-11611431D01*
X14393125Y-11879739D02*
X14413125Y-11899739D01*
X14413125Y-11879739D02*
X14393125Y-11899739D01*
X14393125Y-11955939D02*
X14413125Y-11975939D01*
X14413125Y-11955939D02*
X14393125Y-11975939D01*
X14400320Y-11199018D02*
X14420320Y-11219018D01*
X14420320Y-11199018D02*
X14400320Y-11219018D01*
X14401580Y-11489465D02*
X14421580Y-11509465D01*
X14421580Y-11489465D02*
X14401580Y-11509465D01*
X14401580Y-11547885D02*
X14421580Y-11567885D01*
X14421580Y-11547885D02*
X14401580Y-11567885D01*
X14407040Y-9850099D02*
X14427040Y-9870099D01*
X14427040Y-9850099D02*
X14407040Y-9870099D01*
X14407040Y-9911059D02*
X14427040Y-9931059D01*
X14427040Y-9911059D02*
X14407040Y-9931059D01*
X14413020Y-10708799D02*
X14433020Y-10728799D01*
X14433020Y-10708799D02*
X14413020Y-10728799D01*
X14415560Y-12004198D02*
X14435560Y-12024198D01*
X14435560Y-12004198D02*
X14415560Y-12024198D01*
X14430800Y-10012839D02*
X14450800Y-10032839D01*
X14450800Y-10012839D02*
X14430800Y-10032839D01*
X14435880Y-9809639D02*
X14455880Y-9829639D01*
X14455880Y-9809639D02*
X14435880Y-9829639D01*
X14435880Y-9959499D02*
X14455880Y-9979499D01*
X14455880Y-9959499D02*
X14435880Y-9979499D01*
X14438420Y-10939939D02*
X14458420Y-10959939D01*
X14458420Y-10939939D02*
X14438420Y-10959939D01*
X14440960Y-10830719D02*
X14460960Y-10850719D01*
X14460960Y-10830719D02*
X14440960Y-10850719D01*
X14441648Y-10592065D02*
X14461648Y-10612065D01*
X14461648Y-10592065D02*
X14441648Y-10612065D01*
X14456428Y-10467441D02*
X14476428Y-10487441D01*
X14476428Y-10467441D02*
X14456428Y-10487441D01*
X14457097Y-10232596D02*
X14477097Y-10252596D01*
X14477097Y-10232596D02*
X14457097Y-10252596D01*
X14463820Y-10081419D02*
X14483820Y-10101419D01*
X14483820Y-10081419D02*
X14463820Y-10101419D01*
X14476520Y-11724798D02*
X14496520Y-11744798D01*
X14496520Y-11724798D02*
X14476520Y-11744798D01*
X14484140Y-11036675D02*
X14504140Y-11056675D01*
X14504140Y-11036675D02*
X14484140Y-11056675D01*
X14504460Y-11460638D02*
X14524460Y-11480638D01*
X14524460Y-11460638D02*
X14504460Y-11480638D01*
X14507000Y-10711339D02*
X14527000Y-10731339D01*
X14527000Y-10711339D02*
X14507000Y-10731339D01*
X14507000Y-11595258D02*
X14527000Y-11615258D01*
X14527000Y-11595258D02*
X14507000Y-11615258D01*
X14511064Y-10489827D02*
X14531064Y-10509827D01*
X14531064Y-10489827D02*
X14511064Y-10509827D01*
X14512080Y-10134759D02*
X14532080Y-10154759D01*
X14532080Y-10134759D02*
X14512080Y-10154759D01*
X14512080Y-10594499D02*
X14532080Y-10614499D01*
X14532080Y-10594499D02*
X14512080Y-10614499D01*
X14524780Y-10924699D02*
X14544780Y-10944699D01*
X14544780Y-10924699D02*
X14524780Y-10944699D01*
X14531890Y-10411087D02*
X14551890Y-10431087D01*
X14551890Y-10411087D02*
X14531890Y-10431087D01*
X14532400Y-11199018D02*
X14552400Y-11219018D01*
X14552400Y-11199018D02*
X14532400Y-11219018D01*
X14535107Y-9411653D02*
X14555107Y-9431653D01*
X14555107Y-9411653D02*
X14535107Y-9431653D01*
X14537480Y-10830719D02*
X14557480Y-10850719D01*
X14557480Y-10830719D02*
X14537480Y-10850719D01*
X14560340Y-10193179D02*
X14580340Y-10213179D01*
X14580340Y-10193179D02*
X14560340Y-10213179D01*
X14565420Y-12004198D02*
X14585420Y-12024198D01*
X14585420Y-12004198D02*
X14565420Y-12024198D01*
X14575580Y-9807099D02*
X14595580Y-9827099D01*
X14595580Y-9807099D02*
X14575580Y-9827099D01*
X14575580Y-9962039D02*
X14595580Y-9982039D01*
X14595580Y-9962039D02*
X14575580Y-9982039D01*
X14578120Y-11666378D02*
X14598120Y-11686378D01*
X14598120Y-11666378D02*
X14578120Y-11686378D01*
X14580660Y-11778138D02*
X14600660Y-11798138D01*
X14600660Y-11778138D02*
X14580660Y-11798138D01*
X14583200Y-11450478D02*
X14603200Y-11470478D01*
X14603200Y-11450478D02*
X14583200Y-11470478D01*
X14583200Y-11549538D02*
X14603200Y-11569538D01*
X14603200Y-11549538D02*
X14583200Y-11569538D01*
X14588543Y-10493184D02*
X14608543Y-10513184D01*
X14608543Y-10493184D02*
X14588543Y-10513184D01*
X14588692Y-10596535D02*
X14608692Y-10616535D01*
X14608692Y-10596535D02*
X14588692Y-10616535D01*
X14591245Y-11879739D02*
X14611245Y-11899739D01*
X14611245Y-11879739D02*
X14591245Y-11899739D01*
X14591245Y-11955939D02*
X14611245Y-11975939D01*
X14611245Y-11955939D02*
X14591245Y-11975939D01*
X14594683Y-10428381D02*
X14614683Y-10448381D01*
X14614683Y-10428381D02*
X14594683Y-10448381D01*
X14594796Y-11017712D02*
X14614796Y-11037712D01*
X14614796Y-11017712D02*
X14594796Y-11037712D01*
X14596001Y-10707912D02*
X14616001Y-10727912D01*
X14616001Y-10707912D02*
X14596001Y-10727912D01*
X14601243Y-10275790D02*
X14621243Y-10295790D01*
X14621243Y-10275790D02*
X14601243Y-10295790D01*
X14607700Y-9857719D02*
X14627700Y-9877719D01*
X14627700Y-9857719D02*
X14607700Y-9877719D01*
X14607700Y-9911059D02*
X14627700Y-9931059D01*
X14627700Y-9911059D02*
X14607700Y-9931059D01*
X14621300Y-11917838D02*
X14641300Y-11937838D01*
X14641300Y-11917838D02*
X14621300Y-11937838D01*
X14625669Y-9474359D02*
X14645669Y-9494359D01*
X14645669Y-9474359D02*
X14625669Y-9494359D01*
X14626378Y-9100469D02*
X14646378Y-9120469D01*
X14646378Y-9100469D02*
X14626378Y-9120469D01*
X14646700Y-9857899D02*
X14666700Y-9877899D01*
X14666700Y-9857899D02*
X14646700Y-9877899D01*
X14646700Y-9911239D02*
X14666700Y-9931239D01*
X14666700Y-9911239D02*
X14646700Y-9931239D01*
X14660190Y-11917838D02*
X14680190Y-11937838D01*
X14680190Y-11917838D02*
X14660190Y-11937838D01*
X14664559Y-9474359D02*
X14684559Y-9494359D01*
X14684559Y-9474359D02*
X14664559Y-9494359D01*
X14677180Y-9807099D02*
X14697180Y-9827099D01*
X14697180Y-9807099D02*
X14677180Y-9827099D01*
X14677180Y-9964579D02*
X14697180Y-9984579D01*
X14697180Y-9964579D02*
X14677180Y-9984579D01*
X14692845Y-11879739D02*
X14712845Y-11899739D01*
X14712845Y-11879739D02*
X14692845Y-11899739D01*
X14692845Y-11955939D02*
X14712845Y-11975939D01*
X14712845Y-11955939D02*
X14692845Y-11975939D01*
X14706724Y-11565748D02*
X14726724Y-11585748D01*
X14726724Y-11565748D02*
X14706724Y-11585748D01*
X14706724Y-11621628D02*
X14726724Y-11641628D01*
X14726724Y-11621628D02*
X14706724Y-11641628D01*
X14712740Y-11450478D02*
X14732740Y-11470478D01*
X14732740Y-11450478D02*
X14712740Y-11470478D01*
X14715280Y-11778138D02*
X14735280Y-11798138D01*
X14735280Y-11778138D02*
X14715280Y-11798138D01*
X14715280Y-12004198D02*
X14735280Y-12024198D01*
X14735280Y-12004198D02*
X14715280Y-12024198D01*
X14717817Y-9100469D02*
X14737817Y-9120469D01*
X14737817Y-9100469D02*
X14717817Y-9120469D01*
X14718057Y-10075130D02*
X14738057Y-10095130D01*
X14738057Y-10075130D02*
X14718057Y-10095130D01*
X14719460Y-9359879D02*
X14739460Y-9379879D01*
X14739460Y-9359879D02*
X14719460Y-9379879D01*
X14721964Y-11525108D02*
X14741964Y-11545108D01*
X14741964Y-11525108D02*
X14721964Y-11545108D01*
X14722343Y-10732631D02*
X14742343Y-10752631D01*
X14742343Y-10732631D02*
X14722343Y-10752631D01*
X14722343Y-10823231D02*
X14742343Y-10843231D01*
X14742343Y-10823231D02*
X14722343Y-10843231D01*
X14722343Y-10913831D02*
X14742343Y-10933831D01*
X14742343Y-10913831D02*
X14722343Y-10933831D01*
X14724330Y-10370540D02*
X14744330Y-10390540D01*
X14744330Y-10370540D02*
X14724330Y-10390540D01*
X14724724Y-10642084D02*
X14744724Y-10662084D01*
X14744724Y-10642084D02*
X14724724Y-10662084D01*
X14729766Y-11667348D02*
X14749766Y-11687348D01*
X14749766Y-11667348D02*
X14729766Y-11687348D01*
X14734809Y-10317296D02*
X14754809Y-10337296D01*
X14754809Y-10317296D02*
X14734809Y-10337296D01*
X14741105Y-11879739D02*
X14761105Y-11899739D01*
X14761105Y-11879739D02*
X14741105Y-11899739D01*
X14741105Y-11955939D02*
X14761105Y-11975939D01*
X14761105Y-11955939D02*
X14741105Y-11975939D01*
X14756947Y-10075130D02*
X14776947Y-10095130D01*
X14776947Y-10075130D02*
X14756947Y-10095130D01*
X14762640Y-9476719D02*
X14782640Y-9496719D01*
X14782640Y-9476719D02*
X14762640Y-9496719D01*
X14771160Y-11917838D02*
X14791160Y-11937838D01*
X14791160Y-11917838D02*
X14771160Y-11937838D01*
X14802281Y-9100469D02*
X14822281Y-9120469D01*
X14822281Y-9100469D02*
X14802281Y-9120469D01*
X14804180Y-9807099D02*
X14824180Y-9827099D01*
X14824180Y-9807099D02*
X14804180Y-9827099D01*
X14804180Y-9964579D02*
X14824180Y-9984579D01*
X14824180Y-9964579D02*
X14804180Y-9984579D01*
X14810050Y-11917838D02*
X14830050Y-11937838D01*
X14830050Y-11917838D02*
X14810050Y-11937838D01*
X14812343Y-10394831D02*
X14832343Y-10414831D01*
X14832343Y-10394831D02*
X14812343Y-10414831D01*
X14812343Y-10459831D02*
X14832343Y-10479831D01*
X14832343Y-10459831D02*
X14812343Y-10479831D01*
X14812343Y-10524831D02*
X14832343Y-10544831D01*
X14832343Y-10524831D02*
X14812343Y-10544831D01*
X14812343Y-10589831D02*
X14832343Y-10609831D01*
X14832343Y-10589831D02*
X14812343Y-10609831D01*
X14812343Y-10654831D02*
X14832343Y-10674831D01*
X14832343Y-10654831D02*
X14812343Y-10674831D01*
X14812343Y-10719831D02*
X14832343Y-10739831D01*
X14832343Y-10719831D02*
X14812343Y-10739831D01*
X14812343Y-10784830D02*
X14832343Y-10804830D01*
X14832343Y-10784830D02*
X14812343Y-10804830D01*
X14812343Y-10849830D02*
X14832343Y-10869830D01*
X14832343Y-10849830D02*
X14812343Y-10869830D01*
X14812343Y-10914830D02*
X14832343Y-10934830D01*
X14832343Y-10914830D02*
X14812343Y-10934830D01*
X14812343Y-10979830D02*
X14832343Y-10999830D01*
X14832343Y-10979830D02*
X14812343Y-10999830D01*
X14819420Y-9476899D02*
X14839420Y-9496899D01*
X14839420Y-9476899D02*
X14819420Y-9496899D01*
X14829580Y-9860439D02*
X14849580Y-9880439D01*
X14849580Y-9860439D02*
X14829580Y-9880439D01*
X14829580Y-9916319D02*
X14849580Y-9936319D01*
X14849580Y-9916319D02*
X14829580Y-9936319D01*
X14842705Y-11879739D02*
X14862705Y-11899739D01*
X14862705Y-11879739D02*
X14842705Y-11899739D01*
X14842705Y-11955939D02*
X14862705Y-11975939D01*
X14862705Y-11955939D02*
X14842705Y-11975939D01*
X14854044Y-11667348D02*
X14874044Y-11687348D01*
X14874044Y-11667348D02*
X14854044Y-11687348D01*
X14859124Y-11525108D02*
X14879124Y-11545108D01*
X14879124Y-11525108D02*
X14859124Y-11545108D01*
X14861036Y-9518515D02*
X14881036Y-9538515D01*
X14881036Y-9518515D02*
X14861036Y-9538515D01*
X14862600Y-11450478D02*
X14882600Y-11470478D01*
X14882600Y-11450478D02*
X14862600Y-11470478D01*
X14865140Y-12004198D02*
X14885140Y-12024198D01*
X14885140Y-12004198D02*
X14865140Y-12024198D01*
X14870220Y-9860439D02*
X14890220Y-9880439D01*
X14890220Y-9860439D02*
X14870220Y-9880439D01*
X14870220Y-9916319D02*
X14890220Y-9936319D01*
X14890220Y-9916319D02*
X14870220Y-9936319D01*
X14872760Y-11783218D02*
X14892760Y-11803218D01*
X14892760Y-11783218D02*
X14872760Y-11803218D01*
X14874364Y-11565748D02*
X14894364Y-11585748D01*
X14894364Y-11565748D02*
X14874364Y-11585748D01*
X14874364Y-11621628D02*
X14894364Y-11641628D01*
X14894364Y-11621628D02*
X14874364Y-11641628D01*
X14877343Y-10459830D02*
X14897343Y-10479830D01*
X14897343Y-10459830D02*
X14877343Y-10479830D01*
X14877343Y-10524831D02*
X14897343Y-10544831D01*
X14897343Y-10524831D02*
X14877343Y-10544831D01*
X14877343Y-10654831D02*
X14897343Y-10674831D01*
X14897343Y-10654831D02*
X14877343Y-10674831D01*
X14877343Y-10719831D02*
X14897343Y-10739831D01*
X14897343Y-10719831D02*
X14877343Y-10739831D01*
X14877343Y-10784830D02*
X14897343Y-10804830D01*
X14897343Y-10784830D02*
X14877343Y-10804830D01*
X14877343Y-10849830D02*
X14897343Y-10869830D01*
X14897343Y-10849830D02*
X14877343Y-10869830D01*
X14877343Y-10914830D02*
X14897343Y-10934830D01*
X14897343Y-10914830D02*
X14877343Y-10934830D01*
X14877343Y-10979830D02*
X14897343Y-10999830D01*
X14897343Y-10979830D02*
X14877343Y-10999830D01*
X14883561Y-9100469D02*
X14903561Y-9120469D01*
X14903561Y-9100469D02*
X14883561Y-9120469D01*
X14890965Y-11879739D02*
X14910965Y-11899739D01*
X14910965Y-11879739D02*
X14890965Y-11899739D01*
X14890965Y-11955939D02*
X14910965Y-11975939D01*
X14910965Y-11955939D02*
X14890965Y-11975939D01*
X14892180Y-9657059D02*
X14912180Y-9677059D01*
X14912180Y-9657059D02*
X14892180Y-9677059D01*
X14892443Y-11036675D02*
X14912443Y-11056675D01*
X14912443Y-11036675D02*
X14892443Y-11056675D01*
X14893080Y-9807099D02*
X14913080Y-9827099D01*
X14913080Y-9807099D02*
X14893080Y-9827099D01*
X14893080Y-9959499D02*
X14913080Y-9979499D01*
X14913080Y-9959499D02*
X14893080Y-9979499D01*
X14918616Y-9608981D02*
X14938616Y-9628981D01*
X14938616Y-9608981D02*
X14918616Y-9628981D01*
X14920120Y-9474179D02*
X14940120Y-9494179D01*
X14940120Y-9474179D02*
X14920120Y-9494179D01*
X14921020Y-11917838D02*
X14941020Y-11937838D01*
X14941020Y-11917838D02*
X14921020Y-11937838D01*
X14938800Y-11482145D02*
X14958800Y-11502145D01*
X14958800Y-11482145D02*
X14938800Y-11502145D01*
X14938800Y-11538025D02*
X14958800Y-11558025D01*
X14958800Y-11538025D02*
X14938800Y-11558025D01*
X14942343Y-10524831D02*
X14962343Y-10544831D01*
X14962343Y-10524831D02*
X14942343Y-10544831D01*
X14942343Y-10589831D02*
X14962343Y-10609831D01*
X14962343Y-10589831D02*
X14942343Y-10609831D01*
X14942343Y-10654831D02*
X14962343Y-10674831D01*
X14962343Y-10654831D02*
X14942343Y-10674831D01*
X14942343Y-10719831D02*
X14962343Y-10739831D01*
X14962343Y-10719831D02*
X14942343Y-10739831D01*
X14942343Y-10784830D02*
X14962343Y-10804830D01*
X14962343Y-10784830D02*
X14942343Y-10804830D01*
X14942343Y-10849830D02*
X14962343Y-10869830D01*
X14962343Y-10849830D02*
X14942343Y-10869830D01*
X14942343Y-10914830D02*
X14962343Y-10934830D01*
X14962343Y-10914830D02*
X14942343Y-10934830D01*
X14942343Y-10979830D02*
X14962343Y-10999830D01*
X14962343Y-10979830D02*
X14942343Y-10999830D01*
X14944527Y-10328770D02*
X14964527Y-10348770D01*
X14964527Y-10328770D02*
X14944527Y-10348770D01*
X14956580Y-11699398D02*
X14976580Y-11719398D01*
X14976580Y-11699398D02*
X14956580Y-11719398D01*
X14959910Y-11917838D02*
X14979910Y-11937838D01*
X14979910Y-11917838D02*
X14959910Y-11937838D01*
X14961660Y-11583745D02*
X14981660Y-11603745D01*
X14981660Y-11583745D02*
X14961660Y-11603745D01*
X14964200Y-11438965D02*
X14984200Y-11458965D01*
X14984200Y-11438965D02*
X14964200Y-11458965D01*
X14969231Y-9361188D02*
X14989231Y-9381188D01*
X14989231Y-9361188D02*
X14969231Y-9381188D01*
X14969279Y-9100469D02*
X14989279Y-9120469D01*
X14989279Y-9100469D02*
X14969279Y-9120469D01*
X14992565Y-11879739D02*
X15012565Y-11899739D01*
X15012565Y-11879739D02*
X14992565Y-11899739D01*
X14992565Y-11955939D02*
X15012565Y-11975939D01*
X15012565Y-11955939D02*
X14992565Y-11975939D01*
X15002300Y-11587638D02*
X15022300Y-11607638D01*
X15022300Y-11587638D02*
X15002300Y-11607638D01*
X15005544Y-10085731D02*
X15025544Y-10105731D01*
X15025544Y-10085731D02*
X15005544Y-10105731D01*
X15007343Y-10394831D02*
X15027343Y-10414831D01*
X15027343Y-10394831D02*
X15007343Y-10414831D01*
X15007343Y-10524831D02*
X15027343Y-10544831D01*
X15027343Y-10524831D02*
X15007343Y-10544831D01*
X15007343Y-10589831D02*
X15027343Y-10609831D01*
X15027343Y-10589831D02*
X15007343Y-10609831D01*
X15007343Y-10654831D02*
X15027343Y-10674831D01*
X15027343Y-10654831D02*
X15007343Y-10674831D01*
X15007343Y-10719831D02*
X15027343Y-10739831D01*
X15027343Y-10719831D02*
X15007343Y-10739831D01*
X15007343Y-10784830D02*
X15027343Y-10804830D01*
X15027343Y-10784830D02*
X15007343Y-10804830D01*
X15007343Y-10849830D02*
X15027343Y-10869830D01*
X15027343Y-10849830D02*
X15007343Y-10869830D01*
X15007343Y-10914830D02*
X15027343Y-10934830D01*
X15027343Y-10914830D02*
X15007343Y-10934830D01*
X15007343Y-10979830D02*
X15027343Y-10999830D01*
X15027343Y-10979830D02*
X15007343Y-10999830D01*
X15015354Y-12005397D02*
X15035354Y-12025397D01*
X15035354Y-12005397D02*
X15015354Y-12025397D01*
X15016903Y-10323870D02*
X15036903Y-10343870D01*
X15036903Y-10323870D02*
X15016903Y-10343870D01*
X15020080Y-9959499D02*
X15040080Y-9979499D01*
X15040080Y-9959499D02*
X15020080Y-9979499D01*
X15025668Y-9474359D02*
X15045668Y-9494359D01*
X15045668Y-9474359D02*
X15025668Y-9494359D01*
X15032780Y-9807099D02*
X15052780Y-9827099D01*
X15052780Y-9807099D02*
X15032780Y-9827099D01*
X15032780Y-11813698D02*
X15052780Y-11833698D01*
X15052780Y-11813698D02*
X15032780Y-11833698D01*
X15033043Y-10113230D02*
X15053043Y-10133230D01*
X15053043Y-10113230D02*
X15033043Y-10133230D01*
X15041190Y-11587638D02*
X15061190Y-11607638D01*
X15061190Y-11587638D02*
X15041190Y-11607638D01*
X15045480Y-9857899D02*
X15065480Y-9877899D01*
X15065480Y-9857899D02*
X15045480Y-9877899D01*
X15045480Y-9908699D02*
X15065480Y-9928699D01*
X15065480Y-9908699D02*
X15045480Y-9928699D01*
X15060718Y-9100469D02*
X15080718Y-9120469D01*
X15080718Y-9100469D02*
X15060718Y-9120469D01*
X15064558Y-9474359D02*
X15084558Y-9494359D01*
X15084558Y-9474359D02*
X15064558Y-9494359D01*
X15072343Y-10394830D02*
X15092343Y-10414830D01*
X15092343Y-10394830D02*
X15072343Y-10414830D01*
X15072343Y-10524831D02*
X15092343Y-10544831D01*
X15092343Y-10524831D02*
X15072343Y-10544831D01*
X15072343Y-10589831D02*
X15092343Y-10609831D01*
X15092343Y-10589831D02*
X15072343Y-10609831D01*
X15072343Y-10654831D02*
X15092343Y-10674831D01*
X15092343Y-10654831D02*
X15072343Y-10674831D01*
X15072343Y-10719831D02*
X15092343Y-10739831D01*
X15092343Y-10719831D02*
X15072343Y-10739831D01*
X15072343Y-10784830D02*
X15092343Y-10804830D01*
X15092343Y-10784830D02*
X15072343Y-10804830D01*
X15072343Y-10849830D02*
X15092343Y-10869830D01*
X15092343Y-10849830D02*
X15072343Y-10869830D01*
X15072343Y-10914830D02*
X15092343Y-10934830D01*
X15092343Y-10914830D02*
X15072343Y-10934830D01*
X15072343Y-10979830D02*
X15092343Y-10999830D01*
X15092343Y-10979830D02*
X15072343Y-10999830D01*
X15073420Y-9677559D02*
X15093420Y-9697559D01*
X15093420Y-9677559D02*
X15073420Y-9697559D01*
X15081040Y-11438965D02*
X15101040Y-11458965D01*
X15101040Y-11438965D02*
X15081040Y-11458965D01*
X15083580Y-11583745D02*
X15103580Y-11603745D01*
X15103580Y-11583745D02*
X15083580Y-11603745D01*
X15086120Y-9184799D02*
X15106120Y-9204799D01*
X15106120Y-9184799D02*
X15086120Y-9204799D01*
X15096280Y-9857899D02*
X15116280Y-9877899D01*
X15116280Y-9857899D02*
X15096280Y-9877899D01*
X15096280Y-9908699D02*
X15116280Y-9928699D01*
X15116280Y-9908699D02*
X15096280Y-9928699D01*
X15106440Y-11477065D02*
X15126440Y-11497065D01*
X15126440Y-11477065D02*
X15106440Y-11497065D01*
X15106440Y-11538025D02*
X15126440Y-11558025D01*
X15126440Y-11538025D02*
X15106440Y-11558025D01*
X15119140Y-9959499D02*
X15139140Y-9979499D01*
X15139140Y-9959499D02*
X15119140Y-9979499D01*
X15121680Y-9807099D02*
X15141680Y-9827099D01*
X15141680Y-9807099D02*
X15121680Y-9827099D01*
X15124516Y-9186334D02*
X15144516Y-9206334D01*
X15144516Y-9186334D02*
X15124516Y-9206334D01*
X15137342Y-10394831D02*
X15157342Y-10414831D01*
X15157342Y-10394831D02*
X15137342Y-10414831D01*
X15137342Y-10459831D02*
X15157342Y-10479831D01*
X15157342Y-10459831D02*
X15137342Y-10479831D01*
X15137342Y-10524831D02*
X15157342Y-10544831D01*
X15157342Y-10524831D02*
X15137342Y-10544831D01*
X15137342Y-10654831D02*
X15157342Y-10674831D01*
X15157342Y-10654831D02*
X15137342Y-10674831D01*
X15137342Y-10719831D02*
X15157342Y-10739831D01*
X15157342Y-10719831D02*
X15137342Y-10739831D01*
X15137342Y-10784830D02*
X15157342Y-10804830D01*
X15157342Y-10784830D02*
X15137342Y-10804830D01*
X15137342Y-10849830D02*
X15157342Y-10869830D01*
X15157342Y-10849830D02*
X15137342Y-10869830D01*
X15137342Y-10914830D02*
X15157342Y-10934830D01*
X15157342Y-10914830D02*
X15137342Y-10934830D01*
X15137342Y-10979830D02*
X15157342Y-10999830D01*
X15157342Y-10979830D02*
X15137342Y-10999830D01*
X15150585Y-11985765D02*
X15170585Y-12005765D01*
X15170585Y-11985765D02*
X15150585Y-12005765D01*
X15154700Y-11707018D02*
X15174700Y-11727018D01*
X15174700Y-11707018D02*
X15154700Y-11727018D01*
X15155121Y-9411653D02*
X15175121Y-9431653D01*
X15175121Y-9411653D02*
X15155121Y-9431653D01*
X15181233Y-10196940D02*
X15201233Y-10216940D01*
X15201233Y-10196940D02*
X15181233Y-10216940D01*
X15190067Y-11891407D02*
X15210067Y-11911407D01*
X15210067Y-11891407D02*
X15190067Y-11911407D01*
X15190067Y-11967607D02*
X15210067Y-11987607D01*
X15210067Y-11967607D02*
X15190067Y-11987607D01*
X15202342Y-10394831D02*
X15222342Y-10414831D01*
X15222342Y-10394831D02*
X15202342Y-10414831D01*
X15202342Y-10459831D02*
X15222342Y-10479831D01*
X15222342Y-10459831D02*
X15202342Y-10479831D01*
X15202342Y-10589830D02*
X15222342Y-10609830D01*
X15222342Y-10589830D02*
X15202342Y-10609830D01*
X15202342Y-10654830D02*
X15222342Y-10674830D01*
X15222342Y-10654830D02*
X15202342Y-10674830D01*
X15202342Y-10784830D02*
X15222342Y-10804830D01*
X15222342Y-10784830D02*
X15202342Y-10804830D01*
X15202342Y-10849830D02*
X15222342Y-10869830D01*
X15222342Y-10849830D02*
X15202342Y-10869830D01*
X15202342Y-10914830D02*
X15222342Y-10934830D01*
X15222342Y-10914830D02*
X15202342Y-10934830D01*
X15202342Y-10979830D02*
X15222342Y-10999830D01*
X15222342Y-10979830D02*
X15202342Y-10999830D01*
X15205500Y-11595258D02*
X15225500Y-11615258D01*
X15225500Y-11595258D02*
X15205500Y-11615258D01*
X15212199Y-11447958D02*
X15232199Y-11467958D01*
X15232199Y-11447958D02*
X15212199Y-11467958D01*
X15220122Y-11929507D02*
X15240122Y-11949507D01*
X15240122Y-11929507D02*
X15220122Y-11949507D01*
X15227233Y-10196940D02*
X15247233Y-10216940D01*
X15247233Y-10196940D02*
X15227233Y-10216940D01*
X15232540Y-9657059D02*
X15252540Y-9677059D01*
X15252540Y-9657059D02*
X15232540Y-9677059D01*
X15238520Y-9137510D02*
X15258520Y-9157510D01*
X15258520Y-9137510D02*
X15238520Y-9157510D01*
X15242700Y-9695159D02*
X15262700Y-9715159D01*
X15262700Y-9695159D02*
X15242700Y-9715159D01*
X15248680Y-9807099D02*
X15268680Y-9827099D01*
X15268680Y-9807099D02*
X15248680Y-9827099D01*
X15248680Y-9959499D02*
X15268680Y-9979499D01*
X15268680Y-9959499D02*
X15248680Y-9979499D01*
X15259012Y-11929507D02*
X15279012Y-11949507D01*
X15279012Y-11929507D02*
X15259012Y-11949507D01*
X15267342Y-10394831D02*
X15287342Y-10414831D01*
X15287342Y-10394831D02*
X15267342Y-10414831D01*
X15267342Y-10459831D02*
X15287342Y-10479831D01*
X15287342Y-10459831D02*
X15267342Y-10479831D01*
X15267342Y-10589830D02*
X15287342Y-10609830D01*
X15287342Y-10589830D02*
X15267342Y-10609830D01*
X15267342Y-10654830D02*
X15287342Y-10674830D01*
X15287342Y-10654830D02*
X15267342Y-10674830D01*
X15267342Y-10784830D02*
X15287342Y-10804830D01*
X15287342Y-10784830D02*
X15267342Y-10804830D01*
X15267342Y-10849830D02*
X15287342Y-10869830D01*
X15287342Y-10849830D02*
X15267342Y-10869830D01*
X15267342Y-10914830D02*
X15287342Y-10934830D01*
X15287342Y-10914830D02*
X15267342Y-10934830D01*
X15267342Y-10979830D02*
X15287342Y-10999830D01*
X15287342Y-10979830D02*
X15267342Y-10999830D01*
X15269840Y-11175391D02*
X15289840Y-11195390D01*
X15289840Y-11175391D02*
X15269840Y-11195390D01*
X15273233Y-10196940D02*
X15293233Y-10216940D01*
X15293233Y-10196940D02*
X15273233Y-10216940D01*
X15274080Y-9860439D02*
X15294080Y-9880439D01*
X15294080Y-9860439D02*
X15274080Y-9880439D01*
X15274080Y-9916319D02*
X15294080Y-9936319D01*
X15294080Y-9916319D02*
X15274080Y-9936319D01*
X15291667Y-11891407D02*
X15311667Y-11911407D01*
X15311667Y-11891407D02*
X15291667Y-11911407D01*
X15291667Y-11967607D02*
X15311667Y-11987607D01*
X15311667Y-11967607D02*
X15291667Y-11987607D01*
X15300947Y-11717622D02*
X15320947Y-11737622D01*
X15320947Y-11717622D02*
X15300947Y-11737622D01*
X15301213Y-11638182D02*
X15321213Y-11658182D01*
X15321213Y-11638182D02*
X15301213Y-11658182D01*
X15302448Y-11561957D02*
X15322448Y-11581957D01*
X15322448Y-11561957D02*
X15302448Y-11581957D01*
X15314936Y-11174757D02*
X15334936Y-11194756D01*
X15334936Y-11174757D02*
X15314936Y-11194756D01*
X15319233Y-10196940D02*
X15339233Y-10216940D01*
X15339233Y-10196940D02*
X15319233Y-10216940D01*
X15327420Y-11986418D02*
X15347420Y-12006418D01*
X15347420Y-11986418D02*
X15327420Y-12006418D01*
X15332342Y-10394831D02*
X15352342Y-10414831D01*
X15352342Y-10394831D02*
X15332342Y-10414831D01*
X15332342Y-10459831D02*
X15352342Y-10479831D01*
X15352342Y-10459831D02*
X15332342Y-10479831D01*
X15332342Y-10524831D02*
X15352342Y-10544831D01*
X15352342Y-10524831D02*
X15332342Y-10544831D01*
X15332342Y-10589831D02*
X15352342Y-10609831D01*
X15352342Y-10589831D02*
X15332342Y-10609831D01*
X15332342Y-10654831D02*
X15352342Y-10674831D01*
X15352342Y-10654831D02*
X15332342Y-10674831D01*
X15332342Y-10719831D02*
X15352342Y-10739831D01*
X15352342Y-10719831D02*
X15332342Y-10739831D01*
X15332342Y-10849830D02*
X15352342Y-10869830D01*
X15352342Y-10849830D02*
X15332342Y-10869830D01*
X15332342Y-10914830D02*
X15352342Y-10934830D01*
X15352342Y-10914830D02*
X15332342Y-10934830D01*
X15332342Y-10979830D02*
X15352342Y-10999830D01*
X15352342Y-10979830D02*
X15332342Y-10999830D01*
X15365233Y-10196940D02*
X15385233Y-10216940D01*
X15385233Y-10196940D02*
X15365233Y-10216940D01*
X15397342Y-10394831D02*
X15417342Y-10414831D01*
X15417342Y-10394831D02*
X15397342Y-10414831D01*
X15397342Y-10459831D02*
X15417342Y-10479831D01*
X15417342Y-10459831D02*
X15397342Y-10479831D01*
X15397342Y-10524831D02*
X15417342Y-10544831D01*
X15417342Y-10524831D02*
X15397342Y-10544831D01*
X15397342Y-10589831D02*
X15417342Y-10609831D01*
X15417342Y-10589831D02*
X15397342Y-10609831D01*
X15397342Y-10654831D02*
X15417342Y-10674831D01*
X15417342Y-10654831D02*
X15397342Y-10674831D01*
X15397342Y-10719831D02*
X15417342Y-10739831D01*
X15417342Y-10719831D02*
X15397342Y-10739831D01*
X15397342Y-10784830D02*
X15417342Y-10804830D01*
X15417342Y-10784830D02*
X15397342Y-10804830D01*
X15397342Y-10849830D02*
X15417342Y-10869830D01*
X15417342Y-10849830D02*
X15397342Y-10869830D01*
X15397342Y-10914830D02*
X15417342Y-10934830D01*
X15417342Y-10914830D02*
X15397342Y-10934830D01*
X15411233Y-10196940D02*
X15431233Y-10216940D01*
X15431233Y-10196940D02*
X15411233Y-10216940D01*
X15417920Y-8885210D02*
X15437920Y-8905210D01*
X15437920Y-8885210D02*
X15417920Y-8905210D01*
X15419642Y-11520050D02*
X15439642Y-11540050D01*
X15439642Y-11520050D02*
X15419642Y-11540050D01*
X15439919Y-10062678D02*
X15459919Y-10082678D01*
X15459919Y-10062678D02*
X15439919Y-10082678D01*
X15442405Y-11061827D02*
X15462405Y-11081827D01*
X15462405Y-11061827D02*
X15442405Y-11081827D01*
X15451633Y-10664230D02*
X15471633Y-10684230D01*
X15471633Y-10664230D02*
X15451633Y-10684230D01*
X15451866Y-10196940D02*
X15471866Y-10216940D01*
X15471866Y-10196940D02*
X15451866Y-10216940D01*
X15478507Y-11190437D02*
X15498507Y-11210437D01*
X15498507Y-11190437D02*
X15478507Y-11210437D01*
X15520620Y-11184930D02*
X15540620Y-11204930D01*
X15540620Y-11184930D02*
X15520620Y-11204930D01*
X15538240Y-9796939D02*
X15558240Y-9816939D01*
X15558240Y-9796939D02*
X15538240Y-9816939D01*
X15551784Y-10193059D02*
X15571784Y-10213059D01*
X15571784Y-10193059D02*
X15551784Y-10213059D01*
X15560570Y-10026088D02*
X15580570Y-10046088D01*
X15580570Y-10026088D02*
X15560570Y-10046088D01*
X15587373Y-10800013D02*
X15607373Y-10820013D01*
X15607373Y-10800013D02*
X15587373Y-10820013D01*
X15587373Y-10984013D02*
X15607373Y-11004013D01*
X15607373Y-10984013D02*
X15587373Y-11004013D01*
X15587373Y-11030014D02*
X15607373Y-11050014D01*
X15607373Y-11030014D02*
X15587373Y-11050014D01*
X15587373Y-11076013D02*
X15607373Y-11096013D01*
X15607373Y-11076013D02*
X15587373Y-11096013D01*
X15587845Y-10390218D02*
X15607845Y-10410218D01*
X15607845Y-10390218D02*
X15587845Y-10410218D01*
X15588206Y-10343880D02*
X15608206Y-10363880D01*
X15608206Y-10343880D02*
X15588206Y-10363880D01*
X15588361Y-10297731D02*
X15608361Y-10317731D01*
X15608361Y-10297731D02*
X15588361Y-10317731D01*
X15589190Y-10250904D02*
X15609190Y-10270904D01*
X15609190Y-10250904D02*
X15589190Y-10270904D01*
X15615988Y-11928227D02*
X15635988Y-11948227D01*
X15635988Y-11928227D02*
X15615988Y-11948227D01*
X15625350Y-10219012D02*
X15645350Y-10239012D01*
X15645350Y-10219012D02*
X15625350Y-10239012D01*
X15642116Y-11461519D02*
X15662116Y-11481519D01*
X15662116Y-11461519D02*
X15642116Y-11481519D01*
X15642380Y-11432698D02*
X15662380Y-11452698D01*
X15662380Y-11432698D02*
X15642380Y-11452698D01*
X15652879Y-9647504D02*
X15672879Y-9667504D01*
X15672879Y-9647504D02*
X15652879Y-9667504D01*
X15653650Y-9686936D02*
X15673650Y-9706936D01*
X15673650Y-9686936D02*
X15653650Y-9706936D01*
X15653650Y-9729001D02*
X15673650Y-9749001D01*
X15673650Y-9729001D02*
X15653650Y-9749001D01*
X15658052Y-11175990D02*
X15678052Y-11195989D01*
X15678052Y-11175990D02*
X15658052Y-11195989D01*
X15665240Y-11927998D02*
X15685240Y-11947998D01*
X15685240Y-11927998D02*
X15665240Y-11947998D01*
X15680480Y-9390539D02*
X15700480Y-9410539D01*
X15700480Y-9390539D02*
X15680480Y-9410539D01*
X15683020Y-9433719D02*
X15703020Y-9453719D01*
X15703020Y-9433719D02*
X15683020Y-9453719D01*
X15686713Y-9873617D02*
X15706713Y-9893617D01*
X15706713Y-9873617D02*
X15686713Y-9893617D01*
X15690219Y-11460868D02*
X15710219Y-11480868D01*
X15710219Y-11460868D02*
X15690219Y-11480868D01*
X15690640Y-11432698D02*
X15710640Y-11452698D01*
X15710640Y-11432698D02*
X15690640Y-11452698D01*
X15715716Y-11929086D02*
X15735716Y-11949086D01*
X15735716Y-11929086D02*
X15715716Y-11949086D01*
X15741440Y-11432698D02*
X15761440Y-11452698D01*
X15761440Y-11432698D02*
X15741440Y-11452698D01*
X15741571Y-11461952D02*
X15761571Y-11481952D01*
X15761571Y-11461952D02*
X15741571Y-11481952D01*
X15742942Y-9689494D02*
X15762942Y-9709494D01*
X15762942Y-9689494D02*
X15742942Y-9709494D01*
X15743980Y-9644539D02*
X15763980Y-9664539D01*
X15763980Y-9644539D02*
X15743980Y-9664539D01*
X15765663Y-11927542D02*
X15785663Y-11947542D01*
X15785663Y-11927542D02*
X15765663Y-11947542D01*
X15768861Y-10444256D02*
X15788861Y-10464256D01*
X15788861Y-10444256D02*
X15768861Y-10464256D01*
X15769704Y-10525511D02*
X15789704Y-10545511D01*
X15789704Y-10525511D02*
X15769704Y-10545511D01*
X15769818Y-10402413D02*
X15789818Y-10422413D01*
X15789818Y-10402413D02*
X15769818Y-10422413D01*
X15770135Y-10485261D02*
X15790135Y-10505261D01*
X15790135Y-10485261D02*
X15770135Y-10505261D01*
X15789721Y-9645016D02*
X15809721Y-9665016D01*
X15809721Y-9645016D02*
X15789721Y-9665016D01*
X15790232Y-9689494D02*
X15810232Y-9709494D01*
X15810232Y-9689494D02*
X15790232Y-9709494D01*
X15815981Y-10402178D02*
X15835981Y-10422178D01*
X15835981Y-10402178D02*
X15815981Y-10422178D01*
X15816196Y-10446733D02*
X15836196Y-10466733D01*
X15836196Y-10446733D02*
X15816196Y-10466733D01*
X15818349Y-10527233D02*
X15838349Y-10547233D01*
X15838349Y-10527233D02*
X15818349Y-10547233D01*
X15818563Y-10486552D02*
X15838563Y-10506552D01*
X15838563Y-10486552D02*
X15818563Y-10506552D01*
X15882496Y-10047772D02*
X15902496Y-10067772D01*
X15902496Y-10047772D02*
X15882496Y-10067772D01*
X15888678Y-10353301D02*
X15908678Y-10373301D01*
X15908678Y-10353301D02*
X15888678Y-10373301D01*
X15896929Y-10182107D02*
X15916929Y-10202107D01*
X15916929Y-10182107D02*
X15896929Y-10202107D01*
X15905545Y-10675589D02*
X15925545Y-10695589D01*
X15925545Y-10675589D02*
X15905545Y-10695589D01*
X15906057Y-10719827D02*
X15926057Y-10739827D01*
X15926057Y-10719827D02*
X15906057Y-10739827D01*
X15906312Y-10763554D02*
X15926312Y-10783554D01*
X15926312Y-10763554D02*
X15906312Y-10783554D01*
X15906540Y-10805319D02*
X15926540Y-10825319D01*
X15926540Y-10805319D02*
X15906540Y-10825319D01*
X15906540Y-10845959D02*
X15926540Y-10865959D01*
X15926540Y-10845959D02*
X15906540Y-10865959D01*
X14453116Y-8974655D02*
G75*
G02*
X14393116Y-8974655I-30000J0D01*
G01*
X14393116Y-8974655D02*
G75*
G02*
X14453116Y-8974655I30000J0D01*
G01*
X14393116Y-8899655D02*
X14393116Y-9049655D01*
X14453116Y-9049655D02*
G75*
G02*
X14393116Y-9049655I-30000J0D01*
G01*
X14453116Y-9049655D02*
X14453116Y-8899655D01*
X14453116Y-8899655D02*
G75*
G03*
X14393116Y-8899655I-30000J0D01*
G01*
X14453116Y-9510655D02*
G75*
G02*
X14393116Y-9510655I-30000J0D01*
G01*
X14393116Y-9510655D02*
G75*
G02*
X14453116Y-9510655I30000J0D01*
G01*
X14393116Y-9460655D02*
X14393116Y-9560655D01*
X14453116Y-9560655D02*
G75*
G02*
X14393116Y-9560655I-30000J0D01*
G01*
X14453116Y-9560655D02*
X14453116Y-9460655D01*
X14453116Y-9460655D02*
G75*
G03*
X14393116Y-9460655I-30000J0D01*
G01*
X15317112Y-8974656D02*
G75*
G02*
X15257112Y-8974656I-30000J0D01*
G01*
X15257112Y-8974656D02*
G75*
G02*
X15317112Y-8974656I30000J0D01*
G01*
X15257112Y-8899657D02*
X15257112Y-9049654D01*
X15317112Y-9049654D02*
G75*
G02*
X15257112Y-9049654I-30000J0D01*
G01*
X15317112Y-9049654D02*
X15317112Y-8899657D01*
X15317112Y-8899657D02*
G75*
G03*
X15257112Y-8899657I-30000J0D01*
G01*
X15317112Y-9510655D02*
G75*
G02*
X15257112Y-9510655I-30000J0D01*
G01*
X15257112Y-9510655D02*
G75*
G02*
X15317112Y-9510655I30000J0D01*
G01*
X15257112Y-9460655D02*
X15257112Y-9560655D01*
X15317112Y-9560655D02*
G75*
G02*
X15257112Y-9560655I-30000J0D01*
G01*
X15317112Y-9560655D02*
X15317112Y-9460655D01*
X15317112Y-9460655D02*
G75*
G03*
X15257112Y-9460655I-30000J0D01*
G01*
D12*
X14049640Y-8935079D02*
X14049640Y-9255079D01*
X13889640Y-9095079D02*
X14209640Y-9095079D01*
X15649642Y-8935079D02*
X15649642Y-9255079D01*
X15489642Y-9095079D02*
X15809642Y-9095079D01*
D11*
X13605777Y-15516484D02*
X13605777Y-15316484D01*
X13605777Y-15316484D02*
X13653396Y-15316484D01*
X13653396Y-15316484D02*
X13681967Y-15326008D01*
X13681967Y-15326008D02*
X13701015Y-15345055D01*
X13701015Y-15345055D02*
X13710539Y-15364103D01*
X13710539Y-15364103D02*
X13720062Y-15402198D01*
X13720062Y-15402198D02*
X13720062Y-15430769D01*
X13720062Y-15430769D02*
X13710539Y-15468865D01*
X13710539Y-15468865D02*
X13701015Y-15487912D01*
X13701015Y-15487912D02*
X13681967Y-15506960D01*
X13681967Y-15506960D02*
X13653396Y-15516484D01*
X13653396Y-15516484D02*
X13605777Y-15516484D01*
X13805777Y-15516484D02*
X13805777Y-15383150D01*
X13805777Y-15421246D02*
X13815301Y-15402198D01*
X13815301Y-15402198D02*
X13824824Y-15392674D01*
X13824824Y-15392674D02*
X13843872Y-15383150D01*
X13843872Y-15383150D02*
X13862920Y-15383150D01*
X13929586Y-15516484D02*
X13929586Y-15383150D01*
X13929586Y-15316484D02*
X13920062Y-15326008D01*
X13920062Y-15326008D02*
X13929586Y-15335531D01*
X13929586Y-15335531D02*
X13939110Y-15326008D01*
X13939110Y-15326008D02*
X13929586Y-15316484D01*
X13929586Y-15316484D02*
X13929586Y-15335531D01*
X14053396Y-15516484D02*
X14034348Y-15506960D01*
X14034348Y-15506960D02*
X14024824Y-15487912D01*
X14024824Y-15487912D02*
X14024824Y-15316484D01*
X14158158Y-15516484D02*
X14139110Y-15506960D01*
X14139110Y-15506960D02*
X14129586Y-15487912D01*
X14129586Y-15487912D02*
X14129586Y-15316484D01*
X14386729Y-15516484D02*
X14386729Y-15316484D01*
X14386729Y-15316484D02*
X14453396Y-15459341D01*
X14453396Y-15459341D02*
X14520062Y-15316484D01*
X14520062Y-15316484D02*
X14520062Y-15516484D01*
X14701015Y-15516484D02*
X14701015Y-15411722D01*
X14701015Y-15411722D02*
X14691491Y-15392674D01*
X14691491Y-15392674D02*
X14672443Y-15383150D01*
X14672443Y-15383150D02*
X14634348Y-15383150D01*
X14634348Y-15383150D02*
X14615301Y-15392674D01*
X14701015Y-15506960D02*
X14681967Y-15516484D01*
X14681967Y-15516484D02*
X14634348Y-15516484D01*
X14634348Y-15516484D02*
X14615301Y-15506960D01*
X14615301Y-15506960D02*
X14605777Y-15487912D01*
X14605777Y-15487912D02*
X14605777Y-15468865D01*
X14605777Y-15468865D02*
X14615301Y-15449817D01*
X14615301Y-15449817D02*
X14634348Y-15440293D01*
X14634348Y-15440293D02*
X14681967Y-15440293D01*
X14681967Y-15440293D02*
X14701015Y-15430769D01*
X14796253Y-15383150D02*
X14796253Y-15583150D01*
X14796253Y-15392674D02*
X14815301Y-15383150D01*
X14815301Y-15383150D02*
X14853396Y-15383150D01*
X14853396Y-15383150D02*
X14872443Y-15392674D01*
X14872443Y-15392674D02*
X14881967Y-15402198D01*
X14881967Y-15402198D02*
X14891491Y-15421246D01*
X14891491Y-15421246D02*
X14891491Y-15478388D01*
X14891491Y-15478388D02*
X14881967Y-15497436D01*
X14881967Y-15497436D02*
X14872443Y-15506960D01*
X14872443Y-15506960D02*
X14853396Y-15516484D01*
X14853396Y-15516484D02*
X14815301Y-15516484D01*
X14815301Y-15516484D02*
X14796253Y-15506960D01*
X14977205Y-15497436D02*
X14986729Y-15506960D01*
X14986729Y-15506960D02*
X14977205Y-15516484D01*
X14977205Y-15516484D02*
X14967682Y-15506960D01*
X14967682Y-15506960D02*
X14977205Y-15497436D01*
X14977205Y-15497436D02*
X14977205Y-15516484D01*
X14977205Y-15392674D02*
X14986729Y-15402198D01*
X14986729Y-15402198D02*
X14977205Y-15411722D01*
X14977205Y-15411722D02*
X14967682Y-15402198D01*
X14967682Y-15402198D02*
X14977205Y-15392674D01*
X14977205Y-15392674D02*
X14977205Y-15411722D01*
D10*
X13325000Y-15835000D02*
X13345000Y-15855000D01*
X13345000Y-15835000D02*
X13325000Y-15855000D01*
D11*
X13643872Y-15736484D02*
X13662920Y-15736484D01*
X13662920Y-15736484D02*
X13681967Y-15746008D01*
X13681967Y-15746008D02*
X13691491Y-15755531D01*
X13691491Y-15755531D02*
X13701015Y-15774579D01*
X13701015Y-15774579D02*
X13710539Y-15812674D01*
X13710539Y-15812674D02*
X13710539Y-15860293D01*
X13710539Y-15860293D02*
X13701015Y-15898388D01*
X13701015Y-15898388D02*
X13691491Y-15917436D01*
X13691491Y-15917436D02*
X13681967Y-15926960D01*
X13681967Y-15926960D02*
X13662920Y-15936484D01*
X13662920Y-15936484D02*
X13643872Y-15936484D01*
X13643872Y-15936484D02*
X13624824Y-15926960D01*
X13624824Y-15926960D02*
X13615301Y-15917436D01*
X13615301Y-15917436D02*
X13605777Y-15898388D01*
X13605777Y-15898388D02*
X13596253Y-15860293D01*
X13596253Y-15860293D02*
X13596253Y-15812674D01*
X13596253Y-15812674D02*
X13605777Y-15774579D01*
X13605777Y-15774579D02*
X13615301Y-15755531D01*
X13615301Y-15755531D02*
X13624824Y-15746008D01*
X13624824Y-15746008D02*
X13643872Y-15736484D01*
X13796253Y-15917436D02*
X13805777Y-15926960D01*
X13805777Y-15926960D02*
X13796253Y-15936484D01*
X13796253Y-15936484D02*
X13786729Y-15926960D01*
X13786729Y-15926960D02*
X13796253Y-15917436D01*
X13796253Y-15917436D02*
X13796253Y-15936484D01*
X13881967Y-15755531D02*
X13891491Y-15746008D01*
X13891491Y-15746008D02*
X13910539Y-15736484D01*
X13910539Y-15736484D02*
X13958158Y-15736484D01*
X13958158Y-15736484D02*
X13977205Y-15746008D01*
X13977205Y-15746008D02*
X13986729Y-15755531D01*
X13986729Y-15755531D02*
X13996253Y-15774579D01*
X13996253Y-15774579D02*
X13996253Y-15793627D01*
X13996253Y-15793627D02*
X13986729Y-15822198D01*
X13986729Y-15822198D02*
X13872443Y-15936484D01*
X13872443Y-15936484D02*
X13996253Y-15936484D01*
X14120062Y-15736484D02*
X14139110Y-15736484D01*
X14139110Y-15736484D02*
X14158158Y-15746008D01*
X14158158Y-15746008D02*
X14167682Y-15755531D01*
X14167682Y-15755531D02*
X14177205Y-15774579D01*
X14177205Y-15774579D02*
X14186729Y-15812674D01*
X14186729Y-15812674D02*
X14186729Y-15860293D01*
X14186729Y-15860293D02*
X14177205Y-15898388D01*
X14177205Y-15898388D02*
X14167682Y-15917436D01*
X14167682Y-15917436D02*
X14158158Y-15926960D01*
X14158158Y-15926960D02*
X14139110Y-15936484D01*
X14139110Y-15936484D02*
X14120062Y-15936484D01*
X14120062Y-15936484D02*
X14101015Y-15926960D01*
X14101015Y-15926960D02*
X14091491Y-15917436D01*
X14091491Y-15917436D02*
X14081967Y-15898388D01*
X14081967Y-15898388D02*
X14072443Y-15860293D01*
X14072443Y-15860293D02*
X14072443Y-15812674D01*
X14072443Y-15812674D02*
X14081967Y-15774579D01*
X14081967Y-15774579D02*
X14091491Y-15755531D01*
X14091491Y-15755531D02*
X14101015Y-15746008D01*
X14101015Y-15746008D02*
X14120062Y-15736484D01*
X14310539Y-15736484D02*
X14329586Y-15736484D01*
X14329586Y-15736484D02*
X14348634Y-15746008D01*
X14348634Y-15746008D02*
X14358158Y-15755531D01*
X14358158Y-15755531D02*
X14367682Y-15774579D01*
X14367682Y-15774579D02*
X14377205Y-15812674D01*
X14377205Y-15812674D02*
X14377205Y-15860293D01*
X14377205Y-15860293D02*
X14367682Y-15898388D01*
X14367682Y-15898388D02*
X14358158Y-15917436D01*
X14358158Y-15917436D02*
X14348634Y-15926960D01*
X14348634Y-15926960D02*
X14329586Y-15936484D01*
X14329586Y-15936484D02*
X14310539Y-15936484D01*
X14310539Y-15936484D02*
X14291491Y-15926960D01*
X14291491Y-15926960D02*
X14281967Y-15917436D01*
X14281967Y-15917436D02*
X14272443Y-15898388D01*
X14272443Y-15898388D02*
X14262920Y-15860293D01*
X14262920Y-15860293D02*
X14262920Y-15812674D01*
X14262920Y-15812674D02*
X14272443Y-15774579D01*
X14272443Y-15774579D02*
X14281967Y-15755531D01*
X14281967Y-15755531D02*
X14291491Y-15746008D01*
X14291491Y-15746008D02*
X14310539Y-15736484D01*
X14462920Y-15936484D02*
X14462920Y-15803150D01*
X14462920Y-15822198D02*
X14472443Y-15812674D01*
X14472443Y-15812674D02*
X14491491Y-15803150D01*
X14491491Y-15803150D02*
X14520063Y-15803150D01*
X14520063Y-15803150D02*
X14539110Y-15812674D01*
X14539110Y-15812674D02*
X14548634Y-15831722D01*
X14548634Y-15831722D02*
X14548634Y-15936484D01*
X14548634Y-15831722D02*
X14558158Y-15812674D01*
X14558158Y-15812674D02*
X14577205Y-15803150D01*
X14577205Y-15803150D02*
X14605777Y-15803150D01*
X14605777Y-15803150D02*
X14624824Y-15812674D01*
X14624824Y-15812674D02*
X14634348Y-15831722D01*
X14634348Y-15831722D02*
X14634348Y-15936484D01*
X14729586Y-15936484D02*
X14729586Y-15803150D01*
X14729586Y-15822198D02*
X14739110Y-15812674D01*
X14739110Y-15812674D02*
X14758158Y-15803150D01*
X14758158Y-15803150D02*
X14786729Y-15803150D01*
X14786729Y-15803150D02*
X14805777Y-15812674D01*
X14805777Y-15812674D02*
X14815301Y-15831722D01*
X14815301Y-15831722D02*
X14815301Y-15936484D01*
X14815301Y-15831722D02*
X14824824Y-15812674D01*
X14824824Y-15812674D02*
X14843872Y-15803150D01*
X14843872Y-15803150D02*
X14872443Y-15803150D01*
X14872443Y-15803150D02*
X14891491Y-15812674D01*
X14891491Y-15812674D02*
X14901015Y-15831722D01*
X14901015Y-15831722D02*
X14901015Y-15936484D01*
X15291491Y-15726960D02*
X15120063Y-15984103D01*
X15548634Y-15736484D02*
X15567682Y-15736484D01*
X15567682Y-15736484D02*
X15586729Y-15746008D01*
X15586729Y-15746008D02*
X15596253Y-15755531D01*
X15596253Y-15755531D02*
X15605777Y-15774579D01*
X15605777Y-15774579D02*
X15615301Y-15812674D01*
X15615301Y-15812674D02*
X15615301Y-15860293D01*
X15615301Y-15860293D02*
X15605777Y-15898388D01*
X15605777Y-15898388D02*
X15596253Y-15917436D01*
X15596253Y-15917436D02*
X15586729Y-15926960D01*
X15586729Y-15926960D02*
X15567682Y-15936484D01*
X15567682Y-15936484D02*
X15548634Y-15936484D01*
X15548634Y-15936484D02*
X15529586Y-15926960D01*
X15529586Y-15926960D02*
X15520063Y-15917436D01*
X15520063Y-15917436D02*
X15510539Y-15898388D01*
X15510539Y-15898388D02*
X15501015Y-15860293D01*
X15501015Y-15860293D02*
X15501015Y-15812674D01*
X15501015Y-15812674D02*
X15510539Y-15774579D01*
X15510539Y-15774579D02*
X15520063Y-15755531D01*
X15520063Y-15755531D02*
X15529586Y-15746008D01*
X15529586Y-15746008D02*
X15548634Y-15736484D01*
X15701015Y-15917436D02*
X15710539Y-15926960D01*
X15710539Y-15926960D02*
X15701015Y-15936484D01*
X15701015Y-15936484D02*
X15691491Y-15926960D01*
X15691491Y-15926960D02*
X15701015Y-15917436D01*
X15701015Y-15917436D02*
X15701015Y-15936484D01*
X15834348Y-15736484D02*
X15853396Y-15736484D01*
X15853396Y-15736484D02*
X15872444Y-15746008D01*
X15872444Y-15746008D02*
X15881967Y-15755531D01*
X15881967Y-15755531D02*
X15891491Y-15774579D01*
X15891491Y-15774579D02*
X15901015Y-15812674D01*
X15901015Y-15812674D02*
X15901015Y-15860293D01*
X15901015Y-15860293D02*
X15891491Y-15898388D01*
X15891491Y-15898388D02*
X15881967Y-15917436D01*
X15881967Y-15917436D02*
X15872444Y-15926960D01*
X15872444Y-15926960D02*
X15853396Y-15936484D01*
X15853396Y-15936484D02*
X15834348Y-15936484D01*
X15834348Y-15936484D02*
X15815301Y-15926960D01*
X15815301Y-15926960D02*
X15805777Y-15917436D01*
X15805777Y-15917436D02*
X15796253Y-15898388D01*
X15796253Y-15898388D02*
X15786729Y-15860293D01*
X15786729Y-15860293D02*
X15786729Y-15812674D01*
X15786729Y-15812674D02*
X15796253Y-15774579D01*
X15796253Y-15774579D02*
X15805777Y-15755531D01*
X15805777Y-15755531D02*
X15815301Y-15746008D01*
X15815301Y-15746008D02*
X15834348Y-15736484D01*
X16024825Y-15736484D02*
X16043872Y-15736484D01*
X16043872Y-15736484D02*
X16062920Y-15746008D01*
X16062920Y-15746008D02*
X16072444Y-15755531D01*
X16072444Y-15755531D02*
X16081967Y-15774579D01*
X16081967Y-15774579D02*
X16091491Y-15812674D01*
X16091491Y-15812674D02*
X16091491Y-15860293D01*
X16091491Y-15860293D02*
X16081967Y-15898388D01*
X16081967Y-15898388D02*
X16072444Y-15917436D01*
X16072444Y-15917436D02*
X16062920Y-15926960D01*
X16062920Y-15926960D02*
X16043872Y-15936484D01*
X16043872Y-15936484D02*
X16024825Y-15936484D01*
X16024825Y-15936484D02*
X16005777Y-15926960D01*
X16005777Y-15926960D02*
X15996253Y-15917436D01*
X15996253Y-15917436D02*
X15986729Y-15898388D01*
X15986729Y-15898388D02*
X15977206Y-15860293D01*
X15977206Y-15860293D02*
X15977206Y-15812674D01*
X15977206Y-15812674D02*
X15986729Y-15774579D01*
X15986729Y-15774579D02*
X15996253Y-15755531D01*
X15996253Y-15755531D02*
X16005777Y-15746008D01*
X16005777Y-15746008D02*
X16024825Y-15736484D01*
X16158158Y-15736484D02*
X16291491Y-15736484D01*
X16291491Y-15736484D02*
X16205777Y-15936484D01*
X16377206Y-15936484D02*
X16415301Y-15936484D01*
X16415301Y-15936484D02*
X16434348Y-15926960D01*
X16434348Y-15926960D02*
X16443872Y-15917436D01*
X16443872Y-15917436D02*
X16462920Y-15888865D01*
X16462920Y-15888865D02*
X16472444Y-15850769D01*
X16472444Y-15850769D02*
X16472444Y-15774579D01*
X16472444Y-15774579D02*
X16462920Y-15755531D01*
X16462920Y-15755531D02*
X16453396Y-15746008D01*
X16453396Y-15746008D02*
X16434348Y-15736484D01*
X16434348Y-15736484D02*
X16396253Y-15736484D01*
X16396253Y-15736484D02*
X16377206Y-15746008D01*
X16377206Y-15746008D02*
X16367682Y-15755531D01*
X16367682Y-15755531D02*
X16358158Y-15774579D01*
X16358158Y-15774579D02*
X16358158Y-15822198D01*
X16358158Y-15822198D02*
X16367682Y-15841246D01*
X16367682Y-15841246D02*
X16377206Y-15850769D01*
X16377206Y-15850769D02*
X16396253Y-15860293D01*
X16396253Y-15860293D02*
X16434348Y-15860293D01*
X16434348Y-15860293D02*
X16453396Y-15850769D01*
X16453396Y-15850769D02*
X16462920Y-15841246D01*
X16462920Y-15841246D02*
X16472444Y-15822198D01*
X16548634Y-15736484D02*
X16548634Y-15774579D01*
X16624825Y-15736484D02*
X16624825Y-15774579D01*
X16920063Y-16012674D02*
X16910539Y-16003150D01*
X16910539Y-16003150D02*
X16891491Y-15974579D01*
X16891491Y-15974579D02*
X16881968Y-15955531D01*
X16881968Y-15955531D02*
X16872444Y-15926960D01*
X16872444Y-15926960D02*
X16862920Y-15879341D01*
X16862920Y-15879341D02*
X16862920Y-15841246D01*
X16862920Y-15841246D02*
X16872444Y-15793627D01*
X16872444Y-15793627D02*
X16881968Y-15765055D01*
X16881968Y-15765055D02*
X16891491Y-15746008D01*
X16891491Y-15746008D02*
X16910539Y-15717436D01*
X16910539Y-15717436D02*
X16920063Y-15707912D01*
X17081968Y-15803150D02*
X17081968Y-15936484D01*
X17034349Y-15726960D02*
X16986730Y-15869817D01*
X16986730Y-15869817D02*
X17110539Y-15869817D01*
X17167682Y-15736484D02*
X17291491Y-15736484D01*
X17291491Y-15736484D02*
X17224825Y-15812674D01*
X17224825Y-15812674D02*
X17253396Y-15812674D01*
X17253396Y-15812674D02*
X17272444Y-15822198D01*
X17272444Y-15822198D02*
X17281968Y-15831722D01*
X17281968Y-15831722D02*
X17291491Y-15850769D01*
X17291491Y-15850769D02*
X17291491Y-15898388D01*
X17291491Y-15898388D02*
X17281968Y-15917436D01*
X17281968Y-15917436D02*
X17272444Y-15926960D01*
X17272444Y-15926960D02*
X17253396Y-15936484D01*
X17253396Y-15936484D02*
X17196253Y-15936484D01*
X17196253Y-15936484D02*
X17177206Y-15926960D01*
X17177206Y-15926960D02*
X17167682Y-15917436D01*
X17415301Y-15736484D02*
X17434349Y-15736484D01*
X17434349Y-15736484D02*
X17453396Y-15746008D01*
X17453396Y-15746008D02*
X17462920Y-15755531D01*
X17462920Y-15755531D02*
X17472444Y-15774579D01*
X17472444Y-15774579D02*
X17481968Y-15812674D01*
X17481968Y-15812674D02*
X17481968Y-15860293D01*
X17481968Y-15860293D02*
X17472444Y-15898388D01*
X17472444Y-15898388D02*
X17462920Y-15917436D01*
X17462920Y-15917436D02*
X17453396Y-15926960D01*
X17453396Y-15926960D02*
X17434349Y-15936484D01*
X17434349Y-15936484D02*
X17415301Y-15936484D01*
X17415301Y-15936484D02*
X17396253Y-15926960D01*
X17396253Y-15926960D02*
X17386730Y-15917436D01*
X17386730Y-15917436D02*
X17377206Y-15898388D01*
X17377206Y-15898388D02*
X17367682Y-15860293D01*
X17367682Y-15860293D02*
X17367682Y-15812674D01*
X17367682Y-15812674D02*
X17377206Y-15774579D01*
X17377206Y-15774579D02*
X17386730Y-15755531D01*
X17386730Y-15755531D02*
X17396253Y-15746008D01*
X17396253Y-15746008D02*
X17415301Y-15736484D01*
X17720063Y-15936484D02*
X17720063Y-15736484D01*
X17805777Y-15936484D02*
X17805777Y-15831722D01*
X17805777Y-15831722D02*
X17796253Y-15812674D01*
X17796253Y-15812674D02*
X17777206Y-15803150D01*
X17777206Y-15803150D02*
X17748634Y-15803150D01*
X17748634Y-15803150D02*
X17729587Y-15812674D01*
X17729587Y-15812674D02*
X17720063Y-15822198D01*
X17929587Y-15936484D02*
X17910539Y-15926960D01*
X17910539Y-15926960D02*
X17901015Y-15917436D01*
X17901015Y-15917436D02*
X17891492Y-15898388D01*
X17891492Y-15898388D02*
X17891492Y-15841246D01*
X17891492Y-15841246D02*
X17901015Y-15822198D01*
X17901015Y-15822198D02*
X17910539Y-15812674D01*
X17910539Y-15812674D02*
X17929587Y-15803150D01*
X17929587Y-15803150D02*
X17958158Y-15803150D01*
X17958158Y-15803150D02*
X17977206Y-15812674D01*
X17977206Y-15812674D02*
X17986730Y-15822198D01*
X17986730Y-15822198D02*
X17996253Y-15841246D01*
X17996253Y-15841246D02*
X17996253Y-15898388D01*
X17996253Y-15898388D02*
X17986730Y-15917436D01*
X17986730Y-15917436D02*
X17977206Y-15926960D01*
X17977206Y-15926960D02*
X17958158Y-15936484D01*
X17958158Y-15936484D02*
X17929587Y-15936484D01*
X18110539Y-15936484D02*
X18091492Y-15926960D01*
X18091492Y-15926960D02*
X18081968Y-15907912D01*
X18081968Y-15907912D02*
X18081968Y-15736484D01*
X18262920Y-15926960D02*
X18243873Y-15936484D01*
X18243873Y-15936484D02*
X18205777Y-15936484D01*
X18205777Y-15936484D02*
X18186730Y-15926960D01*
X18186730Y-15926960D02*
X18177206Y-15907912D01*
X18177206Y-15907912D02*
X18177206Y-15831722D01*
X18177206Y-15831722D02*
X18186730Y-15812674D01*
X18186730Y-15812674D02*
X18205777Y-15803150D01*
X18205777Y-15803150D02*
X18243873Y-15803150D01*
X18243873Y-15803150D02*
X18262920Y-15812674D01*
X18262920Y-15812674D02*
X18272444Y-15831722D01*
X18272444Y-15831722D02*
X18272444Y-15850769D01*
X18272444Y-15850769D02*
X18177206Y-15869817D01*
X18348634Y-15926960D02*
X18367682Y-15936484D01*
X18367682Y-15936484D02*
X18405777Y-15936484D01*
X18405777Y-15936484D02*
X18424825Y-15926960D01*
X18424825Y-15926960D02*
X18434349Y-15907912D01*
X18434349Y-15907912D02*
X18434349Y-15898388D01*
X18434349Y-15898388D02*
X18424825Y-15879341D01*
X18424825Y-15879341D02*
X18405777Y-15869817D01*
X18405777Y-15869817D02*
X18377206Y-15869817D01*
X18377206Y-15869817D02*
X18358158Y-15860293D01*
X18358158Y-15860293D02*
X18348634Y-15841246D01*
X18348634Y-15841246D02*
X18348634Y-15831722D01*
X18348634Y-15831722D02*
X18358158Y-15812674D01*
X18358158Y-15812674D02*
X18377206Y-15803150D01*
X18377206Y-15803150D02*
X18405777Y-15803150D01*
X18405777Y-15803150D02*
X18424825Y-15812674D01*
X18501015Y-16012674D02*
X18510539Y-16003150D01*
X18510539Y-16003150D02*
X18529587Y-15974579D01*
X18529587Y-15974579D02*
X18539111Y-15955531D01*
X18539111Y-15955531D02*
X18548634Y-15926960D01*
X18548634Y-15926960D02*
X18558158Y-15879341D01*
X18558158Y-15879341D02*
X18558158Y-15841246D01*
X18558158Y-15841246D02*
X18548634Y-15793627D01*
X18548634Y-15793627D02*
X18539111Y-15765055D01*
X18539111Y-15765055D02*
X18529587Y-15746008D01*
X18529587Y-15746008D02*
X18510539Y-15717436D01*
X18510539Y-15717436D02*
X18501015Y-15707912D01*
D10*
X13345000Y-16109000D02*
G75*
G02*
X13285000Y-16109000I-30000J0D01*
G01*
X13285000Y-16109000D02*
G75*
G02*
X13345000Y-16109000I30000J0D01*
G01*
D11*
X13643872Y-16000484D02*
X13662920Y-16000484D01*
X13662920Y-16000484D02*
X13681967Y-16010008D01*
X13681967Y-16010008D02*
X13691491Y-16019531D01*
X13691491Y-16019531D02*
X13701015Y-16038579D01*
X13701015Y-16038579D02*
X13710539Y-16076674D01*
X13710539Y-16076674D02*
X13710539Y-16124293D01*
X13710539Y-16124293D02*
X13701015Y-16162388D01*
X13701015Y-16162388D02*
X13691491Y-16181436D01*
X13691491Y-16181436D02*
X13681967Y-16190960D01*
X13681967Y-16190960D02*
X13662920Y-16200484D01*
X13662920Y-16200484D02*
X13643872Y-16200484D01*
X13643872Y-16200484D02*
X13624824Y-16190960D01*
X13624824Y-16190960D02*
X13615301Y-16181436D01*
X13615301Y-16181436D02*
X13605777Y-16162388D01*
X13605777Y-16162388D02*
X13596253Y-16124293D01*
X13596253Y-16124293D02*
X13596253Y-16076674D01*
X13596253Y-16076674D02*
X13605777Y-16038579D01*
X13605777Y-16038579D02*
X13615301Y-16019531D01*
X13615301Y-16019531D02*
X13624824Y-16010008D01*
X13624824Y-16010008D02*
X13643872Y-16000484D01*
X13796253Y-16181436D02*
X13805777Y-16190960D01*
X13805777Y-16190960D02*
X13796253Y-16200484D01*
X13796253Y-16200484D02*
X13786729Y-16190960D01*
X13786729Y-16190960D02*
X13796253Y-16181436D01*
X13796253Y-16181436D02*
X13796253Y-16200484D01*
X13977205Y-16000484D02*
X13939110Y-16000484D01*
X13939110Y-16000484D02*
X13920062Y-16010008D01*
X13920062Y-16010008D02*
X13910539Y-16019531D01*
X13910539Y-16019531D02*
X13891491Y-16048103D01*
X13891491Y-16048103D02*
X13881967Y-16086198D01*
X13881967Y-16086198D02*
X13881967Y-16162388D01*
X13881967Y-16162388D02*
X13891491Y-16181436D01*
X13891491Y-16181436D02*
X13901015Y-16190960D01*
X13901015Y-16190960D02*
X13920062Y-16200484D01*
X13920062Y-16200484D02*
X13958158Y-16200484D01*
X13958158Y-16200484D02*
X13977205Y-16190960D01*
X13977205Y-16190960D02*
X13986729Y-16181436D01*
X13986729Y-16181436D02*
X13996253Y-16162388D01*
X13996253Y-16162388D02*
X13996253Y-16114769D01*
X13996253Y-16114769D02*
X13986729Y-16095722D01*
X13986729Y-16095722D02*
X13977205Y-16086198D01*
X13977205Y-16086198D02*
X13958158Y-16076674D01*
X13958158Y-16076674D02*
X13920062Y-16076674D01*
X13920062Y-16076674D02*
X13901015Y-16086198D01*
X13901015Y-16086198D02*
X13891491Y-16095722D01*
X13891491Y-16095722D02*
X13881967Y-16114769D01*
X14120062Y-16000484D02*
X14139110Y-16000484D01*
X14139110Y-16000484D02*
X14158158Y-16010008D01*
X14158158Y-16010008D02*
X14167682Y-16019531D01*
X14167682Y-16019531D02*
X14177205Y-16038579D01*
X14177205Y-16038579D02*
X14186729Y-16076674D01*
X14186729Y-16076674D02*
X14186729Y-16124293D01*
X14186729Y-16124293D02*
X14177205Y-16162388D01*
X14177205Y-16162388D02*
X14167682Y-16181436D01*
X14167682Y-16181436D02*
X14158158Y-16190960D01*
X14158158Y-16190960D02*
X14139110Y-16200484D01*
X14139110Y-16200484D02*
X14120062Y-16200484D01*
X14120062Y-16200484D02*
X14101015Y-16190960D01*
X14101015Y-16190960D02*
X14091491Y-16181436D01*
X14091491Y-16181436D02*
X14081967Y-16162388D01*
X14081967Y-16162388D02*
X14072443Y-16124293D01*
X14072443Y-16124293D02*
X14072443Y-16076674D01*
X14072443Y-16076674D02*
X14081967Y-16038579D01*
X14081967Y-16038579D02*
X14091491Y-16019531D01*
X14091491Y-16019531D02*
X14101015Y-16010008D01*
X14101015Y-16010008D02*
X14120062Y-16000484D01*
X14310539Y-16000484D02*
X14329586Y-16000484D01*
X14329586Y-16000484D02*
X14348634Y-16010008D01*
X14348634Y-16010008D02*
X14358158Y-16019531D01*
X14358158Y-16019531D02*
X14367682Y-16038579D01*
X14367682Y-16038579D02*
X14377205Y-16076674D01*
X14377205Y-16076674D02*
X14377205Y-16124293D01*
X14377205Y-16124293D02*
X14367682Y-16162388D01*
X14367682Y-16162388D02*
X14358158Y-16181436D01*
X14358158Y-16181436D02*
X14348634Y-16190960D01*
X14348634Y-16190960D02*
X14329586Y-16200484D01*
X14329586Y-16200484D02*
X14310539Y-16200484D01*
X14310539Y-16200484D02*
X14291491Y-16190960D01*
X14291491Y-16190960D02*
X14281967Y-16181436D01*
X14281967Y-16181436D02*
X14272443Y-16162388D01*
X14272443Y-16162388D02*
X14262920Y-16124293D01*
X14262920Y-16124293D02*
X14262920Y-16076674D01*
X14262920Y-16076674D02*
X14272443Y-16038579D01*
X14272443Y-16038579D02*
X14281967Y-16019531D01*
X14281967Y-16019531D02*
X14291491Y-16010008D01*
X14291491Y-16010008D02*
X14310539Y-16000484D01*
X14462920Y-16200484D02*
X14462920Y-16067150D01*
X14462920Y-16086198D02*
X14472443Y-16076674D01*
X14472443Y-16076674D02*
X14491491Y-16067150D01*
X14491491Y-16067150D02*
X14520063Y-16067150D01*
X14520063Y-16067150D02*
X14539110Y-16076674D01*
X14539110Y-16076674D02*
X14548634Y-16095722D01*
X14548634Y-16095722D02*
X14548634Y-16200484D01*
X14548634Y-16095722D02*
X14558158Y-16076674D01*
X14558158Y-16076674D02*
X14577205Y-16067150D01*
X14577205Y-16067150D02*
X14605777Y-16067150D01*
X14605777Y-16067150D02*
X14624824Y-16076674D01*
X14624824Y-16076674D02*
X14634348Y-16095722D01*
X14634348Y-16095722D02*
X14634348Y-16200484D01*
X14729586Y-16200484D02*
X14729586Y-16067150D01*
X14729586Y-16086198D02*
X14739110Y-16076674D01*
X14739110Y-16076674D02*
X14758158Y-16067150D01*
X14758158Y-16067150D02*
X14786729Y-16067150D01*
X14786729Y-16067150D02*
X14805777Y-16076674D01*
X14805777Y-16076674D02*
X14815301Y-16095722D01*
X14815301Y-16095722D02*
X14815301Y-16200484D01*
X14815301Y-16095722D02*
X14824824Y-16076674D01*
X14824824Y-16076674D02*
X14843872Y-16067150D01*
X14843872Y-16067150D02*
X14872443Y-16067150D01*
X14872443Y-16067150D02*
X14891491Y-16076674D01*
X14891491Y-16076674D02*
X14901015Y-16095722D01*
X14901015Y-16095722D02*
X14901015Y-16200484D01*
X15291491Y-15990960D02*
X15120063Y-16248103D01*
X15548634Y-16000484D02*
X15567682Y-16000484D01*
X15567682Y-16000484D02*
X15586729Y-16010008D01*
X15586729Y-16010008D02*
X15596253Y-16019531D01*
X15596253Y-16019531D02*
X15605777Y-16038579D01*
X15605777Y-16038579D02*
X15615301Y-16076674D01*
X15615301Y-16076674D02*
X15615301Y-16124293D01*
X15615301Y-16124293D02*
X15605777Y-16162388D01*
X15605777Y-16162388D02*
X15596253Y-16181436D01*
X15596253Y-16181436D02*
X15586729Y-16190960D01*
X15586729Y-16190960D02*
X15567682Y-16200484D01*
X15567682Y-16200484D02*
X15548634Y-16200484D01*
X15548634Y-16200484D02*
X15529586Y-16190960D01*
X15529586Y-16190960D02*
X15520063Y-16181436D01*
X15520063Y-16181436D02*
X15510539Y-16162388D01*
X15510539Y-16162388D02*
X15501015Y-16124293D01*
X15501015Y-16124293D02*
X15501015Y-16076674D01*
X15501015Y-16076674D02*
X15510539Y-16038579D01*
X15510539Y-16038579D02*
X15520063Y-16019531D01*
X15520063Y-16019531D02*
X15529586Y-16010008D01*
X15529586Y-16010008D02*
X15548634Y-16000484D01*
X15701015Y-16181436D02*
X15710539Y-16190960D01*
X15710539Y-16190960D02*
X15701015Y-16200484D01*
X15701015Y-16200484D02*
X15691491Y-16190960D01*
X15691491Y-16190960D02*
X15701015Y-16181436D01*
X15701015Y-16181436D02*
X15701015Y-16200484D01*
X15834348Y-16000484D02*
X15853396Y-16000484D01*
X15853396Y-16000484D02*
X15872444Y-16010008D01*
X15872444Y-16010008D02*
X15881967Y-16019531D01*
X15881967Y-16019531D02*
X15891491Y-16038579D01*
X15891491Y-16038579D02*
X15901015Y-16076674D01*
X15901015Y-16076674D02*
X15901015Y-16124293D01*
X15901015Y-16124293D02*
X15891491Y-16162388D01*
X15891491Y-16162388D02*
X15881967Y-16181436D01*
X15881967Y-16181436D02*
X15872444Y-16190960D01*
X15872444Y-16190960D02*
X15853396Y-16200484D01*
X15853396Y-16200484D02*
X15834348Y-16200484D01*
X15834348Y-16200484D02*
X15815301Y-16190960D01*
X15815301Y-16190960D02*
X15805777Y-16181436D01*
X15805777Y-16181436D02*
X15796253Y-16162388D01*
X15796253Y-16162388D02*
X15786729Y-16124293D01*
X15786729Y-16124293D02*
X15786729Y-16076674D01*
X15786729Y-16076674D02*
X15796253Y-16038579D01*
X15796253Y-16038579D02*
X15805777Y-16019531D01*
X15805777Y-16019531D02*
X15815301Y-16010008D01*
X15815301Y-16010008D02*
X15834348Y-16000484D01*
X15977206Y-16019531D02*
X15986729Y-16010008D01*
X15986729Y-16010008D02*
X16005777Y-16000484D01*
X16005777Y-16000484D02*
X16053396Y-16000484D01*
X16053396Y-16000484D02*
X16072444Y-16010008D01*
X16072444Y-16010008D02*
X16081967Y-16019531D01*
X16081967Y-16019531D02*
X16091491Y-16038579D01*
X16091491Y-16038579D02*
X16091491Y-16057627D01*
X16091491Y-16057627D02*
X16081967Y-16086198D01*
X16081967Y-16086198D02*
X15967682Y-16200484D01*
X15967682Y-16200484D02*
X16091491Y-16200484D01*
X16158158Y-16000484D02*
X16281967Y-16000484D01*
X16281967Y-16000484D02*
X16215301Y-16076674D01*
X16215301Y-16076674D02*
X16243872Y-16076674D01*
X16243872Y-16076674D02*
X16262920Y-16086198D01*
X16262920Y-16086198D02*
X16272444Y-16095722D01*
X16272444Y-16095722D02*
X16281967Y-16114769D01*
X16281967Y-16114769D02*
X16281967Y-16162388D01*
X16281967Y-16162388D02*
X16272444Y-16181436D01*
X16272444Y-16181436D02*
X16262920Y-16190960D01*
X16262920Y-16190960D02*
X16243872Y-16200484D01*
X16243872Y-16200484D02*
X16186729Y-16200484D01*
X16186729Y-16200484D02*
X16167682Y-16190960D01*
X16167682Y-16190960D02*
X16158158Y-16181436D01*
X16453396Y-16000484D02*
X16415301Y-16000484D01*
X16415301Y-16000484D02*
X16396253Y-16010008D01*
X16396253Y-16010008D02*
X16386729Y-16019531D01*
X16386729Y-16019531D02*
X16367682Y-16048103D01*
X16367682Y-16048103D02*
X16358158Y-16086198D01*
X16358158Y-16086198D02*
X16358158Y-16162388D01*
X16358158Y-16162388D02*
X16367682Y-16181436D01*
X16367682Y-16181436D02*
X16377206Y-16190960D01*
X16377206Y-16190960D02*
X16396253Y-16200484D01*
X16396253Y-16200484D02*
X16434348Y-16200484D01*
X16434348Y-16200484D02*
X16453396Y-16190960D01*
X16453396Y-16190960D02*
X16462920Y-16181436D01*
X16462920Y-16181436D02*
X16472444Y-16162388D01*
X16472444Y-16162388D02*
X16472444Y-16114769D01*
X16472444Y-16114769D02*
X16462920Y-16095722D01*
X16462920Y-16095722D02*
X16453396Y-16086198D01*
X16453396Y-16086198D02*
X16434348Y-16076674D01*
X16434348Y-16076674D02*
X16396253Y-16076674D01*
X16396253Y-16076674D02*
X16377206Y-16086198D01*
X16377206Y-16086198D02*
X16367682Y-16095722D01*
X16367682Y-16095722D02*
X16358158Y-16114769D01*
X16548634Y-16000484D02*
X16548634Y-16038579D01*
X16624825Y-16000484D02*
X16624825Y-16038579D01*
X16920063Y-16276674D02*
X16910539Y-16267150D01*
X16910539Y-16267150D02*
X16891491Y-16238579D01*
X16891491Y-16238579D02*
X16881968Y-16219531D01*
X16881968Y-16219531D02*
X16872444Y-16190960D01*
X16872444Y-16190960D02*
X16862920Y-16143341D01*
X16862920Y-16143341D02*
X16862920Y-16105246D01*
X16862920Y-16105246D02*
X16872444Y-16057627D01*
X16872444Y-16057627D02*
X16881968Y-16029055D01*
X16881968Y-16029055D02*
X16891491Y-16010008D01*
X16891491Y-16010008D02*
X16910539Y-15981436D01*
X16910539Y-15981436D02*
X16920063Y-15971912D01*
X17034349Y-16000484D02*
X17053396Y-16000484D01*
X17053396Y-16000484D02*
X17072444Y-16010008D01*
X17072444Y-16010008D02*
X17081968Y-16019531D01*
X17081968Y-16019531D02*
X17091491Y-16038579D01*
X17091491Y-16038579D02*
X17101015Y-16076674D01*
X17101015Y-16076674D02*
X17101015Y-16124293D01*
X17101015Y-16124293D02*
X17091491Y-16162388D01*
X17091491Y-16162388D02*
X17081968Y-16181436D01*
X17081968Y-16181436D02*
X17072444Y-16190960D01*
X17072444Y-16190960D02*
X17053396Y-16200484D01*
X17053396Y-16200484D02*
X17034349Y-16200484D01*
X17034349Y-16200484D02*
X17015301Y-16190960D01*
X17015301Y-16190960D02*
X17005777Y-16181436D01*
X17005777Y-16181436D02*
X16996253Y-16162388D01*
X16996253Y-16162388D02*
X16986730Y-16124293D01*
X16986730Y-16124293D02*
X16986730Y-16076674D01*
X16986730Y-16076674D02*
X16996253Y-16038579D01*
X16996253Y-16038579D02*
X17005777Y-16019531D01*
X17005777Y-16019531D02*
X17015301Y-16010008D01*
X17015301Y-16010008D02*
X17034349Y-16000484D01*
X17339111Y-16200484D02*
X17339111Y-16000484D01*
X17424825Y-16200484D02*
X17424825Y-16095722D01*
X17424825Y-16095722D02*
X17415301Y-16076674D01*
X17415301Y-16076674D02*
X17396253Y-16067150D01*
X17396253Y-16067150D02*
X17367682Y-16067150D01*
X17367682Y-16067150D02*
X17348634Y-16076674D01*
X17348634Y-16076674D02*
X17339111Y-16086198D01*
X17548634Y-16200484D02*
X17529587Y-16190960D01*
X17529587Y-16190960D02*
X17520063Y-16181436D01*
X17520063Y-16181436D02*
X17510539Y-16162388D01*
X17510539Y-16162388D02*
X17510539Y-16105246D01*
X17510539Y-16105246D02*
X17520063Y-16086198D01*
X17520063Y-16086198D02*
X17529587Y-16076674D01*
X17529587Y-16076674D02*
X17548634Y-16067150D01*
X17548634Y-16067150D02*
X17577206Y-16067150D01*
X17577206Y-16067150D02*
X17596253Y-16076674D01*
X17596253Y-16076674D02*
X17605777Y-16086198D01*
X17605777Y-16086198D02*
X17615301Y-16105246D01*
X17615301Y-16105246D02*
X17615301Y-16162388D01*
X17615301Y-16162388D02*
X17605777Y-16181436D01*
X17605777Y-16181436D02*
X17596253Y-16190960D01*
X17596253Y-16190960D02*
X17577206Y-16200484D01*
X17577206Y-16200484D02*
X17548634Y-16200484D01*
X17729587Y-16200484D02*
X17710539Y-16190960D01*
X17710539Y-16190960D02*
X17701015Y-16171912D01*
X17701015Y-16171912D02*
X17701015Y-16000484D01*
X17881968Y-16190960D02*
X17862920Y-16200484D01*
X17862920Y-16200484D02*
X17824825Y-16200484D01*
X17824825Y-16200484D02*
X17805777Y-16190960D01*
X17805777Y-16190960D02*
X17796253Y-16171912D01*
X17796253Y-16171912D02*
X17796253Y-16095722D01*
X17796253Y-16095722D02*
X17805777Y-16076674D01*
X17805777Y-16076674D02*
X17824825Y-16067150D01*
X17824825Y-16067150D02*
X17862920Y-16067150D01*
X17862920Y-16067150D02*
X17881968Y-16076674D01*
X17881968Y-16076674D02*
X17891492Y-16095722D01*
X17891492Y-16095722D02*
X17891492Y-16114769D01*
X17891492Y-16114769D02*
X17796253Y-16133817D01*
X17967682Y-16190960D02*
X17986730Y-16200484D01*
X17986730Y-16200484D02*
X18024825Y-16200484D01*
X18024825Y-16200484D02*
X18043873Y-16190960D01*
X18043873Y-16190960D02*
X18053396Y-16171912D01*
X18053396Y-16171912D02*
X18053396Y-16162388D01*
X18053396Y-16162388D02*
X18043873Y-16143341D01*
X18043873Y-16143341D02*
X18024825Y-16133817D01*
X18024825Y-16133817D02*
X17996253Y-16133817D01*
X17996253Y-16133817D02*
X17977206Y-16124293D01*
X17977206Y-16124293D02*
X17967682Y-16105246D01*
X17967682Y-16105246D02*
X17967682Y-16095722D01*
X17967682Y-16095722D02*
X17977206Y-16076674D01*
X17977206Y-16076674D02*
X17996253Y-16067150D01*
X17996253Y-16067150D02*
X18024825Y-16067150D01*
X18024825Y-16067150D02*
X18043873Y-16076674D01*
X18291492Y-16124293D02*
X18443873Y-16124293D01*
X18367682Y-16200484D02*
X18367682Y-16048103D01*
X18777206Y-16067150D02*
X18777206Y-16200484D01*
X18729587Y-15990960D02*
X18681968Y-16133817D01*
X18681968Y-16133817D02*
X18805777Y-16133817D01*
X19024825Y-16190960D02*
X19043873Y-16200484D01*
X19043873Y-16200484D02*
X19081968Y-16200484D01*
X19081968Y-16200484D02*
X19101016Y-16190960D01*
X19101016Y-16190960D02*
X19110539Y-16171912D01*
X19110539Y-16171912D02*
X19110539Y-16162388D01*
X19110539Y-16162388D02*
X19101016Y-16143341D01*
X19101016Y-16143341D02*
X19081968Y-16133817D01*
X19081968Y-16133817D02*
X19053396Y-16133817D01*
X19053396Y-16133817D02*
X19034349Y-16124293D01*
X19034349Y-16124293D02*
X19024825Y-16105246D01*
X19024825Y-16105246D02*
X19024825Y-16095722D01*
X19024825Y-16095722D02*
X19034349Y-16076674D01*
X19034349Y-16076674D02*
X19053396Y-16067150D01*
X19053396Y-16067150D02*
X19081968Y-16067150D01*
X19081968Y-16067150D02*
X19101016Y-16076674D01*
X19224825Y-16200484D02*
X19205777Y-16190960D01*
X19205777Y-16190960D02*
X19196254Y-16171912D01*
X19196254Y-16171912D02*
X19196254Y-16000484D01*
X19329587Y-16200484D02*
X19310539Y-16190960D01*
X19310539Y-16190960D02*
X19301016Y-16181436D01*
X19301016Y-16181436D02*
X19291492Y-16162388D01*
X19291492Y-16162388D02*
X19291492Y-16105246D01*
X19291492Y-16105246D02*
X19301016Y-16086198D01*
X19301016Y-16086198D02*
X19310539Y-16076674D01*
X19310539Y-16076674D02*
X19329587Y-16067150D01*
X19329587Y-16067150D02*
X19358158Y-16067150D01*
X19358158Y-16067150D02*
X19377206Y-16076674D01*
X19377206Y-16076674D02*
X19386730Y-16086198D01*
X19386730Y-16086198D02*
X19396254Y-16105246D01*
X19396254Y-16105246D02*
X19396254Y-16162388D01*
X19396254Y-16162388D02*
X19386730Y-16181436D01*
X19386730Y-16181436D02*
X19377206Y-16190960D01*
X19377206Y-16190960D02*
X19358158Y-16200484D01*
X19358158Y-16200484D02*
X19329587Y-16200484D01*
X19453397Y-16067150D02*
X19529587Y-16067150D01*
X19481968Y-16000484D02*
X19481968Y-16171912D01*
X19481968Y-16171912D02*
X19491492Y-16190960D01*
X19491492Y-16190960D02*
X19510539Y-16200484D01*
X19510539Y-16200484D02*
X19529587Y-16200484D01*
X19586730Y-16190960D02*
X19605777Y-16200484D01*
X19605777Y-16200484D02*
X19643873Y-16200484D01*
X19643873Y-16200484D02*
X19662920Y-16190960D01*
X19662920Y-16190960D02*
X19672444Y-16171912D01*
X19672444Y-16171912D02*
X19672444Y-16162388D01*
X19672444Y-16162388D02*
X19662920Y-16143341D01*
X19662920Y-16143341D02*
X19643873Y-16133817D01*
X19643873Y-16133817D02*
X19615301Y-16133817D01*
X19615301Y-16133817D02*
X19596254Y-16124293D01*
X19596254Y-16124293D02*
X19586730Y-16105246D01*
X19586730Y-16105246D02*
X19586730Y-16095722D01*
X19586730Y-16095722D02*
X19596254Y-16076674D01*
X19596254Y-16076674D02*
X19615301Y-16067150D01*
X19615301Y-16067150D02*
X19643873Y-16067150D01*
X19643873Y-16067150D02*
X19662920Y-16076674D01*
X19739111Y-16276674D02*
X19748635Y-16267150D01*
X19748635Y-16267150D02*
X19767682Y-16238579D01*
X19767682Y-16238579D02*
X19777206Y-16219531D01*
X19777206Y-16219531D02*
X19786730Y-16190960D01*
X19786730Y-16190960D02*
X19796254Y-16143341D01*
X19796254Y-16143341D02*
X19796254Y-16105246D01*
X19796254Y-16105246D02*
X19786730Y-16057627D01*
X19786730Y-16057627D02*
X19777206Y-16029055D01*
X19777206Y-16029055D02*
X19767682Y-16010008D01*
X19767682Y-16010008D02*
X19748635Y-15981436D01*
X19748635Y-15981436D02*
X19739111Y-15971912D01*
X13245000Y-16273000D02*
X13245000Y-16473000D01*
X13145000Y-16373000D02*
X13345000Y-16373000D01*
X13586729Y-16264484D02*
X13710539Y-16264484D01*
X13710539Y-16264484D02*
X13643872Y-16340674D01*
X13643872Y-16340674D02*
X13672443Y-16340674D01*
X13672443Y-16340674D02*
X13691491Y-16350198D01*
X13691491Y-16350198D02*
X13701015Y-16359722D01*
X13701015Y-16359722D02*
X13710539Y-16378769D01*
X13710539Y-16378769D02*
X13710539Y-16426388D01*
X13710539Y-16426388D02*
X13701015Y-16445436D01*
X13701015Y-16445436D02*
X13691491Y-16454960D01*
X13691491Y-16454960D02*
X13672443Y-16464484D01*
X13672443Y-16464484D02*
X13615301Y-16464484D01*
X13615301Y-16464484D02*
X13596253Y-16454960D01*
X13596253Y-16454960D02*
X13586729Y-16445436D01*
X13796253Y-16445436D02*
X13805777Y-16454960D01*
X13805777Y-16454960D02*
X13796253Y-16464484D01*
X13796253Y-16464484D02*
X13786729Y-16454960D01*
X13786729Y-16454960D02*
X13796253Y-16445436D01*
X13796253Y-16445436D02*
X13796253Y-16464484D01*
X13881967Y-16283531D02*
X13891491Y-16274008D01*
X13891491Y-16274008D02*
X13910539Y-16264484D01*
X13910539Y-16264484D02*
X13958158Y-16264484D01*
X13958158Y-16264484D02*
X13977205Y-16274008D01*
X13977205Y-16274008D02*
X13986729Y-16283531D01*
X13986729Y-16283531D02*
X13996253Y-16302579D01*
X13996253Y-16302579D02*
X13996253Y-16321627D01*
X13996253Y-16321627D02*
X13986729Y-16350198D01*
X13986729Y-16350198D02*
X13872443Y-16464484D01*
X13872443Y-16464484D02*
X13996253Y-16464484D01*
X14120062Y-16264484D02*
X14139110Y-16264484D01*
X14139110Y-16264484D02*
X14158158Y-16274008D01*
X14158158Y-16274008D02*
X14167682Y-16283531D01*
X14167682Y-16283531D02*
X14177205Y-16302579D01*
X14177205Y-16302579D02*
X14186729Y-16340674D01*
X14186729Y-16340674D02*
X14186729Y-16388293D01*
X14186729Y-16388293D02*
X14177205Y-16426388D01*
X14177205Y-16426388D02*
X14167682Y-16445436D01*
X14167682Y-16445436D02*
X14158158Y-16454960D01*
X14158158Y-16454960D02*
X14139110Y-16464484D01*
X14139110Y-16464484D02*
X14120062Y-16464484D01*
X14120062Y-16464484D02*
X14101015Y-16454960D01*
X14101015Y-16454960D02*
X14091491Y-16445436D01*
X14091491Y-16445436D02*
X14081967Y-16426388D01*
X14081967Y-16426388D02*
X14072443Y-16388293D01*
X14072443Y-16388293D02*
X14072443Y-16340674D01*
X14072443Y-16340674D02*
X14081967Y-16302579D01*
X14081967Y-16302579D02*
X14091491Y-16283531D01*
X14091491Y-16283531D02*
X14101015Y-16274008D01*
X14101015Y-16274008D02*
X14120062Y-16264484D01*
X14310539Y-16264484D02*
X14329586Y-16264484D01*
X14329586Y-16264484D02*
X14348634Y-16274008D01*
X14348634Y-16274008D02*
X14358158Y-16283531D01*
X14358158Y-16283531D02*
X14367682Y-16302579D01*
X14367682Y-16302579D02*
X14377205Y-16340674D01*
X14377205Y-16340674D02*
X14377205Y-16388293D01*
X14377205Y-16388293D02*
X14367682Y-16426388D01*
X14367682Y-16426388D02*
X14358158Y-16445436D01*
X14358158Y-16445436D02*
X14348634Y-16454960D01*
X14348634Y-16454960D02*
X14329586Y-16464484D01*
X14329586Y-16464484D02*
X14310539Y-16464484D01*
X14310539Y-16464484D02*
X14291491Y-16454960D01*
X14291491Y-16454960D02*
X14281967Y-16445436D01*
X14281967Y-16445436D02*
X14272443Y-16426388D01*
X14272443Y-16426388D02*
X14262920Y-16388293D01*
X14262920Y-16388293D02*
X14262920Y-16340674D01*
X14262920Y-16340674D02*
X14272443Y-16302579D01*
X14272443Y-16302579D02*
X14281967Y-16283531D01*
X14281967Y-16283531D02*
X14291491Y-16274008D01*
X14291491Y-16274008D02*
X14310539Y-16264484D01*
X14462920Y-16464484D02*
X14462920Y-16331150D01*
X14462920Y-16350198D02*
X14472443Y-16340674D01*
X14472443Y-16340674D02*
X14491491Y-16331150D01*
X14491491Y-16331150D02*
X14520063Y-16331150D01*
X14520063Y-16331150D02*
X14539110Y-16340674D01*
X14539110Y-16340674D02*
X14548634Y-16359722D01*
X14548634Y-16359722D02*
X14548634Y-16464484D01*
X14548634Y-16359722D02*
X14558158Y-16340674D01*
X14558158Y-16340674D02*
X14577205Y-16331150D01*
X14577205Y-16331150D02*
X14605777Y-16331150D01*
X14605777Y-16331150D02*
X14624824Y-16340674D01*
X14624824Y-16340674D02*
X14634348Y-16359722D01*
X14634348Y-16359722D02*
X14634348Y-16464484D01*
X14729586Y-16464484D02*
X14729586Y-16331150D01*
X14729586Y-16350198D02*
X14739110Y-16340674D01*
X14739110Y-16340674D02*
X14758158Y-16331150D01*
X14758158Y-16331150D02*
X14786729Y-16331150D01*
X14786729Y-16331150D02*
X14805777Y-16340674D01*
X14805777Y-16340674D02*
X14815301Y-16359722D01*
X14815301Y-16359722D02*
X14815301Y-16464484D01*
X14815301Y-16359722D02*
X14824824Y-16340674D01*
X14824824Y-16340674D02*
X14843872Y-16331150D01*
X14843872Y-16331150D02*
X14872443Y-16331150D01*
X14872443Y-16331150D02*
X14891491Y-16340674D01*
X14891491Y-16340674D02*
X14901015Y-16359722D01*
X14901015Y-16359722D02*
X14901015Y-16464484D01*
X15291491Y-16254960D02*
X15120063Y-16512103D01*
X15548634Y-16264484D02*
X15567682Y-16264484D01*
X15567682Y-16264484D02*
X15586729Y-16274008D01*
X15586729Y-16274008D02*
X15596253Y-16283531D01*
X15596253Y-16283531D02*
X15605777Y-16302579D01*
X15605777Y-16302579D02*
X15615301Y-16340674D01*
X15615301Y-16340674D02*
X15615301Y-16388293D01*
X15615301Y-16388293D02*
X15605777Y-16426388D01*
X15605777Y-16426388D02*
X15596253Y-16445436D01*
X15596253Y-16445436D02*
X15586729Y-16454960D01*
X15586729Y-16454960D02*
X15567682Y-16464484D01*
X15567682Y-16464484D02*
X15548634Y-16464484D01*
X15548634Y-16464484D02*
X15529586Y-16454960D01*
X15529586Y-16454960D02*
X15520063Y-16445436D01*
X15520063Y-16445436D02*
X15510539Y-16426388D01*
X15510539Y-16426388D02*
X15501015Y-16388293D01*
X15501015Y-16388293D02*
X15501015Y-16340674D01*
X15501015Y-16340674D02*
X15510539Y-16302579D01*
X15510539Y-16302579D02*
X15520063Y-16283531D01*
X15520063Y-16283531D02*
X15529586Y-16274008D01*
X15529586Y-16274008D02*
X15548634Y-16264484D01*
X15701015Y-16445436D02*
X15710539Y-16454960D01*
X15710539Y-16454960D02*
X15701015Y-16464484D01*
X15701015Y-16464484D02*
X15691491Y-16454960D01*
X15691491Y-16454960D02*
X15701015Y-16445436D01*
X15701015Y-16445436D02*
X15701015Y-16464484D01*
X15901015Y-16464484D02*
X15786729Y-16464484D01*
X15843872Y-16464484D02*
X15843872Y-16264484D01*
X15843872Y-16264484D02*
X15824825Y-16293055D01*
X15824825Y-16293055D02*
X15805777Y-16312103D01*
X15805777Y-16312103D02*
X15786729Y-16321627D01*
X15977206Y-16283531D02*
X15986729Y-16274008D01*
X15986729Y-16274008D02*
X16005777Y-16264484D01*
X16005777Y-16264484D02*
X16053396Y-16264484D01*
X16053396Y-16264484D02*
X16072444Y-16274008D01*
X16072444Y-16274008D02*
X16081967Y-16283531D01*
X16081967Y-16283531D02*
X16091491Y-16302579D01*
X16091491Y-16302579D02*
X16091491Y-16321627D01*
X16091491Y-16321627D02*
X16081967Y-16350198D01*
X16081967Y-16350198D02*
X15967682Y-16464484D01*
X15967682Y-16464484D02*
X16091491Y-16464484D01*
X16262920Y-16264484D02*
X16224825Y-16264484D01*
X16224825Y-16264484D02*
X16205777Y-16274008D01*
X16205777Y-16274008D02*
X16196253Y-16283531D01*
X16196253Y-16283531D02*
X16177206Y-16312103D01*
X16177206Y-16312103D02*
X16167682Y-16350198D01*
X16167682Y-16350198D02*
X16167682Y-16426388D01*
X16167682Y-16426388D02*
X16177206Y-16445436D01*
X16177206Y-16445436D02*
X16186729Y-16454960D01*
X16186729Y-16454960D02*
X16205777Y-16464484D01*
X16205777Y-16464484D02*
X16243872Y-16464484D01*
X16243872Y-16464484D02*
X16262920Y-16454960D01*
X16262920Y-16454960D02*
X16272444Y-16445436D01*
X16272444Y-16445436D02*
X16281967Y-16426388D01*
X16281967Y-16426388D02*
X16281967Y-16378769D01*
X16281967Y-16378769D02*
X16272444Y-16359722D01*
X16272444Y-16359722D02*
X16262920Y-16350198D01*
X16262920Y-16350198D02*
X16243872Y-16340674D01*
X16243872Y-16340674D02*
X16205777Y-16340674D01*
X16205777Y-16340674D02*
X16186729Y-16350198D01*
X16186729Y-16350198D02*
X16177206Y-16359722D01*
X16177206Y-16359722D02*
X16167682Y-16378769D01*
X16405777Y-16264484D02*
X16424825Y-16264484D01*
X16424825Y-16264484D02*
X16443872Y-16274008D01*
X16443872Y-16274008D02*
X16453396Y-16283531D01*
X16453396Y-16283531D02*
X16462920Y-16302579D01*
X16462920Y-16302579D02*
X16472444Y-16340674D01*
X16472444Y-16340674D02*
X16472444Y-16388293D01*
X16472444Y-16388293D02*
X16462920Y-16426388D01*
X16462920Y-16426388D02*
X16453396Y-16445436D01*
X16453396Y-16445436D02*
X16443872Y-16454960D01*
X16443872Y-16454960D02*
X16424825Y-16464484D01*
X16424825Y-16464484D02*
X16405777Y-16464484D01*
X16405777Y-16464484D02*
X16386729Y-16454960D01*
X16386729Y-16454960D02*
X16377206Y-16445436D01*
X16377206Y-16445436D02*
X16367682Y-16426388D01*
X16367682Y-16426388D02*
X16358158Y-16388293D01*
X16358158Y-16388293D02*
X16358158Y-16340674D01*
X16358158Y-16340674D02*
X16367682Y-16302579D01*
X16367682Y-16302579D02*
X16377206Y-16283531D01*
X16377206Y-16283531D02*
X16386729Y-16274008D01*
X16386729Y-16274008D02*
X16405777Y-16264484D01*
X16548634Y-16264484D02*
X16548634Y-16302579D01*
X16624825Y-16264484D02*
X16624825Y-16302579D01*
X16920063Y-16540674D02*
X16910539Y-16531150D01*
X16910539Y-16531150D02*
X16891491Y-16502579D01*
X16891491Y-16502579D02*
X16881968Y-16483531D01*
X16881968Y-16483531D02*
X16872444Y-16454960D01*
X16872444Y-16454960D02*
X16862920Y-16407341D01*
X16862920Y-16407341D02*
X16862920Y-16369246D01*
X16862920Y-16369246D02*
X16872444Y-16321627D01*
X16872444Y-16321627D02*
X16881968Y-16293055D01*
X16881968Y-16293055D02*
X16891491Y-16274008D01*
X16891491Y-16274008D02*
X16910539Y-16245436D01*
X16910539Y-16245436D02*
X16920063Y-16235912D01*
X16986730Y-16283531D02*
X16996253Y-16274008D01*
X16996253Y-16274008D02*
X17015301Y-16264484D01*
X17015301Y-16264484D02*
X17062920Y-16264484D01*
X17062920Y-16264484D02*
X17081968Y-16274008D01*
X17081968Y-16274008D02*
X17091491Y-16283531D01*
X17091491Y-16283531D02*
X17101015Y-16302579D01*
X17101015Y-16302579D02*
X17101015Y-16321627D01*
X17101015Y-16321627D02*
X17091491Y-16350198D01*
X17091491Y-16350198D02*
X16977206Y-16464484D01*
X16977206Y-16464484D02*
X17101015Y-16464484D01*
X17339111Y-16464484D02*
X17339111Y-16264484D01*
X17424825Y-16464484D02*
X17424825Y-16359722D01*
X17424825Y-16359722D02*
X17415301Y-16340674D01*
X17415301Y-16340674D02*
X17396253Y-16331150D01*
X17396253Y-16331150D02*
X17367682Y-16331150D01*
X17367682Y-16331150D02*
X17348634Y-16340674D01*
X17348634Y-16340674D02*
X17339111Y-16350198D01*
X17548634Y-16464484D02*
X17529587Y-16454960D01*
X17529587Y-16454960D02*
X17520063Y-16445436D01*
X17520063Y-16445436D02*
X17510539Y-16426388D01*
X17510539Y-16426388D02*
X17510539Y-16369246D01*
X17510539Y-16369246D02*
X17520063Y-16350198D01*
X17520063Y-16350198D02*
X17529587Y-16340674D01*
X17529587Y-16340674D02*
X17548634Y-16331150D01*
X17548634Y-16331150D02*
X17577206Y-16331150D01*
X17577206Y-16331150D02*
X17596253Y-16340674D01*
X17596253Y-16340674D02*
X17605777Y-16350198D01*
X17605777Y-16350198D02*
X17615301Y-16369246D01*
X17615301Y-16369246D02*
X17615301Y-16426388D01*
X17615301Y-16426388D02*
X17605777Y-16445436D01*
X17605777Y-16445436D02*
X17596253Y-16454960D01*
X17596253Y-16454960D02*
X17577206Y-16464484D01*
X17577206Y-16464484D02*
X17548634Y-16464484D01*
X17729587Y-16464484D02*
X17710539Y-16454960D01*
X17710539Y-16454960D02*
X17701015Y-16435912D01*
X17701015Y-16435912D02*
X17701015Y-16264484D01*
X17881968Y-16454960D02*
X17862920Y-16464484D01*
X17862920Y-16464484D02*
X17824825Y-16464484D01*
X17824825Y-16464484D02*
X17805777Y-16454960D01*
X17805777Y-16454960D02*
X17796253Y-16435912D01*
X17796253Y-16435912D02*
X17796253Y-16359722D01*
X17796253Y-16359722D02*
X17805777Y-16340674D01*
X17805777Y-16340674D02*
X17824825Y-16331150D01*
X17824825Y-16331150D02*
X17862920Y-16331150D01*
X17862920Y-16331150D02*
X17881968Y-16340674D01*
X17881968Y-16340674D02*
X17891492Y-16359722D01*
X17891492Y-16359722D02*
X17891492Y-16378769D01*
X17891492Y-16378769D02*
X17796253Y-16397817D01*
X17967682Y-16454960D02*
X17986730Y-16464484D01*
X17986730Y-16464484D02*
X18024825Y-16464484D01*
X18024825Y-16464484D02*
X18043873Y-16454960D01*
X18043873Y-16454960D02*
X18053396Y-16435912D01*
X18053396Y-16435912D02*
X18053396Y-16426388D01*
X18053396Y-16426388D02*
X18043873Y-16407341D01*
X18043873Y-16407341D02*
X18024825Y-16397817D01*
X18024825Y-16397817D02*
X17996253Y-16397817D01*
X17996253Y-16397817D02*
X17977206Y-16388293D01*
X17977206Y-16388293D02*
X17967682Y-16369246D01*
X17967682Y-16369246D02*
X17967682Y-16359722D01*
X17967682Y-16359722D02*
X17977206Y-16340674D01*
X17977206Y-16340674D02*
X17996253Y-16331150D01*
X17996253Y-16331150D02*
X18024825Y-16331150D01*
X18024825Y-16331150D02*
X18043873Y-16340674D01*
X18120063Y-16540674D02*
X18129587Y-16531150D01*
X18129587Y-16531150D02*
X18148634Y-16502579D01*
X18148634Y-16502579D02*
X18158158Y-16483531D01*
X18158158Y-16483531D02*
X18167682Y-16454960D01*
X18167682Y-16454960D02*
X18177206Y-16407341D01*
X18177206Y-16407341D02*
X18177206Y-16369246D01*
X18177206Y-16369246D02*
X18167682Y-16321627D01*
X18167682Y-16321627D02*
X18158158Y-16293055D01*
X18158158Y-16293055D02*
X18148634Y-16274008D01*
X18148634Y-16274008D02*
X18129587Y-16245436D01*
X18129587Y-16245436D02*
X18120063Y-16235912D01*
M02*
