M48
; DRILL file {KiCad 9.0.7} date 2026-09-26T18:39:03+0200
; FORMAT={-:-/ absolute / metric / decimal}
; #@! TF.CreationDate,2026-09-26T18:39:03+02:00
; #@! TF.GenerationSoftware,Kicad,Pcbnew,9.0.7
; #@! TF.FileFunction,Plated,1,4,PTH
FMAT,2
METRIC
; #@! TA.AperFunction,Plated,PTH,ViaDrill
T1C0.200
; #@! TA.AperFunction,Plated,PTH,ComponentDrill
T2C0.600
; #@! TA.AperFunction,Plated,PTH,ComponentDrill
T3C3.200
%
G90
G05
T1
X138.029Y-96.375
X138.032Y-102.682
X138.036Y-94.376
X138.036Y-94.91
X138.059Y-103.523
X138.083Y-106.832
X138.165Y-106.386
X138.303Y-94.11
X138.363Y-111.862
X138.388Y-108.788
X138.388Y-110.719
X138.388Y-113.005
X138.846Y-105.236
X138.851Y-105.605
X138.916Y-97.852
X138.998Y-114.579
X139.125Y-120.091
X139.178Y-105.608
X139.18Y-105.227
X139.497Y-105.603
X139.5Y-105.244
X139.611Y-98.796
X139.816Y-96.857
X139.822Y-95.158
X139.824Y-94.834
X139.847Y-97.215
X139.988Y-114.63
X139.99Y-95.7
X140.014Y-116.002
X140.014Y-117.653
X140.018Y-118.897
X140.018Y-119.659
X140.065Y-110.846
X140.075Y-105.213
X140.075Y-105.546
X140.078Y-98.811
X140.177Y-96.85
X140.186Y-97.233
X140.192Y-109.626
X140.195Y-95.165
X140.198Y-94.843
X140.319Y-119.278
X140.388Y-105.531
X140.393Y-105.222
X140.547Y-108.788
X140.699Y-105.562
X140.699Y-105.226
X140.708Y-119.278
X141.034Y-118.897
X141.034Y-119.659
X141.068Y-97.852
X141.17Y-117.246
X141.17Y-117.805
X141.233Y-116.027
X141.252Y-120.14
X141.284Y-114.656
X141.385Y-110.617
X141.449Y-116.84
X141.449Y-118.212
X141.509Y-118.897
X141.509Y-119.659
X141.531Y-102.707
X141.618Y-94.224
X141.639Y-105.918
X141.654Y-104.536
X141.683Y-94.946
X141.792Y-109.804
X141.809Y-119.278
X141.893Y-107.62
X141.998Y-94.631
X142.02Y-102.538
X142.046Y-104.673
X142.047Y-103.676
X142.164Y-94.364
X142.198Y-119.278
X142.249Y-106.807
X142.414Y-115.553
X142.427Y-105.08
X142.439Y-114.995
X142.525Y-118.897
X142.525Y-119.659
X142.541Y-114.563
X142.541Y-116.011
X142.592Y-118.212
X142.606Y-116.838
X142.685Y-98.485
X142.706Y-108.89
X142.757Y-120.142
X142.846Y-117.246
X142.846Y-117.805
X142.869Y-104.147
X142.884Y-110.896
X142.968Y-101.992
X143.011Y-107.29
X143.015Y-118.897
X143.015Y-119.659
X143.085Y-116.039
X143.087Y-96.342
X143.265Y-117.5
X143.316Y-119.278
X143.474Y-116.039
X143.493Y-105.071
X143.519Y-108.56
X143.669Y-103.047
X143.705Y-119.278
X143.722Y-106.045
X143.748Y-109.88
X143.832Y-102.017
X143.887Y-114.563
X143.9Y-116.014
X144.031Y-118.897
X144.031Y-119.659
X144.103Y-112.09
X144.116Y-114.995
X144.116Y-115.579
X144.17Y-98.601
X144.17Y-99.211
X144.23Y-107.188
X144.256Y-120.142
X144.408Y-100.228
X144.459Y-98.196
X144.459Y-99.695
X144.484Y-109.499
X144.51Y-108.407
X144.516Y-106.021
X144.664Y-104.774
X144.671Y-102.426
X144.738Y-100.914
X144.865Y-117.348
X144.941Y-110.467
X145.145Y-114.706
X145.17Y-107.213
X145.17Y-116.053
X145.211Y-104.998
X145.221Y-101.448
X145.221Y-106.045
X145.348Y-109.347
X145.419Y-104.211
X145.424Y-112.09
X145.451Y-94.217
X145.475Y-108.407
X145.703Y-102.032
X145.754Y-120.142
X145.856Y-98.171
X145.856Y-99.72
X145.881Y-116.764
X145.907Y-117.881
X145.932Y-114.605
X145.932Y-115.595
X145.985Y-105.032
X145.987Y-106.065
X146.012Y-118.897
X146.012Y-119.659
X146.047Y-104.384
X146.048Y-110.277
X146.06Y-107.179
X146.112Y-102.858
X146.177Y-98.677
X146.177Y-99.211
X146.313Y-119.278
X146.357Y-94.844
X146.364Y-91.105
X146.567Y-98.679
X146.567Y-99.212
X146.702Y-119.278
X146.746Y-94.844
X146.872Y-98.171
X146.872Y-99.746
X147.028Y-118.897
X147.028Y-119.659
X147.167Y-115.757
X147.167Y-116.316
X147.227Y-114.605
X147.253Y-117.881
X147.253Y-120.142
X147.278Y-91.105
X147.281Y-100.851
X147.295Y-93.699
X147.32Y-115.351
X147.323Y-107.426
X147.323Y-108.332
X147.323Y-109.238
X147.343Y-103.805
X147.347Y-106.521
X147.398Y-116.773
X147.448Y-103.273
X147.511Y-118.897
X147.511Y-119.659
X147.669Y-100.851
X147.726Y-94.867
X147.812Y-119.278
X148.123Y-91.105
X148.142Y-98.171
X148.142Y-99.746
X148.201Y-119.278
X148.223Y-104.048
X148.223Y-104.698
X148.223Y-105.348
X148.223Y-105.998
X148.223Y-106.648
X148.223Y-107.298
X148.223Y-107.948
X148.223Y-108.598
X148.223Y-109.248
X148.223Y-109.898
X148.294Y-94.869
X148.396Y-98.704
X148.396Y-99.263
X148.527Y-118.897
X148.527Y-119.659
X148.64Y-116.773
X148.691Y-115.351
X148.71Y-95.285
X148.726Y-114.605
X148.751Y-120.142
X148.802Y-98.704
X148.802Y-99.263
X148.828Y-117.932
X148.844Y-115.757
X148.844Y-116.316
X148.873Y-104.698
X148.873Y-105.348
X148.873Y-106.648
X148.873Y-107.298
X148.873Y-107.948
X148.873Y-108.598
X148.873Y-109.248
X148.873Y-109.898
X148.936Y-91.105
X149.01Y-118.897
X149.01Y-119.659
X149.022Y-96.671
X149.024Y-110.467
X149.031Y-98.171
X149.031Y-99.695
X149.286Y-96.19
X149.301Y-94.842
X149.31Y-119.278
X149.488Y-114.921
X149.488Y-115.48
X149.523Y-105.348
X149.523Y-105.998
X149.523Y-106.648
X149.523Y-107.298
X149.523Y-107.948
X149.523Y-108.598
X149.523Y-109.248
X149.523Y-109.898
X149.545Y-103.388
X149.666Y-117.094
X149.699Y-119.278
X149.717Y-115.937
X149.742Y-114.49
X149.792Y-93.712
X149.793Y-91.105
X150.026Y-118.897
X150.026Y-119.659
X150.123Y-115.976
X150.155Y-100.957
X150.173Y-104.048
X150.173Y-105.348
X150.173Y-105.998
X150.173Y-106.648
X150.173Y-107.298
X150.173Y-107.948
X150.173Y-108.598
X150.173Y-109.248
X150.173Y-109.898
X150.254Y-120.154
X150.269Y-103.339
X150.301Y-99.695
X150.357Y-94.844
X150.428Y-98.171
X150.428Y-118.237
X150.43Y-101.232
X150.512Y-115.976
X150.555Y-98.679
X150.555Y-99.187
X150.707Y-91.105
X150.746Y-94.844
X150.823Y-104.048
X150.823Y-105.348
X150.823Y-105.998
X150.823Y-106.648
X150.823Y-107.298
X150.823Y-107.948
X150.823Y-108.598
X150.823Y-109.248
X150.823Y-109.898
X150.834Y-96.876
X150.91Y-114.49
X150.936Y-115.937
X150.961Y-91.948
X151.063Y-98.679
X151.063Y-99.187
X151.164Y-114.871
X151.164Y-115.48
X151.291Y-99.695
X151.317Y-98.171
X151.345Y-91.963
X151.473Y-104.048
X151.473Y-104.698
X151.473Y-105.348
X151.473Y-106.648
X151.473Y-107.298
X151.473Y-107.948
X151.473Y-108.598
X151.473Y-109.248
X151.473Y-109.898
X151.606Y-119.958
X151.647Y-117.17
X151.651Y-94.217
X151.912Y-102.069
X152.001Y-119.014
X152.001Y-119.776
X152.123Y-104.048
X152.123Y-104.698
X152.123Y-105.998
X152.123Y-106.648
X152.123Y-107.948
X152.123Y-108.598
X152.123Y-109.248
X152.123Y-109.898
X152.155Y-116.053
X152.222Y-114.58
X152.301Y-119.395
X152.372Y-102.069
X152.425Y-96.671
X152.485Y-91.475
X152.527Y-97.052
X152.587Y-98.171
X152.587Y-99.695
X152.69Y-119.395
X152.773Y-104.048
X152.773Y-104.698
X152.773Y-105.998
X152.773Y-106.648
X152.773Y-107.948
X152.773Y-108.598
X152.773Y-109.248
X152.773Y-109.898
X152.798Y-111.854
X152.832Y-102.069
X152.841Y-98.704
X152.841Y-99.263
X153.017Y-119.014
X153.017Y-119.776
X153.109Y-117.276
X153.112Y-116.482
X153.124Y-115.72
X153.249Y-111.848
X153.292Y-102.069
X153.374Y-119.964
X153.423Y-104.048
X153.423Y-104.698
X153.423Y-105.348
X153.423Y-105.998
X153.423Y-106.648
X153.423Y-107.298
X153.423Y-108.598
X153.423Y-109.248
X153.423Y-109.898
X153.752Y-102.069
X154.073Y-104.048
X154.073Y-104.698
X154.073Y-105.348
X154.073Y-105.998
X154.073Y-106.648
X154.073Y-107.298
X154.073Y-107.948
X154.073Y-108.598
X154.073Y-109.248
X154.212Y-102.069
X154.279Y-88.952
X154.296Y-115.301
X154.499Y-100.727
X154.524Y-110.718
X154.616Y-106.742
X154.619Y-102.069
X154.885Y-112.004
X155.306Y-111.949
X155.482Y-98.069
X155.618Y-102.031
X155.706Y-100.361
X155.974Y-108.1
X155.974Y-109.94
X155.974Y-110.4
X155.974Y-110.86
X155.978Y-104.002
X155.982Y-103.539
X155.984Y-103.077
X155.992Y-102.609
X156.26Y-119.382
X156.354Y-102.29
X156.521Y-114.715
X156.524Y-114.427
X156.629Y-96.575
X156.637Y-96.969
X156.637Y-97.39
X156.681Y-111.86
X156.752Y-119.38
X156.905Y-94.005
X156.93Y-94.437
X156.967Y-98.836
X157.002Y-114.709
X157.006Y-114.427
X157.257Y-119.391
X157.514Y-114.427
X157.516Y-114.72
X157.529Y-96.995
X157.54Y-96.545
X157.757Y-119.375
X157.789Y-104.543
X157.797Y-105.355
X157.798Y-104.124
X157.801Y-104.953
X157.997Y-96.55
X158.002Y-96.995
X158.26Y-104.122
X158.262Y-104.567
X158.283Y-105.372
X158.286Y-104.966
X158.925Y-100.578
X158.987Y-103.633
X159.069Y-101.921
X159.155Y-106.856
X159.161Y-107.298
X159.163Y-107.736
X159.165Y-108.153
X159.165Y-108.56
T3
X140.496Y-90.951
X156.496Y-90.951
T2
X144.231Y-88.997G85X144.231Y-90.497
G05
X144.231Y-94.607G85X144.231Y-95.607
G05
X152.871Y-88.997G85X152.871Y-90.497
G05
X152.871Y-94.607G85X152.871Y-95.607
G05
M30
