%TF.GenerationSoftware,KiCad,Pcbnew,9.0.7*%
%TF.CreationDate,2026-09-27T10:00:25+02:00*%
%TF.ProjectId,cartouche-usb4,63617274-6f75-4636-9865-2d757362342e,rev?*%
%TF.SameCoordinates,Original*%
%TF.FileFunction,Soldermask,Top*%
%TF.FilePolarity,Negative*%
%FSLAX46Y46*%
G04 Gerber Fmt 4.6, Leading zero omitted, Abs format (unit mm)*
G04 Created by KiCad (PCBNEW 9.0.7) date 2026-09-27 10:00:25*
%MOMM*%
%LPD*%
G01*
G04 APERTURE LIST*
G04 Aperture macros list*
%AMRoundRect*
0 Rectangle with rounded corners*
0 $1 Rounding radius*
0 $2 $3 $4 $5 $6 $7 $8 $9 X,Y pos of 4 corners*
0 Add a 4 corners polygon primitive as box body*
4,1,4,$2,$3,$4,$5,$6,$7,$8,$9,$2,$3,0*
0 Add four circle primitives for the rounded corners*
1,1,$1+$1,$2,$3*
1,1,$1+$1,$4,$5*
1,1,$1+$1,$6,$7*
1,1,$1+$1,$8,$9*
0 Add four rect primitives between the rounded corners*
20,1,$1+$1,$2,$3,$4,$5,0*
20,1,$1+$1,$4,$5,$6,$7,0*
20,1,$1+$1,$6,$7,$8,$9,0*
20,1,$1+$1,$8,$9,$2,$3,0*%
G04 Aperture macros list end*
%ADD10RoundRect,0.101600X-0.139990X-0.292505X0.139990X-0.292505X0.139990X0.292505X-0.139990X0.292505X0*%
%ADD11RoundRect,0.101600X-0.429995X-0.250010X0.429995X-0.250010X0.429995X0.250010X-0.429995X0.250010X0*%
%ADD12RoundRect,0.101600X-0.200000X0.150000X-0.200000X-0.150000X0.200000X-0.150000X0.200000X0.150000X0*%
%ADD13RoundRect,0.076200X-0.225000X0.250000X-0.225000X-0.250000X0.225000X-0.250000X0.225000X0.250000X0*%
%ADD14RoundRect,0.101600X0.150000X0.200000X-0.150000X0.200000X-0.150000X-0.200000X0.150000X-0.200000X0*%
%ADD15RoundRect,0.076200X0.225000X-0.250000X0.225000X0.250000X-0.225000X0.250000X-0.225000X-0.250000X0*%
%ADD16C,0.403200*%
%ADD17RoundRect,0.101600X-0.325005X-0.225005X0.325005X-0.225005X0.325005X0.225005X-0.325005X0.225005X0*%
%ADD18RoundRect,0.101600X0.550000X-0.950000X0.550000X0.950000X-0.550000X0.950000X-0.550000X-0.950000X0*%
%ADD19RoundRect,0.101600X-0.150000X-0.200000X0.150000X-0.200000X0.150000X0.200000X-0.150000X0.200000X0*%
%ADD20RoundRect,0.076200X0.250000X0.225000X-0.250000X0.225000X-0.250000X-0.225000X0.250000X-0.225000X0*%
%ADD21RoundRect,0.050800X0.140005X-0.332500X0.140005X0.332500X-0.140005X0.332500X-0.140005X-0.332500X0*%
%ADD22RoundRect,0.050800X0.332500X-0.140005X0.332500X0.140005X-0.332500X0.140005X-0.332500X-0.140005X0*%
%ADD23RoundRect,0.050800X0.350000X-0.350000X0.350000X0.350000X-0.350000X0.350000X-0.350000X-0.350000X0*%
%ADD24RoundRect,0.101600X1.295995X-1.103745X1.295995X1.103745X-1.295995X1.103745X-1.295995X-1.103745X0*%
%ADD25RoundRect,0.076200X-0.250000X-0.225000X0.250000X-0.225000X0.250000X0.225000X-0.250000X0.225000X0*%
%ADD26RoundRect,0.101600X-0.850000X0.500000X-0.850000X-0.500000X0.850000X-0.500000X0.850000X0.500000X0*%
%ADD27O,1.203200X2.301940*%
%ADD28O,1.203200X2.801910*%
%ADD29RoundRect,0.101600X-0.150000X-0.400010X0.150000X-0.400010X0.150000X0.400010X-0.150000X0.400010X0*%
%ADD30RoundRect,0.101600X-0.500000X-0.350000X0.500000X-0.350000X0.500000X0.350000X-0.500000X0.350000X0*%
%ADD31RoundRect,0.101600X-0.150000X-0.350000X0.150000X-0.350000X0.150000X0.350000X-0.150000X0.350000X0*%
%ADD32RoundRect,0.101600X0.850000X-0.500000X0.850000X0.500000X-0.850000X0.500000X-0.850000X-0.500000X0*%
%ADD33RoundRect,0.101600X0.270000X-0.318235X0.270000X0.318235X-0.270000X0.318235X-0.270000X-0.318235X0*%
%ADD34C,4.203200*%
%ADD35RoundRect,0.101600X0.300000X-0.365000X0.300000X0.365000X-0.300000X0.365000X-0.300000X-0.365000X0*%
%ADD36C,1.303220*%
%ADD37C,1.803200*%
G04 APERTURE END LIST*
D10*
%TO.C,U4*%
X158297815Y-106902285D03*
X157797795Y-106902285D03*
X157797795Y-108337285D03*
X158297815Y-108337285D03*
D11*
X158047805Y-107619785D03*
%TD*%
D12*
%TO.C,C72*%
X145532865Y-98694105D03*
X145532865Y-99243915D03*
%TD*%
D13*
%TO.C,R22*%
X153411445Y-116482555D03*
X154261445Y-116482555D03*
%TD*%
D14*
%TO.C,R25*%
X144833675Y-97468985D03*
X144283865Y-97468985D03*
%TD*%
D15*
%TO.C,C108*%
X158967615Y-102265735D03*
X158117615Y-102265705D03*
%TD*%
%TO.C,C102*%
X141306055Y-102707125D03*
X140456055Y-102707105D03*
%TD*%
D12*
%TO.C,C65*%
X149326605Y-98694105D03*
X149326605Y-99243915D03*
%TD*%
D16*
%TO.C,U2*%
X155748435Y-102373295D03*
X155748435Y-102833295D03*
X155748435Y-103293295D03*
X155748435Y-103753295D03*
X155748435Y-104213295D03*
X155748435Y-104673295D03*
X155748435Y-105133295D03*
X155748435Y-105593295D03*
X155748435Y-106053295D03*
X155748435Y-106513295D03*
X155748435Y-106973295D03*
X155748435Y-107433295D03*
X155748435Y-107893295D03*
X155748435Y-108353295D03*
X155748435Y-108813295D03*
X155748435Y-109273295D03*
X155748435Y-109733295D03*
X155748435Y-110193295D03*
X155748435Y-110653295D03*
X155748435Y-111113295D03*
X155748435Y-111573295D03*
X146548435Y-102373295D03*
X146548435Y-102833295D03*
X146548435Y-103293295D03*
X146548435Y-103753295D03*
X146548435Y-104213295D03*
X146548435Y-104673295D03*
X146548435Y-105133295D03*
X146548435Y-105593295D03*
X146548435Y-106053295D03*
X146548435Y-106513295D03*
X146548435Y-106973295D03*
X146548435Y-107433295D03*
X146548435Y-107893295D03*
X146548435Y-108353295D03*
X146548435Y-108813295D03*
X146548435Y-109273295D03*
X146548435Y-109733295D03*
X146548435Y-110193295D03*
X146548435Y-110653295D03*
X146548435Y-111113295D03*
X146548435Y-111573295D03*
X155288435Y-102373295D03*
X155288435Y-102833295D03*
X155288435Y-103293295D03*
X155288435Y-103753295D03*
X155288435Y-104213295D03*
X155288435Y-104673295D03*
X155288435Y-105133295D03*
X155288435Y-105593295D03*
X155288435Y-106053295D03*
X155288435Y-106513295D03*
X155288435Y-106973295D03*
X155288435Y-107433295D03*
X155288435Y-107893295D03*
X155288435Y-108353295D03*
X155288435Y-108813295D03*
X155288435Y-109273295D03*
X155288435Y-109733295D03*
X155288435Y-110193295D03*
X155288435Y-110653295D03*
X155288435Y-111113295D03*
X155288435Y-111573295D03*
X154828435Y-102373295D03*
X154828435Y-102833295D03*
X154828435Y-111113295D03*
X154828435Y-111573295D03*
X154368435Y-102373295D03*
X154368435Y-102833295D03*
X154398415Y-103723295D03*
X154398415Y-104373295D03*
X154398415Y-105023295D03*
X154398415Y-105673285D03*
X154398415Y-106323285D03*
X154398415Y-106973285D03*
X154398415Y-107623285D03*
X154398415Y-108273285D03*
X154398415Y-108923285D03*
X154398415Y-109573285D03*
X154398415Y-110223285D03*
X154368435Y-111113295D03*
X154368435Y-111573295D03*
X153908435Y-102373295D03*
X153908435Y-102833295D03*
X153748425Y-103723295D03*
X153748425Y-104373295D03*
X153748425Y-105023295D03*
X153748425Y-105673285D03*
X153748425Y-106323285D03*
X153748425Y-106973285D03*
X153748425Y-107623285D03*
X153748425Y-108273285D03*
X153748425Y-108923285D03*
X153748425Y-109573285D03*
X153748425Y-110223285D03*
X153908435Y-111113295D03*
X153908435Y-111573295D03*
X153448435Y-102373295D03*
X153448435Y-102833295D03*
X153098425Y-103723295D03*
X153098425Y-104373295D03*
X153098425Y-105023295D03*
X153098425Y-105673285D03*
X153098425Y-106323285D03*
X153098425Y-106973285D03*
X153098425Y-107623285D03*
X153098425Y-108273285D03*
X153098425Y-108923285D03*
X153098425Y-109573285D03*
X153098425Y-110223285D03*
X153448435Y-111113295D03*
X153448435Y-111573295D03*
X152988435Y-102373295D03*
X152988435Y-102833295D03*
X152988435Y-111113295D03*
X152988435Y-111573295D03*
X152528435Y-102373295D03*
X152528435Y-102833295D03*
X152448425Y-103723295D03*
X152448425Y-104373295D03*
X152448425Y-105023295D03*
X152448425Y-105673285D03*
X152448425Y-106323285D03*
X152448425Y-106973285D03*
X152448425Y-107623285D03*
X152448425Y-108273285D03*
X152448425Y-108923285D03*
X152448425Y-109573285D03*
X152448425Y-110223285D03*
X152528435Y-111113295D03*
X152528435Y-111573295D03*
X152068435Y-102373295D03*
X152068435Y-102833295D03*
X151798425Y-103723295D03*
X151798425Y-104373295D03*
X151798425Y-105023295D03*
X151798425Y-105673285D03*
X151798425Y-106323285D03*
X151798425Y-106973285D03*
X151798425Y-107623285D03*
X151798425Y-108273285D03*
X151798425Y-108923285D03*
X151798425Y-109573285D03*
X151798425Y-110223285D03*
X152068435Y-111113295D03*
X152068435Y-111573295D03*
X151608435Y-102373295D03*
X151608435Y-102833295D03*
X151608435Y-111113295D03*
X151608435Y-111573295D03*
X151148435Y-102373295D03*
X151148435Y-102833295D03*
X151148425Y-103723295D03*
X151148425Y-104373295D03*
X151148425Y-105023295D03*
X151148425Y-105673285D03*
X151148425Y-106323285D03*
X151148425Y-106973285D03*
X151148425Y-107623285D03*
X151148425Y-108273285D03*
X151148425Y-108923285D03*
X151148425Y-109573285D03*
X151148425Y-110223285D03*
X151148435Y-111113295D03*
X151148435Y-111573295D03*
X150688435Y-102373295D03*
X150688435Y-102833295D03*
X150688435Y-111113295D03*
X150688435Y-111573295D03*
X150228435Y-102373295D03*
X150228435Y-102833295D03*
X150498425Y-103723295D03*
X150498425Y-104373295D03*
X150498425Y-105023295D03*
X150498425Y-105673285D03*
X150498425Y-106323285D03*
X150498425Y-106973285D03*
X150498425Y-107623285D03*
X150498425Y-108273285D03*
X150498425Y-108923285D03*
X150498425Y-109573285D03*
X150498425Y-110223285D03*
X150228435Y-111113295D03*
X150228435Y-111573295D03*
X149768435Y-102373295D03*
X149768435Y-102833295D03*
X149848425Y-103723295D03*
X149848425Y-104373295D03*
X149848425Y-105023295D03*
X149848425Y-105673285D03*
X149848425Y-106323285D03*
X149848425Y-106973285D03*
X149848425Y-107623285D03*
X149848425Y-108273285D03*
X149848425Y-108923285D03*
X149848425Y-109573285D03*
X149848425Y-110223285D03*
X149768435Y-111113295D03*
X149768435Y-111573295D03*
X149308435Y-102373295D03*
X149308435Y-102833295D03*
X149308435Y-111113295D03*
X149308435Y-111573295D03*
X148848435Y-102373295D03*
X148848435Y-102833295D03*
X149198425Y-103723295D03*
X149198425Y-104373295D03*
X149198425Y-105023295D03*
X149198425Y-105673285D03*
X149198425Y-106323285D03*
X149198425Y-106973285D03*
X149198425Y-107623285D03*
X149198425Y-108273285D03*
X149198425Y-108923285D03*
X149198425Y-109573285D03*
X149198425Y-110223285D03*
X148848435Y-111113295D03*
X148848435Y-111573295D03*
X148388435Y-102373295D03*
X148388435Y-102833295D03*
X148548435Y-103723295D03*
X148548435Y-104373295D03*
X148548435Y-105023295D03*
X148548435Y-105673285D03*
X148548435Y-106323285D03*
X148548435Y-106973285D03*
X148548435Y-107623285D03*
X148548435Y-108273285D03*
X148548435Y-108923285D03*
X148548435Y-109573285D03*
X148548435Y-110223285D03*
X148388435Y-111113295D03*
X148388435Y-111573295D03*
X147928435Y-102373295D03*
X147928435Y-102833295D03*
X147898435Y-103723295D03*
X147898435Y-104373295D03*
X147898435Y-105023295D03*
X147898435Y-105673285D03*
X147898435Y-106323285D03*
X147898435Y-106973285D03*
X147898435Y-107623285D03*
X147898435Y-108273285D03*
X147898435Y-108923285D03*
X147898435Y-109573285D03*
X147898435Y-110223285D03*
X147928435Y-111113295D03*
X147928435Y-111573295D03*
X147468435Y-102373295D03*
X147468435Y-102833295D03*
X147468435Y-111113295D03*
X147468435Y-111573295D03*
X147008435Y-102373295D03*
X147008435Y-102833295D03*
X147008435Y-103293295D03*
X147008435Y-103753295D03*
X147008435Y-104213295D03*
X147008435Y-104673295D03*
X147008435Y-105133295D03*
X147008435Y-105593295D03*
X147008435Y-106053295D03*
X147008435Y-106513295D03*
X147008435Y-106973295D03*
X147008435Y-107433295D03*
X147008435Y-107893295D03*
X147008435Y-108353295D03*
X147008435Y-108813295D03*
X147008435Y-109273295D03*
X147008435Y-109733295D03*
X147008435Y-110193295D03*
X147008435Y-110653295D03*
X147008435Y-111113295D03*
X147008435Y-111573295D03*
%TD*%
D17*
%TO.C,U02*%
X156646685Y-99091665D03*
X156646685Y-99741645D03*
X156646685Y-100391635D03*
X156646685Y-101041615D03*
X158896875Y-101041615D03*
X158896875Y-100391635D03*
X158896875Y-99741645D03*
X158896875Y-99091665D03*
D18*
X157771905Y-100066765D03*
%TD*%
D19*
%TO.C,R27*%
X145473145Y-97468985D03*
X146022955Y-97468985D03*
%TD*%
D15*
%TO.C,R107*%
X141306055Y-103570715D03*
X140456055Y-103570715D03*
%TD*%
D13*
%TO.C,C51*%
X158141795Y-110051735D03*
X158991795Y-110051765D03*
%TD*%
D20*
%TO.C,C78*%
X144664305Y-103924405D03*
X144664285Y-104774405D03*
%TD*%
D14*
%TO.C,R29*%
X149377405Y-97468985D03*
X148827595Y-97468985D03*
%TD*%
D20*
%TO.C,R104*%
X138163245Y-105235315D03*
X138163245Y-106085315D03*
%TD*%
D13*
%TO.C,C16*%
X158145635Y-110956335D03*
X158995625Y-110956355D03*
%TD*%
%TO.C,C8*%
X158147765Y-111872375D03*
X158997755Y-111872395D03*
%TD*%
D12*
%TO.C,C73*%
X144770865Y-98694105D03*
X144770865Y-99243915D03*
%TD*%
D15*
%TO.C,R105*%
X139101565Y-104457685D03*
X138251565Y-104457685D03*
%TD*%
D21*
%TO.C,U01*%
X139241985Y-97950455D03*
X139742115Y-97950455D03*
X140241985Y-97950455D03*
X140742115Y-97950455D03*
D22*
X140899595Y-97292845D03*
X140899595Y-96792975D03*
D21*
X140742115Y-96135375D03*
X140241985Y-96135375D03*
X139742115Y-96135375D03*
X139241985Y-96135375D03*
D22*
X139084505Y-96792975D03*
X139084505Y-97292845D03*
D23*
X139992045Y-97042915D03*
%TD*%
D24*
%TO.C,CE1*%
X157133405Y-113582695D03*
X157133405Y-120605285D03*
%TD*%
D13*
%TO.C,C106*%
X138256655Y-102681705D03*
X139106645Y-102681725D03*
%TD*%
D25*
%TO.C,R103*%
X138226645Y-96134975D03*
X138226645Y-95284985D03*
%TD*%
D12*
%TO.C,C55*%
X149945205Y-114918575D03*
X149945205Y-115468385D03*
%TD*%
D26*
%TO.C,L5*%
X138671245Y-99844105D03*
X138671245Y-101544095D03*
%TD*%
D12*
%TO.C,C56*%
X150707205Y-114918575D03*
X150707205Y-115468385D03*
%TD*%
D20*
%TO.C,C104*%
X139230065Y-94408105D03*
X139230035Y-95258105D03*
%TD*%
D13*
%TO.C,R23*%
X153407365Y-115685115D03*
X154257365Y-115685115D03*
%TD*%
D19*
%TO.C,R31*%
X150021345Y-97468985D03*
X150571155Y-97468985D03*
%TD*%
D27*
%TO.C,USBC1*%
X152871075Y-95106545D03*
D28*
X152871075Y-89746475D03*
D27*
X144231215Y-95106545D03*
D28*
X144231215Y-89746455D03*
D29*
X151551135Y-95566515D03*
X151051135Y-95566515D03*
X150551135Y-95566515D03*
X150051145Y-95566515D03*
X149551145Y-95566515D03*
X149051145Y-95566515D03*
X148051145Y-95566515D03*
X147551145Y-95566515D03*
X147051015Y-95566515D03*
X146551145Y-95566515D03*
X146051025Y-95566515D03*
X145551145Y-95566515D03*
D30*
X145451075Y-94216525D03*
D31*
X146301215Y-94216525D03*
X146801085Y-94216525D03*
X147301205Y-94216525D03*
X147801085Y-94216525D03*
X148301205Y-94216525D03*
X148801075Y-94216525D03*
X149301205Y-94216525D03*
X149801075Y-94216525D03*
X150301205Y-94216525D03*
X150801075Y-94216525D03*
D30*
X151651215Y-94216525D03*
%TD*%
D15*
%TO.C,C101*%
X141307005Y-104429225D03*
X140457005Y-104429195D03*
%TD*%
D13*
%TO.C,R21*%
X153408775Y-117276945D03*
X154258775Y-117276945D03*
%TD*%
D12*
%TO.C,C52*%
X143662605Y-115004975D03*
X143662605Y-115554785D03*
%TD*%
D32*
%TO.C,L6*%
X140906445Y-101544095D03*
X140906445Y-99844105D03*
%TD*%
D13*
%TO.C,C107*%
X158111155Y-97845695D03*
X158961155Y-97845715D03*
%TD*%
%TO.C,R108*%
X158114645Y-103115015D03*
X158964645Y-103115015D03*
%TD*%
%TO.C,C61*%
X158144865Y-106090205D03*
X158994865Y-106090235D03*
%TD*%
D33*
%TO.C,LED1*%
X154009205Y-88941085D03*
X154009205Y-90017585D03*
%TD*%
D12*
%TO.C,C64*%
X150088605Y-98694105D03*
X150088605Y-99243915D03*
%TD*%
%TO.C,C54*%
X148386445Y-115754605D03*
X148386445Y-116304415D03*
%TD*%
D20*
%TO.C,C103*%
X140779465Y-94408105D03*
X140779435Y-95258105D03*
%TD*%
D25*
%TO.C,C77*%
X144664295Y-103282605D03*
X144664315Y-102432615D03*
%TD*%
D13*
%TO.C,R106*%
X139191845Y-106301775D03*
X140041845Y-106301775D03*
%TD*%
D34*
%TO.C,J18*%
X140496405Y-90950785D03*
%TD*%
D13*
%TO.C,C105*%
X138252035Y-103605965D03*
X139102035Y-103605985D03*
%TD*%
D34*
%TO.C,J17*%
X156496425Y-90950785D03*
%TD*%
D12*
%TO.C,C48*%
X141626705Y-117256715D03*
X141626705Y-117806515D03*
%TD*%
D15*
%TO.C,C109*%
X157470665Y-97851285D03*
X156620665Y-97851265D03*
%TD*%
D13*
%TO.C,C59*%
X158138795Y-109145615D03*
X158988785Y-109145635D03*
%TD*%
D12*
%TO.C,C53*%
X147624445Y-115754605D03*
X147624445Y-116304415D03*
%TD*%
%TO.C,C49*%
X142388705Y-117256715D03*
X142388705Y-117806515D03*
%TD*%
D20*
%TO.C,R109*%
X158986785Y-104128865D03*
X158986785Y-104978865D03*
%TD*%
D35*
%TO.C,X1*%
X143669165Y-104146515D03*
X143669165Y-103046515D03*
X142869165Y-103046515D03*
X142869165Y-104146515D03*
%TD*%
D12*
%TO.C,C50*%
X142900605Y-115004975D03*
X142900605Y-115554785D03*
%TD*%
D36*
%TO.C,CN1*%
X138505045Y-115646185D03*
D37*
X158505005Y-115646185D03*
%TD*%
M02*
