%TF.GenerationSoftware,KiCad,Pcbnew,9.0.7*%
%TF.CreationDate,2026-09-26T18:39:03+02:00*%
%TF.ProjectId,cartouche-usb4,63617274-6f75-4636-9865-2d757362342e,rev?*%
%TF.SameCoordinates,Original*%
%TF.FileFunction,Copper,L2,Inr*%
%TF.FilePolarity,Positive*%
%FSLAX46Y46*%
G04 Gerber Fmt 4.6, Leading zero omitted, Abs format (unit mm)*
G04 Created by KiCad (PCBNEW 9.0.7) date 2026-09-26 18:39:03*
%MOMM*%
%LPD*%
G01*
G04 APERTURE LIST*
%TA.AperFunction,ComponentPad*%
%ADD10O,1.000000X2.098740*%
%TD*%
%TA.AperFunction,ComponentPad*%
%ADD11O,1.000000X2.598710*%
%TD*%
%TA.AperFunction,ComponentPad*%
%ADD12C,4.000000*%
%TD*%
%TA.AperFunction,ViaPad*%
%ADD13C,0.300000*%
%TD*%
G04 APERTURE END LIST*
D10*
%TO.N,GND*%
%TO.C,USBC1*%
X152871075Y-95106545D03*
D11*
X152871075Y-89746475D03*
D10*
X144231215Y-95106545D03*
D11*
X144231215Y-89746455D03*
%TD*%
D12*
%TO.N,GND*%
%TO.C,J18*%
X140496405Y-90950785D03*
%TD*%
%TO.N,GND*%
%TO.C,J17*%
X156496425Y-90950785D03*
%TD*%
D13*
%TO.N,NetR110_2*%
X156967135Y-98836165D03*
%TO.N,NetR108_2*%
X158986785Y-103633005D03*
X158924965Y-100577715D03*
%TO.N,NetR103_1*%
X138029185Y-96374645D03*
X138915855Y-97852205D03*
X141068245Y-97852205D03*
%TO.N,NetC101_1*%
X140077545Y-98810635D03*
X141654125Y-104536365D03*
%TO.N,PET3U_N*%
X141809305Y-119278385D03*
%TO.N,PET3U_P*%
X142198205Y-119278385D03*
%TO.N,PET2U_N*%
X143084775Y-116038615D03*
%TO.N,PET2U_P*%
X143473675Y-116038615D03*
%TO.N,PET1U_N*%
X147811605Y-119278385D03*
%TO.N,PET1U_P*%
X148200505Y-119278385D03*
%TO.N,PET0U_N*%
X150123005Y-115976385D03*
%TO.N,PET0U_P*%
X150511905Y-115976385D03*
%TO.N,PER0_N*%
X149310205Y-119278385D03*
%TO.N,PER1_N*%
X146313005Y-119278385D03*
%TO.N,PER2_N*%
X143315805Y-119278385D03*
%TO.N,PER3_N*%
X140318605Y-119278385D03*
%TO.N,PER0_P*%
X149699105Y-119278385D03*
%TO.N,PER1_P*%
X146701905Y-119278385D03*
%TO.N,PER2_P*%
X143704705Y-119278385D03*
%TO.N,PER3_P*%
X140707505Y-119278385D03*
%TO.N,RefCLK_N*%
X152301225Y-119395075D03*
%TO.N,RefCLK_P*%
X152690125Y-119395075D03*
%TO.N,NetC105_1*%
X139611045Y-98795515D03*
X138058915Y-103522515D03*
%TO.N,UTX1_CON_P*%
X146356695Y-94843585D03*
%TO.N,UTX1_CON_N*%
X146745595Y-94843585D03*
%TO.N,URX0_CON_P*%
X150745585Y-94843585D03*
%TO.N,URX0_CON_N*%
X150356685Y-94843585D03*
%TO.N,UTX1_P*%
X147280575Y-100851295D03*
%TO.N,UTX1_N*%
X147669475Y-100851295D03*
%TO.N,URX0_P*%
X150430435Y-101232295D03*
%TO.N,URX0_N*%
X150155445Y-100957305D03*
%TO.N,UREXT*%
X147448095Y-103272955D03*
%TO.N,UD_P*%
X148710365Y-95285145D03*
X148294205Y-94868985D03*
%TO.N,UART_TX*%
X155306205Y-111949305D03*
%TO.N,TEST_EN*%
X152798405Y-111853905D03*
%TO.N,SPI_DO*%
X155983615Y-103077305D03*
%TO.N,SPI_DI*%
X155982065Y-103538795D03*
X156353505Y-102290115D03*
%TO.N,SPI_CS#*%
X155991905Y-102609035D03*
%TO.N,SPI_CLK*%
X155978455Y-104002175D03*
%TO.N,SBU2*%
X149301205Y-94841785D03*
X152372335Y-102069395D03*
%TO.N,SBU1*%
X147726405Y-94867185D03*
X151912335Y-102069395D03*
X152485205Y-91475095D03*
%TO.N,PERST_B*%
X153109475Y-117276225D03*
X153249365Y-111847565D03*
%TO.N,NetR13_2*%
X146046835Y-104383805D03*
%TO.N,NetR12_2*%
X145418905Y-104210865D03*
%TO.N,I2C_DATA_P*%
X153752335Y-102069395D03*
%TO.N,I2C_CLK_P*%
X154212335Y-102069395D03*
%TO.N,HDDPC*%
X154524055Y-110718265D03*
X156680525Y-111859895D03*
%TO.N,GPIO27*%
X155973735Y-110400135D03*
%TO.N,GPIO26*%
X155973735Y-109940125D03*
%TO.N,GPIO22*%
X153124485Y-115719575D03*
X155973735Y-108100125D03*
%TO.N,CC21*%
X143087205Y-96342185D03*
%TO.N,CC11*%
X149286165Y-96189805D03*
%TO.N,1.1V*%
X139179885Y-105226775D03*
X152123425Y-108598295D03*
X139177545Y-105608145D03*
X139500315Y-105243905D03*
X149523435Y-106648305D03*
X150173435Y-105348305D03*
X152123425Y-106648295D03*
X150173435Y-107948295D03*
X150173435Y-107298305D03*
X149523435Y-108598295D03*
X138846365Y-105236215D03*
X152123425Y-107948295D03*
X151473425Y-109898295D03*
X150823435Y-105348305D03*
X152773425Y-109248295D03*
X150823435Y-105998305D03*
X152773425Y-106648295D03*
X149523435Y-105348305D03*
X150823435Y-106648305D03*
X152123425Y-109898295D03*
X152773425Y-108598295D03*
X151473425Y-107948295D03*
X149523435Y-107948295D03*
X152773425Y-109898295D03*
X152773425Y-107948295D03*
X139497305Y-105603485D03*
X152123425Y-109248295D03*
X149523435Y-107298305D03*
X150173435Y-105998305D03*
X150173435Y-106648305D03*
X150823435Y-107298305D03*
X151473425Y-108598295D03*
X152773425Y-105998295D03*
X138851285Y-105604665D03*
X151473425Y-109248295D03*
X152123425Y-105998295D03*
X149523435Y-105998305D03*
X150173435Y-108598295D03*
%TO.N,1.8V*%
X148223435Y-104698305D03*
X148223435Y-107948295D03*
X150173435Y-109898295D03*
X148223435Y-109248295D03*
X148223435Y-107298305D03*
X140699295Y-105562305D03*
X140075315Y-105213465D03*
X148223435Y-105348305D03*
X150823435Y-104048295D03*
X148223435Y-105998305D03*
X140699355Y-105226335D03*
X140392695Y-105222035D03*
X148223435Y-108598295D03*
X149545275Y-103387695D03*
X150173435Y-104048305D03*
X150173435Y-109248295D03*
X148223435Y-104048305D03*
X148223435Y-106648305D03*
X140388405Y-105530845D03*
X150269035Y-103338695D03*
X149523435Y-109248295D03*
X140075315Y-105545855D03*
X149523435Y-109898295D03*
%TO.N,3.3V*%
X152773425Y-104698305D03*
X158283495Y-105372325D03*
X158261965Y-104567325D03*
X154073425Y-105998305D03*
X153423425Y-107298305D03*
X154073425Y-107948295D03*
X154073425Y-108598295D03*
X158285635Y-104965515D03*
X157798185Y-104124125D03*
X157797045Y-105355105D03*
X154073425Y-106648305D03*
X154499195Y-100726775D03*
X152773425Y-104048305D03*
X157801355Y-104952605D03*
X154073425Y-107298305D03*
X154073425Y-105348305D03*
X154296425Y-115300505D03*
X157788615Y-104542555D03*
X154073425Y-104698305D03*
X158259815Y-104121775D03*
X152123425Y-104048305D03*
X154073425Y-109248295D03*
X152123425Y-104698305D03*
X154073425Y-104048305D03*
%TO.N,GND*%
X144170405Y-99210585D03*
X151473425Y-104048305D03*
X145474805Y-108407185D03*
X142706205Y-108889785D03*
X147028455Y-118897395D03*
X149665805Y-117093985D03*
X144509605Y-108407185D03*
X148873435Y-104698295D03*
X150935805Y-115937455D03*
X150253545Y-120153975D03*
X142439405Y-114994655D03*
X140177365Y-96849915D03*
X150025655Y-119659395D03*
X159165405Y-108559585D03*
X142757005Y-120141985D03*
X159160575Y-107298265D03*
X149488005Y-114921455D03*
X142426805Y-105079785D03*
X153423425Y-108598295D03*
X159069295Y-101921065D03*
X148873435Y-107948295D03*
X141034055Y-118897395D03*
X144670975Y-102425955D03*
X144664285Y-104774405D03*
X147167245Y-115757485D03*
X144738205Y-100914185D03*
X156904805Y-94005385D03*
X152000675Y-119776075D03*
X146112435Y-102857895D03*
X148691245Y-115351085D03*
X153423425Y-105348305D03*
X142524755Y-119659395D03*
X142884005Y-110896385D03*
X149024435Y-110466745D03*
X138388205Y-110718585D03*
X148935615Y-91104685D03*
X138997805Y-114579385D03*
X144484205Y-109499385D03*
X152527005Y-97051585D03*
X151651215Y-94216525D03*
X145220805Y-106044985D03*
X159165405Y-108153185D03*
X147347245Y-106520835D03*
X152586805Y-99694985D03*
X147278175Y-91104685D03*
X148751405Y-120141985D03*
X149488005Y-115480255D03*
X141508755Y-118897395D03*
X143265005Y-117500385D03*
X157539805Y-96545385D03*
X151164405Y-115480255D03*
X157997215Y-96550155D03*
X146363785Y-91104685D03*
X147252805Y-117881385D03*
X153423425Y-106648305D03*
X146060015Y-107179115D03*
X153423425Y-109898295D03*
X145932005Y-115595385D03*
X142845905Y-117805195D03*
X141034055Y-119659395D03*
X145170005Y-116052585D03*
X142684705Y-98485055D03*
X146177005Y-99210585D03*
X151473425Y-106648305D03*
X139988405Y-114630185D03*
X148223435Y-109898295D03*
X150823435Y-108598295D03*
X147511055Y-118897395D03*
X147323435Y-109238305D03*
X147323435Y-107426305D03*
X144865205Y-117347985D03*
X150300805Y-99694985D03*
X157257165Y-119390865D03*
X156752405Y-119379985D03*
X140195375Y-95164615D03*
X151473425Y-104698305D03*
X151164405Y-114870655D03*
X151291405Y-99694985D03*
X141169505Y-117246395D03*
X147252805Y-120141985D03*
X144458805Y-99694985D03*
X147227405Y-114604785D03*
X149009655Y-118897395D03*
X138164515Y-106385785D03*
X141385405Y-110616985D03*
X154885075Y-112004375D03*
X152155005Y-116052585D03*
X140064605Y-110845585D03*
X146012455Y-118897395D03*
X156930205Y-94437185D03*
X145932005Y-114604785D03*
X140547205Y-108788185D03*
X143492785Y-105070645D03*
X143887205Y-114562855D03*
X153374205Y-119964185D03*
X142541005Y-114562855D03*
X145881205Y-116763785D03*
X143011005Y-107289585D03*
X146871805Y-98170985D03*
X159163125Y-107735535D03*
X141791805Y-109804185D03*
X148141805Y-98170985D03*
X148395805Y-98704385D03*
X145703405Y-102031785D03*
X151316805Y-98170985D03*
X150427805Y-118236985D03*
X141169505Y-117805195D03*
X152221995Y-114579585D03*
X139821515Y-95158095D03*
X153016675Y-119014075D03*
X145855805Y-99720385D03*
X146567005Y-99212385D03*
X144115805Y-115578855D03*
X147028455Y-119659395D03*
X154616335Y-106742295D03*
X142249005Y-106806985D03*
X140013805Y-116001785D03*
X148802205Y-98704385D03*
X148827605Y-117932185D03*
X148873435Y-107298305D03*
X148141805Y-99745785D03*
X148873435Y-109898295D03*
X142047025Y-103676415D03*
X145170005Y-107213385D03*
X150427805Y-98170985D03*
X142414005Y-115553455D03*
X153423425Y-104048305D03*
X143747605Y-109880385D03*
X141508755Y-119659395D03*
X153016675Y-119776075D03*
X144255605Y-120141985D03*
X155482405Y-98069385D03*
X153423425Y-109248295D03*
X148873435Y-108598295D03*
X141531055Y-102707115D03*
X146047965Y-110277115D03*
X148395805Y-99263185D03*
X147167245Y-116316285D03*
X142020405Y-102537875D03*
X147323435Y-108332305D03*
X145855805Y-98170985D03*
X145451075Y-94216525D03*
X145220805Y-101447585D03*
X142541005Y-116010655D03*
X148843645Y-115757485D03*
X149792795Y-91104685D03*
X157756635Y-119375425D03*
X138388205Y-113004585D03*
X157529425Y-96994935D03*
X144103205Y-112090185D03*
X151062805Y-99186985D03*
X141448905Y-116839995D03*
X156259885Y-119382275D03*
X144458805Y-98196385D03*
X149030805Y-98170985D03*
X152840805Y-98704385D03*
X150554805Y-99186985D03*
X148640445Y-116773485D03*
X141639405Y-105917985D03*
X142968135Y-101991805D03*
X149009655Y-119659395D03*
X143015255Y-119659395D03*
X148122815Y-91104685D03*
X148527055Y-118897395D03*
X147319645Y-115351085D03*
X144230205Y-107187985D03*
X145986925Y-106065345D03*
X145906605Y-117881385D03*
X148873435Y-105348305D03*
X143669165Y-103046515D03*
X146567005Y-98678985D03*
X153423425Y-105998305D03*
X139990115Y-95699645D03*
X141233005Y-116027185D03*
X150823435Y-109898295D03*
X144516485Y-106020645D03*
X148726005Y-114604785D03*
X152000675Y-119014075D03*
X148873435Y-106648305D03*
X145985435Y-105031835D03*
X151473425Y-107298305D03*
X150823435Y-107948295D03*
X153423425Y-104698305D03*
X147343305Y-103805395D03*
X139816265Y-96857025D03*
X151062805Y-98678985D03*
X140191605Y-109626385D03*
X149030805Y-99694985D03*
X145754205Y-120141985D03*
X143900165Y-116014315D03*
X145347805Y-109346985D03*
X144408005Y-100228385D03*
X148802205Y-99263185D03*
X138083405Y-106832385D03*
X142845905Y-117246395D03*
X138031645Y-102681715D03*
X150834205Y-96875585D03*
X140018055Y-118897395D03*
X143831735Y-102017205D03*
X141252465Y-120140115D03*
X149021805Y-96670585D03*
X144031255Y-118897395D03*
X152840805Y-99263185D03*
X146177005Y-98677185D03*
X144115805Y-114994655D03*
X148843645Y-116316285D03*
X140018055Y-119659395D03*
X145144605Y-114706385D03*
X147397665Y-116773485D03*
X159155455Y-106855885D03*
X150554805Y-98678985D03*
X143519005Y-108559585D03*
X144031255Y-119659395D03*
X140013805Y-117652785D03*
X148527055Y-119659395D03*
X150707185Y-91104685D03*
X143722205Y-106044985D03*
X141893405Y-107619785D03*
X150823435Y-109248295D03*
X155617845Y-102030585D03*
X139124805Y-120091185D03*
X151473425Y-105348305D03*
X138388205Y-108788185D03*
X143015255Y-118897395D03*
X155705705Y-100360875D03*
X151647005Y-117170185D03*
X144941405Y-110466745D03*
X142524755Y-118897395D03*
X146012455Y-119659395D03*
X145424005Y-112090185D03*
X152425405Y-96670585D03*
X149742005Y-114489655D03*
X151605855Y-119957655D03*
X150025655Y-118897395D03*
X149716605Y-115937455D03*
X158002325Y-96994935D03*
X152586805Y-98170985D03*
X150910405Y-114489655D03*
X141283805Y-114655585D03*
X140197545Y-94842925D03*
X147511055Y-119659395D03*
X142605575Y-116837545D03*
X145210645Y-104998265D03*
X146871805Y-99745785D03*
X144170405Y-98600985D03*
X142869165Y-104146515D03*
X141448905Y-118211595D03*
X142045805Y-104673385D03*
X139823695Y-94834235D03*
X142591905Y-118211595D03*
X148873435Y-109248295D03*
X139847025Y-97214705D03*
X140185715Y-97232715D03*
X138362805Y-111861585D03*
%TO.N,GPIO1*%
X154618665Y-102069395D03*
%TO.N,GPIO8*%
X153112135Y-116481825D03*
X155973735Y-110860125D03*
%TO.N,3.3V_M.2*%
X157515715Y-114719525D03*
X157514405Y-114426985D03*
X156523805Y-114426985D03*
X157002195Y-114708685D03*
X156521165Y-114715195D03*
X157006405Y-114426985D03*
%TO.N,NetLED1_1*%
X154279205Y-88952095D03*
%TO.N,RST*%
X152832335Y-102069395D03*
%TO.N,VBUS1*%
X141997845Y-94630715D03*
X138036245Y-94376375D03*
X156628795Y-96575035D03*
X150961205Y-91947985D03*
X138036245Y-94909975D03*
X153292335Y-102069395D03*
X142163645Y-94363775D03*
X156636505Y-97390005D03*
X151345165Y-91963335D03*
X138302845Y-94109775D03*
X141682695Y-94945865D03*
X156636505Y-96969355D03*
X141617645Y-94223515D03*
X147294605Y-93698785D03*
X149792315Y-93711875D03*
%TD*%
%TA.AperFunction,Conductor*%
%TO.N,GND*%
G36*
X159521375Y-121849515D02*
G01*
X137571375Y-121850065D01*
X137481585Y-121760255D01*
X137482009Y-119325905D01*
X140079705Y-119325905D01*
X140116075Y-119413715D01*
X140183275Y-119480915D01*
X140271085Y-119517285D01*
X140366125Y-119517285D01*
X140453935Y-119480915D01*
X140513055Y-119421795D01*
X140572175Y-119480915D01*
X140659985Y-119517285D01*
X140755025Y-119517285D01*
X140842835Y-119480915D01*
X140910035Y-119413715D01*
X140946405Y-119325905D01*
X141570405Y-119325905D01*
X141606775Y-119413715D01*
X141673975Y-119480915D01*
X141761785Y-119517285D01*
X141856825Y-119517285D01*
X141944635Y-119480915D01*
X142003755Y-119421795D01*
X142062875Y-119480915D01*
X142150685Y-119517285D01*
X142245725Y-119517285D01*
X142333535Y-119480915D01*
X142400735Y-119413715D01*
X142437105Y-119325905D01*
X143076905Y-119325905D01*
X143113275Y-119413715D01*
X143180475Y-119480915D01*
X143268285Y-119517285D01*
X143363325Y-119517285D01*
X143451135Y-119480915D01*
X143510255Y-119421795D01*
X143569375Y-119480915D01*
X143657185Y-119517285D01*
X143752225Y-119517285D01*
X143840035Y-119480915D01*
X143907235Y-119413715D01*
X143943605Y-119325905D01*
X146074105Y-119325905D01*
X146110475Y-119413715D01*
X146177675Y-119480915D01*
X146265485Y-119517285D01*
X146360525Y-119517285D01*
X146448335Y-119480915D01*
X146507455Y-119421795D01*
X146566575Y-119480915D01*
X146654385Y-119517285D01*
X146749425Y-119517285D01*
X146837235Y-119480915D01*
X146904435Y-119413715D01*
X146940805Y-119325905D01*
X147572705Y-119325905D01*
X147609075Y-119413715D01*
X147676275Y-119480915D01*
X147764085Y-119517285D01*
X147859125Y-119517285D01*
X147946935Y-119480915D01*
X148006055Y-119421795D01*
X148065175Y-119480915D01*
X148152985Y-119517285D01*
X148248025Y-119517285D01*
X148335835Y-119480915D01*
X148403035Y-119413715D01*
X148439405Y-119325905D01*
X149071305Y-119325905D01*
X149107675Y-119413715D01*
X149174875Y-119480915D01*
X149262685Y-119517285D01*
X149357725Y-119517285D01*
X149445535Y-119480915D01*
X149504655Y-119421795D01*
X149563775Y-119480915D01*
X149651585Y-119517285D01*
X149746625Y-119517285D01*
X149834435Y-119480915D01*
X149872755Y-119442595D01*
X152062335Y-119442595D01*
X152098705Y-119530405D01*
X152165905Y-119597605D01*
X152253705Y-119633975D01*
X152348755Y-119633975D01*
X152436555Y-119597605D01*
X152495675Y-119538485D01*
X152554805Y-119597605D01*
X152642605Y-119633975D01*
X152737655Y-119633975D01*
X152825455Y-119597605D01*
X152892655Y-119530405D01*
X152929025Y-119442595D01*
X152929025Y-119347555D01*
X152892655Y-119259745D01*
X152825455Y-119192545D01*
X152737655Y-119156175D01*
X152642605Y-119156175D01*
X152554805Y-119192545D01*
X152495675Y-119251665D01*
X152436555Y-119192545D01*
X152348755Y-119156175D01*
X152253705Y-119156175D01*
X152165905Y-119192545D01*
X152098705Y-119259745D01*
X152062335Y-119347555D01*
X152062335Y-119442595D01*
X149872755Y-119442595D01*
X149901635Y-119413715D01*
X149929038Y-119347555D01*
X149938005Y-119325905D01*
X149938005Y-119230865D01*
X149901635Y-119143065D01*
X149834435Y-119075855D01*
X149746625Y-119039485D01*
X149651585Y-119039485D01*
X149563775Y-119075855D01*
X149504655Y-119134985D01*
X149445535Y-119075855D01*
X149357725Y-119039485D01*
X149262685Y-119039485D01*
X149174875Y-119075855D01*
X149107675Y-119143065D01*
X149071305Y-119230865D01*
X149071305Y-119325905D01*
X148439405Y-119325905D01*
X148439405Y-119230865D01*
X148403035Y-119143065D01*
X148335835Y-119075855D01*
X148248025Y-119039485D01*
X148152985Y-119039485D01*
X148065175Y-119075855D01*
X148006055Y-119134985D01*
X147946935Y-119075855D01*
X147859125Y-119039485D01*
X147764085Y-119039485D01*
X147676275Y-119075855D01*
X147609075Y-119143065D01*
X147572705Y-119230865D01*
X147572705Y-119325905D01*
X146940805Y-119325905D01*
X146940805Y-119230865D01*
X146904435Y-119143065D01*
X146837235Y-119075855D01*
X146749425Y-119039485D01*
X146654385Y-119039485D01*
X146566575Y-119075855D01*
X146507455Y-119134985D01*
X146448335Y-119075855D01*
X146360525Y-119039485D01*
X146265485Y-119039485D01*
X146177675Y-119075855D01*
X146110475Y-119143065D01*
X146074105Y-119230865D01*
X146074105Y-119325905D01*
X143943605Y-119325905D01*
X143943605Y-119230865D01*
X143907235Y-119143065D01*
X143840035Y-119075855D01*
X143752225Y-119039485D01*
X143657185Y-119039485D01*
X143569375Y-119075855D01*
X143510255Y-119134985D01*
X143451135Y-119075855D01*
X143363325Y-119039485D01*
X143268285Y-119039485D01*
X143180475Y-119075855D01*
X143113275Y-119143065D01*
X143076905Y-119230865D01*
X143076905Y-119325905D01*
X142437105Y-119325905D01*
X142437105Y-119230865D01*
X142400735Y-119143065D01*
X142333535Y-119075855D01*
X142245725Y-119039485D01*
X142150685Y-119039485D01*
X142062875Y-119075855D01*
X142003755Y-119134985D01*
X141944635Y-119075855D01*
X141856825Y-119039485D01*
X141761785Y-119039485D01*
X141673975Y-119075855D01*
X141606775Y-119143065D01*
X141570405Y-119230865D01*
X141570405Y-119325905D01*
X140946405Y-119325905D01*
X140946405Y-119230865D01*
X140910035Y-119143065D01*
X140842835Y-119075855D01*
X140755025Y-119039485D01*
X140659985Y-119039485D01*
X140572175Y-119075855D01*
X140513055Y-119134985D01*
X140453935Y-119075855D01*
X140366125Y-119039485D01*
X140271085Y-119039485D01*
X140183275Y-119075855D01*
X140116075Y-119143065D01*
X140079705Y-119230865D01*
X140079705Y-119325905D01*
X137482009Y-119325905D01*
X137482026Y-119230865D01*
X137482238Y-118011895D01*
X137482406Y-117051335D01*
X141365445Y-117051335D01*
X141365445Y-118011895D01*
X142635445Y-118011895D01*
X142635445Y-117323745D01*
X152870575Y-117323745D01*
X152906945Y-117411545D01*
X152974145Y-117478755D01*
X153061945Y-117515125D01*
X153156995Y-117515125D01*
X153244795Y-117478755D01*
X153312005Y-117411545D01*
X153348375Y-117323745D01*
X153348375Y-117228705D01*
X153312005Y-117140895D01*
X153244795Y-117073695D01*
X153156995Y-117037325D01*
X153061945Y-117037325D01*
X152974145Y-117073695D01*
X152906945Y-117140895D01*
X152870575Y-117228705D01*
X152870575Y-117323745D01*
X142635445Y-117323745D01*
X142635445Y-117228705D01*
X142635445Y-117051335D01*
X141365445Y-117051335D01*
X137482406Y-117051335D01*
X137482497Y-116529345D01*
X152873235Y-116529345D01*
X152909605Y-116617155D01*
X152976805Y-116684355D01*
X153064615Y-116720725D01*
X153159655Y-116720725D01*
X153247465Y-116684355D01*
X153314665Y-116617155D01*
X153351035Y-116529345D01*
X153351035Y-116434305D01*
X153314665Y-116346505D01*
X153247465Y-116279295D01*
X153159655Y-116242925D01*
X153064615Y-116242925D01*
X152976805Y-116279295D01*
X152909605Y-116346505D01*
X152873235Y-116434305D01*
X152873235Y-116529345D01*
X137482497Y-116529345D01*
X137482500Y-116509785D01*
X137482629Y-115773275D01*
X137866135Y-115773275D01*
X137963405Y-116008105D01*
X138143135Y-116187835D01*
X138377955Y-116285095D01*
X138632135Y-116285095D01*
X138866955Y-116187835D01*
X139046685Y-116008105D01*
X139143955Y-115773275D01*
X139143955Y-115760155D01*
X139143955Y-115519105D01*
X139046685Y-115284275D01*
X138866955Y-115104545D01*
X138632135Y-115007275D01*
X138377955Y-115007275D01*
X138143135Y-115104545D01*
X137963405Y-115284275D01*
X137866135Y-115519105D01*
X137866135Y-115773275D01*
X137482629Y-115773275D01*
X137482673Y-115519105D01*
X137482799Y-114799605D01*
X142639345Y-114799605D01*
X142639345Y-115760155D01*
X142845765Y-115760155D01*
X142898375Y-115887155D01*
X142882245Y-115903295D01*
X142845875Y-115991095D01*
X142845875Y-116086135D01*
X142882245Y-116173945D01*
X142949445Y-116241145D01*
X143037255Y-116277515D01*
X143132295Y-116277515D01*
X143220095Y-116241145D01*
X143279225Y-116182025D01*
X143338345Y-116241145D01*
X143426145Y-116277515D01*
X143521195Y-116277515D01*
X143608995Y-116241145D01*
X143676205Y-116173945D01*
X143712575Y-116086135D01*
X143712575Y-115991095D01*
X143676205Y-115903295D01*
X143660065Y-115887155D01*
X143712675Y-115760155D01*
X143909345Y-115760155D01*
X143909345Y-115549235D01*
X147363185Y-115549235D01*
X147363185Y-116509785D01*
X148633185Y-116509785D01*
X148633185Y-116434305D01*
X148633185Y-115673765D01*
X148633185Y-115549235D01*
X147363185Y-115549235D01*
X143909345Y-115549235D01*
X143909345Y-114799605D01*
X142639345Y-114799605D01*
X137482799Y-114799605D01*
X137482814Y-114713205D01*
X149683945Y-114713205D01*
X149683945Y-115673765D01*
X149921835Y-115673765D01*
X149923465Y-115676235D01*
X149960775Y-115800765D01*
X149920475Y-115841065D01*
X149884105Y-115928865D01*
X149884105Y-116023905D01*
X149920475Y-116111715D01*
X149987675Y-116178915D01*
X150075485Y-116215285D01*
X150170525Y-116215285D01*
X150258335Y-116178915D01*
X150317455Y-116119795D01*
X150376575Y-116178915D01*
X150464385Y-116215285D01*
X150559425Y-116215285D01*
X150647235Y-116178915D01*
X150714435Y-116111715D01*
X150750805Y-116023905D01*
X150750805Y-115928865D01*
X150714435Y-115841065D01*
X150674135Y-115800765D01*
X150684223Y-115767095D01*
X152885585Y-115767095D01*
X152921955Y-115854905D01*
X152989155Y-115922105D01*
X153076965Y-115958475D01*
X153172005Y-115958475D01*
X153259805Y-115922105D01*
X153327015Y-115854905D01*
X153363385Y-115767095D01*
X153363385Y-115763215D01*
X157616105Y-115763215D01*
X157676685Y-115989295D01*
X157793705Y-116191985D01*
X157959205Y-116357485D01*
X158161905Y-116474505D01*
X158387975Y-116535085D01*
X158622035Y-116535085D01*
X158848105Y-116474505D01*
X159050805Y-116357485D01*
X159216305Y-116191985D01*
X159333325Y-115989295D01*
X159393905Y-115763215D01*
X159393905Y-115529165D01*
X159333325Y-115303085D01*
X159216305Y-115100395D01*
X159050805Y-114934895D01*
X158848105Y-114817865D01*
X158622035Y-114757285D01*
X158387975Y-114757285D01*
X158161905Y-114817865D01*
X157959205Y-114934895D01*
X157793705Y-115100395D01*
X157676685Y-115303085D01*
X157616105Y-115529165D01*
X157616105Y-115763215D01*
X153363385Y-115763215D01*
X153363385Y-115672055D01*
X153327015Y-115584245D01*
X153259805Y-115517045D01*
X153172005Y-115480675D01*
X153076965Y-115480675D01*
X152989155Y-115517045D01*
X152921955Y-115584245D01*
X152885585Y-115672055D01*
X152885585Y-115767095D01*
X150684223Y-115767095D01*
X150711445Y-115676235D01*
X150713065Y-115673765D01*
X150953945Y-115673765D01*
X150953945Y-115672055D01*
X150953945Y-115348025D01*
X154057525Y-115348025D01*
X154093895Y-115435835D01*
X154161095Y-115503035D01*
X154248905Y-115539405D01*
X154343945Y-115539405D01*
X154368665Y-115529165D01*
X154431745Y-115503035D01*
X154498955Y-115435835D01*
X154535325Y-115348025D01*
X154535325Y-115252985D01*
X154498955Y-115165175D01*
X154431745Y-115097975D01*
X154343945Y-115061605D01*
X154248905Y-115061605D01*
X154161095Y-115097975D01*
X154093895Y-115165175D01*
X154057525Y-115252985D01*
X154057525Y-115348025D01*
X150953945Y-115348025D01*
X150953945Y-115252985D01*
X150953945Y-114762715D01*
X156282265Y-114762715D01*
X156318635Y-114850515D01*
X156385835Y-114917725D01*
X156473645Y-114954095D01*
X156568685Y-114954095D01*
X156656495Y-114917725D01*
X156682115Y-114892095D01*
X156757375Y-114861315D01*
X156845055Y-114889405D01*
X156866865Y-114911215D01*
X156954675Y-114947585D01*
X157049715Y-114947585D01*
X157137515Y-114911215D01*
X157181045Y-114867695D01*
X157271295Y-114858925D01*
X157330515Y-114872185D01*
X157380395Y-114922055D01*
X157468195Y-114958425D01*
X157563235Y-114958425D01*
X157651045Y-114922055D01*
X157718245Y-114854855D01*
X157754615Y-114767045D01*
X157754615Y-114672005D01*
X157718245Y-114584195D01*
X157706645Y-114572595D01*
X157716935Y-114562315D01*
X157753305Y-114474505D01*
X157753305Y-114379465D01*
X157716935Y-114291665D01*
X157649735Y-114224455D01*
X157561925Y-114188085D01*
X157466885Y-114188085D01*
X157379075Y-114224455D01*
X157336285Y-114267245D01*
X157260405Y-114281795D01*
X157184525Y-114267245D01*
X157141735Y-114224455D01*
X157053925Y-114188085D01*
X156958885Y-114188085D01*
X156871075Y-114224455D01*
X156846245Y-114249285D01*
X156765105Y-114277965D01*
X156683965Y-114249285D01*
X156659135Y-114224455D01*
X156571325Y-114188085D01*
X156476285Y-114188085D01*
X156388475Y-114224455D01*
X156321275Y-114291665D01*
X156284905Y-114379465D01*
X156284905Y-114474505D01*
X156321275Y-114562315D01*
X156328735Y-114569775D01*
X156318635Y-114579865D01*
X156282265Y-114667675D01*
X156282265Y-114762715D01*
X150953945Y-114762715D01*
X150953945Y-114713205D01*
X149683945Y-114713205D01*
X137482814Y-114713205D01*
X137482822Y-114667675D01*
X137483304Y-111901425D01*
X152559505Y-111901425D01*
X152595885Y-111989235D01*
X152663085Y-112056435D01*
X152750885Y-112092805D01*
X152845935Y-112092805D01*
X152933735Y-112056435D01*
X152944095Y-112046085D01*
X153020205Y-111999275D01*
X153110025Y-112046085D01*
X153114035Y-112050095D01*
X153201845Y-112086465D01*
X153296885Y-112086465D01*
X153384685Y-112050095D01*
X153437953Y-111996835D01*
X155067305Y-111996835D01*
X155103675Y-112084635D01*
X155170885Y-112151835D01*
X155258685Y-112188205D01*
X155353725Y-112188205D01*
X155441535Y-112151835D01*
X155508735Y-112084635D01*
X155545105Y-111996835D01*
X155545105Y-111907415D01*
X156441625Y-111907415D01*
X156477995Y-111995225D01*
X156545195Y-112062425D01*
X156633005Y-112098795D01*
X156728045Y-112098795D01*
X156815855Y-112062425D01*
X156883055Y-111995225D01*
X156919425Y-111907415D01*
X156919425Y-111812375D01*
X156883055Y-111724575D01*
X156815855Y-111657365D01*
X156728045Y-111620995D01*
X156633005Y-111620995D01*
X156545195Y-111657365D01*
X156477995Y-111724575D01*
X156441625Y-111812375D01*
X156441625Y-111907415D01*
X155545105Y-111907415D01*
X155545105Y-111901785D01*
X155508735Y-111813985D01*
X155507125Y-111812375D01*
X155441535Y-111746775D01*
X155353725Y-111710405D01*
X155258685Y-111710405D01*
X155170885Y-111746775D01*
X155103675Y-111813985D01*
X155067305Y-111901785D01*
X155067305Y-111996835D01*
X153437953Y-111996835D01*
X153451895Y-111982895D01*
X153485490Y-111901785D01*
X153488265Y-111895085D01*
X153488265Y-111800045D01*
X153451895Y-111712235D01*
X153384685Y-111645035D01*
X153296885Y-111608665D01*
X153201845Y-111608665D01*
X153114035Y-111645035D01*
X153103685Y-111655385D01*
X153027575Y-111702195D01*
X152937745Y-111655385D01*
X152933735Y-111651375D01*
X152845935Y-111615005D01*
X152750885Y-111615005D01*
X152663085Y-111651375D01*
X152595885Y-111718585D01*
X152559505Y-111806385D01*
X152559505Y-111901425D01*
X137483304Y-111901425D01*
X137483321Y-111806385D01*
X137483503Y-110765785D01*
X154285155Y-110765785D01*
X154321525Y-110853595D01*
X154388725Y-110920795D01*
X154476525Y-110957165D01*
X154571575Y-110957165D01*
X154659375Y-110920795D01*
X154726575Y-110853595D01*
X154762945Y-110765785D01*
X154762945Y-110670745D01*
X154726575Y-110582945D01*
X154659375Y-110515735D01*
X154571575Y-110479365D01*
X154476525Y-110479365D01*
X154388725Y-110515735D01*
X154321525Y-110582945D01*
X154285155Y-110670745D01*
X154285155Y-110765785D01*
X137483503Y-110765785D01*
X137483520Y-110670745D01*
X137483646Y-109945815D01*
X149284535Y-109945815D01*
X149320905Y-110033625D01*
X149388105Y-110100825D01*
X149475915Y-110137195D01*
X149570955Y-110137195D01*
X149658755Y-110100825D01*
X149725965Y-110033625D01*
X149762335Y-109945815D01*
X149934535Y-109945815D01*
X149970905Y-110033625D01*
X150038105Y-110100825D01*
X150125915Y-110137195D01*
X150220955Y-110137195D01*
X150308755Y-110100825D01*
X150375965Y-110033625D01*
X150412335Y-109945815D01*
X151234525Y-109945815D01*
X151270895Y-110033625D01*
X151338105Y-110100825D01*
X151425905Y-110137195D01*
X151520945Y-110137195D01*
X151608755Y-110100825D01*
X151675955Y-110033625D01*
X151712325Y-109945815D01*
X151884525Y-109945815D01*
X151920895Y-110033625D01*
X151988105Y-110100825D01*
X152075905Y-110137195D01*
X152170945Y-110137195D01*
X152258755Y-110100825D01*
X152325955Y-110033625D01*
X152362325Y-109945815D01*
X152534525Y-109945815D01*
X152570895Y-110033625D01*
X152638105Y-110100825D01*
X152725905Y-110137195D01*
X152820945Y-110137195D01*
X152908755Y-110100825D01*
X152975955Y-110033625D01*
X152994999Y-109987645D01*
X155734835Y-109987645D01*
X155771205Y-110075455D01*
X155782915Y-110087165D01*
X155824605Y-110170125D01*
X155782915Y-110253095D01*
X155771205Y-110264805D01*
X155734835Y-110352605D01*
X155734835Y-110447655D01*
X155771205Y-110535455D01*
X155782915Y-110547165D01*
X155824605Y-110630125D01*
X155782915Y-110713095D01*
X155771205Y-110724805D01*
X155734835Y-110812605D01*
X155734835Y-110907655D01*
X155771205Y-110995455D01*
X155838405Y-111062655D01*
X155926215Y-111099025D01*
X156021255Y-111099025D01*
X156109065Y-111062655D01*
X156176265Y-110995455D01*
X156212635Y-110907655D01*
X156212635Y-110812605D01*
X156176265Y-110724805D01*
X156164555Y-110713095D01*
X156122865Y-110630125D01*
X156164555Y-110547165D01*
X156176265Y-110535455D01*
X156212635Y-110447655D01*
X156212635Y-110352605D01*
X156176265Y-110264805D01*
X156164555Y-110253095D01*
X156122865Y-110170125D01*
X156164555Y-110087165D01*
X156176265Y-110075455D01*
X156212635Y-109987645D01*
X156212635Y-109892605D01*
X156176265Y-109804805D01*
X156109065Y-109737595D01*
X156021255Y-109701225D01*
X155926215Y-109701225D01*
X155838405Y-109737595D01*
X155771205Y-109804805D01*
X155734835Y-109892605D01*
X155734835Y-109987645D01*
X152994999Y-109987645D01*
X153012325Y-109945815D01*
X153012325Y-109892605D01*
X153012325Y-109850775D01*
X152975955Y-109762965D01*
X152908755Y-109695765D01*
X152820945Y-109659395D01*
X152725905Y-109659395D01*
X152638105Y-109695765D01*
X152570895Y-109762965D01*
X152534525Y-109850775D01*
X152534525Y-109945815D01*
X152362325Y-109945815D01*
X152362325Y-109850775D01*
X152325955Y-109762965D01*
X152258755Y-109695765D01*
X152170945Y-109659395D01*
X152075905Y-109659395D01*
X151988105Y-109695765D01*
X151920895Y-109762965D01*
X151884525Y-109850775D01*
X151884525Y-109945815D01*
X151712325Y-109945815D01*
X151712325Y-109850775D01*
X151675955Y-109762965D01*
X151608755Y-109695765D01*
X151520945Y-109659395D01*
X151425905Y-109659395D01*
X151338105Y-109695765D01*
X151270895Y-109762965D01*
X151234525Y-109850775D01*
X151234525Y-109945815D01*
X150412335Y-109945815D01*
X150412335Y-109850775D01*
X150375965Y-109762965D01*
X150308755Y-109695765D01*
X150220955Y-109659395D01*
X150125915Y-109659395D01*
X150038105Y-109695765D01*
X149970905Y-109762965D01*
X149934535Y-109850775D01*
X149934535Y-109945815D01*
X149762335Y-109945815D01*
X149762335Y-109850775D01*
X149725965Y-109762965D01*
X149658755Y-109695765D01*
X149570955Y-109659395D01*
X149475915Y-109659395D01*
X149388105Y-109695765D01*
X149320905Y-109762965D01*
X149284535Y-109850775D01*
X149284535Y-109945815D01*
X137483646Y-109945815D01*
X137483663Y-109850775D01*
X137483759Y-109295815D01*
X147984535Y-109295815D01*
X148020905Y-109383625D01*
X148088105Y-109450825D01*
X148175915Y-109487195D01*
X148270955Y-109487195D01*
X148358765Y-109450825D01*
X148425965Y-109383625D01*
X148462335Y-109295815D01*
X149284535Y-109295815D01*
X149320905Y-109383625D01*
X149388105Y-109450825D01*
X149475915Y-109487195D01*
X149570955Y-109487195D01*
X149658755Y-109450825D01*
X149725965Y-109383625D01*
X149762335Y-109295815D01*
X149934535Y-109295815D01*
X149970905Y-109383625D01*
X150038105Y-109450825D01*
X150125915Y-109487195D01*
X150220955Y-109487195D01*
X150308755Y-109450825D01*
X150375965Y-109383625D01*
X150412335Y-109295815D01*
X151234525Y-109295815D01*
X151270895Y-109383625D01*
X151338105Y-109450825D01*
X151425905Y-109487195D01*
X151520945Y-109487195D01*
X151608755Y-109450825D01*
X151675955Y-109383625D01*
X151712325Y-109295815D01*
X151884525Y-109295815D01*
X151920895Y-109383625D01*
X151988105Y-109450825D01*
X152075905Y-109487195D01*
X152170945Y-109487195D01*
X152258755Y-109450825D01*
X152325955Y-109383625D01*
X152362325Y-109295815D01*
X152534525Y-109295815D01*
X152570895Y-109383625D01*
X152638105Y-109450825D01*
X152725905Y-109487195D01*
X152820945Y-109487195D01*
X152908755Y-109450825D01*
X152975955Y-109383625D01*
X153012325Y-109295815D01*
X153834525Y-109295815D01*
X153870895Y-109383625D01*
X153938095Y-109450825D01*
X154025905Y-109487195D01*
X154120945Y-109487195D01*
X154208745Y-109450825D01*
X154275955Y-109383625D01*
X154312325Y-109295815D01*
X154312325Y-109200775D01*
X154275955Y-109112975D01*
X154208745Y-109045765D01*
X154120945Y-109009395D01*
X154025905Y-109009395D01*
X153938095Y-109045765D01*
X153870895Y-109112975D01*
X153834525Y-109200775D01*
X153834525Y-109295815D01*
X153012325Y-109295815D01*
X153012325Y-109200775D01*
X152975955Y-109112975D01*
X152908755Y-109045765D01*
X152820945Y-109009395D01*
X152725905Y-109009395D01*
X152638105Y-109045765D01*
X152570895Y-109112975D01*
X152534525Y-109200775D01*
X152534525Y-109295815D01*
X152362325Y-109295815D01*
X152362325Y-109200775D01*
X152325955Y-109112975D01*
X152258755Y-109045765D01*
X152170945Y-109009395D01*
X152075905Y-109009395D01*
X151988105Y-109045765D01*
X151920895Y-109112975D01*
X151884525Y-109200775D01*
X151884525Y-109295815D01*
X151712325Y-109295815D01*
X151712325Y-109200775D01*
X151675955Y-109112975D01*
X151608755Y-109045765D01*
X151520945Y-109009395D01*
X151425905Y-109009395D01*
X151338105Y-109045765D01*
X151270895Y-109112975D01*
X151234525Y-109200775D01*
X151234525Y-109295815D01*
X150412335Y-109295815D01*
X150412335Y-109200775D01*
X150375965Y-109112975D01*
X150308755Y-109045765D01*
X150220955Y-109009395D01*
X150125915Y-109009395D01*
X150038105Y-109045765D01*
X149970905Y-109112975D01*
X149934535Y-109200775D01*
X149934535Y-109295815D01*
X149762335Y-109295815D01*
X149762335Y-109200775D01*
X149725965Y-109112975D01*
X149658755Y-109045765D01*
X149570955Y-109009395D01*
X149475915Y-109009395D01*
X149388105Y-109045765D01*
X149320905Y-109112975D01*
X149284535Y-109200775D01*
X149284535Y-109295815D01*
X148462335Y-109295815D01*
X148462335Y-109200775D01*
X148425965Y-109112975D01*
X148358765Y-109045765D01*
X148270955Y-109009395D01*
X148175915Y-109009395D01*
X148088105Y-109045765D01*
X148020905Y-109112975D01*
X147984535Y-109200775D01*
X147984535Y-109295815D01*
X137483759Y-109295815D01*
X137483776Y-109200775D01*
X137483873Y-108645815D01*
X147984535Y-108645815D01*
X148020905Y-108733625D01*
X148088105Y-108800825D01*
X148175915Y-108837195D01*
X148270955Y-108837195D01*
X148358765Y-108800825D01*
X148425965Y-108733625D01*
X148462335Y-108645815D01*
X149284535Y-108645815D01*
X149320905Y-108733625D01*
X149388105Y-108800825D01*
X149475915Y-108837195D01*
X149570955Y-108837195D01*
X149658755Y-108800825D01*
X149725965Y-108733625D01*
X149762335Y-108645815D01*
X149934535Y-108645815D01*
X149970905Y-108733625D01*
X150038105Y-108800825D01*
X150125915Y-108837195D01*
X150220955Y-108837195D01*
X150308755Y-108800825D01*
X150375965Y-108733625D01*
X150412335Y-108645815D01*
X151234525Y-108645815D01*
X151270895Y-108733625D01*
X151338105Y-108800825D01*
X151425905Y-108837195D01*
X151520945Y-108837195D01*
X151608755Y-108800825D01*
X151675955Y-108733625D01*
X151712325Y-108645815D01*
X151884525Y-108645815D01*
X151920895Y-108733625D01*
X151988105Y-108800825D01*
X152075905Y-108837195D01*
X152170945Y-108837195D01*
X152258755Y-108800825D01*
X152325955Y-108733625D01*
X152362325Y-108645815D01*
X152534525Y-108645815D01*
X152570895Y-108733625D01*
X152638105Y-108800825D01*
X152725905Y-108837195D01*
X152820945Y-108837195D01*
X152908755Y-108800825D01*
X152975955Y-108733625D01*
X153012325Y-108645815D01*
X153834525Y-108645815D01*
X153870895Y-108733625D01*
X153938095Y-108800825D01*
X154025905Y-108837195D01*
X154120945Y-108837195D01*
X154208745Y-108800825D01*
X154275955Y-108733625D01*
X154312325Y-108645815D01*
X154312325Y-108550775D01*
X154275955Y-108462975D01*
X154208745Y-108395765D01*
X154120945Y-108359395D01*
X154025905Y-108359395D01*
X153938095Y-108395765D01*
X153870895Y-108462975D01*
X153834525Y-108550775D01*
X153834525Y-108645815D01*
X153012325Y-108645815D01*
X153012325Y-108550775D01*
X152975955Y-108462975D01*
X152908755Y-108395765D01*
X152820945Y-108359395D01*
X152725905Y-108359395D01*
X152638105Y-108395765D01*
X152570895Y-108462975D01*
X152534525Y-108550775D01*
X152534525Y-108645815D01*
X152362325Y-108645815D01*
X152362325Y-108550775D01*
X152325955Y-108462975D01*
X152258755Y-108395765D01*
X152170945Y-108359395D01*
X152075905Y-108359395D01*
X151988105Y-108395765D01*
X151920895Y-108462975D01*
X151884525Y-108550775D01*
X151884525Y-108645815D01*
X151712325Y-108645815D01*
X151712325Y-108550775D01*
X151675955Y-108462975D01*
X151608755Y-108395765D01*
X151520945Y-108359395D01*
X151425905Y-108359395D01*
X151338105Y-108395765D01*
X151270895Y-108462975D01*
X151234525Y-108550775D01*
X151234525Y-108645815D01*
X150412335Y-108645815D01*
X150412335Y-108550775D01*
X150375965Y-108462975D01*
X150308755Y-108395765D01*
X150220955Y-108359395D01*
X150125915Y-108359395D01*
X150038105Y-108395765D01*
X149970905Y-108462975D01*
X149934535Y-108550775D01*
X149934535Y-108645815D01*
X149762335Y-108645815D01*
X149762335Y-108550775D01*
X149725965Y-108462975D01*
X149658755Y-108395765D01*
X149570955Y-108359395D01*
X149475915Y-108359395D01*
X149388105Y-108395765D01*
X149320905Y-108462975D01*
X149284535Y-108550775D01*
X149284535Y-108645815D01*
X148462335Y-108645815D01*
X148462335Y-108550775D01*
X148425965Y-108462975D01*
X148358765Y-108395765D01*
X148270955Y-108359395D01*
X148175915Y-108359395D01*
X148088105Y-108395765D01*
X148020905Y-108462975D01*
X147984535Y-108550775D01*
X147984535Y-108645815D01*
X137483873Y-108645815D01*
X137483890Y-108550775D01*
X137483986Y-107995815D01*
X147984535Y-107995815D01*
X148020905Y-108083625D01*
X148088105Y-108150825D01*
X148175915Y-108187195D01*
X148270955Y-108187195D01*
X148358765Y-108150825D01*
X148425965Y-108083625D01*
X148462335Y-107995815D01*
X149284535Y-107995815D01*
X149320905Y-108083625D01*
X149388105Y-108150825D01*
X149475915Y-108187195D01*
X149570955Y-108187195D01*
X149658755Y-108150825D01*
X149725965Y-108083625D01*
X149762335Y-107995815D01*
X149934535Y-107995815D01*
X149970905Y-108083625D01*
X150038105Y-108150825D01*
X150125915Y-108187195D01*
X150220955Y-108187195D01*
X150308755Y-108150825D01*
X150375965Y-108083625D01*
X150412335Y-107995815D01*
X151234525Y-107995815D01*
X151270895Y-108083625D01*
X151338105Y-108150825D01*
X151425905Y-108187195D01*
X151520945Y-108187195D01*
X151608755Y-108150825D01*
X151675955Y-108083625D01*
X151712325Y-107995815D01*
X151884525Y-107995815D01*
X151920895Y-108083625D01*
X151988105Y-108150825D01*
X152075905Y-108187195D01*
X152170945Y-108187195D01*
X152258755Y-108150825D01*
X152325955Y-108083625D01*
X152362325Y-107995815D01*
X152534525Y-107995815D01*
X152570895Y-108083625D01*
X152638105Y-108150825D01*
X152725905Y-108187195D01*
X152820945Y-108187195D01*
X152908755Y-108150825D01*
X152975955Y-108083625D01*
X153012325Y-107995815D01*
X153834525Y-107995815D01*
X153870895Y-108083625D01*
X153938095Y-108150825D01*
X154025905Y-108187195D01*
X154120945Y-108187195D01*
X154208745Y-108150825D01*
X154211915Y-108147655D01*
X155734835Y-108147655D01*
X155771205Y-108235455D01*
X155838405Y-108302655D01*
X155926215Y-108339025D01*
X156021255Y-108339025D01*
X156109065Y-108302655D01*
X156176265Y-108235455D01*
X156212635Y-108147655D01*
X156212635Y-108052605D01*
X156176265Y-107964805D01*
X156109065Y-107897605D01*
X156021255Y-107861235D01*
X155926215Y-107861235D01*
X155838405Y-107897605D01*
X155771205Y-107964805D01*
X155734835Y-108052605D01*
X155734835Y-108147655D01*
X154211915Y-108147655D01*
X154275955Y-108083625D01*
X154288803Y-108052605D01*
X154312325Y-107995815D01*
X154312325Y-107900775D01*
X154275955Y-107812975D01*
X154208745Y-107745765D01*
X154120945Y-107709395D01*
X154025905Y-107709395D01*
X153938095Y-107745765D01*
X153870895Y-107812975D01*
X153834525Y-107900775D01*
X153834525Y-107995815D01*
X153012325Y-107995815D01*
X153012325Y-107900775D01*
X152975955Y-107812975D01*
X152908755Y-107745765D01*
X152820945Y-107709395D01*
X152725905Y-107709395D01*
X152638105Y-107745765D01*
X152570895Y-107812975D01*
X152534525Y-107900775D01*
X152534525Y-107995815D01*
X152362325Y-107995815D01*
X152362325Y-107900775D01*
X152325955Y-107812975D01*
X152258755Y-107745765D01*
X152170945Y-107709395D01*
X152075905Y-107709395D01*
X151988105Y-107745765D01*
X151920895Y-107812975D01*
X151884525Y-107900775D01*
X151884525Y-107995815D01*
X151712325Y-107995815D01*
X151712325Y-107900775D01*
X151675955Y-107812975D01*
X151608755Y-107745765D01*
X151520945Y-107709395D01*
X151425905Y-107709395D01*
X151338105Y-107745765D01*
X151270895Y-107812975D01*
X151234525Y-107900775D01*
X151234525Y-107995815D01*
X150412335Y-107995815D01*
X150412335Y-107900775D01*
X150375965Y-107812975D01*
X150308755Y-107745765D01*
X150220955Y-107709395D01*
X150125915Y-107709395D01*
X150038105Y-107745765D01*
X149970905Y-107812975D01*
X149934535Y-107900775D01*
X149934535Y-107995815D01*
X149762335Y-107995815D01*
X149762335Y-107900775D01*
X149725965Y-107812975D01*
X149658755Y-107745765D01*
X149570955Y-107709395D01*
X149475915Y-107709395D01*
X149388105Y-107745765D01*
X149320905Y-107812975D01*
X149284535Y-107900775D01*
X149284535Y-107995815D01*
X148462335Y-107995815D01*
X148462335Y-107900775D01*
X148425965Y-107812975D01*
X148358765Y-107745765D01*
X148270955Y-107709395D01*
X148175915Y-107709395D01*
X148088105Y-107745765D01*
X148020905Y-107812975D01*
X147984535Y-107900775D01*
X147984535Y-107995815D01*
X137483986Y-107995815D01*
X137484003Y-107900775D01*
X137484099Y-107345825D01*
X147984535Y-107345825D01*
X148020905Y-107433625D01*
X148088105Y-107500825D01*
X148175915Y-107537195D01*
X148270955Y-107537195D01*
X148358765Y-107500825D01*
X148425965Y-107433625D01*
X148462335Y-107345825D01*
X149284535Y-107345825D01*
X149320905Y-107433625D01*
X149388105Y-107500825D01*
X149475915Y-107537195D01*
X149570955Y-107537195D01*
X149658755Y-107500825D01*
X149725965Y-107433625D01*
X149762335Y-107345825D01*
X149934535Y-107345825D01*
X149970905Y-107433625D01*
X150038105Y-107500825D01*
X150125915Y-107537195D01*
X150220955Y-107537195D01*
X150308755Y-107500825D01*
X150375965Y-107433625D01*
X150412335Y-107345825D01*
X150584535Y-107345825D01*
X150620905Y-107433625D01*
X150688105Y-107500825D01*
X150775905Y-107537195D01*
X150870955Y-107537195D01*
X150958755Y-107500825D01*
X151025955Y-107433625D01*
X151062325Y-107345825D01*
X153184525Y-107345825D01*
X153220895Y-107433625D01*
X153288095Y-107500825D01*
X153375905Y-107537195D01*
X153470945Y-107537195D01*
X153558755Y-107500825D01*
X153625955Y-107433625D01*
X153662325Y-107345825D01*
X153834525Y-107345825D01*
X153870895Y-107433625D01*
X153938095Y-107500825D01*
X154025905Y-107537195D01*
X154120945Y-107537195D01*
X154208745Y-107500825D01*
X154275955Y-107433625D01*
X154312325Y-107345825D01*
X154312325Y-107250775D01*
X154275955Y-107162975D01*
X154208745Y-107095775D01*
X154120945Y-107059405D01*
X154025905Y-107059405D01*
X153938095Y-107095775D01*
X153870895Y-107162975D01*
X153834525Y-107250775D01*
X153834525Y-107345825D01*
X153662325Y-107345825D01*
X153662325Y-107250775D01*
X153625955Y-107162975D01*
X153558755Y-107095775D01*
X153470945Y-107059405D01*
X153375905Y-107059405D01*
X153288095Y-107095775D01*
X153220895Y-107162975D01*
X153184525Y-107250775D01*
X153184525Y-107345825D01*
X151062325Y-107345825D01*
X151062325Y-107250775D01*
X151025955Y-107162975D01*
X150958755Y-107095775D01*
X150870955Y-107059405D01*
X150775905Y-107059405D01*
X150688105Y-107095775D01*
X150620905Y-107162975D01*
X150584535Y-107250775D01*
X150584535Y-107345825D01*
X150412335Y-107345825D01*
X150412335Y-107250775D01*
X150375965Y-107162975D01*
X150308755Y-107095775D01*
X150220955Y-107059405D01*
X150125915Y-107059405D01*
X150038105Y-107095775D01*
X149970905Y-107162975D01*
X149934535Y-107250775D01*
X149934535Y-107345825D01*
X149762335Y-107345825D01*
X149762335Y-107250775D01*
X149725965Y-107162975D01*
X149658755Y-107095775D01*
X149570955Y-107059405D01*
X149475915Y-107059405D01*
X149388105Y-107095775D01*
X149320905Y-107162975D01*
X149284535Y-107250775D01*
X149284535Y-107345825D01*
X148462335Y-107345825D01*
X148462335Y-107250775D01*
X148425965Y-107162975D01*
X148358765Y-107095775D01*
X148270955Y-107059405D01*
X148175915Y-107059405D01*
X148088105Y-107095775D01*
X148020905Y-107162975D01*
X147984535Y-107250775D01*
X147984535Y-107345825D01*
X137484099Y-107345825D01*
X137484116Y-107250775D01*
X137484212Y-106695825D01*
X147984535Y-106695825D01*
X148020905Y-106783625D01*
X148088105Y-106850835D01*
X148175915Y-106887205D01*
X148270955Y-106887205D01*
X148358765Y-106850835D01*
X148425965Y-106783625D01*
X148462335Y-106695825D01*
X149284535Y-106695825D01*
X149320905Y-106783625D01*
X149388105Y-106850835D01*
X149475915Y-106887205D01*
X149570955Y-106887205D01*
X149658755Y-106850835D01*
X149725965Y-106783625D01*
X149762335Y-106695825D01*
X149934535Y-106695825D01*
X149970905Y-106783625D01*
X150038105Y-106850835D01*
X150125915Y-106887205D01*
X150220955Y-106887205D01*
X150308755Y-106850835D01*
X150375965Y-106783625D01*
X150412335Y-106695825D01*
X150584535Y-106695825D01*
X150620905Y-106783625D01*
X150688105Y-106850835D01*
X150775905Y-106887205D01*
X150870955Y-106887205D01*
X150958755Y-106850835D01*
X151025955Y-106783625D01*
X151062325Y-106695825D01*
X151062325Y-106695815D01*
X151884525Y-106695815D01*
X151920895Y-106783615D01*
X151988105Y-106850825D01*
X152075905Y-106887195D01*
X152170945Y-106887195D01*
X152258755Y-106850825D01*
X152325955Y-106783615D01*
X152362325Y-106695815D01*
X152534525Y-106695815D01*
X152570895Y-106783615D01*
X152638105Y-106850825D01*
X152725905Y-106887195D01*
X152820945Y-106887195D01*
X152908755Y-106850825D01*
X152975955Y-106783615D01*
X153012321Y-106695825D01*
X153834525Y-106695825D01*
X153870895Y-106783625D01*
X153938095Y-106850835D01*
X154025905Y-106887205D01*
X154120945Y-106887205D01*
X154208745Y-106850835D01*
X154275955Y-106783625D01*
X154312325Y-106695825D01*
X154312325Y-106600785D01*
X154275955Y-106512975D01*
X154208745Y-106445775D01*
X154120945Y-106409405D01*
X154025905Y-106409405D01*
X153938095Y-106445775D01*
X153870895Y-106512975D01*
X153834525Y-106600785D01*
X153834525Y-106695825D01*
X153012321Y-106695825D01*
X153012325Y-106695815D01*
X153012325Y-106600785D01*
X153012325Y-106600775D01*
X152975955Y-106512965D01*
X152908755Y-106445765D01*
X152820945Y-106409395D01*
X152725905Y-106409395D01*
X152638105Y-106445765D01*
X152570895Y-106512965D01*
X152534525Y-106600775D01*
X152534525Y-106695815D01*
X152362325Y-106695815D01*
X152362325Y-106600775D01*
X152325955Y-106512965D01*
X152258755Y-106445765D01*
X152170945Y-106409395D01*
X152075905Y-106409395D01*
X151988105Y-106445765D01*
X151920895Y-106512965D01*
X151884525Y-106600775D01*
X151884525Y-106695815D01*
X151062325Y-106695815D01*
X151062325Y-106600785D01*
X151062321Y-106600775D01*
X151025955Y-106512975D01*
X150958755Y-106445775D01*
X150870955Y-106409405D01*
X150775905Y-106409405D01*
X150688105Y-106445775D01*
X150620905Y-106512975D01*
X150584535Y-106600785D01*
X150584535Y-106695825D01*
X150412335Y-106695825D01*
X150412335Y-106600785D01*
X150375965Y-106512975D01*
X150308755Y-106445775D01*
X150220955Y-106409405D01*
X150125915Y-106409405D01*
X150038105Y-106445775D01*
X149970905Y-106512975D01*
X149934535Y-106600785D01*
X149934535Y-106695825D01*
X149762335Y-106695825D01*
X149762335Y-106600785D01*
X149725965Y-106512975D01*
X149658755Y-106445775D01*
X149570955Y-106409405D01*
X149475915Y-106409405D01*
X149388105Y-106445775D01*
X149320905Y-106512975D01*
X149284535Y-106600785D01*
X149284535Y-106695825D01*
X148462335Y-106695825D01*
X148462335Y-106600785D01*
X148425965Y-106512975D01*
X148358765Y-106445775D01*
X148270955Y-106409405D01*
X148175915Y-106409405D01*
X148088105Y-106445775D01*
X148020905Y-106512975D01*
X147984535Y-106600785D01*
X147984535Y-106695825D01*
X137484212Y-106695825D01*
X137484229Y-106600785D01*
X137484325Y-106045825D01*
X147984535Y-106045825D01*
X148020905Y-106133625D01*
X148088105Y-106200835D01*
X148175915Y-106237205D01*
X148270955Y-106237205D01*
X148358765Y-106200835D01*
X148425965Y-106133625D01*
X148462335Y-106045825D01*
X149284535Y-106045825D01*
X149320905Y-106133625D01*
X149388105Y-106200835D01*
X149475915Y-106237205D01*
X149570955Y-106237205D01*
X149658755Y-106200835D01*
X149725965Y-106133625D01*
X149762335Y-106045825D01*
X149934535Y-106045825D01*
X149970905Y-106133625D01*
X150038105Y-106200835D01*
X150125915Y-106237205D01*
X150220955Y-106237205D01*
X150308755Y-106200835D01*
X150375965Y-106133625D01*
X150412335Y-106045825D01*
X150584535Y-106045825D01*
X150620905Y-106133625D01*
X150688105Y-106200835D01*
X150775905Y-106237205D01*
X150870955Y-106237205D01*
X150958755Y-106200835D01*
X151025955Y-106133625D01*
X151062325Y-106045825D01*
X151062325Y-106045815D01*
X151884525Y-106045815D01*
X151920895Y-106133615D01*
X151988105Y-106200825D01*
X152075905Y-106237195D01*
X152170945Y-106237195D01*
X152258755Y-106200825D01*
X152325955Y-106133615D01*
X152362325Y-106045815D01*
X152534525Y-106045815D01*
X152570895Y-106133615D01*
X152638105Y-106200825D01*
X152725905Y-106237195D01*
X152820945Y-106237195D01*
X152908755Y-106200825D01*
X152975955Y-106133615D01*
X153012321Y-106045825D01*
X153834525Y-106045825D01*
X153870895Y-106133625D01*
X153938095Y-106200835D01*
X154025905Y-106237205D01*
X154120945Y-106237205D01*
X154208745Y-106200835D01*
X154275955Y-106133625D01*
X154312325Y-106045825D01*
X154312325Y-105950785D01*
X154275955Y-105862975D01*
X154208745Y-105795775D01*
X154120945Y-105759405D01*
X154025905Y-105759405D01*
X153938095Y-105795775D01*
X153870895Y-105862975D01*
X153834525Y-105950785D01*
X153834525Y-106045825D01*
X153012321Y-106045825D01*
X153012325Y-106045815D01*
X153012325Y-105950785D01*
X153012325Y-105950775D01*
X152975955Y-105862965D01*
X152908755Y-105795765D01*
X152820945Y-105759395D01*
X152725905Y-105759395D01*
X152638105Y-105795765D01*
X152570895Y-105862965D01*
X152534525Y-105950775D01*
X152534525Y-106045815D01*
X152362325Y-106045815D01*
X152362325Y-105950775D01*
X152325955Y-105862965D01*
X152258755Y-105795765D01*
X152170945Y-105759395D01*
X152075905Y-105759395D01*
X151988105Y-105795765D01*
X151920895Y-105862965D01*
X151884525Y-105950775D01*
X151884525Y-106045815D01*
X151062325Y-106045815D01*
X151062325Y-105950785D01*
X151062321Y-105950775D01*
X151025955Y-105862975D01*
X150958755Y-105795775D01*
X150870955Y-105759405D01*
X150775905Y-105759405D01*
X150688105Y-105795775D01*
X150620905Y-105862975D01*
X150584535Y-105950785D01*
X150584535Y-106045825D01*
X150412335Y-106045825D01*
X150412335Y-105950785D01*
X150375965Y-105862975D01*
X150308755Y-105795775D01*
X150220955Y-105759405D01*
X150125915Y-105759405D01*
X150038105Y-105795775D01*
X149970905Y-105862975D01*
X149934535Y-105950785D01*
X149934535Y-106045825D01*
X149762335Y-106045825D01*
X149762335Y-105950785D01*
X149725965Y-105862975D01*
X149658755Y-105795775D01*
X149570955Y-105759405D01*
X149475915Y-105759405D01*
X149388105Y-105795775D01*
X149320905Y-105862975D01*
X149284535Y-105950785D01*
X149284535Y-106045825D01*
X148462335Y-106045825D01*
X148462335Y-105950785D01*
X148425965Y-105862975D01*
X148358765Y-105795775D01*
X148270955Y-105759405D01*
X148175915Y-105759405D01*
X148088105Y-105795775D01*
X148020905Y-105862975D01*
X147984535Y-105950785D01*
X147984535Y-106045825D01*
X137484325Y-106045825D01*
X137484342Y-105950785D01*
X137484458Y-105283735D01*
X138607475Y-105283735D01*
X138643845Y-105371545D01*
X138695195Y-105422895D01*
X138648755Y-105469345D01*
X138612385Y-105557145D01*
X138612385Y-105652185D01*
X138648755Y-105739995D01*
X138715955Y-105807195D01*
X138803765Y-105843565D01*
X138898805Y-105843565D01*
X138986615Y-105807195D01*
X139012675Y-105781135D01*
X139042215Y-105810675D01*
X139130025Y-105847045D01*
X139225065Y-105847045D01*
X139312875Y-105810675D01*
X139339755Y-105783785D01*
X139361975Y-105806005D01*
X139449785Y-105842375D01*
X139544825Y-105842375D01*
X139632625Y-105806005D01*
X139699835Y-105738805D01*
X139729515Y-105667155D01*
X139785915Y-105652395D01*
X139861745Y-105654525D01*
X139872785Y-105681175D01*
X139939985Y-105748385D01*
X140027795Y-105784755D01*
X140122835Y-105784755D01*
X140210645Y-105748385D01*
X140239365Y-105719655D01*
X140253085Y-105733375D01*
X140340885Y-105769745D01*
X140435925Y-105769745D01*
X140523735Y-105733375D01*
X140528125Y-105728985D01*
X140563975Y-105764835D01*
X140651775Y-105801205D01*
X140746825Y-105801205D01*
X140834625Y-105764835D01*
X140901825Y-105697635D01*
X140938195Y-105609825D01*
X140938195Y-105514785D01*
X140901825Y-105426985D01*
X140870675Y-105395825D01*
X147984535Y-105395825D01*
X148020905Y-105483635D01*
X148088105Y-105550835D01*
X148175915Y-105587205D01*
X148270955Y-105587205D01*
X148358765Y-105550835D01*
X148425965Y-105483635D01*
X148462335Y-105395825D01*
X149284535Y-105395825D01*
X149320905Y-105483635D01*
X149388105Y-105550835D01*
X149475915Y-105587205D01*
X149570955Y-105587205D01*
X149658755Y-105550835D01*
X149725965Y-105483635D01*
X149762335Y-105395825D01*
X149934535Y-105395825D01*
X149970905Y-105483635D01*
X150038105Y-105550835D01*
X150125915Y-105587205D01*
X150220955Y-105587205D01*
X150308755Y-105550835D01*
X150375965Y-105483635D01*
X150412335Y-105395825D01*
X150584535Y-105395825D01*
X150620905Y-105483635D01*
X150688105Y-105550835D01*
X150775905Y-105587205D01*
X150870955Y-105587205D01*
X150958755Y-105550835D01*
X151025955Y-105483635D01*
X151062325Y-105395825D01*
X153834525Y-105395825D01*
X153870895Y-105483635D01*
X153938095Y-105550835D01*
X154025905Y-105587205D01*
X154120945Y-105587205D01*
X154208745Y-105550835D01*
X154275955Y-105483635D01*
X154312325Y-105395825D01*
X154312325Y-105300785D01*
X154275955Y-105212975D01*
X154208745Y-105145775D01*
X154120945Y-105109405D01*
X154025905Y-105109405D01*
X153938095Y-105145775D01*
X153870895Y-105212975D01*
X153834525Y-105300785D01*
X153834525Y-105395825D01*
X151062325Y-105395825D01*
X151062325Y-105300785D01*
X151025955Y-105212975D01*
X150958755Y-105145775D01*
X150870955Y-105109405D01*
X150775905Y-105109405D01*
X150688105Y-105145775D01*
X150620905Y-105212975D01*
X150584535Y-105300785D01*
X150584535Y-105395825D01*
X150412335Y-105395825D01*
X150412335Y-105300785D01*
X150375965Y-105212975D01*
X150308755Y-105145775D01*
X150220955Y-105109405D01*
X150125915Y-105109405D01*
X150038105Y-105145775D01*
X149970905Y-105212975D01*
X149934535Y-105300785D01*
X149934535Y-105395825D01*
X149762335Y-105395825D01*
X149762335Y-105300785D01*
X149725965Y-105212975D01*
X149658755Y-105145775D01*
X149570955Y-105109405D01*
X149475915Y-105109405D01*
X149388105Y-105145775D01*
X149320905Y-105212975D01*
X149284535Y-105300785D01*
X149284535Y-105395825D01*
X148462335Y-105395825D01*
X148462335Y-105300785D01*
X148425965Y-105212975D01*
X148358765Y-105145775D01*
X148270955Y-105109405D01*
X148175915Y-105109405D01*
X148088105Y-105145775D01*
X148020905Y-105212975D01*
X147984535Y-105300785D01*
X147984535Y-105395825D01*
X140870675Y-105395825D01*
X140869195Y-105394345D01*
X140901885Y-105361655D01*
X140927100Y-105300785D01*
X140938255Y-105273855D01*
X140938255Y-105178805D01*
X140901885Y-105091005D01*
X140834675Y-105023805D01*
X140746875Y-104987435D01*
X140651835Y-104987435D01*
X140564025Y-105023805D01*
X140548165Y-105039655D01*
X140528025Y-105019505D01*
X140440215Y-104983135D01*
X140345175Y-104983135D01*
X140257365Y-105019505D01*
X140238295Y-105038585D01*
X140210645Y-105010935D01*
X140122835Y-104974565D01*
X140027795Y-104974565D01*
X139939985Y-105010935D01*
X139872785Y-105078135D01*
X139850245Y-105132555D01*
X139727325Y-105146825D01*
X139718015Y-105145185D01*
X139702845Y-105108585D01*
X139635645Y-105041375D01*
X139547835Y-105005005D01*
X139452795Y-105005005D01*
X139364995Y-105041375D01*
X139348665Y-105057705D01*
X139315215Y-105024245D01*
X139227405Y-104987875D01*
X139132365Y-104987875D01*
X139044555Y-105024245D01*
X139008405Y-105060395D01*
X138981695Y-105033685D01*
X138893895Y-104997315D01*
X138798845Y-104997315D01*
X138711045Y-105033685D01*
X138643845Y-105100895D01*
X138607475Y-105188695D01*
X138607475Y-105283735D01*
X137484458Y-105283735D01*
X137484475Y-105188695D01*
X137484580Y-104583885D01*
X141415225Y-104583885D01*
X141451595Y-104671695D01*
X141518795Y-104738895D01*
X141606605Y-104775265D01*
X141701645Y-104775265D01*
X141772715Y-104745825D01*
X147984535Y-104745825D01*
X148020905Y-104833635D01*
X148088105Y-104900835D01*
X148175915Y-104937205D01*
X148270955Y-104937205D01*
X148358765Y-104900835D01*
X148425965Y-104833635D01*
X148462335Y-104745825D01*
X151884525Y-104745825D01*
X151920895Y-104833635D01*
X151988105Y-104900835D01*
X152075905Y-104937205D01*
X152170945Y-104937205D01*
X152258755Y-104900835D01*
X152325955Y-104833635D01*
X152362325Y-104745825D01*
X152534525Y-104745825D01*
X152570895Y-104833635D01*
X152638105Y-104900835D01*
X152725905Y-104937205D01*
X152820945Y-104937205D01*
X152908755Y-104900835D01*
X152975955Y-104833635D01*
X153012325Y-104745825D01*
X153834525Y-104745825D01*
X153870895Y-104833635D01*
X153938095Y-104900835D01*
X154025905Y-104937205D01*
X154120945Y-104937205D01*
X154208745Y-104900835D01*
X154275955Y-104833635D01*
X154312325Y-104745825D01*
X154312325Y-104650785D01*
X154287180Y-104590075D01*
X157549715Y-104590075D01*
X157586085Y-104677885D01*
X157598825Y-104817285D01*
X157562455Y-104905085D01*
X157562455Y-105000125D01*
X157598825Y-105087925D01*
X157594515Y-105219775D01*
X157558145Y-105307585D01*
X157558145Y-105402625D01*
X157594515Y-105490425D01*
X157661715Y-105557635D01*
X157749525Y-105594005D01*
X157844565Y-105594005D01*
X157932365Y-105557635D01*
X157954875Y-105535125D01*
X158052525Y-105513845D01*
X158114625Y-105541315D01*
X158148165Y-105574855D01*
X158235975Y-105611225D01*
X158331015Y-105611225D01*
X158418815Y-105574855D01*
X158486025Y-105507655D01*
X158522395Y-105419845D01*
X158522395Y-105324805D01*
X158486025Y-105236995D01*
X158420965Y-105168045D01*
X158488035Y-105100975D01*
X158488165Y-105100845D01*
X158496265Y-105081305D01*
X158524535Y-105013035D01*
X158524535Y-104917995D01*
X158488165Y-104830195D01*
X158420965Y-104762995D01*
X158445355Y-104721785D01*
X158464495Y-104702655D01*
X158500865Y-104614845D01*
X158500865Y-104519805D01*
X158464495Y-104432005D01*
X158458935Y-104426445D01*
X158408545Y-104345765D01*
X158458935Y-104260505D01*
X158462345Y-104257105D01*
X158498715Y-104169295D01*
X158498715Y-104074255D01*
X158462345Y-103986445D01*
X158395135Y-103919245D01*
X158307335Y-103882875D01*
X158212295Y-103882875D01*
X158124485Y-103919245D01*
X158110785Y-103932945D01*
X158030485Y-103973695D01*
X157944855Y-103932945D01*
X157933505Y-103921595D01*
X157845705Y-103885225D01*
X157750665Y-103885225D01*
X157662855Y-103921595D01*
X157595655Y-103988805D01*
X157559285Y-104076605D01*
X157559285Y-104171645D01*
X157595655Y-104259455D01*
X157651925Y-104338125D01*
X157586085Y-104407235D01*
X157549715Y-104495035D01*
X157549715Y-104590075D01*
X154287180Y-104590075D01*
X154275955Y-104562975D01*
X154208745Y-104495775D01*
X154206959Y-104495035D01*
X154120945Y-104459405D01*
X154025905Y-104459405D01*
X153938095Y-104495775D01*
X153870895Y-104562975D01*
X153834525Y-104650785D01*
X153834525Y-104745825D01*
X153012325Y-104745825D01*
X153012325Y-104650785D01*
X152975955Y-104562975D01*
X152908755Y-104495775D01*
X152820945Y-104459405D01*
X152725905Y-104459405D01*
X152638105Y-104495775D01*
X152570895Y-104562975D01*
X152534525Y-104650785D01*
X152534525Y-104745825D01*
X152362325Y-104745825D01*
X152362325Y-104650785D01*
X152325955Y-104562975D01*
X152258755Y-104495775D01*
X152170945Y-104459405D01*
X152075905Y-104459405D01*
X151988105Y-104495775D01*
X151920895Y-104562975D01*
X151884525Y-104650785D01*
X151884525Y-104745825D01*
X148462335Y-104745825D01*
X148462335Y-104650785D01*
X148425965Y-104562975D01*
X148358765Y-104495775D01*
X148270955Y-104459405D01*
X148175915Y-104459405D01*
X148088105Y-104495775D01*
X148020905Y-104562975D01*
X147984535Y-104650785D01*
X147984535Y-104745825D01*
X141772715Y-104745825D01*
X141789445Y-104738895D01*
X141856655Y-104671695D01*
X141865316Y-104650785D01*
X141893025Y-104583885D01*
X141893025Y-104488845D01*
X141856655Y-104401035D01*
X141789445Y-104333835D01*
X141701645Y-104297465D01*
X141606605Y-104297465D01*
X141518795Y-104333835D01*
X141451595Y-104401035D01*
X141415225Y-104488845D01*
X141415225Y-104583885D01*
X137484580Y-104583885D01*
X137484597Y-104488845D01*
X137484637Y-104258385D01*
X145180005Y-104258385D01*
X145216375Y-104346195D01*
X145283575Y-104413395D01*
X145371385Y-104449765D01*
X145466425Y-104449765D01*
X145510941Y-104431325D01*
X145807935Y-104431325D01*
X145844305Y-104519125D01*
X145911505Y-104586335D01*
X145999305Y-104622705D01*
X146094355Y-104622705D01*
X146182155Y-104586335D01*
X146249355Y-104519125D01*
X146285735Y-104431325D01*
X146285735Y-104336285D01*
X146249355Y-104248475D01*
X146182155Y-104181275D01*
X146094355Y-104144905D01*
X145999305Y-104144905D01*
X145911505Y-104181275D01*
X145844305Y-104248475D01*
X145807935Y-104336285D01*
X145807935Y-104431325D01*
X145510941Y-104431325D01*
X145554225Y-104413395D01*
X145621435Y-104346195D01*
X145625540Y-104336285D01*
X145657805Y-104258385D01*
X145657805Y-104163345D01*
X145629836Y-104095825D01*
X147984535Y-104095825D01*
X148020905Y-104183635D01*
X148088105Y-104250835D01*
X148175915Y-104287205D01*
X148270955Y-104287205D01*
X148358765Y-104250835D01*
X148425965Y-104183635D01*
X148462335Y-104095825D01*
X149934535Y-104095825D01*
X149970905Y-104183635D01*
X150038105Y-104250835D01*
X150125915Y-104287205D01*
X150220955Y-104287205D01*
X150308755Y-104250835D01*
X150375965Y-104183635D01*
X150412335Y-104095825D01*
X150412335Y-104095815D01*
X150584535Y-104095815D01*
X150620905Y-104183625D01*
X150688105Y-104250825D01*
X150775915Y-104287195D01*
X150870955Y-104287195D01*
X150958765Y-104250825D01*
X151025965Y-104183625D01*
X151062331Y-104095825D01*
X151884525Y-104095825D01*
X151920895Y-104183635D01*
X151988105Y-104250835D01*
X152075905Y-104287205D01*
X152170945Y-104287205D01*
X152258755Y-104250835D01*
X152325955Y-104183635D01*
X152362325Y-104095825D01*
X152534525Y-104095825D01*
X152570895Y-104183635D01*
X152638105Y-104250835D01*
X152725905Y-104287205D01*
X152820945Y-104287205D01*
X152908755Y-104250835D01*
X152975955Y-104183635D01*
X153012325Y-104095825D01*
X153834525Y-104095825D01*
X153870895Y-104183635D01*
X153938095Y-104250835D01*
X154025905Y-104287205D01*
X154120945Y-104287205D01*
X154208745Y-104250835D01*
X154275955Y-104183635D01*
X154312325Y-104095825D01*
X154312325Y-104049695D01*
X155739555Y-104049695D01*
X155775925Y-104137505D01*
X155843135Y-104204705D01*
X155930935Y-104241075D01*
X156025975Y-104241075D01*
X156113785Y-104204705D01*
X156180985Y-104137505D01*
X156217355Y-104049695D01*
X156217355Y-103954655D01*
X156180985Y-103866855D01*
X156169395Y-103855255D01*
X156129645Y-103768175D01*
X156169395Y-103689325D01*
X156178189Y-103680525D01*
X158747885Y-103680525D01*
X158784255Y-103768335D01*
X158851455Y-103835535D01*
X158939265Y-103871905D01*
X159034305Y-103871905D01*
X159122115Y-103835535D01*
X159189315Y-103768335D01*
X159225685Y-103680525D01*
X159225685Y-103585485D01*
X159189315Y-103497685D01*
X159122115Y-103430475D01*
X159034305Y-103394105D01*
X158939265Y-103394105D01*
X158851455Y-103430475D01*
X158784255Y-103497685D01*
X158747885Y-103585485D01*
X158747885Y-103680525D01*
X156178189Y-103680525D01*
X156184595Y-103674115D01*
X156220965Y-103586315D01*
X156220965Y-103585485D01*
X156220965Y-103491275D01*
X156184595Y-103403465D01*
X156172925Y-103391795D01*
X156132075Y-103307065D01*
X156172925Y-103225855D01*
X156186145Y-103212625D01*
X156222515Y-103124825D01*
X156222515Y-103029785D01*
X156186145Y-102941975D01*
X156173885Y-102929705D01*
X156137565Y-102837735D01*
X156174455Y-102764345D01*
X156194435Y-102744365D01*
X156230805Y-102656555D01*
X156230805Y-102635345D01*
X156295715Y-102543535D01*
X156348135Y-102529015D01*
X156401025Y-102529015D01*
X156488825Y-102492645D01*
X156556025Y-102425445D01*
X156592395Y-102337635D01*
X156592395Y-102242595D01*
X156556025Y-102154795D01*
X156488825Y-102087585D01*
X156401025Y-102051215D01*
X156305975Y-102051215D01*
X156218175Y-102087585D01*
X156150975Y-102154795D01*
X156114605Y-102242595D01*
X156114605Y-102263815D01*
X156049685Y-102355615D01*
X155997265Y-102370135D01*
X155944385Y-102370135D01*
X155856575Y-102406505D01*
X155789375Y-102473715D01*
X155753005Y-102561515D01*
X155753005Y-102656555D01*
X155789375Y-102744365D01*
X155801645Y-102756635D01*
X155837955Y-102848605D01*
X155801065Y-102921995D01*
X155781085Y-102941975D01*
X155744715Y-103029785D01*
X155744715Y-103124825D01*
X155781085Y-103212625D01*
X155792765Y-103224305D01*
X155833605Y-103309025D01*
X155792765Y-103390235D01*
X155779535Y-103403465D01*
X155743165Y-103491275D01*
X155743165Y-103586315D01*
X155779535Y-103674115D01*
X155791135Y-103685715D01*
X155830875Y-103772795D01*
X155791135Y-103851645D01*
X155775925Y-103866855D01*
X155739555Y-103954655D01*
X155739555Y-104049695D01*
X154312325Y-104049695D01*
X154312325Y-104000785D01*
X154293216Y-103954655D01*
X154275955Y-103912985D01*
X154208745Y-103845775D01*
X154120945Y-103809405D01*
X154025905Y-103809405D01*
X153938095Y-103845775D01*
X153870895Y-103912985D01*
X153834525Y-104000785D01*
X153834525Y-104095825D01*
X153012325Y-104095825D01*
X153012325Y-104000785D01*
X152975955Y-103912985D01*
X152908755Y-103845775D01*
X152820945Y-103809405D01*
X152725905Y-103809405D01*
X152638105Y-103845775D01*
X152570895Y-103912985D01*
X152534525Y-104000785D01*
X152534525Y-104095825D01*
X152362325Y-104095825D01*
X152362325Y-104000785D01*
X152325955Y-103912985D01*
X152258755Y-103845775D01*
X152170945Y-103809405D01*
X152075905Y-103809405D01*
X151988105Y-103845775D01*
X151920895Y-103912985D01*
X151884525Y-104000785D01*
X151884525Y-104095825D01*
X151062331Y-104095825D01*
X151062335Y-104095815D01*
X151062335Y-104000785D01*
X151062335Y-104000775D01*
X151025965Y-103912965D01*
X150958765Y-103845765D01*
X150870955Y-103809395D01*
X150775915Y-103809395D01*
X150688105Y-103845765D01*
X150620905Y-103912965D01*
X150584535Y-104000775D01*
X150584535Y-104095815D01*
X150412335Y-104095815D01*
X150412335Y-104000785D01*
X150412331Y-104000775D01*
X150375965Y-103912985D01*
X150308755Y-103845775D01*
X150220955Y-103809405D01*
X150125915Y-103809405D01*
X150038105Y-103845775D01*
X149970905Y-103912985D01*
X149934535Y-104000785D01*
X149934535Y-104095825D01*
X148462335Y-104095825D01*
X148462335Y-104000785D01*
X148425965Y-103912985D01*
X148358765Y-103845775D01*
X148270955Y-103809405D01*
X148175915Y-103809405D01*
X148088105Y-103845775D01*
X148020905Y-103912985D01*
X147984535Y-104000785D01*
X147984535Y-104095825D01*
X145629836Y-104095825D01*
X145621435Y-104075545D01*
X145554225Y-104008335D01*
X145535999Y-104000785D01*
X145466425Y-103971965D01*
X145371385Y-103971965D01*
X145283575Y-104008335D01*
X145216375Y-104075545D01*
X145180005Y-104163345D01*
X145180005Y-104258385D01*
X137484637Y-104258385D01*
X137484654Y-104163345D01*
X137484757Y-103570035D01*
X137820015Y-103570035D01*
X137856385Y-103657835D01*
X137923585Y-103725045D01*
X138011395Y-103761415D01*
X138106435Y-103761415D01*
X138194245Y-103725045D01*
X138261445Y-103657835D01*
X138297815Y-103570035D01*
X138297815Y-103474995D01*
X138261445Y-103387185D01*
X138194735Y-103320475D01*
X147209195Y-103320475D01*
X147245565Y-103408275D01*
X147312765Y-103475485D01*
X147400565Y-103511855D01*
X147495615Y-103511855D01*
X147583415Y-103475485D01*
X147623679Y-103435215D01*
X149306375Y-103435215D01*
X149342745Y-103523015D01*
X149409945Y-103590225D01*
X149497755Y-103626595D01*
X149592795Y-103626595D01*
X149680605Y-103590225D01*
X149747805Y-103523015D01*
X149784175Y-103435215D01*
X149784175Y-103386215D01*
X150030135Y-103386215D01*
X150066505Y-103474025D01*
X150133705Y-103541225D01*
X150221515Y-103577595D01*
X150316555Y-103577595D01*
X150404365Y-103541225D01*
X150471565Y-103474025D01*
X150507935Y-103386215D01*
X150507935Y-103291175D01*
X150471565Y-103203365D01*
X150404365Y-103136165D01*
X150316555Y-103099795D01*
X150221515Y-103099795D01*
X150133705Y-103136165D01*
X150066505Y-103203365D01*
X150030135Y-103291175D01*
X150030135Y-103386215D01*
X149784175Y-103386215D01*
X149784175Y-103340175D01*
X149763880Y-103291175D01*
X149747805Y-103252365D01*
X149680605Y-103185165D01*
X149592795Y-103148795D01*
X149497755Y-103148795D01*
X149409945Y-103185165D01*
X149342745Y-103252365D01*
X149306375Y-103340175D01*
X149306375Y-103435215D01*
X147623679Y-103435215D01*
X147650615Y-103408275D01*
X147678825Y-103340175D01*
X147686985Y-103320475D01*
X147686985Y-103225435D01*
X147650615Y-103137625D01*
X147583415Y-103070425D01*
X147495615Y-103034055D01*
X147400565Y-103034055D01*
X147312765Y-103070425D01*
X147245565Y-103137625D01*
X147209195Y-103225435D01*
X147209195Y-103320475D01*
X138194735Y-103320475D01*
X138194245Y-103319985D01*
X138106435Y-103283615D01*
X138011395Y-103283615D01*
X137923585Y-103319985D01*
X137856385Y-103387185D01*
X137820015Y-103474995D01*
X137820015Y-103570035D01*
X137484757Y-103570035D01*
X137484774Y-103474995D01*
X137484818Y-103225435D01*
X137485011Y-102116915D01*
X151673435Y-102116915D01*
X151709805Y-102204725D01*
X151777005Y-102271925D01*
X151864815Y-102308295D01*
X151959855Y-102308295D01*
X152047655Y-102271925D01*
X152059365Y-102260215D01*
X152142335Y-102218525D01*
X152225305Y-102260215D01*
X152237005Y-102271925D01*
X152324815Y-102308295D01*
X152419855Y-102308295D01*
X152507655Y-102271925D01*
X152519365Y-102260215D01*
X152602335Y-102218525D01*
X152685295Y-102260215D01*
X152697005Y-102271925D01*
X152784815Y-102308295D01*
X152879855Y-102308295D01*
X152967655Y-102271925D01*
X152979365Y-102260215D01*
X153062335Y-102218525D01*
X153145295Y-102260215D01*
X153157005Y-102271925D01*
X153244815Y-102308295D01*
X153339855Y-102308295D01*
X153427655Y-102271925D01*
X153439365Y-102260215D01*
X153522335Y-102218525D01*
X153605305Y-102260215D01*
X153617005Y-102271925D01*
X153704815Y-102308295D01*
X153799855Y-102308295D01*
X153887655Y-102271925D01*
X153899365Y-102260215D01*
X153982335Y-102218525D01*
X154065305Y-102260215D01*
X154077005Y-102271925D01*
X154164815Y-102308295D01*
X154259855Y-102308295D01*
X154347655Y-102271925D01*
X154415495Y-102205345D01*
X154483345Y-102271925D01*
X154571145Y-102308295D01*
X154666185Y-102308295D01*
X154753995Y-102271925D01*
X154821195Y-102204725D01*
X154857565Y-102116915D01*
X154857565Y-102021875D01*
X154821195Y-101934065D01*
X154753995Y-101866865D01*
X154666185Y-101830495D01*
X154571145Y-101830495D01*
X154483335Y-101866865D01*
X154415495Y-101933445D01*
X154347655Y-101866865D01*
X154259855Y-101830495D01*
X154164815Y-101830495D01*
X154077005Y-101866865D01*
X154065305Y-101878575D01*
X153982335Y-101920265D01*
X153899365Y-101878575D01*
X153887655Y-101866865D01*
X153799855Y-101830495D01*
X153704815Y-101830495D01*
X153617005Y-101866865D01*
X153605305Y-101878575D01*
X153522335Y-101920265D01*
X153439365Y-101878575D01*
X153427655Y-101866865D01*
X153339855Y-101830495D01*
X153244815Y-101830495D01*
X153157005Y-101866865D01*
X153145295Y-101878575D01*
X153062335Y-101920265D01*
X152979365Y-101878575D01*
X152967655Y-101866865D01*
X152879855Y-101830495D01*
X152784815Y-101830495D01*
X152697005Y-101866865D01*
X152685295Y-101878575D01*
X152602335Y-101920265D01*
X152519365Y-101878575D01*
X152507655Y-101866865D01*
X152419855Y-101830495D01*
X152324815Y-101830495D01*
X152237005Y-101866865D01*
X152225305Y-101878575D01*
X152142335Y-101920265D01*
X152059365Y-101878575D01*
X152047655Y-101866865D01*
X151959855Y-101830495D01*
X151864815Y-101830495D01*
X151777005Y-101866865D01*
X151709805Y-101934065D01*
X151673435Y-102021875D01*
X151673435Y-102116915D01*
X137485011Y-102116915D01*
X137485028Y-102021875D01*
X137485223Y-100898815D01*
X147041675Y-100898815D01*
X147078055Y-100986625D01*
X147145255Y-101053825D01*
X147233055Y-101090195D01*
X147328105Y-101090195D01*
X147415905Y-101053825D01*
X147475025Y-100994705D01*
X147534155Y-101053825D01*
X147621955Y-101090195D01*
X147716995Y-101090195D01*
X147804805Y-101053825D01*
X147853805Y-101004825D01*
X149916545Y-101004825D01*
X149952915Y-101092635D01*
X150020115Y-101159835D01*
X150107925Y-101196205D01*
X150191535Y-101196205D01*
X150191535Y-101279815D01*
X150227905Y-101367625D01*
X150295115Y-101434825D01*
X150382915Y-101471195D01*
X150477955Y-101471195D01*
X150565765Y-101434825D01*
X150632965Y-101367625D01*
X150669335Y-101279815D01*
X150669335Y-101184775D01*
X150632965Y-101096975D01*
X150565765Y-101029765D01*
X150477955Y-100993395D01*
X150394345Y-100993395D01*
X150394345Y-100909785D01*
X150357975Y-100821975D01*
X150310288Y-100774295D01*
X154260295Y-100774295D01*
X154296665Y-100862105D01*
X154363865Y-100929305D01*
X154451675Y-100965675D01*
X154546715Y-100965675D01*
X154634515Y-100929305D01*
X154701725Y-100862105D01*
X154738095Y-100774295D01*
X154738095Y-100679255D01*
X154715718Y-100625235D01*
X158686065Y-100625235D01*
X158722435Y-100713045D01*
X158789635Y-100780245D01*
X158877445Y-100816615D01*
X158972485Y-100816615D01*
X159060295Y-100780245D01*
X159127495Y-100713045D01*
X159163865Y-100625235D01*
X159163865Y-100530195D01*
X159127495Y-100442385D01*
X159060295Y-100375185D01*
X158972485Y-100338815D01*
X158877445Y-100338815D01*
X158789635Y-100375185D01*
X158722435Y-100442385D01*
X158686065Y-100530195D01*
X158686065Y-100625235D01*
X154715718Y-100625235D01*
X154701725Y-100591455D01*
X154640465Y-100530195D01*
X154634515Y-100524245D01*
X154546715Y-100487875D01*
X154451675Y-100487875D01*
X154363865Y-100524245D01*
X154296665Y-100591455D01*
X154260295Y-100679255D01*
X154260295Y-100774295D01*
X150310288Y-100774295D01*
X150290765Y-100754775D01*
X150202965Y-100718405D01*
X150107925Y-100718405D01*
X150020115Y-100754775D01*
X149952915Y-100821975D01*
X149916545Y-100909785D01*
X149916545Y-101004825D01*
X147853805Y-101004825D01*
X147872005Y-100986625D01*
X147903831Y-100909785D01*
X147908375Y-100898815D01*
X147908375Y-100803775D01*
X147872005Y-100715975D01*
X147835290Y-100679255D01*
X147804805Y-100648765D01*
X147716995Y-100612395D01*
X147621955Y-100612395D01*
X147534155Y-100648765D01*
X147475025Y-100707895D01*
X147415905Y-100648765D01*
X147328105Y-100612395D01*
X147233055Y-100612395D01*
X147145255Y-100648765D01*
X147078055Y-100715975D01*
X147041675Y-100803775D01*
X147041675Y-100898815D01*
X137485223Y-100898815D01*
X137485240Y-100803775D01*
X137485476Y-99449285D01*
X137485581Y-98843035D01*
X139372145Y-98843035D01*
X139408525Y-98930835D01*
X139475725Y-98998045D01*
X139563525Y-99034415D01*
X139658575Y-99034415D01*
X139746375Y-98998045D01*
X139755385Y-98989035D01*
X139853895Y-98953565D01*
X139919705Y-98990655D01*
X139942215Y-99013165D01*
X140030025Y-99049535D01*
X140125065Y-99049535D01*
X140212865Y-99013165D01*
X140280075Y-98945955D01*
X140316445Y-98858155D01*
X140316445Y-98763115D01*
X140280075Y-98675305D01*
X140212865Y-98608105D01*
X140125065Y-98571735D01*
X140030025Y-98571735D01*
X139942215Y-98608105D01*
X139933205Y-98617115D01*
X139834695Y-98652585D01*
X139768885Y-98615495D01*
X139746375Y-98592985D01*
X139658575Y-98556615D01*
X139563525Y-98556615D01*
X139475725Y-98592985D01*
X139408525Y-98660185D01*
X139372145Y-98747995D01*
X139372145Y-98843035D01*
X137485581Y-98843035D01*
X137485598Y-98747995D01*
X137485643Y-98488735D01*
X144509605Y-98488735D01*
X144509605Y-99449285D01*
X145779605Y-99449285D01*
X145779605Y-99443025D01*
X145779605Y-98488735D01*
X144509605Y-98488735D01*
X137485643Y-98488735D01*
X137485644Y-98482475D01*
X149059085Y-98482475D01*
X149059085Y-99443025D01*
X150329085Y-99443025D01*
X150329085Y-98883685D01*
X156728235Y-98883685D01*
X156764605Y-98971485D01*
X156831815Y-99038695D01*
X156919615Y-99075065D01*
X157014655Y-99075065D01*
X157102465Y-99038695D01*
X157169665Y-98971485D01*
X157206035Y-98883685D01*
X157206035Y-98788645D01*
X157169665Y-98700835D01*
X157102465Y-98633635D01*
X157014655Y-98597265D01*
X156919615Y-98597265D01*
X156831815Y-98633635D01*
X156764605Y-98700835D01*
X156728235Y-98788645D01*
X156728235Y-98883685D01*
X150329085Y-98883685D01*
X150329085Y-98788645D01*
X150329085Y-98482475D01*
X149059085Y-98482475D01*
X137485644Y-98482475D01*
X137485746Y-97899725D01*
X138676955Y-97899725D01*
X138713325Y-97987535D01*
X138780525Y-98054735D01*
X138868335Y-98091105D01*
X138963375Y-98091105D01*
X139051175Y-98054735D01*
X139118385Y-97987535D01*
X139154755Y-97899725D01*
X140829345Y-97899725D01*
X140865715Y-97987535D01*
X140932925Y-98054735D01*
X141020725Y-98091105D01*
X141115765Y-98091105D01*
X141203575Y-98054735D01*
X141270775Y-97987535D01*
X141307145Y-97899725D01*
X141307145Y-97804685D01*
X141270775Y-97716885D01*
X141203575Y-97649675D01*
X141115765Y-97613305D01*
X141020725Y-97613305D01*
X140932925Y-97649675D01*
X140865715Y-97716885D01*
X140829345Y-97804685D01*
X140829345Y-97899725D01*
X139154755Y-97899725D01*
X139154755Y-97804685D01*
X139118385Y-97716885D01*
X139051175Y-97649675D01*
X138963375Y-97613305D01*
X138868335Y-97613305D01*
X138780525Y-97649675D01*
X138713325Y-97716885D01*
X138676955Y-97804685D01*
X138676955Y-97899725D01*
X137485746Y-97899725D01*
X137485763Y-97804685D01*
X137485969Y-96622555D01*
X156389895Y-96622555D01*
X156426265Y-96710365D01*
X156491955Y-96776055D01*
X156433975Y-96834025D01*
X156397605Y-96921835D01*
X156397605Y-97016875D01*
X156433975Y-97104685D01*
X156494845Y-97179675D01*
X156433975Y-97254675D01*
X156397605Y-97342485D01*
X156397605Y-97437525D01*
X156433975Y-97525335D01*
X156501175Y-97592535D01*
X156588985Y-97628905D01*
X156684025Y-97628905D01*
X156771835Y-97592535D01*
X156839035Y-97525335D01*
X156875405Y-97437525D01*
X156875405Y-97342485D01*
X156839035Y-97254675D01*
X156778165Y-97179675D01*
X156839035Y-97104675D01*
X156875405Y-97016875D01*
X156875405Y-96921835D01*
X156839035Y-96834025D01*
X156773345Y-96768335D01*
X156831315Y-96710365D01*
X156867695Y-96622555D01*
X156867695Y-96527515D01*
X156831315Y-96439705D01*
X156764115Y-96372505D01*
X156676315Y-96336135D01*
X156581265Y-96336135D01*
X156493465Y-96372505D01*
X156426265Y-96439705D01*
X156389895Y-96527515D01*
X156389895Y-96622555D01*
X137485969Y-96622555D01*
X137486004Y-96422165D01*
X137790285Y-96422165D01*
X137826655Y-96509965D01*
X137893855Y-96577175D01*
X137981665Y-96613545D01*
X138076705Y-96613545D01*
X138164515Y-96577175D01*
X138231715Y-96509965D01*
X138268085Y-96422165D01*
X138268085Y-96389705D01*
X142848305Y-96389705D01*
X142884675Y-96477515D01*
X142951875Y-96544715D01*
X143039685Y-96581085D01*
X143134725Y-96581085D01*
X143222535Y-96544715D01*
X143239735Y-96527515D01*
X143289735Y-96477515D01*
X143326105Y-96389705D01*
X143326105Y-96294665D01*
X143302353Y-96237325D01*
X149047265Y-96237325D01*
X149083635Y-96325125D01*
X149150845Y-96392335D01*
X149238645Y-96428705D01*
X149333685Y-96428705D01*
X149421495Y-96392335D01*
X149488695Y-96325125D01*
X149525065Y-96237325D01*
X149525065Y-96142275D01*
X149488695Y-96054475D01*
X149421495Y-95987275D01*
X149333685Y-95950905D01*
X149238645Y-95950905D01*
X149150845Y-95987275D01*
X149083635Y-96054475D01*
X149047265Y-96142275D01*
X149047265Y-96237325D01*
X143302353Y-96237325D01*
X143289735Y-96206865D01*
X143225155Y-96142275D01*
X143222535Y-96139655D01*
X143134725Y-96103285D01*
X143039685Y-96103285D01*
X142951875Y-96139655D01*
X142884675Y-96206865D01*
X142848305Y-96294665D01*
X142848305Y-96389705D01*
X138268085Y-96389705D01*
X138268085Y-96327125D01*
X138254640Y-96294665D01*
X138231715Y-96239315D01*
X138164515Y-96172115D01*
X138076705Y-96135745D01*
X137981665Y-96135745D01*
X137893855Y-96172115D01*
X137826655Y-96239315D01*
X137790285Y-96327125D01*
X137790285Y-96422165D01*
X137486004Y-96422165D01*
X137486021Y-96327125D01*
X137486353Y-94423895D01*
X137797345Y-94423895D01*
X137833725Y-94511695D01*
X137900925Y-94578905D01*
X137900925Y-94707455D01*
X137833725Y-94774655D01*
X137797345Y-94862455D01*
X137797345Y-94957495D01*
X137833725Y-95045305D01*
X137900925Y-95112505D01*
X137988725Y-95148875D01*
X138083775Y-95148875D01*
X138171575Y-95112505D01*
X138238775Y-95045305D01*
X138275145Y-94957495D01*
X138275145Y-94862455D01*
X138238775Y-94774655D01*
X138171575Y-94707455D01*
X138171575Y-94578905D01*
X138238775Y-94511695D01*
X138275145Y-94423895D01*
X138275145Y-94348675D01*
X138350365Y-94348675D01*
X138438175Y-94312305D01*
X138479445Y-94271035D01*
X141378745Y-94271035D01*
X141415125Y-94358835D01*
X141482325Y-94426045D01*
X141570125Y-94462415D01*
X141665175Y-94462415D01*
X141672815Y-94459245D01*
X141770025Y-94556445D01*
X141758945Y-94583185D01*
X141758945Y-94589625D01*
X141735865Y-94683885D01*
X141641615Y-94706965D01*
X141635175Y-94706965D01*
X141547365Y-94743335D01*
X141480165Y-94810535D01*
X141443795Y-94898345D01*
X141443795Y-94993385D01*
X141480165Y-95081185D01*
X141547365Y-95148395D01*
X141635175Y-95184765D01*
X141730215Y-95184765D01*
X141818025Y-95148395D01*
X141885225Y-95081185D01*
X141921595Y-94993385D01*
X141921595Y-94986945D01*
X141944675Y-94892695D01*
X141951168Y-94891105D01*
X146117795Y-94891105D01*
X146154165Y-94978915D01*
X146221375Y-95046115D01*
X146309175Y-95082485D01*
X146404215Y-95082485D01*
X146492025Y-95046115D01*
X146551145Y-94986995D01*
X146610275Y-95046115D01*
X146698075Y-95082485D01*
X146793115Y-95082485D01*
X146880925Y-95046115D01*
X146948125Y-94978915D01*
X146974720Y-94914705D01*
X147487505Y-94914705D01*
X147523875Y-95002515D01*
X147591075Y-95069715D01*
X147678885Y-95106085D01*
X147773925Y-95106085D01*
X147861735Y-95069715D01*
X147928935Y-95002515D01*
X147941195Y-94972905D01*
X148078665Y-94972905D01*
X148091675Y-95004315D01*
X148158875Y-95071515D01*
X148246685Y-95107885D01*
X148341725Y-95107885D01*
X148409905Y-95079645D01*
X148428425Y-95092925D01*
X148486435Y-95150925D01*
X148499705Y-95169455D01*
X148471465Y-95237625D01*
X148471465Y-95332665D01*
X148507835Y-95420475D01*
X148575035Y-95487675D01*
X148662845Y-95524045D01*
X148757885Y-95524045D01*
X148845695Y-95487675D01*
X148912895Y-95420475D01*
X148949265Y-95332665D01*
X148949265Y-95237625D01*
X148912895Y-95149825D01*
X148845695Y-95082615D01*
X148757885Y-95046245D01*
X148662845Y-95046245D01*
X148594665Y-95074485D01*
X148576145Y-95061215D01*
X148518135Y-95003205D01*
X148504865Y-94984685D01*
X148533105Y-94916505D01*
X148533105Y-94889305D01*
X149062305Y-94889305D01*
X149098675Y-94977115D01*
X149165875Y-95044315D01*
X149253685Y-95080685D01*
X149348725Y-95080685D01*
X149436535Y-95044315D01*
X149503735Y-94977115D01*
X149539359Y-94891105D01*
X150117795Y-94891105D01*
X150154165Y-94978915D01*
X150221365Y-95046115D01*
X150309165Y-95082485D01*
X150404215Y-95082485D01*
X150492015Y-95046115D01*
X150551135Y-94986995D01*
X150610265Y-95046115D01*
X150698065Y-95082485D01*
X150793115Y-95082485D01*
X150880915Y-95046115D01*
X150948115Y-94978915D01*
X150984485Y-94891105D01*
X150984485Y-94796065D01*
X150948115Y-94708265D01*
X150880915Y-94641055D01*
X150793115Y-94604685D01*
X150698065Y-94604685D01*
X150610265Y-94641055D01*
X150551135Y-94700185D01*
X150492015Y-94641055D01*
X150404215Y-94604685D01*
X150309165Y-94604685D01*
X150221365Y-94641055D01*
X150154165Y-94708265D01*
X150117795Y-94796065D01*
X150117795Y-94891105D01*
X149539359Y-94891105D01*
X149540105Y-94889305D01*
X149540105Y-94796065D01*
X149540105Y-94794265D01*
X149503735Y-94706455D01*
X149436535Y-94639255D01*
X149348725Y-94602885D01*
X149253685Y-94602885D01*
X149165875Y-94639255D01*
X149098675Y-94706455D01*
X149062305Y-94794265D01*
X149062305Y-94889305D01*
X148533105Y-94889305D01*
X148533105Y-94821465D01*
X148521838Y-94794265D01*
X148496735Y-94733665D01*
X148429535Y-94666455D01*
X148341725Y-94630085D01*
X148246685Y-94630085D01*
X148158875Y-94666455D01*
X148091675Y-94733665D01*
X148079415Y-94763265D01*
X147941945Y-94763265D01*
X147928935Y-94731855D01*
X147861735Y-94664655D01*
X147773925Y-94628285D01*
X147678885Y-94628285D01*
X147591075Y-94664655D01*
X147523875Y-94731855D01*
X147487505Y-94819665D01*
X147487505Y-94914705D01*
X146974720Y-94914705D01*
X146984495Y-94891105D01*
X146984495Y-94819665D01*
X146984495Y-94796065D01*
X146948125Y-94708265D01*
X146880925Y-94641055D01*
X146793115Y-94604685D01*
X146698075Y-94604685D01*
X146610275Y-94641055D01*
X146551145Y-94700185D01*
X146492025Y-94641055D01*
X146404215Y-94604685D01*
X146309175Y-94604685D01*
X146221375Y-94641055D01*
X146154165Y-94708265D01*
X146117795Y-94796065D01*
X146117795Y-94891105D01*
X141951168Y-94891105D01*
X142038925Y-94869615D01*
X142045365Y-94869615D01*
X142133175Y-94833235D01*
X142170345Y-94796065D01*
X142200375Y-94766035D01*
X142236745Y-94678235D01*
X142236745Y-94592085D01*
X142298975Y-94566305D01*
X142366175Y-94499105D01*
X142402545Y-94411295D01*
X142402545Y-94316255D01*
X142366175Y-94228455D01*
X142298975Y-94161245D01*
X142211165Y-94124875D01*
X142116125Y-94124875D01*
X142028315Y-94161245D01*
X141983555Y-94206015D01*
X141872165Y-94179685D01*
X141853935Y-94169695D01*
X141820175Y-94088185D01*
X141752975Y-94020985D01*
X141665175Y-93984615D01*
X141570125Y-93984615D01*
X141482325Y-94020985D01*
X141415125Y-94088185D01*
X141378745Y-94175995D01*
X141378745Y-94271035D01*
X138479445Y-94271035D01*
X138505375Y-94245105D01*
X138534000Y-94175995D01*
X138541745Y-94157295D01*
X138541745Y-94062255D01*
X138505375Y-93974455D01*
X138438175Y-93907245D01*
X138350365Y-93870875D01*
X138255325Y-93870875D01*
X138167515Y-93907245D01*
X138100315Y-93974455D01*
X138063945Y-94062255D01*
X138063945Y-94137475D01*
X137988725Y-94137475D01*
X137900925Y-94173845D01*
X137833725Y-94241045D01*
X137797345Y-94328855D01*
X137797345Y-94423895D01*
X137486353Y-94423895D01*
X137486370Y-94328855D01*
X137486471Y-93746305D01*
X147055705Y-93746305D01*
X147092075Y-93834115D01*
X147159275Y-93901315D01*
X147247085Y-93937685D01*
X147342125Y-93937685D01*
X147429935Y-93901315D01*
X147497135Y-93834115D01*
X147528083Y-93759395D01*
X149553415Y-93759395D01*
X149589785Y-93847195D01*
X149656985Y-93914405D01*
X149744795Y-93950775D01*
X149839835Y-93950775D01*
X149927645Y-93914405D01*
X149994845Y-93847195D01*
X150031215Y-93759395D01*
X150031215Y-93664345D01*
X149994845Y-93576545D01*
X149927645Y-93509345D01*
X149839835Y-93472975D01*
X149744795Y-93472975D01*
X149656985Y-93509345D01*
X149589785Y-93576545D01*
X149553415Y-93664345D01*
X149553415Y-93759395D01*
X147528083Y-93759395D01*
X147533505Y-93746305D01*
X147533505Y-93664345D01*
X147533505Y-93651265D01*
X147497135Y-93563455D01*
X147429935Y-93496255D01*
X147342125Y-93459885D01*
X147247085Y-93459885D01*
X147159275Y-93496255D01*
X147092075Y-93563455D01*
X147055705Y-93651265D01*
X147055705Y-93746305D01*
X137486471Y-93746305D01*
X137486488Y-93651265D01*
X137486776Y-91995505D01*
X150722305Y-91995505D01*
X150758675Y-92083315D01*
X150825875Y-92150515D01*
X150913685Y-92186885D01*
X151008725Y-92186885D01*
X151096535Y-92150515D01*
X151145515Y-92101535D01*
X151209835Y-92165865D01*
X151297645Y-92202235D01*
X151392685Y-92202235D01*
X151480485Y-92165865D01*
X151547695Y-92098665D01*
X151584065Y-92010855D01*
X151584065Y-91915815D01*
X151547695Y-91828005D01*
X151480485Y-91760805D01*
X151392685Y-91724435D01*
X151297645Y-91724435D01*
X151209835Y-91760805D01*
X151160855Y-91809785D01*
X151096535Y-91745455D01*
X151008725Y-91709085D01*
X150913685Y-91709085D01*
X150825875Y-91745455D01*
X150758675Y-91812665D01*
X150722305Y-91900465D01*
X150722305Y-91995505D01*
X137486776Y-91995505D01*
X137486793Y-91900465D01*
X137486859Y-91522615D01*
X152246305Y-91522615D01*
X152282675Y-91610425D01*
X152349875Y-91677625D01*
X152437685Y-91713995D01*
X152532725Y-91713995D01*
X152620535Y-91677625D01*
X152687735Y-91610425D01*
X152724105Y-91522615D01*
X152724105Y-91427575D01*
X152687735Y-91339775D01*
X152620535Y-91272565D01*
X152532725Y-91236195D01*
X152437685Y-91236195D01*
X152349875Y-91272565D01*
X152282675Y-91339775D01*
X152246305Y-91427575D01*
X152246305Y-91522615D01*
X137486859Y-91522615D01*
X137486876Y-91427575D01*
X137487299Y-88999615D01*
X154040305Y-88999615D01*
X154076675Y-89087425D01*
X154143885Y-89154625D01*
X154231685Y-89190995D01*
X154326725Y-89190995D01*
X154414535Y-89154625D01*
X154481735Y-89087425D01*
X154518105Y-88999615D01*
X154518105Y-88904575D01*
X154481735Y-88816765D01*
X154414535Y-88749565D01*
X154326725Y-88713195D01*
X154231685Y-88713195D01*
X154143885Y-88749565D01*
X154076675Y-88816765D01*
X154040305Y-88904575D01*
X154040305Y-88999615D01*
X137487299Y-88999615D01*
X137487316Y-88904575D01*
X137487445Y-88163385D01*
X159521375Y-88163385D01*
X159521375Y-121849515D01*
G37*
%TD.AperFunction*%
%TD*%
M02*
