%TF.GenerationSoftware,KiCad,Pcbnew,9.0.7*%
%TF.CreationDate,2026-09-26T18:39:03+02:00*%
%TF.ProjectId,cartouche-usb4,63617274-6f75-4636-9865-2d757362342e,rev?*%
%TF.SameCoordinates,Original*%
%TF.FileFunction,Legend,Top*%
%TF.FilePolarity,Positive*%
%FSLAX46Y46*%
G04 Gerber Fmt 4.6, Leading zero omitted, Abs format (unit mm)*
G04 Created by KiCad (PCBNEW 9.0.7) date 2026-09-26 18:39:03*
%MOMM*%
%LPD*%
G01*
G04 APERTURE LIST*
G04 Aperture macros list*
%AMRoundRect*
0 Rectangle with rounded corners*
0 $1 Rounding radius*
0 $2 $3 $4 $5 $6 $7 $8 $9 X,Y pos of 4 corners*
0 Add a 4 corners polygon primitive as box body*
4,1,4,$2,$3,$4,$5,$6,$7,$8,$9,$2,$3,0*
0 Add four circle primitives for the rounded corners*
1,1,$1+$1,$2,$3*
1,1,$1+$1,$4,$5*
1,1,$1+$1,$6,$7*
1,1,$1+$1,$8,$9*
0 Add four rect primitives between the rounded corners*
20,1,$1+$1,$2,$3,$4,$5,0*
20,1,$1+$1,$4,$5,$6,$7,0*
20,1,$1+$1,$6,$7,$8,$9,0*
20,1,$1+$1,$8,$9,$2,$3,0*%
G04 Aperture macros list end*
%ADD10C,0.105000*%
%ADD11C,0.150000*%
%ADD12C,0.195000*%
%ADD13C,0.165000*%
%ADD14C,0.640000*%
%ADD15C,0.152400*%
%ADD16C,0.150010*%
%ADD17C,0.101600*%
%ADD18C,0.102000*%
%ADD19C,0.100000*%
%ADD20C,0.250000*%
%ADD21C,0.150110*%
%ADD22C,0.200000*%
%ADD23C,0.000000*%
%ADD24C,0.254000*%
%ADD25C,0.151990*%
%ADD26RoundRect,0.101600X-0.139990X-0.292505X0.139990X-0.292505X0.139990X0.292505X-0.139990X0.292505X0*%
%ADD27RoundRect,0.101600X-0.429995X-0.250010X0.429995X-0.250010X0.429995X0.250010X-0.429995X0.250010X0*%
%ADD28RoundRect,0.101600X-0.200000X0.150000X-0.200000X-0.150000X0.200000X-0.150000X0.200000X0.150000X0*%
%ADD29RoundRect,0.076200X-0.225000X0.250000X-0.225000X-0.250000X0.225000X-0.250000X0.225000X0.250000X0*%
%ADD30RoundRect,0.101600X0.150000X0.200000X-0.150000X0.200000X-0.150000X-0.200000X0.150000X-0.200000X0*%
%ADD31RoundRect,0.076200X0.225000X-0.250000X0.225000X0.250000X-0.225000X0.250000X-0.225000X-0.250000X0*%
%ADD32C,0.403200*%
%ADD33RoundRect,0.101600X-0.325005X-0.225005X0.325005X-0.225005X0.325005X0.225005X-0.325005X0.225005X0*%
%ADD34RoundRect,0.101600X0.550000X-0.950000X0.550000X0.950000X-0.550000X0.950000X-0.550000X-0.950000X0*%
%ADD35RoundRect,0.101600X-0.150000X-0.200000X0.150000X-0.200000X0.150000X0.200000X-0.150000X0.200000X0*%
%ADD36RoundRect,0.076200X0.250000X0.225000X-0.250000X0.225000X-0.250000X-0.225000X0.250000X-0.225000X0*%
%ADD37RoundRect,0.050800X0.140005X-0.332500X0.140005X0.332500X-0.140005X0.332500X-0.140005X-0.332500X0*%
%ADD38RoundRect,0.050800X0.332500X-0.140005X0.332500X0.140005X-0.332500X0.140005X-0.332500X-0.140005X0*%
%ADD39RoundRect,0.050800X0.350000X-0.350000X0.350000X0.350000X-0.350000X0.350000X-0.350000X-0.350000X0*%
%ADD40RoundRect,0.101600X1.295995X-1.103745X1.295995X1.103745X-1.295995X1.103745X-1.295995X-1.103745X0*%
%ADD41RoundRect,0.076200X-0.250000X-0.225000X0.250000X-0.225000X0.250000X0.225000X-0.250000X0.225000X0*%
%ADD42RoundRect,0.101600X-0.850000X0.500000X-0.850000X-0.500000X0.850000X-0.500000X0.850000X0.500000X0*%
%ADD43O,1.203200X2.301940*%
%ADD44O,1.203200X2.801910*%
%ADD45RoundRect,0.101600X-0.150000X-0.400010X0.150000X-0.400010X0.150000X0.400010X-0.150000X0.400010X0*%
%ADD46RoundRect,0.101600X-0.500000X-0.350000X0.500000X-0.350000X0.500000X0.350000X-0.500000X0.350000X0*%
%ADD47RoundRect,0.101600X-0.150000X-0.350000X0.150000X-0.350000X0.150000X0.350000X-0.150000X0.350000X0*%
%ADD48RoundRect,0.101600X0.850000X-0.500000X0.850000X0.500000X-0.850000X0.500000X-0.850000X-0.500000X0*%
%ADD49RoundRect,0.101600X0.270000X-0.318235X0.270000X0.318235X-0.270000X0.318235X-0.270000X-0.318235X0*%
%ADD50O,2.403200X6.403200*%
%ADD51C,4.203200*%
%ADD52RoundRect,0.101600X0.300000X-0.365000X0.300000X0.365000X-0.300000X0.365000X-0.300000X-0.365000X0*%
%ADD53C,1.303220*%
%ADD54C,1.803200*%
G04 APERTURE END LIST*
D10*
X137483334Y-140251706D02*
X137650000Y-140718373D01*
X137650000Y-140718373D02*
X137816667Y-140251706D01*
X138450000Y-140718373D02*
X138050000Y-140718373D01*
X138250000Y-140718373D02*
X138250000Y-140018373D01*
X138250000Y-140018373D02*
X138183333Y-140118373D01*
X138183333Y-140118373D02*
X138116667Y-140185040D01*
X138116667Y-140185040D02*
X138050000Y-140218373D01*
X138750000Y-140651706D02*
X138783334Y-140685040D01*
X138783334Y-140685040D02*
X138750000Y-140718373D01*
X138750000Y-140718373D02*
X138716667Y-140685040D01*
X138716667Y-140685040D02*
X138750000Y-140651706D01*
X138750000Y-140651706D02*
X138750000Y-140718373D01*
X139216667Y-140018373D02*
X139283333Y-140018373D01*
X139283333Y-140018373D02*
X139350000Y-140051706D01*
X139350000Y-140051706D02*
X139383333Y-140085040D01*
X139383333Y-140085040D02*
X139416667Y-140151706D01*
X139416667Y-140151706D02*
X139450000Y-140285040D01*
X139450000Y-140285040D02*
X139450000Y-140451706D01*
X139450000Y-140451706D02*
X139416667Y-140585040D01*
X139416667Y-140585040D02*
X139383333Y-140651706D01*
X139383333Y-140651706D02*
X139350000Y-140685040D01*
X139350000Y-140685040D02*
X139283333Y-140718373D01*
X139283333Y-140718373D02*
X139216667Y-140718373D01*
X139216667Y-140718373D02*
X139150000Y-140685040D01*
X139150000Y-140685040D02*
X139116667Y-140651706D01*
X139116667Y-140651706D02*
X139083333Y-140585040D01*
X139083333Y-140585040D02*
X139050000Y-140451706D01*
X139050000Y-140451706D02*
X139050000Y-140285040D01*
X139050000Y-140285040D02*
X139083333Y-140151706D01*
X139083333Y-140151706D02*
X139116667Y-140085040D01*
X139116667Y-140085040D02*
X139150000Y-140051706D01*
X139150000Y-140051706D02*
X139216667Y-140018373D01*
X140383333Y-140418373D02*
X140350000Y-140451706D01*
X140350000Y-140451706D02*
X140383333Y-140485040D01*
X140383333Y-140485040D02*
X140416667Y-140451706D01*
X140416667Y-140451706D02*
X140383333Y-140418373D01*
X140383333Y-140418373D02*
X140383333Y-140485040D01*
X141349999Y-140718373D02*
X141349999Y-140018373D01*
X141349999Y-140285040D02*
X141416666Y-140251706D01*
X141416666Y-140251706D02*
X141549999Y-140251706D01*
X141549999Y-140251706D02*
X141616666Y-140285040D01*
X141616666Y-140285040D02*
X141649999Y-140318373D01*
X141649999Y-140318373D02*
X141683333Y-140385040D01*
X141683333Y-140385040D02*
X141683333Y-140585040D01*
X141683333Y-140585040D02*
X141649999Y-140651706D01*
X141649999Y-140651706D02*
X141616666Y-140685040D01*
X141616666Y-140685040D02*
X141549999Y-140718373D01*
X141549999Y-140718373D02*
X141416666Y-140718373D01*
X141416666Y-140718373D02*
X141349999Y-140685040D01*
X142283332Y-140718373D02*
X142283332Y-140351706D01*
X142283332Y-140351706D02*
X142249999Y-140285040D01*
X142249999Y-140285040D02*
X142183332Y-140251706D01*
X142183332Y-140251706D02*
X142049999Y-140251706D01*
X142049999Y-140251706D02*
X141983332Y-140285040D01*
X142283332Y-140685040D02*
X142216666Y-140718373D01*
X142216666Y-140718373D02*
X142049999Y-140718373D01*
X142049999Y-140718373D02*
X141983332Y-140685040D01*
X141983332Y-140685040D02*
X141949999Y-140618373D01*
X141949999Y-140618373D02*
X141949999Y-140551706D01*
X141949999Y-140551706D02*
X141983332Y-140485040D01*
X141983332Y-140485040D02*
X142049999Y-140451706D01*
X142049999Y-140451706D02*
X142216666Y-140451706D01*
X142216666Y-140451706D02*
X142283332Y-140418373D01*
X142583332Y-140685040D02*
X142649999Y-140718373D01*
X142649999Y-140718373D02*
X142783332Y-140718373D01*
X142783332Y-140718373D02*
X142849999Y-140685040D01*
X142849999Y-140685040D02*
X142883332Y-140618373D01*
X142883332Y-140618373D02*
X142883332Y-140585040D01*
X142883332Y-140585040D02*
X142849999Y-140518373D01*
X142849999Y-140518373D02*
X142783332Y-140485040D01*
X142783332Y-140485040D02*
X142683332Y-140485040D01*
X142683332Y-140485040D02*
X142616665Y-140451706D01*
X142616665Y-140451706D02*
X142583332Y-140385040D01*
X142583332Y-140385040D02*
X142583332Y-140351706D01*
X142583332Y-140351706D02*
X142616665Y-140285040D01*
X142616665Y-140285040D02*
X142683332Y-140251706D01*
X142683332Y-140251706D02*
X142783332Y-140251706D01*
X142783332Y-140251706D02*
X142849999Y-140285040D01*
X143449999Y-140685040D02*
X143383332Y-140718373D01*
X143383332Y-140718373D02*
X143249999Y-140718373D01*
X143249999Y-140718373D02*
X143183332Y-140685040D01*
X143183332Y-140685040D02*
X143149999Y-140618373D01*
X143149999Y-140618373D02*
X143149999Y-140351706D01*
X143149999Y-140351706D02*
X143183332Y-140285040D01*
X143183332Y-140285040D02*
X143249999Y-140251706D01*
X143249999Y-140251706D02*
X143383332Y-140251706D01*
X143383332Y-140251706D02*
X143449999Y-140285040D01*
X143449999Y-140285040D02*
X143483332Y-140351706D01*
X143483332Y-140351706D02*
X143483332Y-140418373D01*
X143483332Y-140418373D02*
X143149999Y-140485040D01*
X143783332Y-140651706D02*
X143816666Y-140685040D01*
X143816666Y-140685040D02*
X143783332Y-140718373D01*
X143783332Y-140718373D02*
X143749999Y-140685040D01*
X143749999Y-140685040D02*
X143783332Y-140651706D01*
X143783332Y-140651706D02*
X143783332Y-140718373D01*
X143783332Y-140285040D02*
X143816666Y-140318373D01*
X143816666Y-140318373D02*
X143783332Y-140351706D01*
X143783332Y-140351706D02*
X143749999Y-140318373D01*
X143749999Y-140318373D02*
X143783332Y-140285040D01*
X143783332Y-140285040D02*
X143783332Y-140351706D01*
X144983332Y-140718373D02*
X144649998Y-140718373D01*
X144649998Y-140718373D02*
X144649998Y-140018373D01*
X145483332Y-140685040D02*
X145416665Y-140718373D01*
X145416665Y-140718373D02*
X145283332Y-140718373D01*
X145283332Y-140718373D02*
X145216665Y-140685040D01*
X145216665Y-140685040D02*
X145183332Y-140618373D01*
X145183332Y-140618373D02*
X145183332Y-140351706D01*
X145183332Y-140351706D02*
X145216665Y-140285040D01*
X145216665Y-140285040D02*
X145283332Y-140251706D01*
X145283332Y-140251706D02*
X145416665Y-140251706D01*
X145416665Y-140251706D02*
X145483332Y-140285040D01*
X145483332Y-140285040D02*
X145516665Y-140351706D01*
X145516665Y-140351706D02*
X145516665Y-140418373D01*
X145516665Y-140418373D02*
X145183332Y-140485040D01*
X146116665Y-140718373D02*
X146116665Y-140351706D01*
X146116665Y-140351706D02*
X146083332Y-140285040D01*
X146083332Y-140285040D02*
X146016665Y-140251706D01*
X146016665Y-140251706D02*
X145883332Y-140251706D01*
X145883332Y-140251706D02*
X145816665Y-140285040D01*
X146116665Y-140685040D02*
X146049999Y-140718373D01*
X146049999Y-140718373D02*
X145883332Y-140718373D01*
X145883332Y-140718373D02*
X145816665Y-140685040D01*
X145816665Y-140685040D02*
X145783332Y-140618373D01*
X145783332Y-140618373D02*
X145783332Y-140551706D01*
X145783332Y-140551706D02*
X145816665Y-140485040D01*
X145816665Y-140485040D02*
X145883332Y-140451706D01*
X145883332Y-140451706D02*
X146049999Y-140451706D01*
X146049999Y-140451706D02*
X146116665Y-140418373D01*
X146383332Y-140251706D02*
X146549998Y-140718373D01*
X146549998Y-140718373D02*
X146716665Y-140251706D01*
X147249998Y-140685040D02*
X147183331Y-140718373D01*
X147183331Y-140718373D02*
X147049998Y-140718373D01*
X147049998Y-140718373D02*
X146983331Y-140685040D01*
X146983331Y-140685040D02*
X146949998Y-140618373D01*
X146949998Y-140618373D02*
X146949998Y-140351706D01*
X146949998Y-140351706D02*
X146983331Y-140285040D01*
X146983331Y-140285040D02*
X147049998Y-140251706D01*
X147049998Y-140251706D02*
X147183331Y-140251706D01*
X147183331Y-140251706D02*
X147249998Y-140285040D01*
X147249998Y-140285040D02*
X147283331Y-140351706D01*
X147283331Y-140351706D02*
X147283331Y-140418373D01*
X147283331Y-140418373D02*
X146949998Y-140485040D01*
X147549998Y-140685040D02*
X147616665Y-140718373D01*
X147616665Y-140718373D02*
X147749998Y-140718373D01*
X147749998Y-140718373D02*
X147816665Y-140685040D01*
X147816665Y-140685040D02*
X147849998Y-140618373D01*
X147849998Y-140618373D02*
X147849998Y-140585040D01*
X147849998Y-140585040D02*
X147816665Y-140518373D01*
X147816665Y-140518373D02*
X147749998Y-140485040D01*
X147749998Y-140485040D02*
X147649998Y-140485040D01*
X147649998Y-140485040D02*
X147583331Y-140451706D01*
X147583331Y-140451706D02*
X147549998Y-140385040D01*
X147549998Y-140385040D02*
X147549998Y-140351706D01*
X147549998Y-140351706D02*
X147583331Y-140285040D01*
X147583331Y-140285040D02*
X147649998Y-140251706D01*
X147649998Y-140251706D02*
X147749998Y-140251706D01*
X147749998Y-140251706D02*
X147816665Y-140285040D01*
X148116665Y-140085040D02*
X148149998Y-140051706D01*
X148149998Y-140051706D02*
X148216665Y-140018373D01*
X148216665Y-140018373D02*
X148383332Y-140018373D01*
X148383332Y-140018373D02*
X148449998Y-140051706D01*
X148449998Y-140051706D02*
X148483332Y-140085040D01*
X148483332Y-140085040D02*
X148516665Y-140151706D01*
X148516665Y-140151706D02*
X148516665Y-140218373D01*
X148516665Y-140218373D02*
X148483332Y-140318373D01*
X148483332Y-140318373D02*
X148083332Y-140718373D01*
X148083332Y-140718373D02*
X148516665Y-140718373D01*
X148749999Y-140018373D02*
X149183332Y-140018373D01*
X149183332Y-140018373D02*
X148949999Y-140285040D01*
X148949999Y-140285040D02*
X149049999Y-140285040D01*
X149049999Y-140285040D02*
X149116665Y-140318373D01*
X149116665Y-140318373D02*
X149149999Y-140351706D01*
X149149999Y-140351706D02*
X149183332Y-140418373D01*
X149183332Y-140418373D02*
X149183332Y-140585040D01*
X149183332Y-140585040D02*
X149149999Y-140651706D01*
X149149999Y-140651706D02*
X149116665Y-140685040D01*
X149116665Y-140685040D02*
X149049999Y-140718373D01*
X149049999Y-140718373D02*
X148849999Y-140718373D01*
X148849999Y-140718373D02*
X148783332Y-140685040D01*
X148783332Y-140685040D02*
X148749999Y-140651706D01*
X149449999Y-140085040D02*
X149483332Y-140051706D01*
X149483332Y-140051706D02*
X149549999Y-140018373D01*
X149549999Y-140018373D02*
X149716666Y-140018373D01*
X149716666Y-140018373D02*
X149783332Y-140051706D01*
X149783332Y-140051706D02*
X149816666Y-140085040D01*
X149816666Y-140085040D02*
X149849999Y-140151706D01*
X149849999Y-140151706D02*
X149849999Y-140218373D01*
X149849999Y-140218373D02*
X149816666Y-140318373D01*
X149816666Y-140318373D02*
X149416666Y-140718373D01*
X149416666Y-140718373D02*
X149849999Y-140718373D01*
X150683332Y-140018373D02*
X150683332Y-140585040D01*
X150683332Y-140585040D02*
X150716666Y-140651706D01*
X150716666Y-140651706D02*
X150749999Y-140685040D01*
X150749999Y-140685040D02*
X150816666Y-140718373D01*
X150816666Y-140718373D02*
X150949999Y-140718373D01*
X150949999Y-140718373D02*
X151016666Y-140685040D01*
X151016666Y-140685040D02*
X151049999Y-140651706D01*
X151049999Y-140651706D02*
X151083332Y-140585040D01*
X151083332Y-140585040D02*
X151083332Y-140018373D01*
X151383332Y-140685040D02*
X151483332Y-140718373D01*
X151483332Y-140718373D02*
X151649999Y-140718373D01*
X151649999Y-140718373D02*
X151716665Y-140685040D01*
X151716665Y-140685040D02*
X151749999Y-140651706D01*
X151749999Y-140651706D02*
X151783332Y-140585040D01*
X151783332Y-140585040D02*
X151783332Y-140518373D01*
X151783332Y-140518373D02*
X151749999Y-140451706D01*
X151749999Y-140451706D02*
X151716665Y-140418373D01*
X151716665Y-140418373D02*
X151649999Y-140385040D01*
X151649999Y-140385040D02*
X151516665Y-140351706D01*
X151516665Y-140351706D02*
X151449999Y-140318373D01*
X151449999Y-140318373D02*
X151416665Y-140285040D01*
X151416665Y-140285040D02*
X151383332Y-140218373D01*
X151383332Y-140218373D02*
X151383332Y-140151706D01*
X151383332Y-140151706D02*
X151416665Y-140085040D01*
X151416665Y-140085040D02*
X151449999Y-140051706D01*
X151449999Y-140051706D02*
X151516665Y-140018373D01*
X151516665Y-140018373D02*
X151683332Y-140018373D01*
X151683332Y-140018373D02*
X151783332Y-140051706D01*
X152316666Y-140351706D02*
X152416666Y-140385040D01*
X152416666Y-140385040D02*
X152449999Y-140418373D01*
X152449999Y-140418373D02*
X152483332Y-140485040D01*
X152483332Y-140485040D02*
X152483332Y-140585040D01*
X152483332Y-140585040D02*
X152449999Y-140651706D01*
X152449999Y-140651706D02*
X152416666Y-140685040D01*
X152416666Y-140685040D02*
X152349999Y-140718373D01*
X152349999Y-140718373D02*
X152083332Y-140718373D01*
X152083332Y-140718373D02*
X152083332Y-140018373D01*
X152083332Y-140018373D02*
X152316666Y-140018373D01*
X152316666Y-140018373D02*
X152383332Y-140051706D01*
X152383332Y-140051706D02*
X152416666Y-140085040D01*
X152416666Y-140085040D02*
X152449999Y-140151706D01*
X152449999Y-140151706D02*
X152449999Y-140218373D01*
X152449999Y-140218373D02*
X152416666Y-140285040D01*
X152416666Y-140285040D02*
X152383332Y-140318373D01*
X152383332Y-140318373D02*
X152316666Y-140351706D01*
X152316666Y-140351706D02*
X152083332Y-140351706D01*
X153083332Y-140251706D02*
X153083332Y-140718373D01*
X152916666Y-139985040D02*
X152749999Y-140485040D01*
X152749999Y-140485040D02*
X153183332Y-140485040D01*
X153949999Y-140085040D02*
X153983332Y-140051706D01*
X153983332Y-140051706D02*
X154049999Y-140018373D01*
X154049999Y-140018373D02*
X154216666Y-140018373D01*
X154216666Y-140018373D02*
X154283332Y-140051706D01*
X154283332Y-140051706D02*
X154316666Y-140085040D01*
X154316666Y-140085040D02*
X154349999Y-140151706D01*
X154349999Y-140151706D02*
X154349999Y-140218373D01*
X154349999Y-140218373D02*
X154316666Y-140318373D01*
X154316666Y-140318373D02*
X153916666Y-140718373D01*
X153916666Y-140718373D02*
X154349999Y-140718373D01*
X154616666Y-140085040D02*
X154649999Y-140051706D01*
X154649999Y-140051706D02*
X154716666Y-140018373D01*
X154716666Y-140018373D02*
X154883333Y-140018373D01*
X154883333Y-140018373D02*
X154949999Y-140051706D01*
X154949999Y-140051706D02*
X154983333Y-140085040D01*
X154983333Y-140085040D02*
X155016666Y-140151706D01*
X155016666Y-140151706D02*
X155016666Y-140218373D01*
X155016666Y-140218373D02*
X154983333Y-140318373D01*
X154983333Y-140318373D02*
X154583333Y-140718373D01*
X154583333Y-140718373D02*
X155016666Y-140718373D01*
X155250000Y-140018373D02*
X155683333Y-140018373D01*
X155683333Y-140018373D02*
X155450000Y-140285040D01*
X155450000Y-140285040D02*
X155550000Y-140285040D01*
X155550000Y-140285040D02*
X155616666Y-140318373D01*
X155616666Y-140318373D02*
X155650000Y-140351706D01*
X155650000Y-140351706D02*
X155683333Y-140418373D01*
X155683333Y-140418373D02*
X155683333Y-140585040D01*
X155683333Y-140585040D02*
X155650000Y-140651706D01*
X155650000Y-140651706D02*
X155616666Y-140685040D01*
X155616666Y-140685040D02*
X155550000Y-140718373D01*
X155550000Y-140718373D02*
X155350000Y-140718373D01*
X155350000Y-140718373D02*
X155283333Y-140685040D01*
X155283333Y-140685040D02*
X155250000Y-140651706D01*
X156116667Y-140018373D02*
X156183333Y-140018373D01*
X156183333Y-140018373D02*
X156250000Y-140051706D01*
X156250000Y-140051706D02*
X156283333Y-140085040D01*
X156283333Y-140085040D02*
X156316667Y-140151706D01*
X156316667Y-140151706D02*
X156350000Y-140285040D01*
X156350000Y-140285040D02*
X156350000Y-140451706D01*
X156350000Y-140451706D02*
X156316667Y-140585040D01*
X156316667Y-140585040D02*
X156283333Y-140651706D01*
X156283333Y-140651706D02*
X156250000Y-140685040D01*
X156250000Y-140685040D02*
X156183333Y-140718373D01*
X156183333Y-140718373D02*
X156116667Y-140718373D01*
X156116667Y-140718373D02*
X156050000Y-140685040D01*
X156050000Y-140685040D02*
X156016667Y-140651706D01*
X156016667Y-140651706D02*
X155983333Y-140585040D01*
X155983333Y-140585040D02*
X155950000Y-140451706D01*
X155950000Y-140451706D02*
X155950000Y-140285040D01*
X155950000Y-140285040D02*
X155983333Y-140151706D01*
X155983333Y-140151706D02*
X156016667Y-140085040D01*
X156016667Y-140085040D02*
X156050000Y-140051706D01*
X156050000Y-140051706D02*
X156116667Y-140018373D01*
X157383333Y-140985040D02*
X157350000Y-140951706D01*
X157350000Y-140951706D02*
X157283333Y-140851706D01*
X157283333Y-140851706D02*
X157250000Y-140785040D01*
X157250000Y-140785040D02*
X157216667Y-140685040D01*
X157216667Y-140685040D02*
X157183333Y-140518373D01*
X157183333Y-140518373D02*
X157183333Y-140385040D01*
X157183333Y-140385040D02*
X157216667Y-140218373D01*
X157216667Y-140218373D02*
X157250000Y-140118373D01*
X157250000Y-140118373D02*
X157283333Y-140051706D01*
X157283333Y-140051706D02*
X157350000Y-139951706D01*
X157350000Y-139951706D02*
X157383333Y-139918373D01*
X157650000Y-140718373D02*
X157650000Y-140018373D01*
X157650000Y-140018373D02*
X157883334Y-140518373D01*
X157883334Y-140518373D02*
X158116667Y-140018373D01*
X158116667Y-140018373D02*
X158116667Y-140718373D01*
X158450000Y-140718373D02*
X158450000Y-140018373D01*
X158683333Y-140018373D02*
X159083333Y-140018373D01*
X158883333Y-140718373D02*
X158883333Y-140018373D01*
X159250000Y-140985040D02*
X159283333Y-140951706D01*
X159283333Y-140951706D02*
X159350000Y-140851706D01*
X159350000Y-140851706D02*
X159383333Y-140785040D01*
X159383333Y-140785040D02*
X159416666Y-140685040D01*
X159416666Y-140685040D02*
X159450000Y-140518373D01*
X159450000Y-140518373D02*
X159450000Y-140385040D01*
X159450000Y-140385040D02*
X159416666Y-140218373D01*
X159416666Y-140218373D02*
X159383333Y-140118373D01*
X159383333Y-140118373D02*
X159350000Y-140051706D01*
X159350000Y-140051706D02*
X159283333Y-139951706D01*
X159283333Y-139951706D02*
X159250000Y-139918373D01*
D11*
X147238095Y-149607200D02*
X147380952Y-149654819D01*
X147380952Y-149654819D02*
X147619047Y-149654819D01*
X147619047Y-149654819D02*
X147714285Y-149607200D01*
X147714285Y-149607200D02*
X147761904Y-149559580D01*
X147761904Y-149559580D02*
X147809523Y-149464342D01*
X147809523Y-149464342D02*
X147809523Y-149369104D01*
X147809523Y-149369104D02*
X147761904Y-149273866D01*
X147761904Y-149273866D02*
X147714285Y-149226247D01*
X147714285Y-149226247D02*
X147619047Y-149178628D01*
X147619047Y-149178628D02*
X147428571Y-149131009D01*
X147428571Y-149131009D02*
X147333333Y-149083390D01*
X147333333Y-149083390D02*
X147285714Y-149035771D01*
X147285714Y-149035771D02*
X147238095Y-148940533D01*
X147238095Y-148940533D02*
X147238095Y-148845295D01*
X147238095Y-148845295D02*
X147285714Y-148750057D01*
X147285714Y-148750057D02*
X147333333Y-148702438D01*
X147333333Y-148702438D02*
X147428571Y-148654819D01*
X147428571Y-148654819D02*
X147666666Y-148654819D01*
X147666666Y-148654819D02*
X147809523Y-148702438D01*
X148190476Y-149607200D02*
X148333333Y-149654819D01*
X148333333Y-149654819D02*
X148571428Y-149654819D01*
X148571428Y-149654819D02*
X148666666Y-149607200D01*
X148666666Y-149607200D02*
X148714285Y-149559580D01*
X148714285Y-149559580D02*
X148761904Y-149464342D01*
X148761904Y-149464342D02*
X148761904Y-149369104D01*
X148761904Y-149369104D02*
X148714285Y-149273866D01*
X148714285Y-149273866D02*
X148666666Y-149226247D01*
X148666666Y-149226247D02*
X148571428Y-149178628D01*
X148571428Y-149178628D02*
X148380952Y-149131009D01*
X148380952Y-149131009D02*
X148285714Y-149083390D01*
X148285714Y-149083390D02*
X148238095Y-149035771D01*
X148238095Y-149035771D02*
X148190476Y-148940533D01*
X148190476Y-148940533D02*
X148190476Y-148845295D01*
X148190476Y-148845295D02*
X148238095Y-148750057D01*
X148238095Y-148750057D02*
X148285714Y-148702438D01*
X148285714Y-148702438D02*
X148380952Y-148654819D01*
X148380952Y-148654819D02*
X148619047Y-148654819D01*
X148619047Y-148654819D02*
X148761904Y-148702438D01*
X149190476Y-149654819D02*
X149190476Y-148654819D01*
X149190476Y-148654819D02*
X149428571Y-148654819D01*
X149428571Y-148654819D02*
X149571428Y-148702438D01*
X149571428Y-148702438D02*
X149666666Y-148797676D01*
X149666666Y-148797676D02*
X149714285Y-148892914D01*
X149714285Y-148892914D02*
X149761904Y-149083390D01*
X149761904Y-149083390D02*
X149761904Y-149226247D01*
X149761904Y-149226247D02*
X149714285Y-149416723D01*
X149714285Y-149416723D02*
X149666666Y-149511961D01*
X149666666Y-149511961D02*
X149571428Y-149607200D01*
X149571428Y-149607200D02*
X149428571Y-149654819D01*
X149428571Y-149654819D02*
X149190476Y-149654819D01*
D12*
X138657144Y-133191264D02*
X138038096Y-133191264D01*
X138038096Y-133191264D02*
X138038096Y-131891264D01*
X139152382Y-131891264D02*
X139028573Y-132138883D01*
X139709525Y-133191264D02*
X139709525Y-131891264D01*
X140266669Y-132819836D02*
X140885716Y-132819836D01*
X140142859Y-133191264D02*
X140576192Y-131891264D01*
X140576192Y-131891264D02*
X141009526Y-133191264D01*
X142990478Y-133191264D02*
X142990478Y-131891264D01*
X142990478Y-133129360D02*
X142866669Y-133191264D01*
X142866669Y-133191264D02*
X142619050Y-133191264D01*
X142619050Y-133191264D02*
X142495240Y-133129360D01*
X142495240Y-133129360D02*
X142433335Y-133067455D01*
X142433335Y-133067455D02*
X142371431Y-132943645D01*
X142371431Y-132943645D02*
X142371431Y-132572217D01*
X142371431Y-132572217D02*
X142433335Y-132448407D01*
X142433335Y-132448407D02*
X142495240Y-132386502D01*
X142495240Y-132386502D02*
X142619050Y-132324598D01*
X142619050Y-132324598D02*
X142866669Y-132324598D01*
X142866669Y-132324598D02*
X142990478Y-132386502D01*
X144166668Y-133191264D02*
X144166668Y-132510312D01*
X144166668Y-132510312D02*
X144104763Y-132386502D01*
X144104763Y-132386502D02*
X143980954Y-132324598D01*
X143980954Y-132324598D02*
X143733335Y-132324598D01*
X143733335Y-132324598D02*
X143609525Y-132386502D01*
X144166668Y-133129360D02*
X144042859Y-133191264D01*
X144042859Y-133191264D02*
X143733335Y-133191264D01*
X143733335Y-133191264D02*
X143609525Y-133129360D01*
X143609525Y-133129360D02*
X143547621Y-133005550D01*
X143547621Y-133005550D02*
X143547621Y-132881740D01*
X143547621Y-132881740D02*
X143609525Y-132757931D01*
X143609525Y-132757931D02*
X143733335Y-132696026D01*
X143733335Y-132696026D02*
X144042859Y-132696026D01*
X144042859Y-132696026D02*
X144166668Y-132634121D01*
X144785715Y-132324598D02*
X144785715Y-133191264D01*
X144785715Y-132448407D02*
X144847620Y-132386502D01*
X144847620Y-132386502D02*
X144971430Y-132324598D01*
X144971430Y-132324598D02*
X145157144Y-132324598D01*
X145157144Y-132324598D02*
X145280953Y-132386502D01*
X145280953Y-132386502D02*
X145342858Y-132510312D01*
X145342858Y-132510312D02*
X145342858Y-133191264D01*
X145900001Y-133129360D02*
X146023810Y-133191264D01*
X146023810Y-133191264D02*
X146271429Y-133191264D01*
X146271429Y-133191264D02*
X146395239Y-133129360D01*
X146395239Y-133129360D02*
X146457143Y-133005550D01*
X146457143Y-133005550D02*
X146457143Y-132943645D01*
X146457143Y-132943645D02*
X146395239Y-132819836D01*
X146395239Y-132819836D02*
X146271429Y-132757931D01*
X146271429Y-132757931D02*
X146085715Y-132757931D01*
X146085715Y-132757931D02*
X145961905Y-132696026D01*
X145961905Y-132696026D02*
X145900001Y-132572217D01*
X145900001Y-132572217D02*
X145900001Y-132510312D01*
X145900001Y-132510312D02*
X145961905Y-132386502D01*
X145961905Y-132386502D02*
X146085715Y-132324598D01*
X146085715Y-132324598D02*
X146271429Y-132324598D01*
X146271429Y-132324598D02*
X146395239Y-132386502D01*
X147880953Y-132324598D02*
X148190477Y-133191264D01*
X148190477Y-133191264D02*
X148500000Y-132324598D01*
X149180953Y-133191264D02*
X149057143Y-133129360D01*
X149057143Y-133129360D02*
X148995238Y-133067455D01*
X148995238Y-133067455D02*
X148933334Y-132943645D01*
X148933334Y-132943645D02*
X148933334Y-132572217D01*
X148933334Y-132572217D02*
X148995238Y-132448407D01*
X148995238Y-132448407D02*
X149057143Y-132386502D01*
X149057143Y-132386502D02*
X149180953Y-132324598D01*
X149180953Y-132324598D02*
X149366667Y-132324598D01*
X149366667Y-132324598D02*
X149490476Y-132386502D01*
X149490476Y-132386502D02*
X149552381Y-132448407D01*
X149552381Y-132448407D02*
X149614286Y-132572217D01*
X149614286Y-132572217D02*
X149614286Y-132943645D01*
X149614286Y-132943645D02*
X149552381Y-133067455D01*
X149552381Y-133067455D02*
X149490476Y-133129360D01*
X149490476Y-133129360D02*
X149366667Y-133191264D01*
X149366667Y-133191264D02*
X149180953Y-133191264D01*
X149985714Y-132324598D02*
X150480952Y-132324598D01*
X150171428Y-131891264D02*
X150171428Y-133005550D01*
X150171428Y-133005550D02*
X150233333Y-133129360D01*
X150233333Y-133129360D02*
X150357143Y-133191264D01*
X150357143Y-133191264D02*
X150480952Y-133191264D01*
X150914285Y-133191264D02*
X150914285Y-132324598D01*
X150914285Y-132572217D02*
X150976190Y-132448407D01*
X150976190Y-132448407D02*
X151038095Y-132386502D01*
X151038095Y-132386502D02*
X151161904Y-132324598D01*
X151161904Y-132324598D02*
X151285714Y-132324598D01*
X152214285Y-133129360D02*
X152090476Y-133191264D01*
X152090476Y-133191264D02*
X151842857Y-133191264D01*
X151842857Y-133191264D02*
X151719047Y-133129360D01*
X151719047Y-133129360D02*
X151657143Y-133005550D01*
X151657143Y-133005550D02*
X151657143Y-132510312D01*
X151657143Y-132510312D02*
X151719047Y-132386502D01*
X151719047Y-132386502D02*
X151842857Y-132324598D01*
X151842857Y-132324598D02*
X152090476Y-132324598D01*
X152090476Y-132324598D02*
X152214285Y-132386502D01*
X152214285Y-132386502D02*
X152276190Y-132510312D01*
X152276190Y-132510312D02*
X152276190Y-132634121D01*
X152276190Y-132634121D02*
X151657143Y-132757931D01*
X153823809Y-132324598D02*
X153823809Y-133624598D01*
X153823809Y-132386502D02*
X153947619Y-132324598D01*
X153947619Y-132324598D02*
X154195238Y-132324598D01*
X154195238Y-132324598D02*
X154319047Y-132386502D01*
X154319047Y-132386502D02*
X154380952Y-132448407D01*
X154380952Y-132448407D02*
X154442857Y-132572217D01*
X154442857Y-132572217D02*
X154442857Y-132943645D01*
X154442857Y-132943645D02*
X154380952Y-133067455D01*
X154380952Y-133067455D02*
X154319047Y-133129360D01*
X154319047Y-133129360D02*
X154195238Y-133191264D01*
X154195238Y-133191264D02*
X153947619Y-133191264D01*
X153947619Y-133191264D02*
X153823809Y-133129360D01*
X155185714Y-133191264D02*
X155061904Y-133129360D01*
X155061904Y-133129360D02*
X154999999Y-133067455D01*
X154999999Y-133067455D02*
X154938095Y-132943645D01*
X154938095Y-132943645D02*
X154938095Y-132572217D01*
X154938095Y-132572217D02*
X154999999Y-132448407D01*
X154999999Y-132448407D02*
X155061904Y-132386502D01*
X155061904Y-132386502D02*
X155185714Y-132324598D01*
X155185714Y-132324598D02*
X155371428Y-132324598D01*
X155371428Y-132324598D02*
X155495237Y-132386502D01*
X155495237Y-132386502D02*
X155557142Y-132448407D01*
X155557142Y-132448407D02*
X155619047Y-132572217D01*
X155619047Y-132572217D02*
X155619047Y-132943645D01*
X155619047Y-132943645D02*
X155557142Y-133067455D01*
X155557142Y-133067455D02*
X155495237Y-133129360D01*
X155495237Y-133129360D02*
X155371428Y-133191264D01*
X155371428Y-133191264D02*
X155185714Y-133191264D01*
X156733332Y-133129360D02*
X156609523Y-133191264D01*
X156609523Y-133191264D02*
X156361904Y-133191264D01*
X156361904Y-133191264D02*
X156238094Y-133129360D01*
X156238094Y-133129360D02*
X156176189Y-133067455D01*
X156176189Y-133067455D02*
X156114285Y-132943645D01*
X156114285Y-132943645D02*
X156114285Y-132572217D01*
X156114285Y-132572217D02*
X156176189Y-132448407D01*
X156176189Y-132448407D02*
X156238094Y-132386502D01*
X156238094Y-132386502D02*
X156361904Y-132324598D01*
X156361904Y-132324598D02*
X156609523Y-132324598D01*
X156609523Y-132324598D02*
X156733332Y-132386502D01*
X157290475Y-133191264D02*
X157290475Y-131891264D01*
X157847618Y-133191264D02*
X157847618Y-132510312D01*
X157847618Y-132510312D02*
X157785713Y-132386502D01*
X157785713Y-132386502D02*
X157661904Y-132324598D01*
X157661904Y-132324598D02*
X157476190Y-132324598D01*
X157476190Y-132324598D02*
X157352380Y-132386502D01*
X157352380Y-132386502D02*
X157290475Y-132448407D01*
X158961903Y-133129360D02*
X158838094Y-133191264D01*
X158838094Y-133191264D02*
X158590475Y-133191264D01*
X158590475Y-133191264D02*
X158466665Y-133129360D01*
X158466665Y-133129360D02*
X158404761Y-133005550D01*
X158404761Y-133005550D02*
X158404761Y-132510312D01*
X158404761Y-132510312D02*
X158466665Y-132386502D01*
X158466665Y-132386502D02*
X158590475Y-132324598D01*
X158590475Y-132324598D02*
X158838094Y-132324598D01*
X158838094Y-132324598D02*
X158961903Y-132386502D01*
X158961903Y-132386502D02*
X159023808Y-132510312D01*
X159023808Y-132510312D02*
X159023808Y-132634121D01*
X159023808Y-132634121D02*
X158404761Y-132757931D01*
D13*
X136714286Y-136600300D02*
X136714286Y-137490777D01*
X136714286Y-137490777D02*
X136766667Y-137595539D01*
X136766667Y-137595539D02*
X136819048Y-137647920D01*
X136819048Y-137647920D02*
X136923810Y-137700300D01*
X136923810Y-137700300D02*
X137133334Y-137700300D01*
X137133334Y-137700300D02*
X137238096Y-137647920D01*
X137238096Y-137647920D02*
X137290477Y-137595539D01*
X137290477Y-137595539D02*
X137342858Y-137490777D01*
X137342858Y-137490777D02*
X137342858Y-136600300D01*
X137814286Y-137647920D02*
X137971429Y-137700300D01*
X137971429Y-137700300D02*
X138233334Y-137700300D01*
X138233334Y-137700300D02*
X138338096Y-137647920D01*
X138338096Y-137647920D02*
X138390477Y-137595539D01*
X138390477Y-137595539D02*
X138442858Y-137490777D01*
X138442858Y-137490777D02*
X138442858Y-137386015D01*
X138442858Y-137386015D02*
X138390477Y-137281253D01*
X138390477Y-137281253D02*
X138338096Y-137228872D01*
X138338096Y-137228872D02*
X138233334Y-137176491D01*
X138233334Y-137176491D02*
X138023810Y-137124110D01*
X138023810Y-137124110D02*
X137919048Y-137071729D01*
X137919048Y-137071729D02*
X137866667Y-137019348D01*
X137866667Y-137019348D02*
X137814286Y-136914586D01*
X137814286Y-136914586D02*
X137814286Y-136809824D01*
X137814286Y-136809824D02*
X137866667Y-136705062D01*
X137866667Y-136705062D02*
X137919048Y-136652681D01*
X137919048Y-136652681D02*
X138023810Y-136600300D01*
X138023810Y-136600300D02*
X138285715Y-136600300D01*
X138285715Y-136600300D02*
X138442858Y-136652681D01*
X139280953Y-137124110D02*
X139438096Y-137176491D01*
X139438096Y-137176491D02*
X139490477Y-137228872D01*
X139490477Y-137228872D02*
X139542858Y-137333634D01*
X139542858Y-137333634D02*
X139542858Y-137490777D01*
X139542858Y-137490777D02*
X139490477Y-137595539D01*
X139490477Y-137595539D02*
X139438096Y-137647920D01*
X139438096Y-137647920D02*
X139333334Y-137700300D01*
X139333334Y-137700300D02*
X138914286Y-137700300D01*
X138914286Y-137700300D02*
X138914286Y-136600300D01*
X138914286Y-136600300D02*
X139280953Y-136600300D01*
X139280953Y-136600300D02*
X139385715Y-136652681D01*
X139385715Y-136652681D02*
X139438096Y-136705062D01*
X139438096Y-136705062D02*
X139490477Y-136809824D01*
X139490477Y-136809824D02*
X139490477Y-136914586D01*
X139490477Y-136914586D02*
X139438096Y-137019348D01*
X139438096Y-137019348D02*
X139385715Y-137071729D01*
X139385715Y-137071729D02*
X139280953Y-137124110D01*
X139280953Y-137124110D02*
X138914286Y-137124110D01*
X140485715Y-136966967D02*
X140485715Y-137700300D01*
X140223810Y-136547920D02*
X139961905Y-137333634D01*
X139961905Y-137333634D02*
X140642858Y-137333634D01*
X142371429Y-136966967D02*
X142371429Y-137700300D01*
X142109524Y-136547920D02*
X141847619Y-137333634D01*
X141847619Y-137333634D02*
X142528572Y-137333634D01*
X143157143Y-136600300D02*
X143261905Y-136600300D01*
X143261905Y-136600300D02*
X143366667Y-136652681D01*
X143366667Y-136652681D02*
X143419048Y-136705062D01*
X143419048Y-136705062D02*
X143471429Y-136809824D01*
X143471429Y-136809824D02*
X143523810Y-137019348D01*
X143523810Y-137019348D02*
X143523810Y-137281253D01*
X143523810Y-137281253D02*
X143471429Y-137490777D01*
X143471429Y-137490777D02*
X143419048Y-137595539D01*
X143419048Y-137595539D02*
X143366667Y-137647920D01*
X143366667Y-137647920D02*
X143261905Y-137700300D01*
X143261905Y-137700300D02*
X143157143Y-137700300D01*
X143157143Y-137700300D02*
X143052381Y-137647920D01*
X143052381Y-137647920D02*
X143000000Y-137595539D01*
X143000000Y-137595539D02*
X142947619Y-137490777D01*
X142947619Y-137490777D02*
X142895238Y-137281253D01*
X142895238Y-137281253D02*
X142895238Y-137019348D01*
X142895238Y-137019348D02*
X142947619Y-136809824D01*
X142947619Y-136809824D02*
X143000000Y-136705062D01*
X143000000Y-136705062D02*
X143052381Y-136652681D01*
X143052381Y-136652681D02*
X143157143Y-136600300D01*
X145409524Y-136652681D02*
X145304762Y-136600300D01*
X145304762Y-136600300D02*
X145147619Y-136600300D01*
X145147619Y-136600300D02*
X144990476Y-136652681D01*
X144990476Y-136652681D02*
X144885714Y-136757443D01*
X144885714Y-136757443D02*
X144833333Y-136862205D01*
X144833333Y-136862205D02*
X144780952Y-137071729D01*
X144780952Y-137071729D02*
X144780952Y-137228872D01*
X144780952Y-137228872D02*
X144833333Y-137438396D01*
X144833333Y-137438396D02*
X144885714Y-137543158D01*
X144885714Y-137543158D02*
X144990476Y-137647920D01*
X144990476Y-137647920D02*
X145147619Y-137700300D01*
X145147619Y-137700300D02*
X145252381Y-137700300D01*
X145252381Y-137700300D02*
X145409524Y-137647920D01*
X145409524Y-137647920D02*
X145461905Y-137595539D01*
X145461905Y-137595539D02*
X145461905Y-137228872D01*
X145461905Y-137228872D02*
X145252381Y-137228872D01*
X145933333Y-137700300D02*
X145933333Y-136600300D01*
X145933333Y-137019348D02*
X146038095Y-136966967D01*
X146038095Y-136966967D02*
X146247619Y-136966967D01*
X146247619Y-136966967D02*
X146352381Y-137019348D01*
X146352381Y-137019348D02*
X146404762Y-137071729D01*
X146404762Y-137071729D02*
X146457143Y-137176491D01*
X146457143Y-137176491D02*
X146457143Y-137490777D01*
X146457143Y-137490777D02*
X146404762Y-137595539D01*
X146404762Y-137595539D02*
X146352381Y-137647920D01*
X146352381Y-137647920D02*
X146247619Y-137700300D01*
X146247619Y-137700300D02*
X146038095Y-137700300D01*
X146038095Y-137700300D02*
X145933333Y-137647920D01*
X147714286Y-136547920D02*
X146771428Y-137962205D01*
X148028571Y-137647920D02*
X148133333Y-137700300D01*
X148133333Y-137700300D02*
X148342857Y-137700300D01*
X148342857Y-137700300D02*
X148447619Y-137647920D01*
X148447619Y-137647920D02*
X148500000Y-137543158D01*
X148500000Y-137543158D02*
X148500000Y-137490777D01*
X148500000Y-137490777D02*
X148447619Y-137386015D01*
X148447619Y-137386015D02*
X148342857Y-137333634D01*
X148342857Y-137333634D02*
X148185714Y-137333634D01*
X148185714Y-137333634D02*
X148080952Y-137281253D01*
X148080952Y-137281253D02*
X148028571Y-137176491D01*
X148028571Y-137176491D02*
X148028571Y-137124110D01*
X148028571Y-137124110D02*
X148080952Y-137019348D01*
X148080952Y-137019348D02*
X148185714Y-136966967D01*
X148185714Y-136966967D02*
X148342857Y-136966967D01*
X148342857Y-136966967D02*
X148447619Y-137019348D01*
X149966666Y-137228872D02*
X149914285Y-137281253D01*
X149914285Y-137281253D02*
X149966666Y-137333634D01*
X149966666Y-137333634D02*
X150019047Y-137281253D01*
X150019047Y-137281253D02*
X149966666Y-137228872D01*
X149966666Y-137228872D02*
X149966666Y-137333634D01*
X151485713Y-137700300D02*
X151485713Y-136600300D01*
X151485713Y-136600300D02*
X152114285Y-137700300D01*
X152114285Y-137700300D02*
X152114285Y-136600300D01*
X152480951Y-136600300D02*
X152847618Y-137700300D01*
X152847618Y-137700300D02*
X153214285Y-136600300D01*
X153580951Y-137700300D02*
X153580951Y-136600300D01*
X153580951Y-136600300D02*
X153947618Y-137386015D01*
X153947618Y-137386015D02*
X154314285Y-136600300D01*
X154314285Y-136600300D02*
X154314285Y-137700300D01*
X155257142Y-137647920D02*
X155152380Y-137700300D01*
X155152380Y-137700300D02*
X154942856Y-137700300D01*
X154942856Y-137700300D02*
X154838094Y-137647920D01*
X154838094Y-137647920D02*
X154785713Y-137543158D01*
X154785713Y-137543158D02*
X154785713Y-137124110D01*
X154785713Y-137124110D02*
X154838094Y-137019348D01*
X154838094Y-137019348D02*
X154942856Y-136966967D01*
X154942856Y-136966967D02*
X155152380Y-136966967D01*
X155152380Y-136966967D02*
X155257142Y-137019348D01*
X155257142Y-137019348D02*
X155309523Y-137124110D01*
X155309523Y-137124110D02*
X155309523Y-137228872D01*
X155309523Y-137228872D02*
X154785713Y-137333634D01*
X156566665Y-136705062D02*
X156619046Y-136652681D01*
X156619046Y-136652681D02*
X156723808Y-136600300D01*
X156723808Y-136600300D02*
X156985713Y-136600300D01*
X156985713Y-136600300D02*
X157090475Y-136652681D01*
X157090475Y-136652681D02*
X157142856Y-136705062D01*
X157142856Y-136705062D02*
X157195237Y-136809824D01*
X157195237Y-136809824D02*
X157195237Y-136914586D01*
X157195237Y-136914586D02*
X157142856Y-137071729D01*
X157142856Y-137071729D02*
X156514284Y-137700300D01*
X156514284Y-137700300D02*
X157195237Y-137700300D01*
X157614284Y-136705062D02*
X157666665Y-136652681D01*
X157666665Y-136652681D02*
X157771427Y-136600300D01*
X157771427Y-136600300D02*
X158033332Y-136600300D01*
X158033332Y-136600300D02*
X158138094Y-136652681D01*
X158138094Y-136652681D02*
X158190475Y-136705062D01*
X158190475Y-136705062D02*
X158242856Y-136809824D01*
X158242856Y-136809824D02*
X158242856Y-136914586D01*
X158242856Y-136914586D02*
X158190475Y-137071729D01*
X158190475Y-137071729D02*
X157561903Y-137700300D01*
X157561903Y-137700300D02*
X158242856Y-137700300D01*
X158609522Y-136600300D02*
X159290475Y-136600300D01*
X159290475Y-136600300D02*
X158923808Y-137019348D01*
X158923808Y-137019348D02*
X159080951Y-137019348D01*
X159080951Y-137019348D02*
X159185713Y-137071729D01*
X159185713Y-137071729D02*
X159238094Y-137124110D01*
X159238094Y-137124110D02*
X159290475Y-137228872D01*
X159290475Y-137228872D02*
X159290475Y-137490777D01*
X159290475Y-137490777D02*
X159238094Y-137595539D01*
X159238094Y-137595539D02*
X159185713Y-137647920D01*
X159185713Y-137647920D02*
X159080951Y-137700300D01*
X159080951Y-137700300D02*
X158766665Y-137700300D01*
X158766665Y-137700300D02*
X158661903Y-137647920D01*
X158661903Y-137647920D02*
X158609522Y-137595539D01*
X159971427Y-136600300D02*
X160076189Y-136600300D01*
X160076189Y-136600300D02*
X160180951Y-136652681D01*
X160180951Y-136652681D02*
X160233332Y-136705062D01*
X160233332Y-136705062D02*
X160285713Y-136809824D01*
X160285713Y-136809824D02*
X160338094Y-137019348D01*
X160338094Y-137019348D02*
X160338094Y-137281253D01*
X160338094Y-137281253D02*
X160285713Y-137490777D01*
X160285713Y-137490777D02*
X160233332Y-137595539D01*
X160233332Y-137595539D02*
X160180951Y-137647920D01*
X160180951Y-137647920D02*
X160076189Y-137700300D01*
X160076189Y-137700300D02*
X159971427Y-137700300D01*
X159971427Y-137700300D02*
X159866665Y-137647920D01*
X159866665Y-137647920D02*
X159814284Y-137595539D01*
X159814284Y-137595539D02*
X159761903Y-137490777D01*
X159761903Y-137490777D02*
X159709522Y-137281253D01*
X159709522Y-137281253D02*
X159709522Y-137019348D01*
X159709522Y-137019348D02*
X159761903Y-136809824D01*
X159761903Y-136809824D02*
X159814284Y-136705062D01*
X159814284Y-136705062D02*
X159866665Y-136652681D01*
X159866665Y-136652681D02*
X159971427Y-136600300D01*
D14*
X137223810Y-129142339D02*
X137071429Y-129294720D01*
X137071429Y-129294720D02*
X136614286Y-129447100D01*
X136614286Y-129447100D02*
X136309524Y-129447100D01*
X136309524Y-129447100D02*
X135852381Y-129294720D01*
X135852381Y-129294720D02*
X135547619Y-128989958D01*
X135547619Y-128989958D02*
X135395238Y-128685196D01*
X135395238Y-128685196D02*
X135242857Y-128075672D01*
X135242857Y-128075672D02*
X135242857Y-127618529D01*
X135242857Y-127618529D02*
X135395238Y-127009005D01*
X135395238Y-127009005D02*
X135547619Y-126704243D01*
X135547619Y-126704243D02*
X135852381Y-126399481D01*
X135852381Y-126399481D02*
X136309524Y-126247100D01*
X136309524Y-126247100D02*
X136614286Y-126247100D01*
X136614286Y-126247100D02*
X137071429Y-126399481D01*
X137071429Y-126399481D02*
X137223810Y-126551862D01*
X138442857Y-128532815D02*
X139966667Y-128532815D01*
X138138095Y-129447100D02*
X139204762Y-126247100D01*
X139204762Y-126247100D02*
X140271429Y-129447100D01*
X143166667Y-129447100D02*
X142100000Y-127923291D01*
X141338095Y-129447100D02*
X141338095Y-126247100D01*
X141338095Y-126247100D02*
X142557143Y-126247100D01*
X142557143Y-126247100D02*
X142861905Y-126399481D01*
X142861905Y-126399481D02*
X143014286Y-126551862D01*
X143014286Y-126551862D02*
X143166667Y-126856624D01*
X143166667Y-126856624D02*
X143166667Y-127313767D01*
X143166667Y-127313767D02*
X143014286Y-127618529D01*
X143014286Y-127618529D02*
X142861905Y-127770910D01*
X142861905Y-127770910D02*
X142557143Y-127923291D01*
X142557143Y-127923291D02*
X141338095Y-127923291D01*
X144080952Y-126247100D02*
X145909524Y-126247100D01*
X144995238Y-129447100D02*
X144995238Y-126247100D01*
X147585714Y-126247100D02*
X148195238Y-126247100D01*
X148195238Y-126247100D02*
X148500000Y-126399481D01*
X148500000Y-126399481D02*
X148804762Y-126704243D01*
X148804762Y-126704243D02*
X148957143Y-127313767D01*
X148957143Y-127313767D02*
X148957143Y-128380434D01*
X148957143Y-128380434D02*
X148804762Y-128989958D01*
X148804762Y-128989958D02*
X148500000Y-129294720D01*
X148500000Y-129294720D02*
X148195238Y-129447100D01*
X148195238Y-129447100D02*
X147585714Y-129447100D01*
X147585714Y-129447100D02*
X147280952Y-129294720D01*
X147280952Y-129294720D02*
X146976190Y-128989958D01*
X146976190Y-128989958D02*
X146823809Y-128380434D01*
X146823809Y-128380434D02*
X146823809Y-127313767D01*
X146823809Y-127313767D02*
X146976190Y-126704243D01*
X146976190Y-126704243D02*
X147280952Y-126399481D01*
X147280952Y-126399481D02*
X147585714Y-126247100D01*
X150328571Y-126247100D02*
X150328571Y-128837577D01*
X150328571Y-128837577D02*
X150480952Y-129142339D01*
X150480952Y-129142339D02*
X150633333Y-129294720D01*
X150633333Y-129294720D02*
X150938095Y-129447100D01*
X150938095Y-129447100D02*
X151547619Y-129447100D01*
X151547619Y-129447100D02*
X151852381Y-129294720D01*
X151852381Y-129294720D02*
X152004762Y-129142339D01*
X152004762Y-129142339D02*
X152157143Y-128837577D01*
X152157143Y-128837577D02*
X152157143Y-126247100D01*
X155509524Y-129142339D02*
X155357143Y-129294720D01*
X155357143Y-129294720D02*
X154900000Y-129447100D01*
X154900000Y-129447100D02*
X154595238Y-129447100D01*
X154595238Y-129447100D02*
X154138095Y-129294720D01*
X154138095Y-129294720D02*
X153833333Y-128989958D01*
X153833333Y-128989958D02*
X153680952Y-128685196D01*
X153680952Y-128685196D02*
X153528571Y-128075672D01*
X153528571Y-128075672D02*
X153528571Y-127618529D01*
X153528571Y-127618529D02*
X153680952Y-127009005D01*
X153680952Y-127009005D02*
X153833333Y-126704243D01*
X153833333Y-126704243D02*
X154138095Y-126399481D01*
X154138095Y-126399481D02*
X154595238Y-126247100D01*
X154595238Y-126247100D02*
X154900000Y-126247100D01*
X154900000Y-126247100D02*
X155357143Y-126399481D01*
X155357143Y-126399481D02*
X155509524Y-126551862D01*
X156880952Y-129447100D02*
X156880952Y-126247100D01*
X156880952Y-127770910D02*
X158709524Y-127770910D01*
X158709524Y-129447100D02*
X158709524Y-126247100D01*
X160233333Y-127770910D02*
X161300000Y-127770910D01*
X161757143Y-129447100D02*
X160233333Y-129447100D01*
X160233333Y-129447100D02*
X160233333Y-126247100D01*
X160233333Y-126247100D02*
X161757143Y-126247100D01*
D15*
%TO.C,U4*%
X157371605Y-108495985D02*
X157371605Y-106743585D01*
X158724005Y-108495985D02*
X158724005Y-106743585D01*
D16*
X158372675Y-106309655D02*
G75*
G02*
X158222815Y-106309655I-74930J0D01*
G01*
X158222815Y-106309655D02*
G75*
G02*
X158372675Y-106309655I74930J0D01*
G01*
D17*
%TO.C,R22*%
X153036445Y-116082565D02*
X153736445Y-116082565D01*
X153036445Y-116882535D02*
X153036445Y-116082565D01*
X153036445Y-116882535D02*
X153736445Y-116882535D01*
X153936445Y-116082565D02*
X154636445Y-116082565D01*
X153936445Y-116882535D02*
X154636445Y-116882535D01*
X154636445Y-116882535D02*
X154636445Y-116082565D01*
D18*
%TO.C,C108*%
X157765995Y-101812285D02*
X158442615Y-101812285D01*
X157765995Y-102719155D02*
X158442615Y-102719155D01*
X158642615Y-101812285D02*
X159319235Y-101812285D01*
X158642615Y-102719155D02*
X159319235Y-102719155D01*
X157767924Y-102717924D02*
G75*
G02*
X157766527Y-101815708I710391J452209D01*
G01*
X159318703Y-101815708D02*
G75*
G02*
X159317306Y-102717924I-711785J-450007D01*
G01*
%TO.C,C102*%
X140104435Y-102253675D02*
X140781055Y-102253675D01*
X140104435Y-103160545D02*
X140781055Y-103160545D01*
X140981055Y-102253675D02*
X141657675Y-102253675D01*
X140981055Y-103160545D02*
X141657675Y-103160545D01*
X140106364Y-103159324D02*
G75*
G02*
X140104967Y-102257108I710391J452209D01*
G01*
X141657143Y-102257108D02*
G75*
G02*
X141655746Y-103159324I-711785J-450007D01*
G01*
D19*
%TO.C,U2*%
X146148435Y-101973295D02*
X156148435Y-101973295D01*
X146148435Y-111973295D02*
X146148435Y-101973295D01*
X146148435Y-111973295D02*
X156148435Y-111973295D01*
X156148435Y-111973295D02*
X156148435Y-101973295D01*
D20*
X156483435Y-101763295D02*
G75*
G02*
X156233435Y-101763295I-125000J0D01*
G01*
X156233435Y-101763295D02*
G75*
G02*
X156483435Y-101763295I125000J0D01*
G01*
D21*
%TO.C,U02*%
X156371785Y-98566695D02*
X159171775Y-98566695D01*
X156371785Y-98719725D02*
X156371785Y-98566695D01*
X156371785Y-101566685D02*
X156371785Y-101413655D01*
X156371785Y-101566685D02*
X159171775Y-101566685D01*
X159171775Y-98719705D02*
X159171775Y-98566695D01*
X159171775Y-101566685D02*
X159171775Y-101413675D01*
X156202695Y-98976595D02*
G75*
G02*
X156041155Y-98976595I-80770J0D01*
G01*
X156041155Y-98976595D02*
G75*
G02*
X156202695Y-98976595I80770J0D01*
G01*
D17*
%TO.C,R107*%
X140081055Y-103170725D02*
X140781055Y-103170725D01*
X140081055Y-103970705D02*
X140081055Y-103170725D01*
X140081055Y-103970705D02*
X140781055Y-103970705D01*
X140981055Y-103170725D02*
X141681055Y-103170725D01*
X140981055Y-103970705D02*
X141681055Y-103970705D01*
X141681055Y-103970705D02*
X141681055Y-103170725D01*
D18*
%TO.C,C51*%
X157790175Y-109598315D02*
X158466795Y-109598315D01*
X157790175Y-110505185D02*
X158466795Y-110505185D01*
X158666795Y-109598315D02*
X159343415Y-109598315D01*
X158666795Y-110505185D02*
X159343415Y-110505185D01*
X157790707Y-110501762D02*
G75*
G02*
X157792104Y-109599546I711785J450007D01*
G01*
X159341486Y-109599546D02*
G75*
G02*
X159342883Y-110501762I-710391J-452209D01*
G01*
%TO.C,C78*%
X144210865Y-104249405D02*
X144210865Y-103572785D01*
X144210865Y-105126025D02*
X144210865Y-104449405D01*
X145117735Y-104249405D02*
X145117735Y-103572785D01*
X145117735Y-105126025D02*
X145117735Y-104449405D01*
X144214288Y-103573317D02*
G75*
G02*
X145116504Y-103574714I450007J-711785D01*
G01*
X145116504Y-105124096D02*
G75*
G02*
X144214288Y-105125493I-452209J710391D01*
G01*
D17*
%TO.C,R104*%
X137763265Y-104860315D02*
X138563235Y-104860315D01*
X137763265Y-105560315D02*
X137763265Y-104860315D01*
X137763265Y-106460315D02*
X137763265Y-105760315D01*
X137763265Y-106460315D02*
X138563235Y-106460315D01*
X138563235Y-105560315D02*
X138563235Y-104860315D01*
X138563235Y-106460315D02*
X138563235Y-105760315D01*
D18*
%TO.C,C16*%
X157794005Y-110502915D02*
X158470625Y-110502915D01*
X157794005Y-111409785D02*
X158470625Y-111409785D01*
X158670625Y-110502915D02*
X159347245Y-110502915D01*
X158670625Y-111409785D02*
X159347245Y-111409785D01*
X157794537Y-111406352D02*
G75*
G02*
X157795934Y-110504136I711785J450007D01*
G01*
X159345316Y-110504136D02*
G75*
G02*
X159346713Y-111406352I-710391J-452209D01*
G01*
%TO.C,C8*%
X157796145Y-111418955D02*
X158472755Y-111418955D01*
X157796145Y-112325825D02*
X158472755Y-112325825D01*
X158672765Y-111418955D02*
X159349375Y-111418955D01*
X158672765Y-112325825D02*
X159349375Y-112325825D01*
X157796667Y-112322392D02*
G75*
G02*
X157798064Y-111420176I711785J450007D01*
G01*
X159347446Y-111420176D02*
G75*
G02*
X159348843Y-112322392I-710391J-452209D01*
G01*
D17*
%TO.C,R105*%
X137876565Y-104057695D02*
X138576565Y-104057695D01*
X137876565Y-104857675D02*
X137876565Y-104057695D01*
X137876565Y-104857675D02*
X138576565Y-104857675D01*
X138776565Y-104057695D02*
X139476565Y-104057695D01*
X138776565Y-104857675D02*
X139476565Y-104857675D01*
X139476565Y-104857675D02*
X139476565Y-104057695D01*
D15*
%TO.C,U01*%
X138915855Y-96500525D02*
X138915855Y-95966715D01*
X138915855Y-98119115D02*
X138915855Y-97585305D01*
X141068245Y-96500525D02*
X141068245Y-95966715D01*
X141068245Y-98119115D02*
X141068245Y-97585305D01*
D22*
X138949125Y-98397245D02*
G75*
G02*
X138748965Y-98397245I-100080J0D01*
G01*
X138748965Y-98397245D02*
G75*
G02*
X138949125Y-98397245I100080J0D01*
G01*
D15*
%TO.C,CE1*%
X154907195Y-114889725D02*
X159359615Y-114889725D01*
X154907195Y-120820215D02*
X154907195Y-113367755D01*
X154907195Y-120820215D02*
X155634225Y-120820215D01*
X158632585Y-120820215D02*
X159359615Y-120820215D01*
X159359615Y-120820215D02*
X159359615Y-113367755D01*
D23*
G36*
X155684995Y-113443985D02*
G01*
X154830995Y-113443985D01*
X154830995Y-112986785D01*
X155684995Y-112986785D01*
X155684995Y-113443985D01*
G37*
G36*
X159435815Y-113443985D02*
G01*
X158581815Y-113443985D01*
X158581815Y-112986785D01*
X159435815Y-112986785D01*
X159435815Y-113443985D01*
G37*
D18*
%TO.C,C106*%
X137905035Y-102228275D02*
X138581645Y-102228275D01*
X137905035Y-103135145D02*
X138581645Y-103135145D01*
X138781655Y-102228275D02*
X139458265Y-102228275D01*
X138781655Y-103135145D02*
X139458265Y-103135145D01*
X137905557Y-103131722D02*
G75*
G02*
X137906954Y-102229506I711785J450007D01*
G01*
X139456336Y-102229506D02*
G75*
G02*
X139457733Y-103131722I-710391J-452209D01*
G01*
D17*
%TO.C,R103*%
X137826655Y-94909975D02*
X138626625Y-94909975D01*
X137826655Y-95609975D02*
X137826655Y-94909975D01*
X137826655Y-96509985D02*
X137826655Y-95809985D01*
X137826655Y-96509985D02*
X138626625Y-96509985D01*
X138626625Y-95609975D02*
X138626625Y-94909975D01*
X138626625Y-96509985D02*
X138626625Y-95809985D01*
D24*
%TO.C,L5*%
X137551315Y-101964085D02*
X137551315Y-99424085D01*
X139791185Y-101964085D02*
X139791185Y-99424085D01*
D18*
%TO.C,C104*%
X138776615Y-94733105D02*
X138776615Y-94056495D01*
X138776615Y-95609725D02*
X138776615Y-94933115D01*
X139683485Y-94733105D02*
X139683485Y-94056495D01*
X139683485Y-95609725D02*
X139683485Y-94933115D01*
X138780038Y-94057017D02*
G75*
G02*
X139682254Y-94058414I450007J-711785D01*
G01*
X139682254Y-95607796D02*
G75*
G02*
X138780038Y-95609193I-452209J710391D01*
G01*
D17*
%TO.C,R23*%
X153032365Y-115285135D02*
X153732365Y-115285135D01*
X153032365Y-116085105D02*
X153032365Y-115285135D01*
X153032365Y-116085105D02*
X153732365Y-116085105D01*
X153932365Y-115285135D02*
X154632375Y-115285135D01*
X153932365Y-116085105D02*
X154632375Y-116085105D01*
X154632375Y-116085105D02*
X154632375Y-115285135D01*
D24*
%TO.C,USBC1*%
X144231165Y-87976565D02*
X152871125Y-87976565D01*
X144231165Y-88265515D02*
X144231165Y-87976565D01*
X144231165Y-93775405D02*
X144231165Y-91227765D01*
X145062255Y-95131565D02*
X145172665Y-95131565D01*
X148425485Y-95131565D02*
X148672655Y-95131565D01*
X151927515Y-95131565D02*
X152040035Y-95131565D01*
X152871125Y-88265515D02*
X152871125Y-87976565D01*
X152871125Y-93775405D02*
X152871125Y-91227765D01*
D18*
%TO.C,C101*%
X140105385Y-103975775D02*
X140781995Y-103975775D01*
X140105385Y-104882645D02*
X140781995Y-104882645D01*
X140982005Y-103975775D02*
X141658615Y-103975775D01*
X140982005Y-104882645D02*
X141658615Y-104882645D01*
X140107314Y-104881424D02*
G75*
G02*
X140105917Y-103979208I710391J452209D01*
G01*
X141658093Y-103979208D02*
G75*
G02*
X141656696Y-104881424I-711785J-450007D01*
G01*
D17*
%TO.C,R21*%
X153033775Y-116876955D02*
X153733775Y-116876955D01*
X153033775Y-117676935D02*
X153033775Y-116876955D01*
X153033775Y-117676935D02*
X153733775Y-117676935D01*
X153933775Y-116876955D02*
X154633785Y-116876955D01*
X153933775Y-117676935D02*
X154633785Y-117676935D01*
X154633785Y-117676935D02*
X154633785Y-116876955D01*
D24*
%TO.C,L6*%
X139786515Y-101964115D02*
X139786515Y-99424115D01*
X142026385Y-101964115D02*
X142026385Y-99424115D01*
D18*
%TO.C,C107*%
X157759535Y-97392275D02*
X158436155Y-97392275D01*
X157759535Y-98299145D02*
X158436155Y-98299145D01*
X158636155Y-97392275D02*
X159312775Y-97392275D01*
X158636155Y-98299145D02*
X159312775Y-98299145D01*
X157760067Y-98295712D02*
G75*
G02*
X157761464Y-97393496I711785J450007D01*
G01*
X159310846Y-97393496D02*
G75*
G02*
X159312243Y-98295712I-710391J-452209D01*
G01*
D17*
%TO.C,R108*%
X157739645Y-102715025D02*
X158439645Y-102715025D01*
X157739645Y-103514995D02*
X157739645Y-102715025D01*
X157739645Y-103514995D02*
X158439645Y-103514995D01*
X158639645Y-102715025D02*
X159339645Y-102715025D01*
X158639645Y-103514995D02*
X159339645Y-103514995D01*
X159339645Y-103514995D02*
X159339645Y-102715025D01*
D18*
%TO.C,C61*%
X157793245Y-105636785D02*
X158469855Y-105636785D01*
X157793245Y-106543655D02*
X158469855Y-106543655D01*
X158669865Y-105636785D02*
X159346475Y-105636785D01*
X158669865Y-106543655D02*
X159346475Y-106543655D01*
X157793777Y-106540232D02*
G75*
G02*
X157795174Y-105638016I711785J450007D01*
G01*
X159344556Y-105638016D02*
G75*
G02*
X159345953Y-106540232I-710391J-452209D01*
G01*
D15*
%TO.C,LED1*%
X153510605Y-88394245D02*
X154507805Y-88394245D01*
X153510605Y-89183145D02*
X153510605Y-88394245D01*
X153510605Y-90412025D02*
X153510605Y-89775525D01*
X153510605Y-90412025D02*
X153663005Y-90564425D01*
X153663005Y-90564425D02*
X154355405Y-90564425D01*
X154355405Y-90564425D02*
X154507805Y-90412025D01*
X154507805Y-89183145D02*
X154507805Y-88394245D01*
X154507805Y-90412025D02*
X154507805Y-89775525D01*
D18*
%TO.C,C103*%
X140326015Y-94733105D02*
X140326015Y-94056495D01*
X140326015Y-95609725D02*
X140326015Y-94933115D01*
X141232885Y-94733105D02*
X141232885Y-94056495D01*
X141232885Y-95609725D02*
X141232885Y-94933115D01*
X140329438Y-94057017D02*
G75*
G02*
X141231654Y-94058414I450007J-711785D01*
G01*
X141231654Y-95607796D02*
G75*
G02*
X140329438Y-95609193I-452209J710391D01*
G01*
%TO.C,C77*%
X144210875Y-102757605D02*
X144210875Y-102080995D01*
X144210875Y-103634225D02*
X144210875Y-102957615D01*
X145117745Y-102757605D02*
X145117745Y-102080995D01*
X145117745Y-103634225D02*
X145117745Y-102957615D01*
X144212096Y-102082924D02*
G75*
G02*
X145114312Y-102081527I452209J-710391D01*
G01*
X145114312Y-103633703D02*
G75*
G02*
X144212096Y-103632306I-450007J711785D01*
G01*
D17*
%TO.C,R106*%
X138816845Y-105901795D02*
X139516845Y-105901795D01*
X138816845Y-106701765D02*
X138816845Y-105901795D01*
X138816845Y-106701765D02*
X139516845Y-106701765D01*
X139716845Y-105901795D02*
X140416845Y-105901795D01*
X139716845Y-106701765D02*
X140416845Y-106701765D01*
X140416845Y-106701765D02*
X140416845Y-105901795D01*
D18*
%TO.C,C105*%
X137900415Y-103152545D02*
X138577035Y-103152545D01*
X137900415Y-104059415D02*
X138577035Y-104059415D01*
X138777035Y-103152545D02*
X139453655Y-103152545D01*
X138777035Y-104059415D02*
X139453655Y-104059415D01*
X137900947Y-104055982D02*
G75*
G02*
X137902344Y-103153766I711785J450007D01*
G01*
X139451726Y-103153766D02*
G75*
G02*
X139453123Y-104055982I-710391J-452209D01*
G01*
%TO.C,C109*%
X156269045Y-97397835D02*
X156945665Y-97397835D01*
X156269045Y-98304705D02*
X156945665Y-98304705D01*
X157145665Y-97397835D02*
X157822285Y-97397835D01*
X157145665Y-98304705D02*
X157822285Y-98304705D01*
X156270974Y-98303484D02*
G75*
G02*
X156269577Y-97401268I710391J452209D01*
G01*
X157821753Y-97401268D02*
G75*
G02*
X157820356Y-98303484I-711785J-450007D01*
G01*
%TO.C,C59*%
X157787175Y-108692195D02*
X158463785Y-108692195D01*
X157787175Y-109599065D02*
X158463785Y-109599065D01*
X158663795Y-108692195D02*
X159340405Y-108692195D01*
X158663795Y-109599065D02*
X159340405Y-109599065D01*
X157787697Y-109595632D02*
G75*
G02*
X157789094Y-108693416I711785J450007D01*
G01*
X159338476Y-108693416D02*
G75*
G02*
X159339873Y-109595632I-710391J-452209D01*
G01*
D17*
%TO.C,R109*%
X158586795Y-103753855D02*
X159386775Y-103753855D01*
X158586795Y-104453865D02*
X158586795Y-103753855D01*
X158586795Y-105353865D02*
X158586795Y-104653865D01*
X158586795Y-105353865D02*
X159386775Y-105353865D01*
X159386775Y-104453865D02*
X159386775Y-103753855D01*
X159386775Y-105353865D02*
X159386775Y-104653865D01*
D25*
%TO.C,X1*%
X142369165Y-102496505D02*
X144169165Y-102496505D01*
X142369165Y-104696505D02*
X142369165Y-102496505D01*
X142369165Y-104696505D02*
X144119175Y-104696505D01*
X143769215Y-104945905D02*
X144419455Y-104945905D01*
X144119175Y-104696505D02*
X144169165Y-104696505D01*
X144169165Y-104696505D02*
X144169165Y-102496505D01*
X144419455Y-104945905D02*
X144419455Y-104247405D01*
%TD*%
%LPC*%
D26*
%TO.C,U4*%
X158297815Y-106902285D03*
X157797795Y-106902285D03*
X157797795Y-108337285D03*
X158297815Y-108337285D03*
D27*
X158047805Y-107619785D03*
%TD*%
D28*
%TO.C,C72*%
X145532865Y-98694105D03*
X145532865Y-99243915D03*
%TD*%
D29*
%TO.C,R22*%
X153411445Y-116482555D03*
X154261445Y-116482555D03*
%TD*%
D30*
%TO.C,R25*%
X144833675Y-97468985D03*
X144283865Y-97468985D03*
%TD*%
D31*
%TO.C,C108*%
X158967615Y-102265735D03*
X158117615Y-102265705D03*
%TD*%
%TO.C,C102*%
X141306055Y-102707125D03*
X140456055Y-102707105D03*
%TD*%
D28*
%TO.C,C65*%
X149326605Y-98694105D03*
X149326605Y-99243915D03*
%TD*%
D32*
%TO.C,U2*%
X155748435Y-102373295D03*
X155748435Y-102833295D03*
X155748435Y-103293295D03*
X155748435Y-103753295D03*
X155748435Y-104213295D03*
X155748435Y-104673295D03*
X155748435Y-105133295D03*
X155748435Y-105593295D03*
X155748435Y-106053295D03*
X155748435Y-106513295D03*
X155748435Y-106973295D03*
X155748435Y-107433295D03*
X155748435Y-107893295D03*
X155748435Y-108353295D03*
X155748435Y-108813295D03*
X155748435Y-109273295D03*
X155748435Y-109733295D03*
X155748435Y-110193295D03*
X155748435Y-110653295D03*
X155748435Y-111113295D03*
X155748435Y-111573295D03*
X146548435Y-102373295D03*
X146548435Y-102833295D03*
X146548435Y-103293295D03*
X146548435Y-103753295D03*
X146548435Y-104213295D03*
X146548435Y-104673295D03*
X146548435Y-105133295D03*
X146548435Y-105593295D03*
X146548435Y-106053295D03*
X146548435Y-106513295D03*
X146548435Y-106973295D03*
X146548435Y-107433295D03*
X146548435Y-107893295D03*
X146548435Y-108353295D03*
X146548435Y-108813295D03*
X146548435Y-109273295D03*
X146548435Y-109733295D03*
X146548435Y-110193295D03*
X146548435Y-110653295D03*
X146548435Y-111113295D03*
X146548435Y-111573295D03*
X155288435Y-102373295D03*
X155288435Y-102833295D03*
X155288435Y-103293295D03*
X155288435Y-103753295D03*
X155288435Y-104213295D03*
X155288435Y-104673295D03*
X155288435Y-105133295D03*
X155288435Y-105593295D03*
X155288435Y-106053295D03*
X155288435Y-106513295D03*
X155288435Y-106973295D03*
X155288435Y-107433295D03*
X155288435Y-107893295D03*
X155288435Y-108353295D03*
X155288435Y-108813295D03*
X155288435Y-109273295D03*
X155288435Y-109733295D03*
X155288435Y-110193295D03*
X155288435Y-110653295D03*
X155288435Y-111113295D03*
X155288435Y-111573295D03*
X154828435Y-102373295D03*
X154828435Y-102833295D03*
X154828435Y-111113295D03*
X154828435Y-111573295D03*
X154368435Y-102373295D03*
X154368435Y-102833295D03*
X154398415Y-103723295D03*
X154398415Y-104373295D03*
X154398415Y-105023295D03*
X154398415Y-105673285D03*
X154398415Y-106323285D03*
X154398415Y-106973285D03*
X154398415Y-107623285D03*
X154398415Y-108273285D03*
X154398415Y-108923285D03*
X154398415Y-109573285D03*
X154398415Y-110223285D03*
X154368435Y-111113295D03*
X154368435Y-111573295D03*
X153908435Y-102373295D03*
X153908435Y-102833295D03*
X153748425Y-103723295D03*
X153748425Y-104373295D03*
X153748425Y-105023295D03*
X153748425Y-105673285D03*
X153748425Y-106323285D03*
X153748425Y-106973285D03*
X153748425Y-107623285D03*
X153748425Y-108273285D03*
X153748425Y-108923285D03*
X153748425Y-109573285D03*
X153748425Y-110223285D03*
X153908435Y-111113295D03*
X153908435Y-111573295D03*
X153448435Y-102373295D03*
X153448435Y-102833295D03*
X153098425Y-103723295D03*
X153098425Y-104373295D03*
X153098425Y-105023295D03*
X153098425Y-105673285D03*
X153098425Y-106323285D03*
X153098425Y-106973285D03*
X153098425Y-107623285D03*
X153098425Y-108273285D03*
X153098425Y-108923285D03*
X153098425Y-109573285D03*
X153098425Y-110223285D03*
X153448435Y-111113295D03*
X153448435Y-111573295D03*
X152988435Y-102373295D03*
X152988435Y-102833295D03*
X152988435Y-111113295D03*
X152988435Y-111573295D03*
X152528435Y-102373295D03*
X152528435Y-102833295D03*
X152448425Y-103723295D03*
X152448425Y-104373295D03*
X152448425Y-105023295D03*
X152448425Y-105673285D03*
X152448425Y-106323285D03*
X152448425Y-106973285D03*
X152448425Y-107623285D03*
X152448425Y-108273285D03*
X152448425Y-108923285D03*
X152448425Y-109573285D03*
X152448425Y-110223285D03*
X152528435Y-111113295D03*
X152528435Y-111573295D03*
X152068435Y-102373295D03*
X152068435Y-102833295D03*
X151798425Y-103723295D03*
X151798425Y-104373295D03*
X151798425Y-105023295D03*
X151798425Y-105673285D03*
X151798425Y-106323285D03*
X151798425Y-106973285D03*
X151798425Y-107623285D03*
X151798425Y-108273285D03*
X151798425Y-108923285D03*
X151798425Y-109573285D03*
X151798425Y-110223285D03*
X152068435Y-111113295D03*
X152068435Y-111573295D03*
X151608435Y-102373295D03*
X151608435Y-102833295D03*
X151608435Y-111113295D03*
X151608435Y-111573295D03*
X151148435Y-102373295D03*
X151148435Y-102833295D03*
X151148425Y-103723295D03*
X151148425Y-104373295D03*
X151148425Y-105023295D03*
X151148425Y-105673285D03*
X151148425Y-106323285D03*
X151148425Y-106973285D03*
X151148425Y-107623285D03*
X151148425Y-108273285D03*
X151148425Y-108923285D03*
X151148425Y-109573285D03*
X151148425Y-110223285D03*
X151148435Y-111113295D03*
X151148435Y-111573295D03*
X150688435Y-102373295D03*
X150688435Y-102833295D03*
X150688435Y-111113295D03*
X150688435Y-111573295D03*
X150228435Y-102373295D03*
X150228435Y-102833295D03*
X150498425Y-103723295D03*
X150498425Y-104373295D03*
X150498425Y-105023295D03*
X150498425Y-105673285D03*
X150498425Y-106323285D03*
X150498425Y-106973285D03*
X150498425Y-107623285D03*
X150498425Y-108273285D03*
X150498425Y-108923285D03*
X150498425Y-109573285D03*
X150498425Y-110223285D03*
X150228435Y-111113295D03*
X150228435Y-111573295D03*
X149768435Y-102373295D03*
X149768435Y-102833295D03*
X149848425Y-103723295D03*
X149848425Y-104373295D03*
X149848425Y-105023295D03*
X149848425Y-105673285D03*
X149848425Y-106323285D03*
X149848425Y-106973285D03*
X149848425Y-107623285D03*
X149848425Y-108273285D03*
X149848425Y-108923285D03*
X149848425Y-109573285D03*
X149848425Y-110223285D03*
X149768435Y-111113295D03*
X149768435Y-111573295D03*
X149308435Y-102373295D03*
X149308435Y-102833295D03*
X149308435Y-111113295D03*
X149308435Y-111573295D03*
X148848435Y-102373295D03*
X148848435Y-102833295D03*
X149198425Y-103723295D03*
X149198425Y-104373295D03*
X149198425Y-105023295D03*
X149198425Y-105673285D03*
X149198425Y-106323285D03*
X149198425Y-106973285D03*
X149198425Y-107623285D03*
X149198425Y-108273285D03*
X149198425Y-108923285D03*
X149198425Y-109573285D03*
X149198425Y-110223285D03*
X148848435Y-111113295D03*
X148848435Y-111573295D03*
X148388435Y-102373295D03*
X148388435Y-102833295D03*
X148548435Y-103723295D03*
X148548435Y-104373295D03*
X148548435Y-105023295D03*
X148548435Y-105673285D03*
X148548435Y-106323285D03*
X148548435Y-106973285D03*
X148548435Y-107623285D03*
X148548435Y-108273285D03*
X148548435Y-108923285D03*
X148548435Y-109573285D03*
X148548435Y-110223285D03*
X148388435Y-111113295D03*
X148388435Y-111573295D03*
X147928435Y-102373295D03*
X147928435Y-102833295D03*
X147898435Y-103723295D03*
X147898435Y-104373295D03*
X147898435Y-105023295D03*
X147898435Y-105673285D03*
X147898435Y-106323285D03*
X147898435Y-106973285D03*
X147898435Y-107623285D03*
X147898435Y-108273285D03*
X147898435Y-108923285D03*
X147898435Y-109573285D03*
X147898435Y-110223285D03*
X147928435Y-111113295D03*
X147928435Y-111573295D03*
X147468435Y-102373295D03*
X147468435Y-102833295D03*
X147468435Y-111113295D03*
X147468435Y-111573295D03*
X147008435Y-102373295D03*
X147008435Y-102833295D03*
X147008435Y-103293295D03*
X147008435Y-103753295D03*
X147008435Y-104213295D03*
X147008435Y-104673295D03*
X147008435Y-105133295D03*
X147008435Y-105593295D03*
X147008435Y-106053295D03*
X147008435Y-106513295D03*
X147008435Y-106973295D03*
X147008435Y-107433295D03*
X147008435Y-107893295D03*
X147008435Y-108353295D03*
X147008435Y-108813295D03*
X147008435Y-109273295D03*
X147008435Y-109733295D03*
X147008435Y-110193295D03*
X147008435Y-110653295D03*
X147008435Y-111113295D03*
X147008435Y-111573295D03*
%TD*%
D33*
%TO.C,U02*%
X156646685Y-99091665D03*
X156646685Y-99741645D03*
X156646685Y-100391635D03*
X156646685Y-101041615D03*
X158896875Y-101041615D03*
X158896875Y-100391635D03*
X158896875Y-99741645D03*
X158896875Y-99091665D03*
D34*
X157771905Y-100066765D03*
%TD*%
D35*
%TO.C,R27*%
X145473145Y-97468985D03*
X146022955Y-97468985D03*
%TD*%
D31*
%TO.C,R107*%
X141306055Y-103570715D03*
X140456055Y-103570715D03*
%TD*%
D29*
%TO.C,C51*%
X158141795Y-110051735D03*
X158991795Y-110051765D03*
%TD*%
D36*
%TO.C,C78*%
X144664305Y-103924405D03*
X144664285Y-104774405D03*
%TD*%
D30*
%TO.C,R29*%
X149377405Y-97468985D03*
X148827595Y-97468985D03*
%TD*%
D36*
%TO.C,R104*%
X138163245Y-105235315D03*
X138163245Y-106085315D03*
%TD*%
D29*
%TO.C,C16*%
X158145635Y-110956335D03*
X158995625Y-110956355D03*
%TD*%
%TO.C,C8*%
X158147765Y-111872375D03*
X158997755Y-111872395D03*
%TD*%
D28*
%TO.C,C73*%
X144770865Y-98694105D03*
X144770865Y-99243915D03*
%TD*%
D31*
%TO.C,R105*%
X139101565Y-104457685D03*
X138251565Y-104457685D03*
%TD*%
D37*
%TO.C,U01*%
X139241985Y-97950455D03*
X139742115Y-97950455D03*
X140241985Y-97950455D03*
X140742115Y-97950455D03*
D38*
X140899595Y-97292845D03*
X140899595Y-96792975D03*
D37*
X140742115Y-96135375D03*
X140241985Y-96135375D03*
X139742115Y-96135375D03*
X139241985Y-96135375D03*
D38*
X139084505Y-96792975D03*
X139084505Y-97292845D03*
D39*
X139992045Y-97042915D03*
%TD*%
D40*
%TO.C,CE1*%
X157133405Y-113582695D03*
X157133405Y-120605285D03*
%TD*%
D29*
%TO.C,C106*%
X138256655Y-102681705D03*
X139106645Y-102681725D03*
%TD*%
D41*
%TO.C,R103*%
X138226645Y-96134975D03*
X138226645Y-95284985D03*
%TD*%
D28*
%TO.C,C55*%
X149945205Y-114918575D03*
X149945205Y-115468385D03*
%TD*%
D42*
%TO.C,L5*%
X138671245Y-99844105D03*
X138671245Y-101544095D03*
%TD*%
D28*
%TO.C,C56*%
X150707205Y-114918575D03*
X150707205Y-115468385D03*
%TD*%
D36*
%TO.C,C104*%
X139230065Y-94408105D03*
X139230035Y-95258105D03*
%TD*%
D29*
%TO.C,R23*%
X153407365Y-115685115D03*
X154257365Y-115685115D03*
%TD*%
D35*
%TO.C,R31*%
X150021345Y-97468985D03*
X150571155Y-97468985D03*
%TD*%
D43*
%TO.C,USBC1*%
X152871075Y-95106545D03*
D44*
X152871075Y-89746475D03*
D43*
X144231215Y-95106545D03*
D44*
X144231215Y-89746455D03*
D45*
X151551135Y-95566515D03*
X151051135Y-95566515D03*
X150551135Y-95566515D03*
X150051145Y-95566515D03*
X149551145Y-95566515D03*
X149051145Y-95566515D03*
X148051145Y-95566515D03*
X147551145Y-95566515D03*
X147051015Y-95566515D03*
X146551145Y-95566515D03*
X146051025Y-95566515D03*
X145551145Y-95566515D03*
D46*
X145451075Y-94216525D03*
D47*
X146301215Y-94216525D03*
X146801085Y-94216525D03*
X147301205Y-94216525D03*
X147801085Y-94216525D03*
X148301205Y-94216525D03*
X148801075Y-94216525D03*
X149301205Y-94216525D03*
X149801075Y-94216525D03*
X150301205Y-94216525D03*
X150801075Y-94216525D03*
D46*
X151651215Y-94216525D03*
%TD*%
D31*
%TO.C,C101*%
X141307005Y-104429225D03*
X140457005Y-104429195D03*
%TD*%
D29*
%TO.C,R21*%
X153408775Y-117276945D03*
X154258775Y-117276945D03*
%TD*%
D28*
%TO.C,C52*%
X143662605Y-115004975D03*
X143662605Y-115554785D03*
%TD*%
D48*
%TO.C,L6*%
X140906445Y-101544095D03*
X140906445Y-99844105D03*
%TD*%
D29*
%TO.C,C107*%
X158111155Y-97845695D03*
X158961155Y-97845715D03*
%TD*%
%TO.C,R108*%
X158114645Y-103115015D03*
X158964645Y-103115015D03*
%TD*%
%TO.C,C61*%
X158144865Y-106090205D03*
X158994865Y-106090235D03*
%TD*%
D49*
%TO.C,LED1*%
X154009205Y-88941085D03*
X154009205Y-90017585D03*
%TD*%
D28*
%TO.C,C64*%
X150088605Y-98694105D03*
X150088605Y-99243915D03*
%TD*%
%TO.C,C54*%
X148386445Y-115754605D03*
X148386445Y-116304415D03*
%TD*%
D36*
%TO.C,C103*%
X140779465Y-94408105D03*
X140779435Y-95258105D03*
%TD*%
D41*
%TO.C,C77*%
X144664295Y-103282605D03*
X144664315Y-102432615D03*
%TD*%
D50*
%TO.C,H1*%
X148500000Y-145000000D03*
%TD*%
D29*
%TO.C,R106*%
X139191845Y-106301775D03*
X140041845Y-106301775D03*
%TD*%
D51*
%TO.C,J18*%
X140496405Y-90950785D03*
%TD*%
D29*
%TO.C,C105*%
X138252035Y-103605965D03*
X139102035Y-103605985D03*
%TD*%
D51*
%TO.C,J17*%
X156496425Y-90950785D03*
%TD*%
D28*
%TO.C,C48*%
X141626705Y-117256715D03*
X141626705Y-117806515D03*
%TD*%
D31*
%TO.C,C109*%
X157470665Y-97851285D03*
X156620665Y-97851265D03*
%TD*%
D29*
%TO.C,C59*%
X158138795Y-109145615D03*
X158988785Y-109145635D03*
%TD*%
D28*
%TO.C,C53*%
X147624445Y-115754605D03*
X147624445Y-116304415D03*
%TD*%
%TO.C,C49*%
X142388705Y-117256715D03*
X142388705Y-117806515D03*
%TD*%
D36*
%TO.C,R109*%
X158986785Y-104128865D03*
X158986785Y-104978865D03*
%TD*%
D52*
%TO.C,X1*%
X143669165Y-104146515D03*
X143669165Y-103046515D03*
X142869165Y-103046515D03*
X142869165Y-104146515D03*
%TD*%
D28*
%TO.C,C50*%
X142900605Y-115004975D03*
X142900605Y-115554785D03*
%TD*%
D53*
%TO.C,CN1*%
X138505045Y-115646185D03*
D54*
X158505005Y-115646185D03*
%TD*%
%LPD*%
M02*
